<svg width="150" height="70" viewBox="0 0 150 70" fill="none" xmlns="http://www.w3.org/2000/svg">
<path d="M41.638 43.5V28.065H45.04C46.384 28.065 47.462 28.261 48.274 28.653C49.086 29.045 49.674 29.591 50.038 30.291C50.402 30.977 50.584 31.768 50.584 32.664C50.584 34.302 50.108 35.569 49.156 36.465C48.204 37.347 46.762 37.788 44.83 37.788H44.011V43.5H41.638ZM44.011 35.709H44.893C45.817 35.709 46.517 35.562 46.993 35.268C47.469 34.974 47.791 34.61 47.959 34.176C48.127 33.742 48.211 33.322 48.211 32.916C48.211 32.426 48.12 31.971 47.938 31.551C47.756 31.131 47.441 30.788 46.993 30.522C46.545 30.256 45.915 30.123 45.103 30.123H44.011V35.709ZM51.7976 43.5V33.861H54.0656V35.751C54.2896 35.121 54.6466 34.61 55.1366 34.218C55.6406 33.812 56.2216 33.609 56.8796 33.609C57.3276 33.609 57.6356 33.651 57.8036 33.735L57.4886 36.024C57.3626 35.94 57.0896 35.898 56.6696 35.898C56.3196 35.898 55.9416 35.975 55.5356 36.129C55.1296 36.283 54.7796 36.556 54.4856 36.948C54.2056 37.326 54.0656 37.858 54.0656 38.544V43.5H51.7976ZM63.1968 43.71C62.1888 43.71 61.2998 43.486 60.5298 43.038C59.7738 42.59 59.1858 41.981 58.7658 41.211C58.3458 40.441 58.1358 39.587 58.1358 38.649C58.1358 37.725 58.3388 36.885 58.7448 36.129C59.1648 35.359 59.7528 34.75 60.5088 34.302C61.2648 33.84 62.1608 33.609 63.1968 33.609C64.2328 33.609 65.1288 33.84 65.8848 34.302C66.6408 34.75 67.2218 35.359 67.6278 36.129C68.0338 36.885 68.2368 37.725 68.2368 38.649C68.2368 39.587 68.0268 40.441 67.6068 41.211C67.2008 41.981 66.6198 42.59 65.8638 43.038C65.1078 43.486 64.2188 43.71 63.1968 43.71ZM63.2598 41.862C64.0998 41.862 64.7438 41.554 65.1918 40.938C65.6538 40.322 65.8848 39.573 65.8848 38.691C65.8848 38.089 65.7728 37.55 65.5488 37.074C65.3248 36.584 65.0028 36.192 64.5828 35.898C64.1768 35.604 63.6938 35.457 63.1338 35.457C62.5878 35.457 62.1188 35.604 61.7268 35.898C61.3348 36.192 61.0268 36.584 60.8028 37.074C60.5928 37.55 60.4878 38.089 60.4878 38.691C60.4878 39.279 60.6068 39.818 60.8448 40.308C61.0828 40.784 61.4048 41.162 61.8108 41.442C62.2308 41.722 62.7138 41.862 63.2598 41.862ZM68.8871 48.624C68.3691 48.624 67.8091 48.547 67.2071 48.393L67.6901 46.356C67.9421 46.454 68.1591 46.531 68.3411 46.587C68.5231 46.643 68.7191 46.671 68.9291 46.671C69.2091 46.671 69.4401 46.622 69.6221 46.524C69.8181 46.44 69.9651 46.258 70.0631 45.978C70.1751 45.712 70.2311 45.306 70.2311 44.76V33.861H72.4991V44.865C72.4991 46.097 72.1771 47.028 71.5331 47.658C70.9031 48.302 70.0211 48.624 68.8871 48.624ZM71.3231 32.055C70.8891 32.055 70.5251 31.908 70.2311 31.614C69.9511 31.32 69.8111 30.956 69.8111 30.522C69.8111 30.13 69.9511 29.794 70.2311 29.514C70.5251 29.234 70.8891 29.094 71.3231 29.094C71.7571 29.094 72.1141 29.234 72.3941 29.514C72.6881 29.794 72.8351 30.13 72.8351 30.522C72.8351 30.956 72.6881 31.32 72.3941 31.614C72.1141 31.908 71.7571 32.055 71.3231 32.055ZM79.6103 43.71C78.4063 43.71 77.4263 43.479 76.6703 43.017C75.9143 42.541 75.3613 41.918 75.0113 41.148C74.6613 40.378 74.4863 39.559 74.4863 38.691C74.4863 37.641 74.6963 36.738 75.1163 35.982C75.5503 35.226 76.1453 34.645 76.9013 34.239C77.6573 33.819 78.5113 33.609 79.4633 33.609C80.9893 33.609 82.1023 34.036 82.8023 34.89C83.5023 35.73 83.8523 36.864 83.8523 38.292C83.8523 38.67 83.8313 39.062 83.7893 39.468H76.8593C77.0133 40.336 77.3213 40.959 77.7833 41.337C78.2593 41.701 78.8893 41.883 79.6733 41.883C80.4293 41.883 81.0243 41.813 81.4583 41.673C81.8923 41.533 82.2493 41.393 82.5293 41.253L83.2223 42.87C82.9423 43.052 82.5083 43.241 81.9203 43.437C81.3323 43.619 80.5623 43.71 79.6103 43.71ZM76.8593 37.893H81.6473C81.6613 36.983 81.4583 36.36 81.0383 36.024C80.6183 35.688 80.0723 35.52 79.4003 35.52C78.7003 35.52 78.1263 35.709 77.6783 36.087C77.2443 36.451 76.9713 37.053 76.8593 37.893ZM90.409 43.71C89.471 43.71 88.617 43.507 87.847 43.101C87.091 42.695 86.482 42.107 86.02 41.337C85.572 40.567 85.348 39.643 85.348 38.565C85.348 37.557 85.551 36.682 85.957 35.94C86.377 35.198 86.958 34.624 87.7 34.218C88.456 33.812 89.324 33.609 90.304 33.609C91.116 33.609 91.781 33.714 92.299 33.924C92.831 34.134 93.23 34.358 93.496 34.596L92.488 36.423C92.432 36.353 92.32 36.248 92.152 36.108C91.984 35.968 91.76 35.842 91.48 35.73C91.214 35.604 90.885 35.541 90.493 35.541C89.569 35.541 88.876 35.821 88.414 36.381C87.966 36.941 87.742 37.662 87.742 38.544C87.742 39.566 87.98 40.371 88.456 40.959C88.946 41.533 89.625 41.82 90.493 41.82C90.955 41.82 91.389 41.757 91.795 41.631C92.201 41.491 92.509 41.344 92.719 41.19L93.538 42.786C93.286 42.982 92.887 43.185 92.341 43.395C91.795 43.605 91.151 43.71 90.409 43.71ZM96.2223 43.5V35.709H94.5213V33.861H96.2223V29.934L98.5113 29.43V33.861H100.737V35.709H98.5113V43.5H96.2223ZM105.255 43.71C104.807 43.71 104.338 43.668 103.848 43.584C103.372 43.5 102.931 43.395 102.525 43.269C102.133 43.129 101.832 42.982 101.622 42.828L102.378 41.043C102.616 41.211 102.973 41.4 103.449 41.61C103.939 41.82 104.541 41.925 105.255 41.925C105.885 41.925 106.312 41.834 106.536 41.652C106.76 41.456 106.872 41.232 106.872 40.98C106.872 40.714 106.774 40.511 106.578 40.371C106.396 40.217 106.13 40.077 105.78 39.951C105.43 39.825 105.017 39.671 104.541 39.489C104.079 39.293 103.638 39.069 103.218 38.817C102.798 38.551 102.455 38.229 102.189 37.851C101.937 37.459 101.811 36.983 101.811 36.423C101.811 35.513 102.161 34.82 102.861 34.344C103.561 33.854 104.485 33.609 105.633 33.609C106.221 33.609 106.788 33.672 107.334 33.798C107.894 33.924 108.314 34.085 108.594 34.281L107.775 36.087C107.607 35.919 107.327 35.765 106.935 35.625C106.557 35.485 106.102 35.415 105.57 35.415C104.576 35.415 104.079 35.716 104.079 36.318C104.079 36.612 104.184 36.85 104.394 37.032C104.618 37.2 104.905 37.347 105.255 37.473C105.619 37.585 106.011 37.725 106.431 37.893C107.285 38.229 107.936 38.621 108.384 39.069C108.846 39.503 109.077 40.084 109.077 40.812C109.077 41.47 108.902 42.016 108.552 42.45C108.202 42.884 107.733 43.206 107.145 43.416C106.571 43.612 105.941 43.71 105.255 43.71Z" fill="white"/>
</svg>
