<svg width="129" height="54" viewBox="0 0 129 54" fill="none" xmlns="http://www.w3.org/2000/svg">
<path d="M32.5296 17.2728H34.1225V35H32.5296V26.8301H21.3537V35H19.7866V17.2728H21.3537V25.3399H32.5296V17.2728ZM38.8068 18.8143C38.2159 18.8143 37.7277 18.3518 37.7277 17.7352C37.7277 17.1443 38.2159 16.6819 38.8068 16.6819C39.4234 16.6819 39.9115 17.1443 39.9115 17.7352C39.9115 18.3518 39.4234 18.8143 38.8068 18.8143ZM38.0617 35V21.8973H39.5518V35H38.0617ZM49.6691 21.6917H50.0545V23.2332H49.6691C46.6632 23.2332 44.7363 25.1858 44.7363 28.2431V35H43.2462V21.8973H44.7363V24.6463C45.6869 22.7965 47.434 21.6917 49.6691 21.6917ZM64.2861 28.4486C64.2861 28.6542 64.2604 28.8854 64.2347 29.0909H52.211C52.5193 31.917 54.7802 33.921 57.7861 33.921C59.9185 33.921 61.7426 32.8933 62.6932 31.4289L63.7465 32.3024C62.4876 34.1522 60.3039 35.3083 57.7347 35.3083C53.6754 35.3083 50.6438 32.3281 50.6438 28.4229C50.6438 24.5178 53.5727 21.589 57.4778 21.589C61.3572 21.589 64.2861 24.5178 64.2861 28.4486ZM57.4521 22.9763C54.6517 22.9763 52.5193 24.9546 52.211 27.755H62.7189C62.4106 24.9546 60.2525 22.9763 57.4521 22.9763ZM88.8956 21.589C91.9272 21.589 93.9055 23.5672 93.9055 26.5731V35H92.4154V26.9842C92.4154 24.5949 90.8739 23.0277 88.4846 23.0277C86.0182 23.0277 84.3739 24.6206 84.3739 27.0356V35H82.8838V26.9842C82.8838 24.5949 81.3166 23.0277 78.953 23.0277C76.4866 23.0277 74.8166 24.6206 74.8166 27.0356V35H73.3265V21.8973H74.8166V24.0554C75.7415 22.4882 77.3344 21.589 79.3897 21.589C81.5992 21.589 83.2692 22.668 83.9885 24.4664C84.862 22.6423 86.6091 21.589 88.8956 21.589ZM110.223 28.4486C110.223 28.6542 110.197 28.8854 110.172 29.0909H98.1478C98.4561 31.917 100.717 33.921 103.723 33.921C105.855 33.921 107.679 32.8933 108.63 31.4289L109.683 32.3024C108.424 34.1522 106.241 35.3083 103.672 35.3083C99.6122 35.3083 96.5806 32.3281 96.5806 28.4229C96.5806 24.5178 99.5095 21.589 103.415 21.589C107.294 21.589 110.223 24.5178 110.223 28.4486ZM103.389 22.9763C100.589 22.9763 98.4561 24.9546 98.1478 27.755H108.656C108.347 24.9546 106.189 22.9763 103.389 22.9763Z" fill="white"/>
</svg>
