<svg width="134" height="70" viewBox="0 0 134 70" fill="none" xmlns="http://www.w3.org/2000/svg">
<rect y="0.5" width="134" height="69" rx="34.5" fill="#95D1F9"/>
<path d="M41.617 43.5V28.065H43.969V34.365H49.408V28.065H51.76V43.5H49.408V36.339H43.969V43.5H41.617ZM58.7745 43.71C57.7665 43.71 56.8775 43.486 56.1075 43.038C55.3515 42.59 54.7635 41.981 54.3435 41.211C53.9235 40.441 53.7135 39.587 53.7135 38.649C53.7135 37.725 53.9165 36.885 54.3225 36.129C54.7425 35.359 55.3305 34.75 56.0865 34.302C56.8425 33.84 57.7385 33.609 58.7745 33.609C59.8105 33.609 60.7065 33.84 61.4625 34.302C62.2185 34.75 62.7995 35.359 63.2055 36.129C63.6115 36.885 63.8145 37.725 63.8145 38.649C63.8145 39.587 63.6045 40.441 63.1845 41.211C62.7785 41.981 62.1975 42.59 61.4415 43.038C60.6855 43.486 59.7965 43.71 58.7745 43.71ZM58.8375 41.862C59.6775 41.862 60.3215 41.554 60.7695 40.938C61.2315 40.322 61.4625 39.573 61.4625 38.691C61.4625 38.089 61.3505 37.55 61.1265 37.074C60.9025 36.584 60.5805 36.192 60.1605 35.898C59.7545 35.604 59.2715 35.457 58.7115 35.457C58.1655 35.457 57.6965 35.604 57.3045 35.898C56.9125 36.192 56.6045 36.584 56.3805 37.074C56.1705 37.55 56.0655 38.089 56.0655 38.691C56.0655 39.279 56.1845 39.818 56.4225 40.308C56.6605 40.784 56.9825 41.162 57.3885 41.442C57.8085 41.722 58.2915 41.862 58.8375 41.862ZM65.7165 43.5V33.861H67.9845V35.604C68.3065 34.918 68.7685 34.414 69.3705 34.092C69.9725 33.77 70.6445 33.609 71.3865 33.609C72.3385 33.623 73.0595 33.791 73.5495 34.113C74.0395 34.435 74.3755 34.862 74.5575 35.394C74.8655 34.848 75.3275 34.414 75.9435 34.092C76.5595 33.77 77.2105 33.609 77.8965 33.609C78.9465 33.609 79.7235 33.812 80.2275 34.218C80.7455 34.61 81.0815 35.184 81.2355 35.94C81.4035 36.682 81.4875 37.592 81.4875 38.67V43.5H79.1985V38.649C79.1985 37.571 79.0865 36.773 78.8625 36.255C78.6525 35.737 78.2045 35.478 77.5185 35.478C76.5945 35.478 75.9155 35.786 75.4815 36.402C75.0475 37.018 74.8305 37.788 74.8305 38.712V43.5H72.5625V38.313C72.5625 37.711 72.5345 37.2 72.4785 36.78C72.4365 36.36 72.2895 36.038 72.0375 35.814C71.7995 35.59 71.3865 35.478 70.7985 35.478C70.3085 35.478 69.8465 35.625 69.4125 35.919C68.9925 36.213 68.6495 36.605 68.3835 37.095C68.1315 37.571 68.0055 38.11 68.0055 38.712V43.5H65.7165ZM88.436 43.71C87.232 43.71 86.252 43.479 85.496 43.017C84.74 42.541 84.187 41.918 83.837 41.148C83.487 40.378 83.312 39.559 83.312 38.691C83.312 37.641 83.522 36.738 83.942 35.982C84.376 35.226 84.971 34.645 85.727 34.239C86.483 33.819 87.337 33.609 88.289 33.609C89.815 33.609 90.928 34.036 91.628 34.89C92.328 35.73 92.678 36.864 92.678 38.292C92.678 38.67 92.657 39.062 92.615 39.468H85.685C85.839 40.336 86.147 40.959 86.609 41.337C87.085 41.701 87.715 41.883 88.499 41.883C89.255 41.883 89.85 41.813 90.284 41.673C90.718 41.533 91.075 41.393 91.355 41.253L92.048 42.87C91.768 43.052 91.334 43.241 90.746 43.437C90.158 43.619 89.388 43.71 88.436 43.71ZM85.685 37.893H90.473C90.487 36.983 90.284 36.36 89.864 36.024C89.444 35.688 88.898 35.52 88.226 35.52C87.526 35.52 86.952 35.709 86.504 36.087C86.07 36.451 85.797 37.053 85.685 37.893Z" fill="white"/>
</svg>
