<svg width="89" height="64" viewBox="0 0 89 64" fill="none" xmlns="http://www.w3.org/2000/svg">
<g clip-path="url(#clip0_26_1162)">
<path d="M4.18872 38.3807L6.56919 35.784C7.61418 37.1063 8.84939 37.821 10.0588 37.8222C11.919 37.8222 12.8764 37.0013 12.878 34.462L12.8843 26.0813L5.74215 26.0741L5.74492 22.5558L17.0326 22.5646L17.0235 34.8073C17.0207 38.4411 15.2529 41.4471 10.1936 41.4443C8.16462 41.4431 5.78177 40.6383 4.18872 38.3807Z" fill="white"/>
<path d="M20.0473 22.7274L32.1695 22.7367L32.1667 26.2538L24.184 26.2477L24.1813 29.9652L30.9636 29.9705L30.9609 33.4876L24.1785 33.4823L24.1753 37.7479L32.439 37.7544L32.4362 41.2727L20.0326 41.263L20.0473 22.7274Z" fill="white"/>
<path d="M35.439 32.0944C35.4437 25.9495 39.2829 22.3861 44.1817 22.3901C46.5 22.3901 48.401 23.5145 49.637 24.7519L47.356 27.3455C46.4841 26.5254 45.5006 26.0139 44.179 26.0127C41.5829 26.0127 39.6855 28.2469 39.6831 31.9596C39.68 35.7696 41.5738 37.9821 44.3327 37.9861C45.6515 37.9861 46.7405 37.331 47.6286 36.3523L49.9048 38.8916C48.412 40.6799 46.3649 41.6119 43.9032 41.6099C39.3574 41.6042 35.4342 38.3483 35.439 32.0944Z" fill="white"/>
<path d="M67.3454 41.274L63.2154 33.8543C65.1682 32.9606 66.4756 31.2342 66.4776 28.5111C66.4811 24.1014 63.2942 22.734 59.4202 22.7308L52.9188 22.726L52.9049 41.2616L57.052 41.2648L57.0568 34.5972H59.2308L62.7153 41.2672L67.3454 41.274ZM57.0631 26.0587H59.0806C61.2554 26.0587 62.4216 26.6765 62.42 28.5062C62.42 30.3207 61.2514 31.268 59.0766 31.2664H57.0591L57.0631 26.0587Z" fill="white"/>
<path d="M70.3453 32.0944C70.3501 25.9495 74.1893 22.3861 79.0881 22.3901C81.4064 22.3901 83.3073 23.5145 84.5433 24.7519L82.2623 27.3455C81.3905 26.5254 80.4069 26.0139 79.0853 26.0127C76.4893 26.0127 74.5919 28.2469 74.5895 31.9596C74.5863 35.7696 76.4802 37.9821 79.2391 37.9861C80.5579 37.9861 81.6469 37.331 82.535 36.3523L84.8112 38.8916C83.3184 40.6799 81.2712 41.6119 78.8095 41.6099C74.2638 41.6042 70.3406 38.3483 70.3453 32.0944Z" fill="white"/>
</g>
<defs>
<clipPath id="clip0_26_1162">
<rect width="80.6225" height="19.2197" fill="white" transform="translate(4.18872 22.3901)"/>
</clipPath>
</defs>
</svg>
