<svg width="911" height="323" viewBox="0 0 911 323" fill="none" xmlns="http://www.w3.org/2000/svg">
<g clip-path="url(#clip0_150_114)">
<g clip-path="url(#clip1_150_114)">
<path d="M430.41 74H422.91V73.2383H425.254V57.1836H422.91V56.4219H430.41V57.1836H428.066V64.5078H436.767V57.1836H434.423V56.4219H441.923V57.1836H439.58V73.2383H441.162C441.259 73.2383 441.357 73.248 441.455 73.2676C441.767 73.3262 441.923 73.5703 441.923 74H434.423V73.2383H436.767V65.3574H428.066V73.2383H429.648C429.746 73.2383 429.843 73.248 429.941 73.2676C430.254 73.3262 430.41 73.5703 430.41 74ZM449.852 61.9297C449.384 61.9297 448.944 62.0371 448.534 62.252C447.206 62.9355 446.503 64.4297 446.425 66.7344L449.296 66.8223C450.155 66.8418 450.829 66.793 451.317 66.6758C452.177 66.4609 452.606 65.875 452.606 64.918C452.606 64.5078 452.548 64.1172 452.43 63.7461C452.04 62.5352 451.18 61.9297 449.852 61.9297ZM455.038 71.1582C454.921 71.4121 454.794 71.666 454.657 71.9199C453.661 73.502 452.069 74.293 449.882 74.293C448.573 74.293 447.401 73.9707 446.366 73.3262C444.55 72.1543 443.641 70.3184 443.641 67.8184C443.641 66.3926 443.954 65.1328 444.579 64.0391C445.692 62.1445 447.43 61.1973 449.794 61.1973C451.044 61.1973 452.157 61.4609 453.134 61.9883C454.54 62.7891 455.243 63.8828 455.243 65.2695C455.243 65.9336 455.018 66.4609 454.569 66.8516C453.886 67.3984 452.294 67.6523 449.794 67.6133L446.425 67.5547C446.444 68.2773 446.503 68.9414 446.6 69.5469C447.069 72.1641 448.339 73.4727 450.409 73.4727C450.702 73.4727 451.005 73.4434 451.317 73.3848C452.684 73.0918 453.68 72.2617 454.305 70.8945L455.038 71.1582ZM462.879 73.2676C462.977 73.2676 463.074 73.2773 463.172 73.2969C463.445 73.3359 463.582 73.5703 463.582 74H456.58V73.2676C457.225 73.2676 457.703 73.2188 458.016 73.1211C458.543 72.9453 458.807 72.418 458.807 71.5391V55.6895H456.58V54.957H461.297V73.2676H462.879ZM471.042 73.2676C471.14 73.2676 471.238 73.2773 471.335 73.2969C471.609 73.3359 471.745 73.5703 471.745 74H464.743V73.2676C465.388 73.2676 465.866 73.2188 466.179 73.1211C466.706 72.9453 466.97 72.418 466.97 71.5391V55.6895H464.743V54.957H469.46V73.2676H471.042ZM475.954 67.7305C475.973 71.5781 477.204 73.5215 479.645 73.5605C482.008 73.541 483.2 71.5586 483.219 67.6133C483.2 63.8633 481.989 61.9688 479.586 61.9297C477.184 61.9492 475.973 63.8828 475.954 67.7305ZM479.674 61.1973C481.061 61.1973 482.301 61.5684 483.395 62.3105C485.153 63.5215 486.032 65.3184 486.032 67.7012C486.032 69.498 485.465 71.0117 484.332 72.2422C483.082 73.6094 481.491 74.293 479.557 74.293C478.151 74.293 476.881 73.8828 475.748 73.0625C474.03 71.8125 473.17 69.9961 473.17 67.6133C473.17 65.875 473.717 64.4102 474.811 63.2188C476.08 61.8711 477.702 61.1973 479.674 61.1973Z" fill="black"/>
</g>
<rect x="388.5" y="41.5" width="133" height="49" rx="24.5" stroke="black"/>
<path d="M195.234 183H167.734V180.207H176.328V121.34H167.734V118.547H195.234V121.34H186.64V180.207H192.441C192.799 180.207 193.157 180.243 193.515 180.314C194.661 180.529 195.234 181.424 195.234 183ZM214.209 120.373C213.851 125.458 211.488 130.542 207.119 135.627L204.863 133.908C207.871 130.757 209.411 128.179 209.482 126.174C209.411 125.314 208.587 124.67 207.012 124.24C206.797 124.169 206.582 124.097 206.367 124.025C203.646 123.166 202.285 121.411 202.285 118.762C202.285 117.902 202.464 117.079 202.822 116.291C203.825 114.071 205.508 112.961 207.871 112.961C208.516 112.961 209.196 113.068 209.912 113.283C212.777 114.143 214.209 116.506 214.209 120.373ZM241.67 180.314C242.028 180.314 242.386 180.35 242.745 180.422C243.747 180.565 244.248 181.424 244.248 183H220.508V180.314C222.585 180.314 224.161 180.171 225.235 179.885C227.24 179.24 228.243 177.271 228.243 173.977V139.924H220.508V137.238H236.836L237.266 147.229C237.911 145.796 238.662 144.436 239.522 143.146C242.959 138.42 247.399 136.057 252.842 136.057C254.203 136.057 255.528 136.307 256.817 136.809C261.114 138.456 263.942 141.965 265.303 147.336C265.661 146.477 266.055 145.653 266.485 144.865C269.851 138.993 274.541 136.057 280.557 136.057C283.064 136.057 285.391 136.701 287.539 137.99C292.338 140.998 294.737 146.118 294.737 153.352V180.314H299.786C300.215 180.314 300.573 180.35 300.86 180.422C301.934 180.565 302.471 181.424 302.471 183H278.623V180.314C280.772 180.314 282.347 180.135 283.35 179.777C284.854 179.133 285.606 177.199 285.606 173.977V152.277C285.606 150.057 285.284 148.088 284.639 146.369C283.207 142.574 280.7 140.676 277.12 140.676C275.902 140.676 274.649 140.998 273.36 141.643C269.636 143.505 267.201 147.049 266.055 152.277V153.459V180.314H270.245C270.674 180.314 271.032 180.35 271.319 180.422C272.393 180.565 272.93 181.424 272.93 183H249.942V180.314C252.09 180.314 253.666 180.135 254.668 179.777C256.101 179.133 256.817 177.199 256.817 173.977V152.277C256.817 150.272 256.566 148.446 256.065 146.799C254.776 142.86 252.412 140.891 248.975 140.891C247.113 140.891 245.287 141.571 243.496 142.932C239.558 145.868 237.517 150.451 237.373 156.682V180.314H241.67ZM129.462 278.811C122.658 282.32 115.569 284.074 108.192 284.074C97.8081 284.074 89.4292 280.744 83.0555 274.084C77.1115 267.782 74.1395 260.012 74.1395 250.773C74.1395 242.967 76.3953 236.057 80.907 230.041C87.2807 221.662 96.4832 217.473 108.514 217.473C116.034 217.473 122.909 219.156 129.139 222.521C129.068 221.376 129.104 220.445 129.247 219.729C129.605 218.583 130.715 218.01 132.577 218.01L132.899 239.172H129.139C127.994 235.018 126.669 231.617 125.165 228.967C121.942 223.452 116.965 220.695 110.233 220.695C97.4858 220.767 91.0763 230.614 91.0047 250.236C91.0047 256.252 91.4344 261.301 92.2938 265.383C94.5854 275.695 100.279 280.852 109.374 280.852C111.666 280.852 113.742 280.601 115.604 280.1C122.336 278.238 127.027 272.329 129.677 262.375H133.221V283.537C132.434 283.537 131.789 283.465 131.288 283.322C129.999 283.036 129.39 281.532 129.462 278.811ZM163.691 280.207C164.12 280.207 164.514 280.243 164.872 280.314C165.803 280.458 166.269 281.353 166.269 283H135.868V280.207C136.799 280.207 137.623 280.135 138.339 279.992C140.846 279.562 142.099 277.772 142.099 274.621V239.602H135.868V236.809H154.667L155.419 246.799C156.207 244.794 157.353 242.932 158.857 241.213C162.223 237.704 166.126 235.949 170.566 235.949C171.497 235.949 172.392 236.057 173.251 236.271C176.76 237.202 178.515 239.458 178.515 243.039C178.515 244.042 178.3 245.008 177.87 245.939C176.653 248.661 174.612 250.021 171.747 250.021C170.888 250.021 170.1 249.914 169.384 249.699C167.88 249.126 166.484 247.694 165.195 245.402C164.264 243.755 163.404 242.932 162.616 242.932C162.187 242.932 161.721 243.039 161.22 243.254C158.069 244.901 156.243 249.484 155.741 257.004V280.207H163.691ZM204.687 237.99C198.958 238.205 195.843 244.257 195.341 256.145L202.216 256.467C205.081 256.61 207.229 256.431 208.662 255.93C210.667 255.142 211.67 253.065 211.67 249.699C211.598 242.036 209.27 238.133 204.687 237.99ZM224.775 271.936C224.345 273.081 223.772 274.191 223.056 275.266C219.404 281.138 213.388 284.074 205.009 284.074C200.283 284.074 196.058 283.107 192.334 281.174C184.528 277.092 180.625 269.859 180.625 259.475C180.625 253.101 182.343 247.766 185.781 243.469C190.293 237.954 196.595 235.197 204.687 235.197C209.127 235.197 213.102 235.949 216.611 237.453C222.841 240.246 225.957 244.686 225.957 250.773C225.957 251.991 225.742 253.101 225.312 254.104C223.45 258.114 216.754 259.94 205.224 259.582L195.341 259.26C195.413 263.413 195.771 266.994 196.416 270.002C198.063 277.307 201.751 280.959 207.48 280.959C209.27 280.959 211.025 280.637 212.744 279.992C217.041 278.417 220.192 275.445 222.197 271.076L224.775 271.936ZM268.564 284.074C262.835 283.716 259.219 280.458 257.715 274.299C257.357 275.301 256.891 276.268 256.318 277.199C253.454 281.783 248.978 284.074 242.891 284.074C240.885 284.074 239.059 283.824 237.412 283.322C231.826 281.532 229.033 277.45 229.033 271.076C229.105 261.695 238.343 256.825 256.748 256.467V249.484C256.748 247.408 256.605 245.617 256.318 244.113C255.602 240.031 253.561 237.99 250.195 237.99C249.193 237.99 248.298 238.169 247.51 238.527C246.292 239.243 245.29 241.034 244.502 243.898C244.215 244.901 244.001 245.617 243.857 246.047C242.783 249.055 240.706 250.559 237.627 250.559C236.911 250.559 236.23 250.451 235.586 250.236C232.936 249.52 231.611 247.766 231.611 244.973C231.611 243.755 231.934 242.609 232.578 241.535C235.085 237.31 241.208 235.197 250.947 235.197C253.454 235.197 255.781 235.448 257.93 235.949C266.237 238.026 270.391 243.54 270.391 252.492V274.943C270.391 278.381 271.178 280.171 272.754 280.314C274.831 280.243 276.084 277.736 276.514 272.795L279.307 272.902C279.092 275.122 278.77 276.949 278.34 278.381C277.051 282.176 273.792 284.074 268.564 284.074ZM248.477 279.455C248.978 279.455 249.551 279.348 250.195 279.133C253.203 277.987 255.387 274.908 256.748 269.895V259.475C253.525 259.618 250.876 260.012 248.799 260.656C244.932 262.089 242.998 265.168 242.998 269.895C243.07 276.125 244.896 279.312 248.477 279.455ZM279.805 240.139V237.346H287.217V227.141L300.86 224.885V237.346H315.039V240.139H300.86V272.688C300.86 273.618 300.931 274.514 301.075 275.373C301.648 279.097 303.259 280.959 305.909 280.959C306.338 280.959 306.768 280.923 307.198 280.852C309.991 280.279 312.103 277.092 313.536 271.291L316.436 271.721C315.863 274.657 315.075 277.02 314.073 278.811C311.996 282.391 308.2 284.182 302.686 284.182C301.827 284.182 300.967 284.146 300.108 284.074C291.514 283.072 287.217 277.378 287.217 266.994V240.139H279.805ZM341.856 280.207C342.286 280.207 342.68 280.243 343.038 280.314C343.969 280.458 344.434 281.353 344.434 283H318.009V280.207C318.94 280.207 319.763 280.135 320.479 279.992C322.986 279.562 324.239 277.772 324.239 274.621V239.602H318.009V236.809H337.882V280.207H341.856ZM338.848 222.736C338.848 224.097 338.49 225.386 337.774 226.604C336.27 229.253 333.943 230.578 330.792 230.578C329.503 230.578 328.249 230.256 327.032 229.611C324.239 228.179 322.843 225.887 322.843 222.736C322.843 221.376 323.165 220.087 323.809 218.869C325.385 216.076 327.712 214.68 330.792 214.68C332.152 214.68 333.442 215.038 334.659 215.754C337.452 217.258 338.848 219.585 338.848 222.736ZM369.962 239.494H362.657L374.474 271.936L387.15 239.494H378.341V236.809H395.743C395.743 238.026 395.672 238.85 395.529 239.279C395.385 239.423 394.741 239.494 393.595 239.494C393.165 239.494 392.736 239.53 392.306 239.602C391.16 239.816 390.229 240.819 389.513 242.609L373.937 283.537H370.07C368.566 283.537 367.42 283.286 366.632 282.785C365.701 282.141 364.448 279.777 362.872 275.695L349.337 239.494H345.148V236.809H369.962V239.494ZM421.593 237.99C415.864 238.205 412.749 244.257 412.248 256.145L419.123 256.467C421.987 256.61 424.136 256.431 425.568 255.93C427.573 255.142 428.576 253.065 428.576 249.699C428.504 242.036 426.177 238.133 421.593 237.99ZM441.681 271.936C441.252 273.081 440.679 274.191 439.963 275.266C436.31 281.138 430.295 284.074 421.916 284.074C417.189 284.074 412.964 283.107 409.24 281.174C401.434 277.092 397.531 269.859 397.531 259.475C397.531 253.101 399.25 247.766 402.687 243.469C407.199 237.954 413.501 235.197 421.593 235.197C426.033 235.197 430.008 235.949 433.517 237.453C439.748 240.246 442.863 244.686 442.863 250.773C442.863 251.991 442.648 253.101 442.218 254.104C440.356 258.114 433.66 259.94 422.13 259.582L412.248 259.26C412.319 263.413 412.677 266.994 413.322 270.002C414.969 277.307 418.657 280.959 424.386 280.959C426.177 280.959 427.931 280.637 429.65 279.992C433.947 278.417 437.098 275.445 439.103 271.076L441.681 271.936ZM465.237 218.547H496.926C504.875 218.547 511.822 220.445 517.766 224.24C526.789 230.113 531.301 239.029 531.301 250.988C531.301 260.37 528.15 268.033 521.848 273.977C515.403 279.992 507.203 283 497.248 283H465.237V280.1H473.83V221.447H465.237V218.547ZM497.248 221.447H488.87V280.1H497.034C500.399 280.1 503.228 279.419 505.52 278.059C511.464 274.549 514.436 265.347 514.436 250.451C514.436 243.003 513.72 237.023 512.288 232.512C509.781 225.135 504.768 221.447 497.248 221.447ZM559.944 280.207C560.374 280.207 560.768 280.243 561.126 280.314C562.057 280.458 562.522 281.353 562.522 283H536.096V280.207C537.027 280.207 537.851 280.135 538.567 279.992C541.074 279.562 542.327 277.772 542.327 274.621V239.602H536.096V236.809H555.97V280.207H559.944ZM556.936 222.736C556.936 224.097 556.578 225.386 555.862 226.604C554.358 229.253 552.031 230.578 548.88 230.578C547.591 230.578 546.337 230.256 545.12 229.611C542.327 228.179 540.93 225.887 540.93 222.736C540.93 221.376 541.253 220.087 541.897 218.869C543.473 216.076 545.8 214.68 548.88 214.68C550.24 214.68 551.529 215.038 552.747 215.754C555.54 217.258 556.936 219.585 556.936 222.736ZM592.991 280.207C593.421 280.207 593.815 280.243 594.173 280.314C595.104 280.458 595.57 281.353 595.57 283H565.169V280.207C566.1 280.207 566.924 280.135 567.64 279.992C570.146 279.562 571.4 277.772 571.4 274.621V239.602H565.169V236.809H583.968L584.72 246.799C585.508 244.794 586.654 242.932 588.157 241.213C591.523 237.704 595.426 235.949 599.866 235.949C600.797 235.949 601.693 236.057 602.552 236.271C606.061 237.202 607.816 239.458 607.816 243.039C607.816 244.042 607.601 245.008 607.171 245.939C605.954 248.661 603.913 250.021 601.048 250.021C600.189 250.021 599.401 249.914 598.685 249.699C597.181 249.126 595.784 247.694 594.495 245.402C593.564 243.755 592.705 242.932 591.917 242.932C591.488 242.932 591.022 243.039 590.521 243.254C587.37 244.901 585.544 249.484 585.042 257.004V280.207H592.991ZM633.988 237.99C628.259 238.205 625.144 244.257 624.642 256.145L631.517 256.467C634.382 256.61 636.53 256.431 637.963 255.93C639.968 255.142 640.97 253.065 640.97 249.699C640.899 242.036 638.571 238.133 633.988 237.99ZM654.076 271.936C653.646 273.081 653.073 274.191 652.357 275.266C648.705 281.138 642.689 284.074 634.31 284.074C629.584 284.074 625.358 283.107 621.634 281.174C613.828 277.092 609.925 269.859 609.925 259.475C609.925 253.101 611.644 247.766 615.082 243.469C619.593 237.954 625.895 235.197 633.988 235.197C638.428 235.197 642.403 235.949 645.912 237.453C652.142 240.246 655.257 244.686 655.257 250.773C655.257 251.991 655.043 253.101 654.613 254.104C652.751 258.114 646.055 259.94 634.525 259.582L624.642 259.26C624.714 263.413 625.072 266.994 625.716 270.002C627.364 277.307 631.052 280.959 636.781 280.959C638.571 280.959 640.326 280.637 642.045 279.992C646.341 278.417 649.492 275.445 651.498 271.076L654.076 271.936ZM659.408 259.797C659.408 252.779 661.521 247.049 665.746 242.609C670.473 237.668 676.632 235.197 684.223 235.197C689.809 235.197 694.464 236.307 698.188 238.527C701.983 240.891 703.881 243.648 703.881 246.799C703.881 247.372 703.809 247.945 703.666 248.518C702.807 251.239 700.551 252.6 696.898 252.6C695.18 252.6 693.819 252.242 692.816 251.525C691.527 250.594 690.668 248.482 690.238 245.188C690.023 243.827 689.844 242.86 689.701 242.287C688.985 239.351 687.051 237.883 683.9 237.883C682.325 237.883 680.964 238.205 679.818 238.85C676.023 241.141 674.125 248.303 674.125 260.334C674.125 266.35 674.734 271.005 675.951 274.299C677.598 278.739 680.893 280.959 685.834 280.959C687.696 280.959 689.558 280.673 691.42 280.1C696.218 278.596 699.62 275.695 701.625 271.398L704.418 272.15C703.702 274.012 702.663 275.731 701.303 277.307C697.292 281.818 691.563 284.074 684.115 284.074C679.317 284.074 675.056 283.179 671.332 281.389C663.383 277.45 659.408 270.253 659.408 259.797ZM704.916 240.139V237.346H712.329V227.141L725.971 224.885V237.346H740.151V240.139H725.971V272.688C725.971 273.618 726.043 274.514 726.186 275.373C726.759 279.097 728.37 280.959 731.02 280.959C731.45 280.959 731.879 280.923 732.309 280.852C735.102 280.279 737.215 277.092 738.647 271.291L741.547 271.721C740.974 274.657 740.187 277.02 739.184 278.811C737.107 282.391 733.312 284.182 727.797 284.182C726.938 284.182 726.079 284.146 725.219 284.074C716.625 283.072 712.329 277.378 712.329 266.994V240.139H704.916ZM758.374 259.689C758.374 266.421 758.804 271.327 759.663 274.406C760.952 278.99 763.817 281.281 768.257 281.281C770.763 281.281 772.804 280.529 774.38 279.025C777.101 276.304 778.462 269.715 778.462 259.26C778.462 252.743 778.032 247.98 777.173 244.973C775.884 240.318 772.947 237.99 768.364 237.99C765.643 237.99 763.53 238.814 762.026 240.461C759.591 243.254 758.374 249.663 758.374 259.689ZM768.901 235.197C775.06 235.197 780.324 236.88 784.692 240.246C790.35 244.758 793.179 251.024 793.179 259.045C793.179 265.061 791.388 270.36 787.807 274.943C783.009 281.031 776.385 284.074 767.934 284.074C761.776 284.074 756.476 282.212 752.036 278.488C746.45 273.762 743.657 267.352 743.657 259.26C743.657 253.531 745.304 248.518 748.598 244.221C753.325 238.205 760.093 235.197 768.901 235.197ZM824.722 280.207C825.152 280.207 825.545 280.243 825.904 280.314C826.834 280.458 827.3 281.353 827.3 283H796.9V280.207C797.831 280.207 798.654 280.135 799.37 279.992C801.877 279.562 803.13 277.772 803.13 274.621V239.602H796.9V236.809H815.698L816.45 246.799C817.238 244.794 818.384 242.932 819.888 241.213C823.254 237.704 827.157 235.949 831.597 235.949C832.528 235.949 833.423 236.057 834.282 236.271C837.792 237.202 839.546 239.458 839.546 243.039C839.546 244.042 839.331 245.008 838.902 245.939C837.684 248.661 835.643 250.021 832.779 250.021C831.919 250.021 831.131 249.914 830.415 249.699C828.911 249.126 827.515 247.694 826.226 245.402C825.295 243.755 824.435 242.932 823.648 242.932C823.218 242.932 822.752 243.039 822.251 243.254C819.1 244.901 817.274 249.484 816.773 257.004V280.207H824.722Z" fill="black"/>
<path d="M357.394 183.537H355.89C354.529 183.537 353.455 183.286 352.667 182.785C351.665 182.069 350.376 179.598 348.8 175.373L328.175 121.34H321.945V118.547H347.189V121.34H338.595L357.823 171.076L375.441 121.34H366.847V118.547H384.894V121.34H379.523L357.394 183.537ZM425.138 184.074C419.982 184.003 416.938 180.744 416.007 174.299C415.363 175.874 414.396 177.342 413.107 178.703C409.67 182.284 405.337 184.074 400.109 184.074C397.961 184.074 395.955 183.716 394.093 183C389.152 181.066 386.681 177.271 386.681 171.613C386.681 170.682 386.753 169.823 386.896 169.035C388.4 160.871 398.068 156.753 415.9 156.682V149.914C415.828 142.609 412.606 138.885 406.232 138.742C403.511 138.742 401.47 139.673 400.109 141.535C399.894 141.893 399.285 143.469 398.283 146.262C397.423 148.553 396.027 149.699 394.093 149.699C393.664 149.699 393.198 149.663 392.697 149.592C390.548 149.09 389.474 147.694 389.474 145.402C389.474 144.185 389.904 142.967 390.763 141.75C393.485 137.954 398.999 136.057 407.306 136.057C418.979 136.128 424.888 141.607 425.031 152.492V175.158C425.102 178.667 426.033 180.493 427.824 180.637C430.044 180.565 431.405 177.951 431.906 172.795L434.699 172.902C434.627 174.12 434.52 175.266 434.377 176.34C433.374 181.496 430.295 184.074 425.138 184.074ZM404.084 179.67C405.373 179.67 406.733 179.383 408.166 178.811C412.104 176.949 414.683 173.547 415.9 168.605V159.689C410.887 159.761 406.984 160.119 404.191 160.764C398.892 162.053 396.242 165.096 396.242 169.895C396.242 170.682 396.278 171.434 396.349 172.15C396.994 177.163 399.572 179.67 404.084 179.67ZM457.863 180.314C458.293 180.314 458.651 180.35 458.938 180.422C460.012 180.565 460.549 181.424 460.549 183H436.594V180.314C438.671 180.314 440.246 180.171 441.32 179.885C443.326 179.24 444.328 177.271 444.328 173.977V139.924H436.594V137.238H452.922L453.352 147.336C454.068 145.546 455.035 143.934 456.252 142.502C459.761 138.205 464.165 136.057 469.465 136.057C471.971 136.057 474.335 136.665 476.555 137.883C481.711 140.747 484.289 145.939 484.289 153.459V180.314H489.338C489.768 180.314 490.126 180.35 490.412 180.422C491.486 180.565 492.023 181.424 492.023 183H467.746V180.314C469.823 180.314 471.363 180.135 472.365 179.777C474.227 179.133 475.158 177.199 475.158 173.977V152.277C475.158 150.415 474.908 148.697 474.406 147.121C472.974 142.967 470.074 140.891 465.705 140.891C463.843 140.891 461.981 141.464 460.119 142.609C455.822 145.474 453.602 150.165 453.459 156.682V180.314H457.863ZM513.362 181.174C518.303 181.174 521.526 179.634 523.03 176.555C523.531 175.552 523.782 174.514 523.782 173.439C523.782 170.288 521.562 167.603 517.121 165.383C516.19 164.882 514.651 164.165 512.502 163.234C506.773 160.799 502.942 158.508 501.008 156.359C499.003 154.068 498 151.382 498 148.303C498 143.218 500.793 139.602 506.379 137.453C509.029 136.522 511.894 136.057 514.973 136.057C519.843 136.057 523.961 137.059 527.327 139.064C527.327 136.988 527.828 135.806 528.83 135.52C529.189 135.448 529.654 135.412 530.227 135.412V148.84H527.327C527.183 142.251 523.531 138.921 516.37 138.85C511.213 138.85 507.991 140.425 506.702 143.576C506.415 144.436 506.272 145.295 506.272 146.154C506.272 149.234 508.456 151.848 512.825 153.996C513.827 154.497 515.367 155.178 517.444 156.037C523.245 158.4 527.112 160.62 529.045 162.697C531.122 165.061 532.161 167.854 532.161 171.076C532.161 177.02 529.045 180.959 522.815 182.893C520.38 183.68 517.73 184.074 514.866 184.074C509.495 184.003 504.84 182.749 500.901 180.314C500.901 182.176 500.435 183.251 499.504 183.537C499.075 183.609 498.573 183.645 498 183.645V167.316H501.116C501.259 176.483 505.341 181.102 513.362 181.174ZM559.514 180.314C559.944 180.314 560.302 180.35 560.589 180.422C561.663 180.565 562.2 181.424 562.2 183H537.815V180.314C539.964 180.314 541.539 180.171 542.542 179.885C544.475 179.24 545.442 177.271 545.442 173.977V115.861H537.815V113.176H554.68V147.121C555.397 145.259 556.435 143.54 557.796 141.965C561.376 138.026 565.852 136.057 571.223 136.057C573.443 136.057 575.52 136.522 577.454 137.453C582.825 140.103 585.51 145.438 585.51 153.459V180.314H590.452C590.882 180.314 591.24 180.35 591.526 180.422C592.6 180.565 593.137 181.424 593.137 183H569.505V180.314C571.725 180.314 573.3 180.1 574.231 179.67C575.592 179.025 576.272 177.128 576.272 173.977V153.137C576.272 150.988 575.986 149.09 575.413 147.443C573.837 143.218 570.901 141.105 566.604 141.105C564.814 141.105 563.024 141.643 561.233 142.717C556.865 145.367 554.68 149.986 554.68 156.574V180.314H559.514ZM619.525 180.314C619.954 180.314 620.312 180.35 620.599 180.422C621.673 180.565 622.21 181.424 622.21 183H597.181V180.314C599.329 180.314 600.941 180.171 602.015 179.885C604.235 179.24 605.345 177.271 605.345 173.977V139.924H597.181V137.238H614.476V180.314H619.525ZM615.657 121.877C615.657 122.808 615.443 123.739 615.013 124.67C613.867 127.033 612.005 128.215 609.427 128.215C608.496 128.215 607.601 128.036 606.741 127.678C604.306 126.532 603.089 124.598 603.089 121.877C603.089 120.946 603.304 120.015 603.734 119.084C604.879 116.721 606.777 115.539 609.427 115.539C610.358 115.539 611.289 115.754 612.22 116.184C614.512 117.401 615.657 119.299 615.657 121.877ZM648.812 180.314C649.17 180.314 649.528 180.35 649.886 180.422C650.961 180.565 651.498 181.424 651.498 183H626.576V180.314C628.724 180.314 630.336 180.171 631.41 179.885C633.558 179.24 634.632 177.271 634.632 173.977V115.861H626.576V113.176H643.763V160.012L665.355 139.924H657.298V137.238H675.56C675.56 137.596 675.524 137.954 675.453 138.312C675.31 139.387 674.45 139.924 672.875 139.924C672.158 139.924 671.514 139.995 670.941 140.139C669.652 140.425 667.754 141.75 665.248 144.113L655.472 153.244L672.767 180.314H676.312C676.742 180.314 677.136 180.35 677.494 180.422C678.425 180.637 678.89 181.496 678.89 183H663.959L649.134 159.26L643.763 164.309V180.314H648.812ZM718.061 184.074C712.904 184.003 709.861 180.744 708.93 174.299C708.285 175.874 707.318 177.342 706.029 178.703C702.592 182.284 698.259 184.074 693.031 184.074C690.883 184.074 688.878 183.716 687.016 183C682.074 181.066 679.604 177.271 679.604 171.613C679.604 170.682 679.675 169.823 679.818 169.035C681.322 160.871 690.99 156.753 708.822 156.682V149.914C708.751 142.609 705.528 138.885 699.154 138.742C696.433 138.742 694.392 139.673 693.031 141.535C692.816 141.893 692.208 143.469 691.205 146.262C690.346 148.553 688.949 149.699 687.016 149.699C686.586 149.699 686.12 149.663 685.619 149.592C683.471 149.09 682.396 147.694 682.396 145.402C682.396 144.185 682.826 142.967 683.686 141.75C686.407 137.954 691.921 136.057 700.229 136.057C711.902 136.128 717.81 141.607 717.953 152.492V175.158C718.025 178.667 718.956 180.493 720.746 180.637C722.966 180.565 724.327 177.951 724.828 172.795L727.621 172.902C727.549 174.12 727.442 175.266 727.299 176.34C726.296 181.496 723.217 184.074 718.061 184.074ZM697.006 179.67C698.295 179.67 699.656 179.383 701.088 178.811C705.027 176.949 707.605 173.547 708.822 168.605V159.689C703.809 159.761 699.906 160.119 697.113 160.764C691.814 162.053 689.164 165.096 689.164 169.895C689.164 170.682 689.2 171.434 689.271 172.15C689.916 177.163 692.494 179.67 697.006 179.67ZM743.266 178.703C742.98 183.716 740.616 188.765 736.176 193.85L733.92 192.238C736.928 189.087 738.468 186.509 738.539 184.504C738.468 183.573 737.608 182.893 735.961 182.463C735.603 182.391 735.245 182.284 734.887 182.141C732.524 181.21 731.342 179.527 731.342 177.092C731.342 176.232 731.521 175.409 731.879 174.621C732.882 172.329 734.565 171.184 736.928 171.184C737.573 171.184 738.217 171.291 738.862 171.506C741.798 172.365 743.266 174.764 743.266 178.703Z" fill="#48B6FF"/>
</g>
<defs>
<clipPath id="clip0_150_114">
<rect width="911" height="323" fill="white"/>
</clipPath>
<clipPath id="clip1_150_114">
<rect x="388" y="41" width="134" height="50" rx="25" fill="white"/>
</clipPath>
</defs>
</svg>
