<svg width="145" height="70" viewBox="0 0 145 70" fill="none" xmlns="http://www.w3.org/2000/svg">
<path d="M45.187 43.71C44.599 43.71 44.018 43.64 43.444 43.5C42.87 43.346 42.359 43.164 41.911 42.954C41.463 42.73 41.127 42.506 40.903 42.282L42.016 40.287C42.17 40.413 42.408 40.581 42.73 40.791C43.066 40.987 43.451 41.162 43.885 41.316C44.319 41.47 44.753 41.547 45.187 41.547C45.901 41.547 46.496 41.379 46.972 41.043C47.462 40.707 47.707 40.217 47.707 39.573C47.707 39.041 47.567 38.6 47.287 38.25C47.007 37.9 46.636 37.592 46.174 37.326C45.726 37.06 45.236 36.808 44.704 36.57C44.186 36.318 43.689 36.038 43.213 35.73C42.667 35.366 42.191 34.883 41.785 34.281C41.379 33.679 41.176 32.902 41.176 31.95C41.176 31.012 41.386 30.242 41.806 29.64C42.24 29.038 42.807 28.59 43.507 28.296C44.221 27.988 44.998 27.834 45.838 27.834C46.51 27.834 47.084 27.904 47.56 28.044C48.036 28.184 48.435 28.352 48.757 28.548C49.079 28.744 49.331 28.919 49.513 29.073L48.4 30.984C48.162 30.732 47.805 30.501 47.329 30.291C46.853 30.067 46.321 29.955 45.733 29.955C45.047 29.955 44.501 30.116 44.095 30.438C43.689 30.746 43.486 31.208 43.486 31.824C43.486 32.37 43.668 32.839 44.032 33.231C44.396 33.609 44.858 33.959 45.418 34.281C45.992 34.589 46.58 34.904 47.182 35.226C47.784 35.548 48.316 35.926 48.778 36.36C49.156 36.696 49.478 37.116 49.744 37.62C50.01 38.124 50.143 38.691 50.143 39.321C50.143 40.273 49.919 41.078 49.471 41.736C49.037 42.394 48.449 42.891 47.707 43.227C46.965 43.549 46.125 43.71 45.187 43.71ZM56.7047 43.71C55.5007 43.71 54.5207 43.479 53.7647 43.017C53.0087 42.541 52.4557 41.918 52.1057 41.148C51.7557 40.378 51.5807 39.559 51.5807 38.691C51.5807 37.641 51.7907 36.738 52.2107 35.982C52.6447 35.226 53.2397 34.645 53.9957 34.239C54.7517 33.819 55.6057 33.609 56.5577 33.609C58.0837 33.609 59.1967 34.036 59.8967 34.89C60.5967 35.73 60.9467 36.864 60.9467 38.292C60.9467 38.67 60.9257 39.062 60.8837 39.468H53.9537C54.1077 40.336 54.4157 40.959 54.8777 41.337C55.3537 41.701 55.9837 41.883 56.7677 41.883C57.5237 41.883 58.1187 41.813 58.5527 41.673C58.9867 41.533 59.3437 41.393 59.6237 41.253L60.3167 42.87C60.0367 43.052 59.6027 43.241 59.0147 43.437C58.4267 43.619 57.6567 43.71 56.7047 43.71ZM53.9537 37.893H58.7417C58.7557 36.983 58.5527 36.36 58.1327 36.024C57.7127 35.688 57.1667 35.52 56.4947 35.52C55.7947 35.52 55.2207 35.709 54.7727 36.087C54.3387 36.451 54.0657 37.053 53.9537 37.893ZM62.8029 43.5V33.861H65.0709V35.751C65.2949 35.121 65.6519 34.61 66.1419 34.218C66.6459 33.812 67.2269 33.609 67.8849 33.609C68.3329 33.609 68.6409 33.651 68.8089 33.735L68.4939 36.024C68.3679 35.94 68.0949 35.898 67.6749 35.898C67.3249 35.898 66.9469 35.975 66.5409 36.129C66.1349 36.283 65.7849 36.556 65.4909 36.948C65.2109 37.326 65.0709 37.858 65.0709 38.544V43.5H62.8029ZM73.9544 43.5L68.8724 33.861H71.4554L73.5344 38.208L74.2064 39.951L74.8784 38.208L76.9364 33.861H79.4564L74.3954 43.5H73.9544ZM80.5123 43.5V33.861H82.8643V43.5H80.5123ZM81.6883 32.055C81.2543 32.055 80.8903 31.908 80.5963 31.614C80.3163 31.32 80.1763 30.956 80.1763 30.522C80.1763 30.13 80.3163 29.794 80.5963 29.514C80.8903 29.234 81.2543 29.094 81.6883 29.094C82.1223 29.094 82.4793 29.234 82.7593 29.514C83.0533 29.794 83.2003 30.13 83.2003 30.522C83.2003 30.956 83.0533 31.32 82.7593 31.614C82.4793 31.908 82.1223 32.055 81.6883 32.055ZM89.8963 43.71C88.9583 43.71 88.1043 43.507 87.3343 43.101C86.5783 42.695 85.9693 42.107 85.5073 41.337C85.0593 40.567 84.8353 39.643 84.8353 38.565C84.8353 37.557 85.0383 36.682 85.4443 35.94C85.8643 35.198 86.4453 34.624 87.1873 34.218C87.9433 33.812 88.8113 33.609 89.7913 33.609C90.6033 33.609 91.2683 33.714 91.7863 33.924C92.3183 34.134 92.7173 34.358 92.9833 34.596L91.9753 36.423C91.9193 36.353 91.8073 36.248 91.6393 36.108C91.4713 35.968 91.2473 35.842 90.9673 35.73C90.7013 35.604 90.3723 35.541 89.9803 35.541C89.0563 35.541 88.3633 35.821 87.9013 36.381C87.4533 36.941 87.2293 37.662 87.2293 38.544C87.2293 39.566 87.4673 40.371 87.9433 40.959C88.4333 41.533 89.1123 41.82 89.9803 41.82C90.4423 41.82 90.8763 41.757 91.2823 41.631C91.6883 41.491 91.9963 41.344 92.2063 41.19L93.0253 42.786C92.7733 42.982 92.3743 43.185 91.8283 43.395C91.2823 43.605 90.6383 43.71 89.8963 43.71ZM99.0574 43.71C97.8534 43.71 96.8734 43.479 96.1174 43.017C95.3614 42.541 94.8084 41.918 94.4584 41.148C94.1084 40.378 93.9334 39.559 93.9334 38.691C93.9334 37.641 94.1434 36.738 94.5634 35.982C94.9974 35.226 95.5924 34.645 96.3484 34.239C97.1044 33.819 97.9584 33.609 98.9104 33.609C100.436 33.609 101.549 34.036 102.249 34.89C102.949 35.73 103.299 36.864 103.299 38.292C103.299 38.67 103.278 39.062 103.236 39.468H96.3064C96.4604 40.336 96.7684 40.959 97.2304 41.337C97.7064 41.701 98.3364 41.883 99.1204 41.883C99.8764 41.883 100.471 41.813 100.905 41.673C101.339 41.533 101.696 41.393 101.976 41.253L102.669 42.87C102.389 43.052 101.955 43.241 101.367 43.437C100.779 43.619 100.009 43.71 99.0574 43.71ZM96.3064 37.893H101.094C101.108 36.983 100.905 36.36 100.485 36.024C100.065 35.688 99.5194 35.52 98.8474 35.52C98.1474 35.52 97.5734 35.709 97.1254 36.087C96.6914 36.451 96.4184 37.053 96.3064 37.893Z" fill="white"/>
</svg>
