<svg width="307" height="86" viewBox="0 0 307 86" fill="none" xmlns="http://www.w3.org/2000/svg">
<g clip-path="url(#clip0_19_1015)">
<path d="M113.189 49.3807L115.569 46.784C116.614 48.1063 117.849 48.821 119.059 48.8222C120.919 48.8222 121.876 48.0013 121.878 45.462L121.884 37.0813L114.742 37.0741L114.745 33.5558L126.033 33.5646L126.023 45.8073C126.021 49.4411 124.253 52.4471 119.194 52.4443C117.165 52.4431 114.782 51.6383 113.189 49.3807Z" fill="white"/>
<path d="M129.047 33.7274L141.17 33.7367L141.167 37.2538L133.184 37.2477L133.181 40.9652L139.964 40.9705L139.961 44.4876L133.178 44.4823L133.175 48.7479L141.439 48.7544L141.436 52.2727L129.033 52.263L129.047 33.7274Z" fill="white"/>
<path d="M144.439 43.0944C144.444 36.9495 148.283 33.3861 153.182 33.3901C155.5 33.3901 157.401 34.5145 158.637 35.7519L156.356 38.3455C155.484 37.5254 154.501 37.0139 153.179 37.0127C150.583 37.0127 148.686 39.2469 148.683 42.9596C148.68 46.7696 150.574 48.9821 153.333 48.9861C154.652 48.9861 155.741 48.331 156.629 47.3523L158.905 49.8916C157.412 51.6799 155.365 52.6119 152.903 52.6099C148.357 52.6042 144.434 49.3483 144.439 43.0944Z" fill="white"/>
<path d="M176.345 52.274L172.215 44.8543C174.168 43.9606 175.476 42.2342 175.478 39.5111C175.481 35.1014 172.294 33.734 168.42 33.7308L161.919 33.726L161.905 52.2616L166.052 52.2648L166.057 45.5972H168.231L171.715 52.2672L176.345 52.274ZM166.063 37.0587H168.081C170.255 37.0587 171.422 37.6765 171.42 39.5062C171.42 41.3207 170.251 42.268 168.077 42.2664H166.059L166.063 37.0587Z" fill="white"/>
<path d="M179.345 43.0944C179.35 36.9495 183.189 33.3861 188.088 33.3901C190.406 33.3901 192.307 34.5145 193.543 35.7519L191.262 38.3455C190.391 37.5254 189.407 37.0139 188.085 37.0127C185.489 37.0127 183.592 39.2469 183.59 42.9596C183.586 46.7696 185.48 48.9821 188.239 48.9861C189.558 48.9861 190.647 48.331 191.535 47.3523L193.811 49.8916C192.318 51.6799 190.271 52.6119 187.81 52.6099C183.264 52.6042 179.341 49.3483 179.345 43.0944Z" fill="white"/>
</g>
<defs>
<clipPath id="clip0_19_1015">
<rect width="80.6225" height="19.2197" fill="white" transform="translate(113.189 33.3901)"/>
</clipPath>
</defs>
</svg>
