<svg width="46" height="46" viewBox="0 0 46 46" fill="none" xmlns="http://www.w3.org/2000/svg">
<rect width="46" height="46" rx="23" fill="#95D1F9"/>
<path d="M25.0864 16.88C24.8064 16.88 24.6464 16.94 24.6064 17.06L18.8664 30.58C18.8397 30.6333 18.8264 30.7067 18.8264 30.8C18.8264 30.92 18.8664 31.0067 18.9464 31.06C19.0264 31.1 19.1131 31.12 19.2064 31.12V31.5H15.5064V31.12C15.5997 31.12 15.6864 31.1 15.7664 31.06C15.8464 31.0067 15.8864 30.92 15.8864 30.8C15.8864 30.7067 15.8731 30.6333 15.8464 30.58L10.1064 17.06C10.0664 16.94 9.90641 16.88 9.62641 16.88V16.5H13.5064V16.88C13.3464 16.88 13.2397 16.92 13.1864 17C13.1331 17.08 13.1264 17.16 13.1664 17.24L17.4264 27.6L21.5664 17.24C21.5931 17.16 21.5464 17.08 21.4264 17C21.3197 16.92 21.1864 16.88 21.0264 16.88V16.5H25.0864V16.88ZM30.2719 31.88C29.1252 31.88 28.0585 31.6133 27.0719 31.08C26.0852 30.5333 25.1319 29.7867 24.2119 28.84C24.1852 28.8133 24.1519 28.8 24.1119 28.8C23.9919 28.8 23.8585 28.8733 23.7119 29.02L23.4519 28.74L26.2319 26.12L26.4919 26.4C26.4119 26.4667 26.3385 26.56 26.2719 26.68C26.2052 26.8 26.1919 26.8867 26.2319 26.94C27.4719 28.5133 28.8252 29.3 30.2919 29.3C30.7985 29.3 31.2519 29.2 31.6519 29C32.0652 28.8 32.3852 28.5467 32.6119 28.24C32.8385 27.92 32.9519 27.5933 32.9519 27.26C32.9519 26.4733 32.2652 25.8267 30.8919 25.32L28.4319 24.4C27.4452 24.04 26.6719 23.5467 26.1119 22.92C25.5652 22.2933 25.2919 21.54 25.2919 20.66C25.2919 19.7933 25.4919 19.04 25.8919 18.4C26.3052 17.7467 26.8852 17.2467 27.6319 16.9C28.3785 16.5533 29.2452 16.38 30.2319 16.38C31.1652 16.38 31.9452 16.5267 32.5719 16.82C33.2119 17.1 33.8919 17.5333 34.6119 18.12C34.6252 18.1333 34.6519 18.14 34.6919 18.14C34.7585 18.14 34.8319 18.12 34.9119 18.08C35.0052 18.0267 35.0785 17.9733 35.1319 17.92L35.3919 18.18L32.9119 20.62L32.6519 20.34C32.7185 20.2733 32.7652 20.2 32.7919 20.12C32.8319 20.0267 32.8252 19.96 32.7719 19.92C31.9052 19.2267 31.0452 18.88 30.1919 18.88C29.5119 18.88 28.9719 19.04 28.5719 19.36C28.1719 19.6667 27.9719 20.06 27.9719 20.54C27.9719 20.9667 28.0785 21.2933 28.2919 21.52C28.5185 21.7467 28.8585 21.94 29.3119 22.1L31.7319 22.98C32.5719 23.2867 33.2719 23.6133 33.8319 23.96C34.3919 24.2933 34.8385 24.74 35.1719 25.3C35.5052 25.8467 35.6719 26.5333 35.6719 27.36C35.6719 28.16 35.4585 28.9067 35.0319 29.6C34.6185 30.28 33.9985 30.8333 33.1719 31.26C32.3585 31.6733 31.3919 31.88 30.2719 31.88Z" fill="white"/>
</svg>
