<svg width="304" height="106" viewBox="0 0 304 106" fill="none" xmlns="http://www.w3.org/2000/svg">
<path d="M8.28125 11.7363H14.9219V12.7031C14.9219 14.0378 14.6191 15.2422 14.0137 16.3164C13.4147 17.3906 12.5814 18.2305 11.5137 18.8359C10.446 19.4414 9.24805 19.7441 7.91992 19.7441C6.9043 19.7441 5.95052 19.5618 5.05859 19.1973C4.16667 18.8262 3.40169 18.3249 2.76367 17.6934C2.12565 17.0618 1.62109 16.3066 1.25 15.4277C0.885417 14.5423 0.703125 13.5983 0.703125 12.5957C0.703125 11.5931 0.888672 10.6523 1.25977 9.77344C1.63086 8.88802 2.13867 8.12956 2.7832 7.49805C3.42773 6.86654 4.19922 6.36849 5.09766 6.00391C5.99609 5.63932 6.95638 5.45703 7.97852 5.45703C9.17643 5.45703 10.2799 5.69792 11.2891 6.17969C12.3047 6.66146 13.1217 7.32227 13.7402 8.16211L11.6602 9.82227C11.2435 9.2819 10.7194 8.86198 10.0879 8.5625C9.46289 8.25651 8.7793 8.10352 8.03711 8.10352C6.75456 8.10352 5.68359 8.52995 4.82422 9.38281C3.96484 10.2357 3.53516 11.3066 3.53516 12.5957C3.53516 13.8848 3.96159 14.959 4.81445 15.8184C5.66732 16.6712 6.73503 17.0977 8.01758 17.0977C9.00716 17.0977 9.86979 16.8307 10.6055 16.2969C11.3411 15.7565 11.8132 15.0566 12.0215 14.1973H8.28125V11.7363ZM26.702 14.4219C26.702 14.7474 26.6824 15.0534 26.6434 15.3398H18.743C18.9253 15.9844 19.2736 16.4954 19.7879 16.873C20.3022 17.2507 20.9272 17.4395 21.6629 17.4395C22.2553 17.4395 22.799 17.3223 23.2937 17.0879C23.7885 16.847 24.1792 16.5443 24.4656 16.1797L26.2039 17.7031C25.6635 18.3477 24.993 18.849 24.1922 19.207C23.3979 19.5651 22.5288 19.7441 21.5848 19.7441C20.5171 19.7441 19.5503 19.5098 18.6844 19.041C17.8185 18.5723 17.1414 17.9277 16.6531 17.1074C16.1648 16.2806 15.9207 15.3659 15.9207 14.3633C15.9207 13.3737 16.1551 12.4753 16.6238 11.668C17.0991 10.8542 17.7501 10.2161 18.577 9.75391C19.4103 9.29167 20.3315 9.06055 21.3406 9.06055C22.8706 9.06055 24.1466 9.57161 25.1687 10.5938C26.1909 11.6094 26.702 12.8854 26.702 14.4219ZM22.9715 11.9121C22.5027 11.528 21.9526 11.3359 21.3211 11.3359C20.6896 11.3359 20.1395 11.528 19.6707 11.9121C19.202 12.2897 18.8862 12.7975 18.7234 13.4355H23.9285C23.7658 12.7975 23.4467 12.2897 22.9715 11.9121ZM34.0484 11.6777H31.3043V15.916C31.3043 16.7884 31.773 17.2246 32.7105 17.2246C33.1077 17.2246 33.5536 17.1107 34.0484 16.8828V19.3047C33.5081 19.5977 32.8733 19.7441 32.1441 19.7441C31.0048 19.7441 30.1454 19.4414 29.566 18.8359C28.9931 18.224 28.7066 17.3906 28.7066 16.3359V11.6777H27.0855V9.30469H28.7066V6.7168H31.3043V9.30469H34.0484V11.6777ZM46.2023 11.6777H43.4582V15.916C43.4582 16.7884 43.927 17.2246 44.8645 17.2246C45.2616 17.2246 45.7076 17.1107 46.2023 16.8828V19.3047C45.662 19.5977 45.0272 19.7441 44.298 19.7441C43.1587 19.7441 42.2993 19.4414 41.7199 18.8359C41.147 18.224 40.8605 17.3906 40.8605 16.3359V11.6777H39.2395V9.30469H40.8605V6.7168H43.4582V9.30469H46.2023V11.6777ZM53.666 9.06055C54.8704 9.06055 55.834 9.42188 56.5566 10.1445C57.2858 10.8607 57.6504 11.8177 57.6504 13.0156V19.5H55.043V13.8555C55.043 13.1654 54.8411 12.6152 54.4375 12.2051C54.0339 11.7884 53.4967 11.5801 52.8262 11.5801C52.11 11.5801 51.5306 11.7949 51.0879 12.2246C50.6452 12.6478 50.4238 13.2077 50.4238 13.9043V19.5H47.8262V5.0957H50.4238V10.4961C51.2441 9.53906 52.3249 9.06055 53.666 9.06055ZM69.8309 14.4219C69.8309 14.7474 69.8113 15.0534 69.7723 15.3398H61.8719C62.0542 15.9844 62.4025 16.4954 62.9168 16.873C63.4311 17.2507 64.0561 17.4395 64.7918 17.4395C65.3842 17.4395 65.9279 17.3223 66.4227 17.0879C66.9174 16.847 67.3081 16.5443 67.5945 16.1797L69.3328 17.7031C68.7924 18.3477 68.1219 18.849 67.3211 19.207C66.5268 19.5651 65.6577 19.7441 64.7137 19.7441C63.646 19.7441 62.6792 19.5098 61.8133 19.041C60.9474 18.5723 60.2703 17.9277 59.782 17.1074C59.2938 16.2806 59.0496 15.3659 59.0496 14.3633C59.0496 13.3737 59.284 12.4753 59.7527 11.668C60.228 10.8542 60.879 10.2161 61.7059 9.75391C62.5392 9.29167 63.4604 9.06055 64.4695 9.06055C65.9995 9.06055 67.2755 9.57161 68.2977 10.5938C69.3198 11.6094 69.8309 12.8854 69.8309 14.4219ZM66.1004 11.9121C65.6316 11.528 65.0815 11.3359 64.45 11.3359C63.8185 11.3359 63.2684 11.528 62.7996 11.9121C62.3309 12.2897 62.0151 12.7975 61.8523 13.4355H67.0574C66.8947 12.7975 66.5757 12.2897 66.1004 11.9121ZM75.598 19.5V5.0957H78.1957V19.5H75.598ZM88.1008 9.30469H90.6984V19.5H88.1008V18.2793C87.2089 19.2559 86.1021 19.7441 84.7805 19.7441C83.3612 19.7441 82.1763 19.2331 81.2258 18.2109C80.2753 17.1888 79.8 15.9193 79.8 14.4023C79.8 12.8854 80.2753 11.6159 81.2258 10.5938C82.1763 9.57161 83.3612 9.06055 84.7805 9.06055C86.1086 9.06055 87.2154 9.54557 88.1008 10.5156V9.30469ZM85.2785 17.2246C86.0858 17.2246 86.7564 16.9544 87.2902 16.4141C87.8306 15.8737 88.1008 15.2031 88.1008 14.4023C88.1008 13.6016 87.8306 12.931 87.2902 12.3906C86.7564 11.8503 86.0858 11.5801 85.2785 11.5801C84.4777 11.5801 83.8104 11.8503 83.2766 12.3906C82.7427 12.931 82.4758 13.6016 82.4758 14.4023C82.4758 15.2031 82.7427 15.8737 83.2766 16.4141C83.8104 16.9544 84.4777 17.2246 85.2785 17.2246ZM99.1484 11.6777H96.4043V15.916C96.4043 16.7884 96.873 17.2246 97.8105 17.2246C98.2077 17.2246 98.6536 17.1107 99.1484 16.8828V19.3047C98.6081 19.5977 97.9733 19.7441 97.2441 19.7441C96.1048 19.7441 95.2454 19.4414 94.666 18.8359C94.0931 18.224 93.8066 17.3906 93.8066 16.3359V11.6777H92.1855V9.30469H93.8066V6.7168H96.4043V9.30469H99.1484V11.6777ZM110.616 14.4219C110.616 14.7474 110.596 15.0534 110.557 15.3398H102.657C102.839 15.9844 103.188 16.4954 103.702 16.873C104.216 17.2507 104.841 17.4395 105.577 17.4395C106.169 17.4395 106.713 17.3223 107.208 17.0879C107.703 16.847 108.093 16.5443 108.38 16.1797L110.118 17.7031C109.578 18.3477 108.907 18.849 108.106 19.207C107.312 19.5651 106.443 19.7441 105.499 19.7441C104.431 19.7441 103.464 19.5098 102.598 19.041C101.733 18.5723 101.055 17.9277 100.567 17.1074C100.079 16.2806 99.8348 15.3659 99.8348 14.3633C99.8348 13.3737 100.069 12.4753 100.538 11.668C101.013 10.8542 101.664 10.2161 102.491 9.75391C103.324 9.29167 104.246 9.06055 105.255 9.06055C106.785 9.06055 108.061 9.57161 109.083 10.5938C110.105 11.6094 110.616 12.8854 110.616 14.4219ZM106.886 11.9121C106.417 11.528 105.867 11.3359 105.235 11.3359C104.604 11.3359 104.054 11.528 103.585 11.9121C103.116 12.2897 102.8 12.7975 102.637 13.4355H107.843C107.68 12.7975 107.361 12.2897 106.886 11.9121ZM115.648 19.7441C113.994 19.7441 112.562 19.2233 111.351 18.1816L112.611 16.4629C113.477 17.2181 114.47 17.5957 115.589 17.5957C116.123 17.5957 116.556 17.5111 116.888 17.3418C117.227 17.1725 117.396 16.9382 117.396 16.6387C117.396 16.4759 117.347 16.3327 117.25 16.209C117.158 16.0853 117.009 15.9779 116.8 15.8867C116.592 15.7956 116.39 15.7207 116.195 15.6621C116.006 15.6035 115.739 15.5352 115.394 15.457C115.16 15.4049 114.974 15.3626 114.838 15.3301C114.701 15.2975 114.512 15.2487 114.271 15.1836C114.037 15.112 113.845 15.0469 113.695 14.9883C113.552 14.9297 113.379 14.8516 113.177 14.7539C112.976 14.6497 112.81 14.5456 112.679 14.4414C112.556 14.3372 112.422 14.2103 112.279 14.0605C112.142 13.9108 112.032 13.7513 111.947 13.582C111.869 13.4128 111.804 13.2174 111.752 12.9961C111.699 12.7747 111.673 12.5371 111.673 12.2832C111.673 11.5866 111.865 10.9909 112.25 10.4961C112.634 10.0013 113.132 9.63997 113.744 9.41211C114.362 9.17773 115.059 9.06055 115.834 9.06055C117.338 9.06055 118.656 9.50651 119.789 10.3984L118.529 12.1367C117.696 11.5117 116.817 11.1992 115.892 11.1992C115.423 11.1992 115.039 11.2741 114.74 11.4238C114.44 11.5736 114.291 11.7917 114.291 12.0781C114.291 12.2409 114.336 12.3841 114.427 12.5078C114.518 12.625 114.668 12.7292 114.877 12.8203C115.085 12.9049 115.287 12.9766 115.482 13.0352C115.677 13.0872 115.948 13.1491 116.293 13.2207C116.592 13.2858 116.833 13.3411 117.015 13.3867C117.198 13.4323 117.435 13.5039 117.728 13.6016C118.021 13.6992 118.259 13.7969 118.441 13.8945C118.63 13.9922 118.832 14.1257 119.046 14.2949C119.268 14.4577 119.44 14.6335 119.564 14.8223C119.688 15.0111 119.792 15.2422 119.877 15.5156C119.968 15.7891 120.013 16.0853 120.013 16.4043C120.013 17.1009 119.818 17.7064 119.427 18.2207C119.037 18.735 118.516 19.1191 117.865 19.373C117.214 19.6204 116.475 19.7441 115.648 19.7441ZM127.545 11.6777H124.801V15.916C124.801 16.7884 125.27 17.2246 126.207 17.2246C126.605 17.2246 127.051 17.1107 127.545 16.8828V19.3047C127.005 19.5977 126.37 19.7441 125.641 19.7441C124.502 19.7441 123.642 19.4414 123.063 18.8359C122.49 18.224 122.204 17.3906 122.204 16.3359V11.6777H120.582V9.30469H122.204V6.7168H124.801V9.30469H127.545V11.6777ZM135.881 7.33203C135.568 7.64453 135.181 7.80078 134.719 7.80078C134.257 7.80078 133.866 7.64453 133.547 7.33203C133.234 7.01953 133.078 6.63542 133.078 6.17969C133.078 5.72396 133.234 5.33984 133.547 5.02734C133.866 4.71484 134.257 4.55859 134.719 4.55859C135.181 4.55859 135.568 4.71484 135.881 5.02734C136.2 5.33984 136.359 5.72396 136.359 6.17969C136.359 6.63542 136.2 7.01953 135.881 7.33203ZM133.42 19.5V9.30469H136.018V19.5H133.42ZM144.038 9.06055C145.242 9.06055 146.206 9.42188 146.929 10.1445C147.658 10.8607 148.022 11.8177 148.022 13.0156V19.5H145.415V13.8555C145.415 13.1654 145.21 12.6152 144.8 12.2051C144.396 11.7884 143.856 11.5801 143.179 11.5801C142.469 11.5801 141.893 11.7949 141.45 12.2246C141.014 12.6478 140.796 13.2077 140.796 13.9043V19.5H138.198V9.30469H140.796V10.4375C141.616 9.51953 142.697 9.06055 144.038 9.06055ZM154.656 7.24414C154.194 7.24414 153.839 7.35482 153.591 7.57617C153.351 7.79102 153.23 8.11328 153.23 8.54297V9.30469H155.798V11.6777H153.23V19.5H150.632V11.6777H149.031V9.30469H150.632V8.37695C150.632 7.2832 150.919 6.42383 151.492 5.79883C152.071 5.17383 152.931 4.86133 154.07 4.86133C154.793 4.86133 155.434 5.00781 155.994 5.30078V7.57617C155.597 7.35482 155.151 7.24414 154.656 7.24414ZM165.508 18.2109C164.46 19.2331 163.158 19.7441 161.602 19.7441C160.046 19.7441 158.741 19.2331 157.686 18.2109C156.638 17.1888 156.114 15.9193 156.114 14.4023C156.114 12.8854 156.638 11.6159 157.686 10.5938C158.741 9.57161 160.046 9.06055 161.602 9.06055C163.158 9.06055 164.46 9.57161 165.508 10.5938C166.556 11.6159 167.08 12.8854 167.08 14.4023C167.08 15.9193 166.556 17.1888 165.508 18.2109ZM161.602 17.2246C162.409 17.2246 163.077 16.9577 163.604 16.4238C164.131 15.8835 164.395 15.2096 164.395 14.4023C164.395 13.5951 164.131 12.9245 163.604 12.3906C163.077 11.8503 162.409 11.5801 161.602 11.5801C160.801 11.5801 160.134 11.8503 159.6 12.3906C159.066 12.931 158.799 13.6016 158.799 14.4023C158.799 15.2031 159.066 15.8737 159.6 16.4141C160.134 16.9544 160.801 17.2246 161.602 17.2246ZM174.183 9.13867H174.622V11.8242H174.183C173.258 11.8242 172.536 12.0781 172.015 12.5859C171.501 13.0938 171.243 13.7839 171.243 14.6562V19.5H168.646V9.30469H171.243V10.623C172.025 9.63346 173.004 9.13867 174.183 9.13867ZM188.141 9.06055C189.293 9.06055 190.214 9.4056 190.904 10.0957C191.601 10.7858 191.949 11.707 191.949 12.8594V19.5H189.342V13.6406C189.342 13.0156 189.16 12.5176 188.795 12.1465C188.437 11.7689 187.955 11.5801 187.35 11.5801C186.712 11.5801 186.194 11.7721 185.797 12.1562C185.4 12.5404 185.201 13.0482 185.201 13.6797V19.5H182.604V13.6406C182.604 13.0221 182.418 12.5241 182.047 12.1465C181.682 11.7689 181.194 11.5801 180.582 11.5801C179.951 11.5801 179.436 11.7754 179.039 12.166C178.642 12.5501 178.443 13.0547 178.443 13.6797V19.5H175.846V9.30469H178.443V10.3594C179.212 9.49349 180.217 9.06055 181.461 9.06055C182.171 9.06055 182.799 9.20703 183.346 9.5C183.899 9.78646 184.339 10.1934 184.664 10.7207C185.504 9.61393 186.663 9.06055 188.141 9.06055ZM201.688 9.30469H204.286V19.5H201.688V18.2793C200.796 19.2559 199.69 19.7441 198.368 19.7441C196.949 19.7441 195.764 19.2331 194.813 18.2109C193.863 17.1888 193.387 15.9193 193.387 14.4023C193.387 12.8854 193.863 11.6159 194.813 10.5938C195.764 9.57161 196.949 9.06055 198.368 9.06055C199.696 9.06055 200.803 9.54557 201.688 10.5156V9.30469ZM198.866 17.2246C199.673 17.2246 200.344 16.9544 200.878 16.4141C201.418 15.8737 201.688 15.2031 201.688 14.4023C201.688 13.6016 201.418 12.931 200.878 12.3906C200.344 11.8503 199.673 11.5801 198.866 11.5801C198.065 11.5801 197.398 11.8503 196.864 12.3906C196.33 12.931 196.063 13.6016 196.063 14.4023C196.063 15.2031 196.33 15.8737 196.864 16.4141C197.398 16.9544 198.065 17.2246 198.866 17.2246ZM212.736 11.6777H209.992V15.916C209.992 16.7884 210.461 17.2246 211.398 17.2246C211.795 17.2246 212.241 17.1107 212.736 16.8828V19.3047C212.196 19.5977 211.561 19.7441 210.832 19.7441C209.692 19.7441 208.833 19.4414 208.254 18.8359C207.681 18.224 207.394 17.3906 207.394 16.3359V11.6777H205.773V9.30469H207.394V6.7168H209.992V9.30469H212.736V11.6777ZM216.821 7.33203C216.508 7.64453 216.121 7.80078 215.659 7.80078C215.196 7.80078 214.806 7.64453 214.487 7.33203C214.174 7.01953 214.018 6.63542 214.018 6.17969C214.018 5.72396 214.174 5.33984 214.487 5.02734C214.806 4.71484 215.196 4.55859 215.659 4.55859C216.121 4.55859 216.508 4.71484 216.821 5.02734C217.14 5.33984 217.299 5.72396 217.299 6.17969C217.299 6.63542 217.14 7.01953 216.821 7.33203ZM214.36 19.5V9.30469H216.957V19.5H214.36ZM227.907 18.2109C226.859 19.2331 225.557 19.7441 224.001 19.7441C222.445 19.7441 221.14 19.2331 220.085 18.2109C219.037 17.1888 218.513 15.9193 218.513 14.4023C218.513 12.8854 219.037 11.6159 220.085 10.5938C221.14 9.57161 222.445 9.06055 224.001 9.06055C225.557 9.06055 226.859 9.57161 227.907 10.5938C228.956 11.6159 229.48 12.8854 229.48 14.4023C229.48 15.9193 228.956 17.1888 227.907 18.2109ZM224.001 17.2246C224.808 17.2246 225.476 16.9577 226.003 16.4238C226.53 15.8835 226.794 15.2096 226.794 14.4023C226.794 13.5951 226.53 12.9245 226.003 12.3906C225.476 11.8503 224.808 11.5801 224.001 11.5801C223.2 11.5801 222.533 11.8503 221.999 12.3906C221.465 12.931 221.198 13.6016 221.198 14.4023C221.198 15.2031 221.465 15.8737 221.999 16.4141C222.533 16.9544 223.2 17.2246 224.001 17.2246ZM236.885 9.06055C238.089 9.06055 239.053 9.42188 239.775 10.1445C240.505 10.8607 240.869 11.8177 240.869 13.0156V19.5H238.262V13.8555C238.262 13.1654 238.057 12.6152 237.646 12.2051C237.243 11.7884 236.702 11.5801 236.025 11.5801C235.316 11.5801 234.74 11.7949 234.297 12.2246C233.861 12.6478 233.643 13.2077 233.643 13.9043V19.5H231.045V9.30469H233.643V10.4375C234.463 9.51953 235.544 9.06055 236.885 9.06055Z" fill="#95D1F9"/>
<path d="M0 68.5C0 60.768 6.26801 54.5 14 54.5H258V105.5H14C6.26802 105.5 0 99.232 0 91.5V68.5Z" fill="white"/>
<path d="M16.7656 84.125H22.6094V85.5H15.2969V74.4609H22.5312V75.8359H16.7656V79.2578H22V80.6328H16.7656V84.125ZM34.0647 77.1484C35.0022 77.1484 35.7496 77.4297 36.3069 77.9922C36.8694 78.5495 37.1506 79.2969 37.1506 80.2344V85.5H35.7756V80.6172C35.7756 79.9661 35.5803 79.4479 35.1897 79.0625C34.8043 78.6719 34.2886 78.4766 33.6428 78.4766C32.9761 78.4766 32.4397 78.6745 32.0334 79.0703C31.6272 79.4661 31.4241 79.9922 31.4241 80.6484V85.5H30.0491V80.6172C30.0491 79.9661 29.8538 79.4479 29.4631 79.0625C29.0777 78.6719 28.5621 78.4766 27.9163 78.4766C27.2496 78.4766 26.7131 78.6745 26.3069 79.0703C25.9006 79.4661 25.6975 79.9922 25.6975 80.6484V85.5H24.3225V77.3438H25.6975V78.4453C26.3173 77.5807 27.2079 77.1484 28.3694 77.1484C29.0048 77.1484 29.5595 77.2891 30.0334 77.5703C30.5074 77.8516 30.8642 78.2448 31.1038 78.75C31.411 78.2344 31.8173 77.8385 32.3225 77.5625C32.8329 77.2865 33.4136 77.1484 34.0647 77.1484ZM45.8794 77.3438H47.2544V85.5H45.8794V84.0312C45.5304 84.5521 45.0799 84.9609 44.5278 85.2578C43.9809 85.5495 43.3742 85.6953 42.7075 85.6953C41.9419 85.6953 41.2466 85.5104 40.6216 85.1406C39.9966 84.7656 39.507 84.2526 39.1528 83.6016C38.8039 82.9453 38.6294 82.2188 38.6294 81.4219C38.6294 80.625 38.8039 79.901 39.1528 79.25C39.507 78.5938 39.9966 78.0807 40.6216 77.7109C41.2466 77.3359 41.9419 77.1484 42.7075 77.1484C43.3742 77.1484 43.9809 77.2969 44.5278 77.5938C45.0799 77.8854 45.5304 78.2917 45.8794 78.8125V77.3438ZM42.9653 84.3672C43.7986 84.3672 44.4914 84.0859 45.0434 83.5234C45.6007 82.9609 45.8794 82.2604 45.8794 81.4219C45.8794 80.5833 45.6007 79.8828 45.0434 79.3203C44.4914 78.7578 43.7986 78.4766 42.9653 78.4766C42.1268 78.4766 41.4289 78.7578 40.8716 79.3203C40.3143 79.8828 40.0356 80.5833 40.0356 81.4219C40.0356 82.2604 40.3143 82.9609 40.8716 83.5234C41.4289 84.0859 42.1268 84.3672 42.9653 84.3672ZM50.0456 75.7109C49.78 75.7109 49.5586 75.625 49.3816 75.4531C49.2045 75.276 49.1159 75.0573 49.1159 74.7969C49.1159 74.5312 49.2045 74.3125 49.3816 74.1406C49.5586 73.9688 49.78 73.8828 50.0456 73.8828C50.306 73.8828 50.5222 73.9688 50.6941 74.1406C50.8659 74.3125 50.9519 74.5312 50.9519 74.7969C50.9519 75.0573 50.8633 75.276 50.6862 75.4531C50.5144 75.625 50.3008 75.7109 50.0456 75.7109ZM49.3581 85.5V77.3438H50.7331V85.5H49.3581ZM52.8213 85.5V73.9766H54.1963V85.5H52.8213ZM68.2788 85.5L67.2084 82.8281H61.8022L60.7319 85.5H59.1616L63.6538 74.4609H65.4038L69.8959 85.5H68.2788ZM62.3491 81.4688H66.6694L64.5053 76.0469L62.3491 81.4688ZM77.6637 73.9766H79.0387V85.5H77.6637V84.0312C77.3148 84.5521 76.8643 84.9609 76.3122 85.2578C75.7653 85.5495 75.1585 85.6953 74.4919 85.6953C73.7262 85.6953 73.0309 85.5104 72.4059 85.1406C71.7809 84.7656 71.2914 84.2526 70.9372 83.6016C70.5882 82.9453 70.4137 82.2188 70.4137 81.4219C70.4137 80.625 70.5882 79.901 70.9372 79.25C71.2914 78.5938 71.7809 78.0807 72.4059 77.7109C73.0309 77.3359 73.7262 77.1484 74.4919 77.1484C75.1585 77.1484 75.7653 77.2969 76.3122 77.5938C76.8643 77.8854 77.3148 78.2917 77.6637 78.8125V73.9766ZM74.7497 84.3672C75.583 84.3672 76.2757 84.0859 76.8278 83.5234C77.3851 82.9609 77.6637 82.2604 77.6637 81.4219C77.6637 80.5833 77.3851 79.8828 76.8278 79.3203C76.2757 78.7578 75.583 78.4766 74.7497 78.4766C73.9111 78.4766 73.2132 78.7578 72.6559 79.3203C72.0986 79.8828 71.82 80.5833 71.82 81.4219C71.82 82.2604 72.0986 82.9609 72.6559 83.5234C73.2132 84.0859 73.9111 84.3672 74.7497 84.3672ZM87.8925 73.9766H89.2675V85.5H87.8925V84.0312C87.5435 84.5521 87.093 84.9609 86.5409 85.2578C85.9941 85.5495 85.3873 85.6953 84.7206 85.6953C83.955 85.6953 83.2597 85.5104 82.6347 85.1406C82.0097 84.7656 81.5201 84.2526 81.1659 83.6016C80.817 82.9453 80.6425 82.2188 80.6425 81.4219C80.6425 80.625 80.817 79.901 81.1659 79.25C81.5201 78.5938 82.0097 78.0807 82.6347 77.7109C83.2597 77.3359 83.955 77.1484 84.7206 77.1484C85.3873 77.1484 85.9941 77.2969 86.5409 77.5938C87.093 77.8854 87.5435 78.2917 87.8925 78.8125V73.9766ZM84.9784 84.3672C85.8118 84.3672 86.5045 84.0859 87.0566 83.5234C87.6139 82.9609 87.8925 82.2604 87.8925 81.4219C87.8925 80.5833 87.6139 79.8828 87.0566 79.3203C86.5045 78.7578 85.8118 78.4766 84.9784 78.4766C84.1399 78.4766 83.442 78.7578 82.8847 79.3203C82.3274 79.8828 82.0488 80.5833 82.0488 81.4219C82.0488 82.2604 82.3274 82.9609 82.8847 83.5234C83.442 84.0859 84.1399 84.3672 84.9784 84.3672ZM95.5275 77.2109H95.8009V78.6328H95.5275C94.6681 78.6328 93.9884 78.8854 93.4884 79.3906C92.9936 79.8906 92.7462 80.5677 92.7462 81.4219V85.5H91.3712V77.3438H92.7462V78.75C93.3869 77.724 94.314 77.2109 95.5275 77.2109ZM104.694 81.4219C104.694 81.5 104.681 81.7031 104.655 82.0312H97.6312C97.7719 82.75 98.113 83.3307 98.6547 83.7734C99.2016 84.2109 99.8682 84.4297 100.655 84.4297C101.238 84.4297 101.774 84.3073 102.264 84.0625C102.754 83.8125 103.136 83.4922 103.412 83.1016L104.358 83.9141C103.946 84.4661 103.412 84.901 102.756 85.2188C102.105 85.5365 101.389 85.6953 100.608 85.6953C99.3318 85.6953 98.2693 85.2839 97.4203 84.4609C96.5714 83.638 96.1469 82.6146 96.1469 81.3906C96.1469 80.599 96.3318 79.8802 96.7016 79.2344C97.0766 78.5833 97.5922 78.0729 98.2484 77.7031C98.9047 77.3333 99.6339 77.1484 100.436 77.1484C101.233 77.1484 101.957 77.3333 102.608 77.7031C103.259 78.0729 103.769 78.5859 104.139 79.2422C104.509 79.8932 104.694 80.6198 104.694 81.4219ZM100.42 78.4141C99.712 78.4141 99.1 78.6354 98.5844 79.0781C98.0687 79.5156 97.7458 80.0833 97.6156 80.7812H103.233C103.103 80.0729 102.78 79.5026 102.264 79.0703C101.748 78.6328 101.134 78.4141 100.42 78.4141ZM108.891 85.6953C107.574 85.6953 106.469 85.2682 105.579 84.4141L106.344 83.4219C107.011 84.1042 107.852 84.4453 108.868 84.4453C109.42 84.4453 109.873 84.3438 110.227 84.1406C110.581 83.9323 110.758 83.6484 110.758 83.2891C110.758 83.138 110.719 83.0026 110.641 82.8828C110.568 82.7578 110.48 82.6562 110.376 82.5781C110.277 82.5 110.126 82.4245 109.923 82.3516C109.725 82.2734 109.55 82.2161 109.399 82.1797C109.253 82.138 109.045 82.0833 108.774 82.0156C108.524 81.9531 108.326 81.9036 108.18 81.8672C108.034 81.8255 107.844 81.763 107.61 81.6797C107.381 81.5964 107.193 81.5156 107.048 81.4375C106.907 81.3594 106.751 81.2578 106.579 81.1328C106.412 81.0026 106.279 80.8672 106.18 80.7266C106.087 80.5807 106.006 80.4089 105.938 80.2109C105.876 80.0078 105.844 79.7865 105.844 79.5469C105.844 79.0365 105.99 78.5964 106.282 78.2266C106.574 77.8568 106.951 77.5859 107.415 77.4141C107.878 77.237 108.396 77.1484 108.969 77.1484C110.146 77.1484 111.144 77.5208 111.962 78.2656L111.188 79.2734C110.589 78.6901 109.855 78.3984 108.985 78.3984C108.49 78.3984 108.079 78.4922 107.751 78.6797C107.423 78.8672 107.258 79.1302 107.258 79.4688C107.258 79.625 107.298 79.7656 107.376 79.8906C107.454 80.0104 107.542 80.1094 107.641 80.1875C107.745 80.2656 107.902 80.3438 108.11 80.4219C108.318 80.4948 108.493 80.5521 108.633 80.5938C108.779 80.6302 108.993 80.6823 109.274 80.75C109.519 80.8073 109.714 80.8568 109.86 80.8984C110.011 80.9349 110.201 80.9922 110.43 81.0703C110.659 81.1484 110.844 81.2266 110.985 81.3047C111.131 81.3776 111.287 81.4766 111.454 81.6016C111.62 81.7266 111.751 81.8594 111.844 82C111.938 82.1406 112.016 82.3125 112.079 82.5156C112.146 82.7135 112.18 82.9297 112.18 83.1641C112.18 83.9505 111.87 84.5703 111.251 85.0234C110.631 85.4714 109.844 85.6953 108.891 85.6953ZM116.339 85.6953C115.021 85.6953 113.917 85.2682 113.026 84.4141L113.792 83.4219C114.459 84.1042 115.3 84.4453 116.315 84.4453C116.867 84.4453 117.321 84.3438 117.675 84.1406C118.029 83.9323 118.206 83.6484 118.206 83.2891C118.206 83.138 118.167 83.0026 118.089 82.8828C118.016 82.7578 117.927 82.6562 117.823 82.5781C117.724 82.5 117.573 82.4245 117.37 82.3516C117.172 82.2734 116.998 82.2161 116.847 82.1797C116.701 82.138 116.492 82.0833 116.222 82.0156C115.972 81.9531 115.774 81.9036 115.628 81.8672C115.482 81.8255 115.292 81.763 115.058 81.6797C114.828 81.5964 114.641 81.5156 114.495 81.4375C114.354 81.3594 114.198 81.2578 114.026 81.1328C113.86 81.0026 113.727 80.8672 113.628 80.7266C113.534 80.5807 113.453 80.4089 113.386 80.2109C113.323 80.0078 113.292 79.7865 113.292 79.5469C113.292 79.0365 113.438 78.5964 113.729 78.2266C114.021 77.8568 114.399 77.5859 114.862 77.4141C115.326 77.237 115.844 77.1484 116.417 77.1484C117.594 77.1484 118.591 77.5208 119.409 78.2656L118.636 79.2734C118.037 78.6901 117.302 78.3984 116.433 78.3984C115.938 78.3984 115.526 78.4922 115.198 78.6797C114.87 78.8672 114.706 79.1302 114.706 79.4688C114.706 79.625 114.745 79.7656 114.823 79.8906C114.901 80.0104 114.99 80.1094 115.089 80.1875C115.193 80.2656 115.349 80.3438 115.558 80.4219C115.766 80.4948 115.94 80.5521 116.081 80.5938C116.227 80.6302 116.44 80.6823 116.722 80.75C116.966 80.8073 117.162 80.8568 117.308 80.8984C117.459 80.9349 117.649 80.9922 117.878 81.0703C118.107 81.1484 118.292 81.2266 118.433 81.3047C118.578 81.3776 118.735 81.4766 118.901 81.6016C119.068 81.7266 119.198 81.8594 119.292 82C119.386 82.1406 119.464 82.3125 119.526 82.5156C119.594 82.7135 119.628 82.9297 119.628 83.1641C119.628 83.9505 119.318 84.5703 118.698 85.0234C118.078 85.4714 117.292 85.6953 116.339 85.6953Z" fill="black"/>
<path d="M258 54.5H290C297.732 54.5 304 60.768 304 68.5V91.5C304 99.232 297.732 105.5 290 105.5H258V54.5Z" fill="#95D1F9"/>
<path d="M275.296 70.9059C272.91 69.8047 270.362 72.0856 271.193 74.5785L272.454 78.3195C272.591 78.7262 272.973 79 273.402 79H282C282.552 79 283 79.4478 283 80C283 80.5523 282.552 81 282 81H273.402C272.973 81 272.591 81.2739 272.454 81.6805L271.193 85.4216C270.362 87.9145 272.91 90.1954 275.296 89.0942L289.098 82.7239C291.422 81.6514 291.422 78.3487 289.098 77.2762L275.296 70.9059Z" fill="#FCFCFD"/>
</svg>
