<svg width="1258" height="26" viewBox="0 0 1258 26" fill="none" xmlns="http://www.w3.org/2000/svg">
<path d="M8.36 19.12C7.30667 19.12 6.33333 18.9467 5.44 18.6C4.54667 18.24 3.77333 17.74 3.12 17.1C2.46667 16.46 1.95333 15.7067 1.58 14.84C1.22 13.9733 1.04 13.0267 1.04 12C1.04 10.9733 1.22 10.0267 1.58 9.16C1.95333 8.29333 2.46667 7.54 3.12 6.9C3.78667 6.26 4.56667 5.76667 5.46 5.42C6.35333 5.06 7.32667 4.88 8.38 4.88C9.39333 4.88 10.3467 5.05333 11.24 5.4C12.1333 5.73333 12.8867 6.24 13.5 6.92L12.56 7.86C11.9867 7.27333 11.3533 6.85333 10.66 6.6C9.96667 6.33333 9.22 6.2 8.42 6.2C7.58 6.2 6.8 6.34667 6.08 6.64C5.36 6.92 4.73333 7.32667 4.2 7.86C3.66667 8.38 3.24667 8.99333 2.94 9.7C2.64667 10.3933 2.5 11.16 2.5 12C2.5 12.84 2.64667 13.6133 2.94 14.32C3.24667 15.0133 3.66667 15.6267 4.2 16.16C4.73333 16.68 5.36 17.0867 6.08 17.38C6.8 17.66 7.58 17.8 8.42 17.8C9.22 17.8 9.96667 17.6667 10.66 17.4C11.3533 17.1333 11.9867 16.7067 12.56 16.12L13.5 17.06C12.8867 17.74 12.1333 18.2533 11.24 18.6C10.3467 18.9467 9.38667 19.12 8.36 19.12ZM19.8663 19.1C18.8529 19.1 17.9396 18.8733 17.1263 18.42C16.3262 17.9533 15.6929 17.32 15.2262 16.52C14.7596 15.7067 14.5262 14.78 14.5262 13.74C14.5262 12.6867 14.7596 11.76 15.2262 10.96C15.6929 10.16 16.3262 9.53333 17.1263 9.08C17.9263 8.62667 18.8396 8.4 19.8663 8.4C20.9063 8.4 21.8263 8.62667 22.6263 9.08C23.4396 9.53333 24.0729 10.16 24.5262 10.96C24.9929 11.76 25.2263 12.6867 25.2263 13.74C25.2263 14.78 24.9929 15.7067 24.5262 16.52C24.0729 17.32 23.4396 17.9533 22.6263 18.42C21.8129 18.8733 20.8929 19.1 19.8663 19.1ZM19.8663 17.84C20.6263 17.84 21.2996 17.6733 21.8863 17.34C22.4729 16.9933 22.9329 16.5133 23.2663 15.9C23.6129 15.2733 23.7862 14.5533 23.7862 13.74C23.7862 12.9133 23.6129 12.1933 23.2663 11.58C22.9329 10.9667 22.4729 10.4933 21.8863 10.16C21.2996 9.81333 20.6329 9.64 19.8863 9.64C19.1396 9.64 18.4729 9.81333 17.8863 10.16C17.2996 10.4933 16.8329 10.9667 16.4862 11.58C16.1396 12.1933 15.9662 12.9133 15.9662 13.74C15.9662 14.5533 16.1396 15.2733 16.4862 15.9C16.8329 16.5133 17.2996 16.9933 17.8863 17.34C18.4729 17.6733 19.1329 17.84 19.8663 17.84ZM33.2453 19.1C32.3386 19.1 31.5186 18.8933 30.7853 18.48C30.052 18.0533 29.4653 17.4467 29.0253 16.66C28.5986 15.86 28.3853 14.8867 28.3853 13.74C28.3853 12.5933 28.5986 11.6267 29.0253 10.84C29.452 10.04 30.032 9.43333 30.7653 9.02C31.4986 8.60667 32.3253 8.4 33.2453 8.4C34.2453 8.4 35.1386 8.62667 35.9253 9.08C36.7253 9.52 37.352 10.1467 37.8053 10.96C38.2586 11.76 38.4853 12.6867 38.4853 13.74C38.4853 14.8067 38.2586 15.74 37.8053 16.54C37.352 17.34 36.7253 17.9667 35.9253 18.42C35.1386 18.8733 34.2453 19.1 33.2453 19.1ZM27.8253 22.88V8.5H29.1853V11.66L29.0453 13.76L29.2453 15.88V22.88H27.8253ZM33.1453 17.84C33.892 17.84 34.5586 17.6733 35.1453 17.34C35.732 16.9933 36.1986 16.5133 36.5453 15.9C36.892 15.2733 37.0653 14.5533 37.0653 13.74C37.0653 12.9267 36.892 12.2133 36.5453 11.6C36.1986 10.9867 35.732 10.5067 35.1453 10.16C34.5586 9.81333 33.892 9.64 33.1453 9.64C32.3986 9.64 31.7253 9.81333 31.1253 10.16C30.5386 10.5067 30.072 10.9867 29.7253 11.6C29.392 12.2133 29.2253 12.9267 29.2253 13.74C29.2253 14.5533 29.392 15.2733 29.7253 15.9C30.072 16.5133 30.5386 16.9933 31.1253 17.34C31.7253 17.6733 32.3986 17.84 33.1453 17.84ZM40.867 22.98C40.3737 22.98 39.9004 22.9 39.447 22.74C39.007 22.58 38.627 22.34 38.307 22.02L38.967 20.96C39.2337 21.2133 39.5204 21.4067 39.827 21.54C40.147 21.6867 40.5004 21.76 40.887 21.76C41.3537 21.76 41.7537 21.6267 42.087 21.36C42.4337 21.1067 42.7604 20.6533 43.067 20L43.747 18.46L43.907 18.24L48.227 8.5H49.627L44.367 20.26C44.0737 20.94 43.747 21.48 43.387 21.88C43.0404 22.28 42.6604 22.56 42.247 22.72C41.8337 22.8933 41.3737 22.98 40.867 22.98ZM43.667 19.3L38.827 8.5H40.307L44.587 18.14L43.667 19.3ZM51.3269 19V8.5H52.6869V11.36L52.5469 10.86C52.8402 10.06 53.3335 9.45333 54.0269 9.04C54.7202 8.61333 55.5802 8.4 56.6069 8.4V9.78C56.5535 9.78 56.5002 9.78 56.4469 9.78C56.3935 9.76667 56.3402 9.76 56.2869 9.76C55.1802 9.76 54.3135 10.1 53.6869 10.78C53.0602 11.4467 52.7469 12.4 52.7469 13.64V19H51.3269ZM58.898 19V8.5H60.318V19H58.898ZM59.618 6.18C59.3246 6.18 59.078 6.08 58.878 5.88C58.678 5.68 58.578 5.44 58.578 5.16C58.578 4.88 58.678 4.64667 58.878 4.46C59.078 4.26 59.3246 4.16 59.618 4.16C59.9113 4.16 60.158 4.25333 60.358 4.44C60.558 4.62667 60.658 4.86 60.658 5.14C60.658 5.43333 60.558 5.68 60.358 5.88C60.1713 6.08 59.9246 6.18 59.618 6.18ZM68.4491 22.98C67.4891 22.98 66.5691 22.84 65.6891 22.56C64.8091 22.28 64.0957 21.88 63.5491 21.36L64.2691 20.28C64.7624 20.72 65.3691 21.0667 66.0891 21.32C66.8224 21.5867 67.5957 21.72 68.4091 21.72C69.7424 21.72 70.7224 21.4067 71.3491 20.78C71.9757 20.1667 72.2891 19.2067 72.2891 17.9V15.28L72.4891 13.48L72.3491 11.68V8.5H73.7091V17.72C73.7091 19.5333 73.2624 20.86 72.3691 21.7C71.4891 22.5533 70.1824 22.98 68.4491 22.98ZM68.1891 18.6C67.1891 18.6 66.2891 18.3867 65.4891 17.96C64.6891 17.52 64.0557 16.9133 63.5891 16.14C63.1357 15.3667 62.9091 14.48 62.9091 13.48C62.9091 12.48 63.1357 11.6 63.5891 10.84C64.0557 10.0667 64.6891 9.46667 65.4891 9.04C66.2891 8.61333 67.1891 8.4 68.1891 8.4C69.1224 8.4 69.9624 8.59333 70.7091 8.98C71.4557 9.36667 72.0491 9.94 72.4891 10.7C72.9291 11.46 73.1491 12.3867 73.1491 13.48C73.1491 14.5733 72.9291 15.5 72.4891 16.26C72.0491 17.02 71.4557 17.6 70.7091 18C69.9624 18.4 69.1224 18.6 68.1891 18.6ZM68.3291 17.34C69.1024 17.34 69.7891 17.18 70.3891 16.86C70.9891 16.5267 71.4624 16.0733 71.8091 15.5C72.1557 14.9133 72.3291 14.24 72.3291 13.48C72.3291 12.72 72.1557 12.0533 71.8091 11.48C71.4624 10.9067 70.9891 10.46 70.3891 10.14C69.7891 9.80667 69.1024 9.64 68.3291 9.64C67.5691 9.64 66.8824 9.80667 66.2691 10.14C65.6691 10.46 65.1957 10.9067 64.8491 11.48C64.5157 12.0533 64.3491 12.72 64.3491 13.48C64.3491 14.24 64.5157 14.9133 64.8491 15.5C65.1957 16.0733 65.6691 16.5267 66.2691 16.86C66.8824 17.18 67.5691 17.34 68.3291 17.34ZM82.7205 8.4C83.5738 8.4 84.3205 8.56667 84.9605 8.9C85.6138 9.22 86.1205 9.71333 86.4805 10.38C86.8538 11.0467 87.0405 11.8867 87.0405 12.9V19H85.6205V13.04C85.6205 11.9333 85.3405 11.1 84.7805 10.54C84.2338 9.96667 83.4605 9.68 82.4605 9.68C81.7138 9.68 81.0605 9.83333 80.5005 10.14C79.9538 10.4333 79.5271 10.8667 79.2205 11.44C78.9271 12 78.7805 12.68 78.7805 13.48V19H77.3605V4.16H78.7805V11.38L78.5005 10.84C78.8338 10.08 79.3671 9.48667 80.1005 9.06C80.8338 8.62 81.7071 8.4 82.7205 8.4ZM93.8961 19.1C92.9094 19.1 92.1494 18.8333 91.6161 18.3C91.0828 17.7667 90.8161 17.0133 90.8161 16.04V6.18H92.2361V15.96C92.2361 16.5733 92.3894 17.0467 92.6961 17.38C93.0161 17.7133 93.4694 17.88 94.0561 17.88C94.6828 17.88 95.2028 17.7 95.6161 17.34L96.1161 18.36C95.8361 18.6133 95.4961 18.8 95.0961 18.92C94.7094 19.04 94.3094 19.1 93.8961 19.1ZM88.9361 9.68V8.5H95.4361V9.68H88.9361ZM104.501 19.06C103.501 19.06 102.574 18.88 101.721 18.52C100.868 18.16 100.121 17.66 99.4811 17.02C98.8411 16.3667 98.3411 15.6133 97.9811 14.76C97.6344 13.9067 97.4611 12.9867 97.4611 12C97.4611 11.0133 97.6411 10.0933 98.0011 9.24C98.3611 8.38667 98.8611 7.64 99.5011 7C100.141 6.34667 100.888 5.84 101.741 5.48C102.608 5.12 103.541 4.94 104.541 4.94C105.541 4.94 106.468 5.12 107.321 5.48C108.188 5.82667 108.934 6.32 109.561 6.96C110.201 7.6 110.694 8.34667 111.041 9.2C111.401 10.04 111.581 10.96 111.581 11.96C111.581 12.96 111.401 13.8933 111.041 14.76C110.681 15.6133 110.174 16.3667 109.521 17.02C108.881 17.66 108.134 18.16 107.281 18.52C106.428 18.88 105.501 19.06 104.501 19.06ZM104.481 18.32C105.388 18.32 106.221 18.16 106.981 17.84C107.741 17.5067 108.408 17.0533 108.981 16.48C109.568 15.9067 110.021 15.2333 110.341 14.46C110.661 13.6733 110.821 12.84 110.821 11.96C110.821 11.0667 110.661 10.24 110.341 9.48C110.034 8.72 109.594 8.05333 109.021 7.48C108.461 6.90667 107.794 6.46667 107.021 6.16C106.261 5.84 105.434 5.68 104.541 5.68C103.634 5.68 102.794 5.84 102.021 6.16C101.248 6.48 100.574 6.93333 100.001 7.52C99.4411 8.09333 99.0011 8.76 98.6811 9.52C98.3611 10.28 98.2011 11.1067 98.2011 12C98.2011 12.88 98.3611 13.7067 98.6811 14.48C99.0011 15.24 99.4411 15.9133 100.001 16.5C100.574 17.0733 101.241 17.52 102.001 17.84C102.774 18.16 103.601 18.32 104.481 18.32ZM104.681 16.16C103.881 16.16 103.168 15.9867 102.541 15.64C101.914 15.28 101.421 14.7867 101.061 14.16C100.701 13.5333 100.521 12.8133 100.521 12C100.521 11.1867 100.701 10.4667 101.061 9.84C101.421 9.21333 101.914 8.72667 102.541 8.38C103.168 8.02 103.881 7.84 104.681 7.84C105.361 7.84 105.974 7.98 106.521 8.26C107.081 8.52667 107.528 8.9 107.861 9.38L107.001 10.02C106.721 9.63333 106.381 9.34667 105.981 9.16C105.581 8.97333 105.141 8.88 104.661 8.88C104.088 8.88 103.574 9.01333 103.121 9.28C102.681 9.53333 102.328 9.89333 102.061 10.36C101.794 10.8267 101.661 11.3733 101.661 12C101.661 12.6267 101.794 13.1733 102.061 13.64C102.328 14.1067 102.681 14.4733 103.121 14.74C103.574 14.9933 104.088 15.12 104.661 15.12C105.141 15.12 105.581 15.0267 105.981 14.84C106.381 14.6533 106.721 14.3667 107.001 13.98L107.861 14.6C107.528 15.0933 107.081 15.48 106.521 15.76C105.974 16.0267 105.361 16.16 104.681 16.16ZM118.007 19V17.98L123.827 12.28C124.361 11.76 124.761 11.3067 125.027 10.92C125.294 10.52 125.474 10.1467 125.567 9.8C125.661 9.45333 125.707 9.12667 125.707 8.82C125.707 8.00667 125.427 7.36667 124.867 6.9C124.321 6.43333 123.507 6.2 122.427 6.2C121.601 6.2 120.867 6.32667 120.227 6.58C119.601 6.83333 119.061 7.22667 118.607 7.76L117.587 6.88C118.134 6.24 118.834 5.74667 119.687 5.4C120.541 5.05333 121.494 4.88 122.547 4.88C123.494 4.88 124.314 5.03333 125.007 5.34C125.701 5.63333 126.234 6.06667 126.607 6.64C126.994 7.21333 127.187 7.88667 127.187 8.66C127.187 9.11333 127.121 9.56 126.987 10C126.867 10.44 126.641 10.9067 126.307 11.4C125.987 11.88 125.514 12.4267 124.887 13.04L119.547 18.28L119.147 17.72H127.827V19H118.007ZM134.875 19.12C133.795 19.12 132.835 18.84 131.995 18.28C131.155 17.7067 130.495 16.8933 130.015 15.84C129.535 14.7733 129.295 13.4933 129.295 12C129.295 10.5067 129.535 9.23333 130.015 8.18C130.495 7.11333 131.155 6.3 131.995 5.74C132.835 5.16667 133.795 4.88 134.875 4.88C135.955 4.88 136.915 5.16667 137.755 5.74C138.595 6.3 139.255 7.11333 139.735 8.18C140.229 9.23333 140.475 10.5067 140.475 12C140.475 13.4933 140.229 14.7733 139.735 15.84C139.255 16.8933 138.595 17.7067 137.755 18.28C136.915 18.84 135.955 19.12 134.875 19.12ZM134.875 17.8C135.702 17.8 136.422 17.58 137.035 17.14C137.649 16.6867 138.129 16.0333 138.475 15.18C138.822 14.3133 138.995 13.2533 138.995 12C138.995 10.7467 138.822 9.69333 138.475 8.84C138.129 7.97333 137.649 7.32 137.035 6.88C136.422 6.42667 135.702 6.2 134.875 6.2C134.075 6.2 133.362 6.42667 132.735 6.88C132.109 7.32 131.622 7.97333 131.275 8.84C130.929 9.69333 130.755 10.7467 130.755 12C130.755 13.2533 130.929 14.3133 131.275 15.18C131.622 16.0333 132.109 16.6867 132.735 17.14C133.362 17.58 134.075 17.8 134.875 17.8ZM141.978 19V17.98L147.798 12.28C148.331 11.76 148.731 11.3067 148.998 10.92C149.264 10.52 149.444 10.1467 149.538 9.8C149.631 9.45333 149.678 9.12667 149.678 8.82C149.678 8.00667 149.398 7.36667 148.838 6.9C148.291 6.43333 147.478 6.2 146.398 6.2C145.571 6.2 144.838 6.32667 144.198 6.58C143.571 6.83333 143.031 7.22667 142.578 7.76L141.558 6.88C142.104 6.24 142.804 5.74667 143.658 5.4C144.511 5.05333 145.464 4.88 146.518 4.88C147.464 4.88 148.284 5.03333 148.978 5.34C149.671 5.63333 150.204 6.06667 150.578 6.64C150.964 7.21333 151.158 7.88667 151.158 8.66C151.158 9.11333 151.091 9.56 150.958 10C150.838 10.44 150.611 10.9067 150.278 11.4C149.958 11.88 149.484 12.4267 148.858 13.04L143.518 18.28L143.118 17.72H151.798V19H141.978ZM157.725 19.12C156.725 19.12 155.772 18.96 154.865 18.64C153.958 18.3067 153.238 17.8667 152.705 17.32L153.405 16.18C153.845 16.6467 154.445 17.0333 155.205 17.34C155.978 17.6467 156.812 17.8 157.705 17.8C158.892 17.8 159.792 17.54 160.405 17.02C161.032 16.4867 161.345 15.7933 161.345 14.94C161.345 14.34 161.198 13.8267 160.905 13.4C160.625 12.96 160.145 12.62 159.465 12.38C158.785 12.14 157.852 12.02 156.665 12.02H153.685L154.405 5H162.065V6.28H154.985L155.725 5.58L155.105 11.46L154.365 10.74H156.985C158.398 10.74 159.532 10.9133 160.385 11.26C161.238 11.6067 161.852 12.0933 162.225 12.72C162.612 13.3333 162.805 14.0533 162.805 14.88C162.805 15.6667 162.618 16.3867 162.245 17.04C161.872 17.68 161.312 18.1867 160.565 18.56C159.818 18.9333 158.872 19.12 157.725 19.12ZM174.487 19L168.287 5H169.887L175.687 18.18H174.807L180.647 5H182.147L175.947 19H174.487ZM189.358 19V16.68L189.298 16.3V12.42C189.298 11.5267 189.045 10.84 188.538 10.36C188.045 9.88 187.305 9.64 186.318 9.64C185.638 9.64 184.992 9.75333 184.378 9.98C183.765 10.2067 183.245 10.5067 182.818 10.88L182.178 9.82C182.712 9.36667 183.352 9.02 184.098 8.78C184.845 8.52667 185.632 8.4 186.458 8.4C187.818 8.4 188.865 8.74 189.598 9.42C190.345 10.0867 190.718 11.1067 190.718 12.48V19H189.358ZM185.738 19.1C184.952 19.1 184.265 18.9733 183.678 18.72C183.105 18.4533 182.665 18.0933 182.358 17.64C182.052 17.1733 181.898 16.64 181.898 16.04C181.898 15.4933 182.025 15 182.278 14.56C182.545 14.1067 182.972 13.7467 183.558 13.48C184.158 13.2 184.958 13.06 185.958 13.06H189.578V14.12H185.998C184.985 14.12 184.278 14.3 183.878 14.66C183.492 15.02 183.298 15.4667 183.298 16C183.298 16.6 183.532 17.08 183.998 17.44C184.465 17.8 185.118 17.98 185.958 17.98C186.758 17.98 187.445 17.8 188.018 17.44C188.605 17.0667 189.032 16.5333 189.298 15.84L189.618 16.82C189.352 17.5133 188.885 18.0667 188.218 18.48C187.565 18.8933 186.738 19.1 185.738 19.1ZM197.095 19.1C196.229 19.1 195.409 18.98 194.635 18.74C193.862 18.4867 193.255 18.1733 192.815 17.8L193.455 16.68C193.882 17 194.429 17.28 195.095 17.52C195.762 17.7467 196.462 17.86 197.195 17.86C198.195 17.86 198.915 17.7067 199.355 17.4C199.795 17.08 200.015 16.66 200.015 16.14C200.015 15.7533 199.889 15.4533 199.635 15.24C199.395 15.0133 199.075 14.8467 198.675 14.74C198.275 14.62 197.829 14.52 197.335 14.44C196.842 14.36 196.349 14.2667 195.855 14.16C195.375 14.0533 194.935 13.9 194.535 13.7C194.135 13.4867 193.809 13.2 193.555 12.84C193.315 12.48 193.195 12 193.195 11.4C193.195 10.8267 193.355 10.3133 193.675 9.86C193.995 9.40667 194.462 9.05333 195.075 8.8C195.702 8.53333 196.462 8.4 197.355 8.4C198.035 8.4 198.715 8.49333 199.395 8.68C200.075 8.85333 200.635 9.08667 201.075 9.38L200.455 10.52C199.989 10.2 199.489 9.97333 198.955 9.84C198.422 9.69333 197.889 9.62 197.355 9.62C196.409 9.62 195.709 9.78667 195.255 10.12C194.815 10.44 194.595 10.8533 194.595 11.36C194.595 11.76 194.715 12.0733 194.955 12.3C195.209 12.5267 195.535 12.7067 195.935 12.84C196.349 12.96 196.795 13.06 197.275 13.14C197.769 13.22 198.255 13.32 198.735 13.44C199.229 13.5467 199.675 13.7 200.075 13.9C200.489 14.0867 200.815 14.36 201.055 14.72C201.309 15.0667 201.435 15.5267 201.435 16.1C201.435 16.7133 201.262 17.2467 200.915 17.7C200.582 18.14 200.089 18.4867 199.435 18.74C198.795 18.98 198.015 19.1 197.095 19.1ZM209.101 8.4C209.954 8.4 210.701 8.56667 211.341 8.9C211.994 9.22 212.501 9.71333 212.861 10.38C213.234 11.0467 213.421 11.8867 213.421 12.9V19H212.001V13.04C212.001 11.9333 211.721 11.1 211.161 10.54C210.614 9.96667 209.841 9.68 208.841 9.68C208.094 9.68 207.441 9.83333 206.881 10.14C206.334 10.4333 205.908 10.8667 205.601 11.44C205.308 12 205.161 12.68 205.161 13.48V19H203.741V8.5H205.101V11.38L204.881 10.84C205.214 10.08 205.748 9.48667 206.481 9.06C207.214 8.62 208.088 8.4 209.101 8.4ZM222.317 8.4C223.17 8.4 223.917 8.56667 224.557 8.9C225.21 9.22 225.717 9.71333 226.077 10.38C226.45 11.0467 226.637 11.8867 226.637 12.9V19H225.217V13.04C225.217 11.9333 224.937 11.1 224.377 10.54C223.83 9.96667 223.057 9.68 222.057 9.68C221.31 9.68 220.657 9.83333 220.097 10.14C219.55 10.4333 219.123 10.8667 218.817 11.44C218.523 12 218.377 12.68 218.377 13.48V19H216.957V4.16H218.377V11.38L218.097 10.84C218.43 10.08 218.963 9.48667 219.697 9.06C220.43 8.62 221.303 8.4 222.317 8.4ZM230.172 19V8.5H231.592V19H230.172ZM230.892 6.18C230.599 6.18 230.352 6.08 230.152 5.88C229.952 5.68 229.852 5.44 229.852 5.16C229.852 4.88 229.952 4.64667 230.152 4.46C230.352 4.26 230.599 4.16 230.892 4.16C231.186 4.16 231.432 4.25333 231.632 4.44C231.832 4.62667 231.932 4.86 231.932 5.14C231.932 5.43333 231.832 5.68 231.632 5.88C231.446 6.08 231.199 6.18 230.892 6.18ZM236.363 16.28L236.403 14.46L242.943 8.5H244.683L240.063 12.92L239.263 13.6L236.363 16.28ZM235.243 19V4.16H236.663V19H235.243ZM243.383 19L239.003 13.54L239.923 12.44L245.123 19H243.383ZM253.34 19V16.68L253.28 16.3V12.42C253.28 11.5267 253.026 10.84 252.52 10.36C252.026 9.88 251.286 9.64 250.3 9.64C249.62 9.64 248.973 9.75333 248.36 9.98C247.746 10.2067 247.226 10.5067 246.8 10.88L246.16 9.82C246.693 9.36667 247.333 9.02 248.08 8.78C248.826 8.52667 249.613 8.4 250.44 8.4C251.8 8.4 252.846 8.74 253.58 9.42C254.326 10.0867 254.7 11.1067 254.7 12.48V19H253.34ZM249.72 19.1C248.933 19.1 248.246 18.9733 247.66 18.72C247.086 18.4533 246.646 18.0933 246.34 17.64C246.033 17.1733 245.88 16.64 245.88 16.04C245.88 15.4933 246.006 15 246.26 14.56C246.526 14.1067 246.953 13.7467 247.54 13.48C248.14 13.2 248.94 13.06 249.94 13.06H253.56V14.12H249.98C248.966 14.12 248.26 14.3 247.86 14.66C247.473 15.02 247.28 15.4667 247.28 16C247.28 16.6 247.513 17.08 247.98 17.44C248.446 17.8 249.1 17.98 249.94 17.98C250.74 17.98 251.426 17.8 252 17.44C252.586 17.0667 253.013 16.5333 253.28 15.84L253.6 16.82C253.333 17.5133 252.866 18.0667 252.2 18.48C251.546 18.8933 250.72 19.1 249.72 19.1ZM258.557 19V5H264.257C265.75 5 267.057 5.3 268.177 5.9C269.31 6.48667 270.19 7.30667 270.817 8.36C271.443 9.41333 271.757 10.6267 271.757 12C271.757 13.3733 271.443 14.5867 270.817 15.64C270.19 16.6933 269.31 17.52 268.177 18.12C267.057 18.7067 265.75 19 264.257 19H258.557ZM260.037 17.72H264.177C265.417 17.72 266.49 17.48 267.397 17C268.317 16.5067 269.03 15.8333 269.537 14.98C270.043 14.1133 270.297 13.12 270.297 12C270.297 10.8667 270.043 9.87333 269.537 9.02C269.03 8.16667 268.317 7.5 267.397 7.02C266.49 6.52667 265.417 6.28 264.177 6.28H260.037V17.72ZM278.94 19.1C277.847 19.1 276.887 18.8733 276.06 18.42C275.233 17.9533 274.587 17.32 274.12 16.52C273.653 15.7067 273.42 14.78 273.42 13.74C273.42 12.7 273.64 11.78 274.08 10.98C274.533 10.18 275.147 9.55333 275.92 9.1C276.707 8.63333 277.587 8.4 278.56 8.4C279.547 8.4 280.42 8.62667 281.18 9.08C281.953 9.52 282.56 10.1467 283 10.96C283.44 11.76 283.66 12.6867 283.66 13.74C283.66 13.8067 283.653 13.88 283.64 13.96C283.64 14.0267 283.64 14.1 283.64 14.18H274.5V13.12H282.88L282.32 13.54C282.32 12.78 282.153 12.1067 281.82 11.52C281.5 10.92 281.06 10.4533 280.5 10.12C279.94 9.78667 279.293 9.62 278.56 9.62C277.84 9.62 277.193 9.78667 276.62 10.12C276.047 10.4533 275.6 10.92 275.28 11.52C274.96 12.12 274.8 12.8067 274.8 13.58V13.8C274.8 14.6 274.973 15.3067 275.32 15.92C275.68 16.52 276.173 16.9933 276.8 17.34C277.44 17.6733 278.167 17.84 278.98 17.84C279.62 17.84 280.213 17.7267 280.76 17.5C281.32 17.2733 281.8 16.9267 282.2 16.46L283 17.38C282.533 17.94 281.947 18.3667 281.24 18.66C280.547 18.9533 279.78 19.1 278.94 19.1ZM289.07 19.1C288.204 19.1 287.384 18.98 286.61 18.74C285.837 18.4867 285.23 18.1733 284.79 17.8L285.43 16.68C285.857 17 286.404 17.28 287.07 17.52C287.737 17.7467 288.437 17.86 289.17 17.86C290.17 17.86 290.89 17.7067 291.33 17.4C291.77 17.08 291.99 16.66 291.99 16.14C291.99 15.7533 291.864 15.4533 291.61 15.24C291.37 15.0133 291.05 14.8467 290.65 14.74C290.25 14.62 289.804 14.52 289.31 14.44C288.817 14.36 288.324 14.2667 287.83 14.16C287.35 14.0533 286.91 13.9 286.51 13.7C286.11 13.4867 285.784 13.2 285.53 12.84C285.29 12.48 285.17 12 285.17 11.4C285.17 10.8267 285.33 10.3133 285.65 9.86C285.97 9.40667 286.437 9.05333 287.05 8.8C287.677 8.53333 288.437 8.4 289.33 8.4C290.01 8.4 290.69 8.49333 291.37 8.68C292.05 8.85333 292.61 9.08667 293.05 9.38L292.43 10.52C291.964 10.2 291.464 9.97333 290.93 9.84C290.397 9.69333 289.864 9.62 289.33 9.62C288.384 9.62 287.684 9.78667 287.23 10.12C286.79 10.44 286.57 10.8533 286.57 11.36C286.57 11.76 286.69 12.0733 286.93 12.3C287.184 12.5267 287.51 12.7067 287.91 12.84C288.324 12.96 288.77 13.06 289.25 13.14C289.744 13.22 290.23 13.32 290.71 13.44C291.204 13.5467 291.65 13.7 292.05 13.9C292.464 14.0867 292.79 14.36 293.03 14.72C293.284 15.0667 293.41 15.5267 293.41 16.1C293.41 16.7133 293.237 17.2467 292.89 17.7C292.557 18.14 292.064 18.4867 291.41 18.74C290.77 18.98 289.99 19.1 289.07 19.1ZM295.716 19V8.5H297.136V19H295.716ZM296.436 6.18C296.143 6.18 295.896 6.08 295.696 5.88C295.496 5.68 295.396 5.44 295.396 5.16C295.396 4.88 295.496 4.64667 295.696 4.46C295.896 4.26 296.143 4.16 296.436 4.16C296.729 4.16 296.976 4.25333 297.176 4.44C297.376 4.62667 297.476 4.86 297.476 5.14C297.476 5.43333 297.376 5.68 297.176 5.88C296.989 6.08 296.743 6.18 296.436 6.18ZM305.267 22.98C304.307 22.98 303.387 22.84 302.507 22.56C301.627 22.28 300.914 21.88 300.367 21.36L301.087 20.28C301.58 20.72 302.187 21.0667 302.907 21.32C303.64 21.5867 304.414 21.72 305.227 21.72C306.56 21.72 307.54 21.4067 308.167 20.78C308.794 20.1667 309.107 19.2067 309.107 17.9V15.28L309.307 13.48L309.167 11.68V8.5H310.527V17.72C310.527 19.5333 310.08 20.86 309.187 21.7C308.307 22.5533 307 22.98 305.267 22.98ZM305.007 18.6C304.007 18.6 303.107 18.3867 302.307 17.96C301.507 17.52 300.874 16.9133 300.407 16.14C299.954 15.3667 299.727 14.48 299.727 13.48C299.727 12.48 299.954 11.6 300.407 10.84C300.874 10.0667 301.507 9.46667 302.307 9.04C303.107 8.61333 304.007 8.4 305.007 8.4C305.94 8.4 306.78 8.59333 307.527 8.98C308.274 9.36667 308.867 9.94 309.307 10.7C309.747 11.46 309.967 12.3867 309.967 13.48C309.967 14.5733 309.747 15.5 309.307 16.26C308.867 17.02 308.274 17.6 307.527 18C306.78 18.4 305.94 18.6 305.007 18.6ZM305.147 17.34C305.92 17.34 306.607 17.18 307.207 16.86C307.807 16.5267 308.28 16.0733 308.627 15.5C308.974 14.9133 309.147 14.24 309.147 13.48C309.147 12.72 308.974 12.0533 308.627 11.48C308.28 10.9067 307.807 10.46 307.207 10.14C306.607 9.80667 305.92 9.64 305.147 9.64C304.387 9.64 303.7 9.80667 303.087 10.14C302.487 10.46 302.014 10.9067 301.667 11.48C301.334 12.0533 301.167 12.72 301.167 13.48C301.167 14.24 301.334 14.9133 301.667 15.5C302.014 16.0733 302.487 16.5267 303.087 16.86C303.7 17.18 304.387 17.34 305.147 17.34ZM319.538 8.4C320.392 8.4 321.138 8.56667 321.778 8.9C322.432 9.22 322.938 9.71333 323.298 10.38C323.672 11.0467 323.858 11.8867 323.858 12.9V19H322.438V13.04C322.438 11.9333 322.158 11.1 321.598 10.54C321.052 9.96667 320.278 9.68 319.278 9.68C318.532 9.68 317.878 9.83333 317.318 10.14C316.772 10.4333 316.345 10.8667 316.038 11.44C315.745 12 315.598 12.68 315.598 13.48V19H314.178V8.5H315.538V11.38L315.318 10.84C315.652 10.08 316.185 9.48667 316.918 9.06C317.652 8.62 318.525 8.4 319.538 8.4ZM327.534 19.1C327.241 19.1 326.987 18.9933 326.774 18.78C326.574 18.5667 326.474 18.3067 326.474 18C326.474 17.68 326.574 17.42 326.774 17.22C326.987 17.02 327.241 16.92 327.534 16.92C327.827 16.92 328.074 17.02 328.274 17.22C328.487 17.42 328.594 17.68 328.594 18C328.594 18.3067 328.487 18.5667 328.274 18.78C328.074 18.9933 327.827 19.1 327.534 19.1ZM334.327 19L340.727 5H342.187L348.587 19H347.027L341.147 5.86H341.747L335.867 19H334.327ZM336.847 15.26L337.287 14.06H345.427L345.867 15.26H336.847ZM350.303 19V4.16H351.723V19H350.303ZM355.374 19V4.16H356.794V19H355.374ZM365.679 19V5H370.919C372.106 5 373.126 5.19333 373.979 5.58C374.833 5.95333 375.486 6.5 375.939 7.22C376.406 7.92667 376.639 8.78667 376.639 9.8C376.639 10.7867 376.406 11.64 375.939 12.36C375.486 13.0667 374.833 13.6133 373.979 14C373.126 14.3733 372.106 14.56 370.919 14.56H366.499L367.159 13.88V19H365.679ZM375.239 19L371.639 13.92H373.239L376.859 19H375.239ZM367.159 14L366.499 13.3H370.879C372.279 13.3 373.339 12.9933 374.059 12.38C374.793 11.7667 375.159 10.9067 375.159 9.8C375.159 8.68 374.793 7.81333 374.059 7.2C373.339 6.58667 372.279 6.28 370.879 6.28H366.499L367.159 5.58V14ZM379.532 19V8.5H380.952V19H379.532ZM380.252 6.18C379.959 6.18 379.712 6.08 379.512 5.88C379.312 5.68 379.212 5.44 379.212 5.16C379.212 4.88 379.312 4.64667 379.512 4.46C379.712 4.26 379.959 4.16 380.252 4.16C380.546 4.16 380.792 4.25333 380.992 4.44C381.192 4.62667 381.292 4.86 381.292 5.14C381.292 5.43333 381.192 5.68 380.992 5.88C380.806 6.08 380.559 6.18 380.252 6.18ZM389.083 22.98C388.123 22.98 387.203 22.84 386.323 22.56C385.443 22.28 384.73 21.88 384.183 21.36L384.903 20.28C385.397 20.72 386.003 21.0667 386.723 21.32C387.457 21.5867 388.23 21.72 389.043 21.72C390.377 21.72 391.357 21.4067 391.983 20.78C392.61 20.1667 392.923 19.2067 392.923 17.9V15.28L393.123 13.48L392.983 11.68V8.5H394.343V17.72C394.343 19.5333 393.897 20.86 393.003 21.7C392.123 22.5533 390.817 22.98 389.083 22.98ZM388.823 18.6C387.823 18.6 386.923 18.3867 386.123 17.96C385.323 17.52 384.69 16.9133 384.223 16.14C383.77 15.3667 383.543 14.48 383.543 13.48C383.543 12.48 383.77 11.6 384.223 10.84C384.69 10.0667 385.323 9.46667 386.123 9.04C386.923 8.61333 387.823 8.4 388.823 8.4C389.757 8.4 390.597 8.59333 391.343 8.98C392.09 9.36667 392.683 9.94 393.123 10.7C393.563 11.46 393.783 12.3867 393.783 13.48C393.783 14.5733 393.563 15.5 393.123 16.26C392.683 17.02 392.09 17.6 391.343 18C390.597 18.4 389.757 18.6 388.823 18.6ZM388.963 17.34C389.737 17.34 390.423 17.18 391.023 16.86C391.623 16.5267 392.097 16.0733 392.443 15.5C392.79 14.9133 392.963 14.24 392.963 13.48C392.963 12.72 392.79 12.0533 392.443 11.48C392.097 10.9067 391.623 10.46 391.023 10.14C390.423 9.80667 389.737 9.64 388.963 9.64C388.203 9.64 387.517 9.80667 386.903 10.14C386.303 10.46 385.83 10.9067 385.483 11.48C385.15 12.0533 384.983 12.72 384.983 13.48C384.983 14.24 385.15 14.9133 385.483 15.5C385.83 16.0733 386.303 16.5267 386.903 16.86C387.517 17.18 388.203 17.34 388.963 17.34ZM403.355 8.4C404.208 8.4 404.955 8.56667 405.595 8.9C406.248 9.22 406.755 9.71333 407.115 10.38C407.488 11.0467 407.675 11.8867 407.675 12.9V19H406.255V13.04C406.255 11.9333 405.975 11.1 405.415 10.54C404.868 9.96667 404.095 9.68 403.095 9.68C402.348 9.68 401.695 9.83333 401.135 10.14C400.588 10.4333 400.161 10.8667 399.855 11.44C399.561 12 399.415 12.68 399.415 13.48V19H397.995V4.16H399.415V11.38L399.135 10.84C399.468 10.08 400.001 9.48667 400.735 9.06C401.468 8.62 402.341 8.4 403.355 8.4ZM414.53 19.1C413.544 19.1 412.784 18.8333 412.25 18.3C411.717 17.7667 411.45 17.0133 411.45 16.04V6.18H412.87V15.96C412.87 16.5733 413.024 17.0467 413.33 17.38C413.65 17.7133 414.104 17.88 414.69 17.88C415.317 17.88 415.837 17.7 416.25 17.34L416.75 18.36C416.47 18.6133 416.13 18.8 415.73 18.92C415.344 19.04 414.944 19.1 414.53 19.1ZM409.57 9.68V8.5H416.07V9.68H409.57ZM421.855 19.1C420.989 19.1 420.169 18.98 419.395 18.74C418.622 18.4867 418.015 18.1733 417.575 17.8L418.215 16.68C418.642 17 419.189 17.28 419.855 17.52C420.522 17.7467 421.222 17.86 421.955 17.86C422.955 17.86 423.675 17.7067 424.115 17.4C424.555 17.08 424.775 16.66 424.775 16.14C424.775 15.7533 424.649 15.4533 424.395 15.24C424.155 15.0133 423.835 14.8467 423.435 14.74C423.035 14.62 422.589 14.52 422.095 14.44C421.602 14.36 421.109 14.2667 420.615 14.16C420.135 14.0533 419.695 13.9 419.295 13.7C418.895 13.4867 418.569 13.2 418.315 12.84C418.075 12.48 417.955 12 417.955 11.4C417.955 10.8267 418.115 10.3133 418.435 9.86C418.755 9.40667 419.222 9.05333 419.835 8.8C420.462 8.53333 421.222 8.4 422.115 8.4C422.795 8.4 423.475 8.49333 424.155 8.68C424.835 8.85333 425.395 9.08667 425.835 9.38L425.215 10.52C424.749 10.2 424.249 9.97333 423.715 9.84C423.182 9.69333 422.649 9.62 422.115 9.62C421.169 9.62 420.469 9.78667 420.015 10.12C419.575 10.44 419.355 10.8533 419.355 11.36C419.355 11.76 419.475 12.0733 419.715 12.3C419.969 12.5267 420.295 12.7067 420.695 12.84C421.109 12.96 421.555 13.06 422.035 13.14C422.529 13.22 423.015 13.32 423.495 13.44C423.989 13.5467 424.435 13.7 424.835 13.9C425.249 14.0867 425.575 14.36 425.815 14.72C426.069 15.0667 426.195 15.5267 426.195 16.1C426.195 16.7133 426.022 17.2467 425.675 17.7C425.342 18.14 424.849 18.4867 424.195 18.74C423.555 18.98 422.775 19.1 421.855 19.1ZM433.735 19V5H438.975C440.162 5 441.182 5.19333 442.035 5.58C442.889 5.95333 443.542 6.5 443.995 7.22C444.462 7.92667 444.695 8.78667 444.695 9.8C444.695 10.7867 444.462 11.64 443.995 12.36C443.542 13.0667 442.889 13.6133 442.035 14C441.182 14.3733 440.162 14.56 438.975 14.56H434.555L435.215 13.88V19H433.735ZM443.295 19L439.695 13.92H441.295L444.915 19H443.295ZM435.215 14L434.555 13.3H438.935C440.335 13.3 441.395 12.9933 442.115 12.38C442.849 11.7667 443.215 10.9067 443.215 9.8C443.215 8.68 442.849 7.81333 442.115 7.2C441.395 6.58667 440.335 6.28 438.935 6.28H434.555L435.215 5.58V14ZM452.049 19.1C450.955 19.1 449.995 18.8733 449.169 18.42C448.342 17.9533 447.695 17.32 447.229 16.52C446.762 15.7067 446.529 14.78 446.529 13.74C446.529 12.7 446.749 11.78 447.189 10.98C447.642 10.18 448.255 9.55333 449.029 9.1C449.815 8.63333 450.695 8.4 451.669 8.4C452.655 8.4 453.529 8.62667 454.289 9.08C455.062 9.52 455.669 10.1467 456.109 10.96C456.549 11.76 456.769 12.6867 456.769 13.74C456.769 13.8067 456.762 13.88 456.749 13.96C456.749 14.0267 456.749 14.1 456.749 14.18H447.609V13.12H455.989L455.429 13.54C455.429 12.78 455.262 12.1067 454.929 11.52C454.609 10.92 454.169 10.4533 453.609 10.12C453.049 9.78667 452.402 9.62 451.669 9.62C450.949 9.62 450.302 9.78667 449.729 10.12C449.155 10.4533 448.709 10.92 448.389 11.52C448.069 12.12 447.909 12.8067 447.909 13.58V13.8C447.909 14.6 448.082 15.3067 448.429 15.92C448.789 16.52 449.282 16.9933 449.909 17.34C450.549 17.6733 451.275 17.84 452.089 17.84C452.729 17.84 453.322 17.7267 453.869 17.5C454.429 17.2733 454.909 16.9267 455.309 16.46L456.109 17.38C455.642 17.94 455.055 18.3667 454.349 18.66C453.655 18.9533 452.889 19.1 452.049 19.1ZM462.179 19.1C461.312 19.1 460.492 18.98 459.719 18.74C458.946 18.4867 458.339 18.1733 457.899 17.8L458.539 16.68C458.966 17 459.512 17.28 460.179 17.52C460.846 17.7467 461.546 17.86 462.279 17.86C463.279 17.86 463.999 17.7067 464.439 17.4C464.879 17.08 465.099 16.66 465.099 16.14C465.099 15.7533 464.972 15.4533 464.719 15.24C464.479 15.0133 464.159 14.8467 463.759 14.74C463.359 14.62 462.912 14.52 462.419 14.44C461.926 14.36 461.432 14.2667 460.939 14.16C460.459 14.0533 460.019 13.9 459.619 13.7C459.219 13.4867 458.892 13.2 458.639 12.84C458.399 12.48 458.279 12 458.279 11.4C458.279 10.8267 458.439 10.3133 458.759 9.86C459.079 9.40667 459.546 9.05333 460.159 8.8C460.786 8.53333 461.546 8.4 462.439 8.4C463.119 8.4 463.799 8.49333 464.479 8.68C465.159 8.85333 465.719 9.08667 466.159 9.38L465.539 10.52C465.072 10.2 464.572 9.97333 464.039 9.84C463.506 9.69333 462.972 9.62 462.439 9.62C461.492 9.62 460.792 9.78667 460.339 10.12C459.899 10.44 459.679 10.8533 459.679 11.36C459.679 11.76 459.799 12.0733 460.039 12.3C460.292 12.5267 460.619 12.7067 461.019 12.84C461.432 12.96 461.879 13.06 462.359 13.14C462.852 13.22 463.339 13.32 463.819 13.44C464.312 13.5467 464.759 13.7 465.159 13.9C465.572 14.0867 465.899 14.36 466.139 14.72C466.392 15.0667 466.519 15.5267 466.519 16.1C466.519 16.7133 466.346 17.2467 465.999 17.7C465.666 18.14 465.172 18.4867 464.519 18.74C463.879 18.98 463.099 19.1 462.179 19.1ZM473.285 19.1C472.191 19.1 471.231 18.8733 470.405 18.42C469.578 17.9533 468.931 17.32 468.465 16.52C467.998 15.7067 467.765 14.78 467.765 13.74C467.765 12.7 467.985 11.78 468.425 10.98C468.878 10.18 469.491 9.55333 470.265 9.1C471.051 8.63333 471.931 8.4 472.905 8.4C473.891 8.4 474.765 8.62667 475.525 9.08C476.298 9.52 476.905 10.1467 477.345 10.96C477.785 11.76 478.005 12.6867 478.005 13.74C478.005 13.8067 477.998 13.88 477.985 13.96C477.985 14.0267 477.985 14.1 477.985 14.18H468.845V13.12H477.225L476.665 13.54C476.665 12.78 476.498 12.1067 476.165 11.52C475.845 10.92 475.405 10.4533 474.845 10.12C474.285 9.78667 473.638 9.62 472.905 9.62C472.185 9.62 471.538 9.78667 470.965 10.12C470.391 10.4533 469.945 10.92 469.625 11.52C469.305 12.12 469.145 12.8067 469.145 13.58V13.8C469.145 14.6 469.318 15.3067 469.665 15.92C470.025 16.52 470.518 16.9933 471.145 17.34C471.785 17.6733 472.511 17.84 473.325 17.84C473.965 17.84 474.558 17.7267 475.105 17.5C475.665 17.2733 476.145 16.9267 476.545 16.46L477.345 17.38C476.878 17.94 476.291 18.3667 475.585 18.66C474.891 18.9533 474.125 19.1 473.285 19.1ZM480.595 19V8.5H481.955V11.36L481.815 10.86C482.108 10.06 482.602 9.45333 483.295 9.04C483.988 8.61333 484.848 8.4 485.875 8.4V9.78C485.822 9.78 485.768 9.78 485.715 9.78C485.662 9.76667 485.608 9.76 485.555 9.76C484.448 9.76 483.582 10.1 482.955 10.78C482.328 11.4467 482.015 12.4 482.015 13.64V19H480.595ZM491.315 19L486.655 8.5H488.135L492.415 18.24H491.715L496.055 8.5H497.455L492.775 19H491.315ZM503.322 19.1C502.229 19.1 501.269 18.8733 500.442 18.42C499.615 17.9533 498.969 17.32 498.502 16.52C498.035 15.7067 497.802 14.78 497.802 13.74C497.802 12.7 498.022 11.78 498.462 10.98C498.915 10.18 499.529 9.55333 500.302 9.1C501.089 8.63333 501.969 8.4 502.942 8.4C503.929 8.4 504.802 8.62667 505.562 9.08C506.335 9.52 506.942 10.1467 507.382 10.96C507.822 11.76 508.042 12.6867 508.042 13.74C508.042 13.8067 508.035 13.88 508.022 13.96C508.022 14.0267 508.022 14.1 508.022 14.18H498.882V13.12H507.262L506.702 13.54C506.702 12.78 506.535 12.1067 506.202 11.52C505.882 10.92 505.442 10.4533 504.882 10.12C504.322 9.78667 503.675 9.62 502.942 9.62C502.222 9.62 501.575 9.78667 501.002 10.12C500.429 10.4533 499.982 10.92 499.662 11.52C499.342 12.12 499.182 12.8067 499.182 13.58V13.8C499.182 14.6 499.355 15.3067 499.702 15.92C500.062 16.52 500.555 16.9933 501.182 17.34C501.822 17.6733 502.549 17.84 503.362 17.84C504.002 17.84 504.595 17.7267 505.142 17.5C505.702 17.2733 506.182 16.9267 506.582 16.46L507.382 17.38C506.915 17.94 506.329 18.3667 505.622 18.66C504.929 18.9533 504.162 19.1 503.322 19.1ZM514.812 19.1C513.812 19.1 512.912 18.8733 512.112 18.42C511.326 17.9667 510.706 17.34 510.252 16.54C509.799 15.7267 509.572 14.7933 509.572 13.74C509.572 12.6733 509.799 11.74 510.252 10.94C510.706 10.14 511.326 9.52 512.112 9.08C512.912 8.62667 513.812 8.4 514.812 8.4C515.732 8.4 516.552 8.60667 517.272 9.02C518.006 9.43333 518.586 10.04 519.012 10.84C519.452 11.6267 519.672 12.5933 519.672 13.74C519.672 14.8733 519.459 15.84 519.032 16.64C518.606 17.44 518.026 18.0533 517.292 18.48C516.572 18.8933 515.746 19.1 514.812 19.1ZM514.912 17.84C515.659 17.84 516.326 17.6733 516.912 17.34C517.512 16.9933 517.979 16.5133 518.312 15.9C518.659 15.2733 518.832 14.5533 518.832 13.74C518.832 12.9133 518.659 12.1933 518.312 11.58C517.979 10.9667 517.512 10.4933 516.912 10.16C516.326 9.81333 515.659 9.64 514.912 9.64C514.179 9.64 513.519 9.81333 512.932 10.16C512.346 10.4933 511.879 10.9667 511.532 11.58C511.186 12.1933 511.012 12.9133 511.012 13.74C511.012 14.5533 511.186 15.2733 511.532 15.9C511.879 16.5133 512.346 16.9933 512.932 17.34C513.519 17.6733 514.179 17.84 514.912 17.84ZM518.872 19V15.84L519.012 13.72L518.812 11.6V4.16H520.232V19H518.872ZM524.027 19.1C523.734 19.1 523.48 18.9933 523.267 18.78C523.067 18.5667 522.967 18.3067 522.967 18C522.967 17.68 523.067 17.42 523.267 17.22C523.48 17.02 523.734 16.92 524.027 16.92C524.32 16.92 524.567 17.02 524.767 17.22C524.98 17.42 525.087 17.68 525.087 18C525.087 18.3067 524.98 18.5667 524.767 18.78C524.567 18.9933 524.32 19.1 524.027 19.1Z" fill="white"/>
<path d="M894.924 19.2441C893.876 19.2441 892.922 19.0033 892.062 18.5215C891.21 18.0397 890.539 17.3789 890.051 16.5391C889.562 15.6927 889.318 14.752 889.318 13.7168V5.20117H891.145V13.6777C891.145 14.7585 891.503 15.6634 892.219 16.3926C892.941 17.1152 893.843 17.4766 894.924 17.4766C896.011 17.4766 896.916 17.1152 897.639 16.3926C898.361 15.6634 898.723 14.7585 898.723 13.6777V5.20117H900.539V13.7168C900.539 14.752 900.295 15.6927 899.807 16.5391C899.318 17.3789 898.645 18.0397 897.785 18.5215C896.932 19.0033 895.979 19.2441 894.924 19.2441ZM906.372 19.2441C904.725 19.2441 903.345 18.7103 902.231 17.6426L903.188 16.4023C904.022 17.2552 905.073 17.6816 906.343 17.6816C907.033 17.6816 907.599 17.5547 908.042 17.3008C908.485 17.0404 908.706 16.6855 908.706 16.2363C908.706 16.0475 908.657 15.8783 908.559 15.7285C908.468 15.5723 908.358 15.4453 908.227 15.3477C908.104 15.25 907.915 15.1556 907.661 15.0645C907.414 14.9668 907.195 14.8952 907.007 14.8496C906.824 14.7975 906.564 14.7292 906.225 14.6445C905.913 14.5664 905.665 14.5046 905.483 14.459C905.301 14.4069 905.063 14.3288 904.77 14.2246C904.484 14.1204 904.249 14.0195 904.067 13.9219C903.891 13.8242 903.696 13.6973 903.481 13.541C903.273 13.3783 903.107 13.209 902.983 13.0332C902.866 12.8509 902.765 12.6361 902.68 12.3887C902.602 12.1348 902.563 11.8581 902.563 11.5586C902.563 10.9206 902.746 10.3704 903.11 9.9082C903.475 9.44596 903.947 9.10742 904.526 8.89258C905.106 8.67122 905.753 8.56055 906.47 8.56055C907.941 8.56055 909.188 9.02604 910.21 9.95703L909.243 11.2168C908.494 10.4876 907.576 10.123 906.489 10.123C905.871 10.123 905.356 10.2402 904.946 10.4746C904.536 10.709 904.331 11.0378 904.331 11.4609C904.331 11.6562 904.38 11.832 904.477 11.9883C904.575 12.138 904.686 12.2617 904.809 12.3594C904.94 12.457 905.135 12.5547 905.395 12.6523C905.656 12.7435 905.874 12.8151 906.05 12.8672C906.232 12.9128 906.499 12.9779 906.85 13.0625C907.156 13.1341 907.401 13.196 907.583 13.248C907.772 13.2936 908.009 13.3652 908.296 13.4629C908.582 13.5605 908.813 13.6582 908.989 13.7559C909.171 13.847 909.367 13.9707 909.575 14.127C909.783 14.2832 909.946 14.4492 910.063 14.625C910.18 14.8008 910.278 15.0156 910.356 15.2695C910.441 15.5169 910.483 15.7871 910.483 16.0801C910.483 17.0632 910.096 17.8379 909.321 18.4043C908.546 18.9642 907.563 19.2441 906.372 19.2441ZM922.38 13.9023C922.38 14 922.364 14.2539 922.332 14.6641H913.552C913.728 15.5625 914.155 16.2884 914.832 16.8418C915.515 17.3887 916.349 17.6621 917.332 17.6621C918.061 17.6621 918.731 17.5091 919.343 17.2031C919.955 16.8906 920.434 16.4902 920.779 16.002L921.961 17.0176C921.446 17.7077 920.779 18.2513 919.959 18.6484C919.145 19.0456 918.25 19.2441 917.273 19.2441C915.678 19.2441 914.35 18.7298 913.289 17.7012C912.227 16.6725 911.697 15.3932 911.697 13.8633C911.697 12.8737 911.928 11.9753 912.39 11.168C912.859 10.3542 913.504 9.71615 914.324 9.25391C915.144 8.79167 916.056 8.56055 917.058 8.56055C918.054 8.56055 918.959 8.79167 919.773 9.25391C920.587 9.71615 921.225 10.3574 921.687 11.1777C922.149 11.9915 922.38 12.8997 922.38 13.9023ZM917.039 10.1426C916.153 10.1426 915.388 10.4193 914.744 10.9727C914.099 11.5195 913.696 12.2292 913.533 13.1016H920.554C920.392 12.2161 919.988 11.5033 919.343 10.9629C918.699 10.416 917.931 10.1426 917.039 10.1426ZM929.483 8.63867H929.825V10.416H929.483C928.409 10.416 927.559 10.7318 926.934 11.3633C926.315 11.9883 926.006 12.8346 926.006 13.9023V19H924.287V8.80469H926.006V10.5625C926.807 9.27995 927.966 8.63867 929.483 8.63867ZM945.807 5.20117V6.91992H941.383V19H939.566V6.91992H935.143V5.20117H945.807ZM955.77 13.9023C955.77 14 955.754 14.2539 955.721 14.6641H946.942C947.118 15.5625 947.544 16.2884 948.221 16.8418C948.905 17.3887 949.738 17.6621 950.721 17.6621C951.451 17.6621 952.121 17.5091 952.733 17.2031C953.345 16.8906 953.824 16.4902 954.169 16.002L955.35 17.0176C954.836 17.7077 954.169 18.2513 953.348 18.6484C952.535 19.0456 951.639 19.2441 950.663 19.2441C949.068 19.2441 947.74 18.7298 946.679 17.7012C945.617 16.6725 945.087 15.3932 945.087 13.8633C945.087 12.8737 945.318 11.9753 945.78 11.168C946.249 10.3542 946.893 9.71615 947.714 9.25391C948.534 8.79167 949.445 8.56055 950.448 8.56055C951.444 8.56055 952.349 8.79167 953.163 9.25391C953.977 9.71615 954.615 10.3574 955.077 11.1777C955.539 11.9915 955.77 12.8997 955.77 13.9023ZM950.429 10.1426C949.543 10.1426 948.778 10.4193 948.134 10.9727C947.489 11.5195 947.085 12.2292 946.923 13.1016H953.944C953.781 12.2161 953.378 11.5033 952.733 10.9629C952.089 10.416 951.32 10.1426 950.429 10.1426ZM962.873 8.63867H963.214V10.416H962.873C961.798 10.416 960.949 10.7318 960.324 11.3633C959.705 11.9883 959.396 12.8346 959.396 13.9023V19H957.677V8.80469H959.396V10.5625C960.197 9.27995 961.356 8.63867 962.873 8.63867ZM976.957 8.56055C978.129 8.56055 979.064 8.91211 979.76 9.61523C980.463 10.3118 980.815 11.2461 980.815 12.418V19H979.096V12.8965C979.096 12.0827 978.852 11.4349 978.364 10.9531C977.882 10.4648 977.237 10.2207 976.43 10.2207C975.597 10.2207 974.926 10.4681 974.418 10.9629C973.911 11.4577 973.657 12.1152 973.657 12.9355V19H971.938V12.8965C971.938 12.0827 971.694 11.4349 971.205 10.9531C970.724 10.4648 970.079 10.2207 969.272 10.2207C968.439 10.2207 967.768 10.4681 967.26 10.9629C966.752 11.4577 966.498 12.1152 966.498 12.9355V19H964.78V8.80469H966.498V10.1816C967.273 9.10091 968.386 8.56055 969.838 8.56055C970.633 8.56055 971.326 8.73633 971.918 9.08789C972.511 9.43945 972.957 9.93099 973.256 10.5625C973.64 9.91797 974.148 9.42318 974.78 9.07812C975.418 8.73307 976.144 8.56055 976.957 8.56055ZM986.609 19.2441C984.961 19.2441 983.581 18.7103 982.468 17.6426L983.425 16.4023C984.258 17.2552 985.31 17.6816 986.579 17.6816C987.269 17.6816 987.836 17.5547 988.279 17.3008C988.721 17.0404 988.943 16.6855 988.943 16.2363C988.943 16.0475 988.894 15.8783 988.796 15.7285C988.705 15.5723 988.594 15.4453 988.464 15.3477C988.34 15.25 988.152 15.1556 987.898 15.0645C987.65 14.9668 987.432 14.8952 987.243 14.8496C987.061 14.7975 986.801 14.7292 986.462 14.6445C986.15 14.5664 985.902 14.5046 985.72 14.459C985.538 14.4069 985.3 14.3288 985.007 14.2246C984.721 14.1204 984.486 14.0195 984.304 13.9219C984.128 13.8242 983.933 13.6973 983.718 13.541C983.51 13.3783 983.344 13.209 983.22 13.0332C983.103 12.8509 983.002 12.6361 982.917 12.3887C982.839 12.1348 982.8 11.8581 982.8 11.5586C982.8 10.9206 982.982 10.3704 983.347 9.9082C983.711 9.44596 984.183 9.10742 984.763 8.89258C985.342 8.67122 985.99 8.56055 986.706 8.56055C988.178 8.56055 989.424 9.02604 990.446 9.95703L989.48 11.2168C988.731 10.4876 987.813 10.123 986.726 10.123C986.107 10.123 985.593 10.2402 985.183 10.4746C984.773 10.709 984.568 11.0378 984.568 11.4609C984.568 11.6562 984.616 11.832 984.714 11.9883C984.812 12.138 984.922 12.2617 985.046 12.3594C985.176 12.457 985.372 12.5547 985.632 12.6523C985.892 12.7435 986.111 12.8151 986.286 12.8672C986.469 12.9128 986.736 12.9779 987.087 13.0625C987.393 13.1341 987.637 13.196 987.82 13.248C988.008 13.2936 988.246 13.3652 988.532 13.4629C988.819 13.5605 989.05 13.6582 989.226 13.7559C989.408 13.847 989.603 13.9707 989.812 14.127C990.02 14.2832 990.183 14.4492 990.3 14.625C990.417 14.8008 990.515 15.0156 990.593 15.2695C990.678 15.5169 990.72 15.7871 990.72 16.0801C990.72 17.0632 990.333 17.8379 989.558 18.4043C988.783 18.9642 987.8 19.2441 986.609 19.2441ZM1008.98 19H1006.63L1005.51 17.7598C1004.36 18.7493 1003.03 19.2441 1001.52 19.2441C1000.06 19.2441 998.867 18.8307 997.923 18.0039C996.985 17.1706 996.516 16.1159 996.516 14.8398C996.516 14.3516 996.588 13.8991 996.731 13.4824C996.874 13.0592 997.08 12.6849 997.346 12.3594C997.62 12.0339 997.906 11.7507 998.206 11.5098C998.512 11.2624 998.867 11.0247 999.27 10.7969C998.404 9.6901 997.971 8.70378 997.971 7.83789C997.971 7.01758 998.294 6.33398 998.938 5.78711C999.583 5.23372 1000.37 4.95703 1001.31 4.95703C1002.27 4.95703 1003.07 5.22721 1003.71 5.76758C1004.36 6.30794 1004.69 6.99154 1004.69 7.81836C1004.69 8.19596 1004.62 8.55078 1004.47 8.88281C1004.32 9.20833 1004.09 9.50781 1003.8 9.78125C1003.52 10.0482 1003.22 10.2826 1002.92 10.4844C1002.62 10.6862 1002.26 10.8978 1001.84 11.1191L1005.53 15.2012C1006.08 14.3939 1006.52 13.4596 1006.86 12.3984L1008.39 12.9355C1007.84 14.446 1007.27 15.6081 1006.65 16.4219L1008.98 19ZM1001.31 6.38281C1000.88 6.38281 1000.51 6.51953 1000.21 6.79297C999.908 7.06641 999.759 7.41471 999.759 7.83789C999.759 8.39128 1000.12 9.10417 1000.83 9.97656C1001.5 9.63802 1002 9.30273 1002.36 8.9707C1002.71 8.63216 1002.89 8.24805 1002.89 7.81836C1002.89 7.4082 1002.74 7.06641 1002.43 6.79297C1002.13 6.51953 1001.75 6.38281 1001.31 6.38281ZM1001.57 17.6035C1002.6 17.6035 1003.54 17.2357 1004.4 16.5L1000.28 11.9395C999.664 12.3301 999.189 12.7467 998.85 13.1895C998.518 13.6257 998.352 14.1367 998.352 14.7227C998.352 15.556 998.658 16.2461 999.27 16.793C999.889 17.3333 1000.66 17.6035 1001.57 17.6035ZM1021.04 19.2441C1020.03 19.2441 1019.07 19.0618 1018.18 18.6973C1017.29 18.3262 1016.53 17.8249 1015.89 17.1934C1015.25 16.5618 1014.74 15.8066 1014.37 14.9277C1014.01 14.0423 1013.83 13.0983 1013.83 12.0957C1013.83 10.7611 1014.14 9.55013 1014.76 8.46289C1015.39 7.36914 1016.25 6.51302 1017.35 5.89453C1018.46 5.26953 1019.69 4.95703 1021.04 4.95703C1022.3 4.95703 1023.46 5.23698 1024.51 5.79688C1025.56 6.35026 1026.42 7.10547 1027.07 8.0625L1025.49 9.03906C1025.01 8.31641 1024.39 7.75 1023.61 7.33984C1022.84 6.92969 1021.98 6.72461 1021.04 6.72461C1020.29 6.72461 1019.59 6.86133 1018.92 7.13477C1018.27 7.4082 1017.7 7.78255 1017.23 8.25781C1016.77 8.73307 1016.39 9.30273 1016.12 9.9668C1015.85 10.6309 1015.71 11.3405 1015.71 12.0957C1015.71 13.0983 1015.94 14.013 1016.4 14.8398C1016.87 15.6602 1017.5 16.3047 1018.32 16.7734C1019.14 17.2422 1020.05 17.4766 1021.04 17.4766C1021.98 17.4766 1022.84 17.2715 1023.61 16.8613C1024.39 16.4512 1025.01 15.8848 1025.49 15.1621L1027.07 16.1387C1026.42 17.0957 1025.56 17.8542 1024.51 18.4141C1023.46 18.9674 1022.3 19.2441 1021.04 19.2441ZM1033.54 19.2441C1032.52 19.2441 1031.6 19.013 1030.76 18.5508C1029.93 18.082 1029.28 17.4408 1028.8 16.627C1028.33 15.8066 1028.1 14.8984 1028.1 13.9023C1028.1 12.9062 1028.33 12.0013 1028.8 11.1875C1029.28 10.3672 1029.93 9.72591 1030.76 9.26367C1031.6 8.79492 1032.52 8.56055 1033.54 8.56055C1035.07 8.56055 1036.36 9.07161 1037.39 10.0938C1038.44 11.1159 1038.96 12.3854 1038.96 13.9023C1038.96 15.4193 1038.44 16.6888 1037.39 17.7109C1036.36 18.7331 1035.07 19.2441 1033.54 19.2441ZM1033.54 17.584C1034.58 17.584 1035.44 17.2324 1036.13 16.5293C1036.83 15.8262 1037.18 14.9505 1037.18 13.9023C1037.18 12.8542 1036.83 11.9785 1036.13 11.2754C1035.44 10.5723 1034.58 10.2207 1033.54 10.2207C1032.49 10.2207 1031.62 10.5723 1030.92 11.2754C1030.22 11.9785 1029.87 12.8542 1029.87 13.9023C1029.87 14.9505 1030.22 15.8262 1030.92 16.5293C1031.62 17.2324 1032.49 17.584 1033.54 17.584ZM1046.31 8.56055C1047.56 8.56055 1048.56 8.93815 1049.31 9.69336C1050.07 10.4486 1050.45 11.4512 1050.45 12.7012V19H1048.73V13.2383C1048.73 12.3268 1048.46 11.5977 1047.92 11.0508C1047.38 10.4974 1046.66 10.2207 1045.76 10.2207C1044.81 10.2207 1044.06 10.5007 1043.49 11.0605C1042.92 11.6204 1042.64 12.3594 1042.64 13.2773V19H1040.92V8.80469H1042.64V10.3574C1043.47 9.15951 1044.69 8.56055 1046.31 8.56055ZM1061.38 4.5957H1063.1V19H1061.38V17.1641C1060.95 17.8151 1060.38 18.3262 1059.69 18.6973C1059.01 19.0618 1058.25 19.2441 1057.42 19.2441C1056.46 19.2441 1055.59 19.013 1054.81 18.5508C1054.03 18.082 1053.42 17.4408 1052.98 16.627C1052.54 15.8066 1052.32 14.8984 1052.32 13.9023C1052.32 12.9062 1052.54 12.0013 1052.98 11.1875C1053.42 10.3672 1054.03 9.72591 1054.81 9.26367C1055.59 8.79492 1056.46 8.56055 1057.42 8.56055C1058.25 8.56055 1059.01 8.74609 1059.69 9.11719C1060.38 9.48177 1060.95 9.98958 1061.38 10.6406V4.5957ZM1057.74 17.584C1058.78 17.584 1059.65 17.2324 1060.34 16.5293C1061.04 15.8262 1061.38 14.9505 1061.38 13.9023C1061.38 12.8542 1061.04 11.9785 1060.34 11.2754C1059.65 10.5723 1058.78 10.2207 1057.74 10.2207C1056.69 10.2207 1055.82 10.5723 1055.12 11.2754C1054.43 11.9785 1054.08 12.8542 1054.08 13.9023C1054.08 14.9505 1054.43 15.8262 1055.12 16.5293C1055.82 17.2324 1056.69 17.584 1057.74 17.584ZM1066.59 6.76367C1066.26 6.76367 1065.98 6.65625 1065.76 6.44141C1065.54 6.22005 1065.43 5.94661 1065.43 5.62109C1065.43 5.28906 1065.54 5.01562 1065.76 4.80078C1065.98 4.58594 1066.26 4.47852 1066.59 4.47852C1066.92 4.47852 1067.19 4.58594 1067.4 4.80078C1067.62 5.01562 1067.72 5.28906 1067.72 5.62109C1067.72 5.94661 1067.61 6.22005 1067.39 6.44141C1067.18 6.65625 1066.91 6.76367 1066.59 6.76367ZM1065.73 19V8.80469H1067.45V19H1065.73ZM1075.94 10.3574H1072.87V16.002C1072.87 17.0566 1073.42 17.584 1074.51 17.584C1074.99 17.584 1075.46 17.457 1075.94 17.2031V18.8242C1075.43 19.1042 1074.83 19.2441 1074.15 19.2441C1073.17 19.2441 1072.42 18.987 1071.92 18.4727C1071.41 17.9583 1071.15 17.2259 1071.15 16.2754V10.3574H1069.32V8.80469H1071.15V6.06055H1072.87V8.80469H1075.94V10.3574ZM1078.71 6.76367C1078.37 6.76367 1078.1 6.65625 1077.88 6.44141C1077.65 6.22005 1077.54 5.94661 1077.54 5.62109C1077.54 5.28906 1077.65 5.01562 1077.88 4.80078C1078.1 4.58594 1078.37 4.47852 1078.71 4.47852C1079.03 4.47852 1079.3 4.58594 1079.52 4.80078C1079.73 5.01562 1079.84 5.28906 1079.84 5.62109C1079.84 5.94661 1079.73 6.22005 1079.51 6.44141C1079.29 6.65625 1079.03 6.76367 1078.71 6.76367ZM1077.85 19V8.80469H1079.57V19H1077.85ZM1086.95 19.2441C1085.94 19.2441 1085.01 19.013 1084.18 18.5508C1083.34 18.082 1082.69 17.4408 1082.21 16.627C1081.75 15.8066 1081.51 14.8984 1081.51 13.9023C1081.51 12.9062 1081.75 12.0013 1082.21 11.1875C1082.69 10.3672 1083.34 9.72591 1084.18 9.26367C1085.01 8.79492 1085.94 8.56055 1086.95 8.56055C1088.49 8.56055 1089.77 9.07161 1090.81 10.0938C1091.85 11.1159 1092.37 12.3854 1092.37 13.9023C1092.37 15.4193 1091.85 16.6888 1090.81 17.7109C1089.77 18.7331 1088.49 19.2441 1086.95 19.2441ZM1086.95 17.584C1087.99 17.584 1088.86 17.2324 1089.55 16.5293C1090.25 15.8262 1090.59 14.9505 1090.59 13.9023C1090.59 12.8542 1090.25 11.9785 1089.55 11.2754C1088.86 10.5723 1087.99 10.2207 1086.95 10.2207C1085.9 10.2207 1085.03 10.5723 1084.33 11.2754C1083.64 11.9785 1083.29 12.8542 1083.29 13.9023C1083.29 14.9505 1083.64 15.8262 1084.33 16.5293C1085.03 17.2324 1085.9 17.584 1086.95 17.584ZM1099.73 8.56055C1100.97 8.56055 1101.97 8.93815 1102.73 9.69336C1103.49 10.4486 1103.87 11.4512 1103.87 12.7012V19H1102.15V13.2383C1102.15 12.3268 1101.88 11.5977 1101.34 11.0508C1100.8 10.4974 1100.08 10.2207 1099.17 10.2207C1098.23 10.2207 1097.47 10.5007 1096.91 11.0605C1096.34 11.6204 1096.06 12.3594 1096.06 13.2773V19H1094.34V8.80469H1096.06V10.3574C1096.88 9.15951 1098.11 8.56055 1099.73 8.56055ZM1109.68 19.2441C1108.03 19.2441 1106.65 18.7103 1105.54 17.6426L1106.5 16.4023C1107.33 17.2552 1108.38 17.6816 1109.65 17.6816C1110.34 17.6816 1110.91 17.5547 1111.35 17.3008C1111.79 17.0404 1112.02 16.6855 1112.02 16.2363C1112.02 16.0475 1111.97 15.8783 1111.87 15.7285C1111.78 15.5723 1111.67 15.4453 1111.54 15.3477C1111.41 15.25 1111.22 15.1556 1110.97 15.0645C1110.72 14.9668 1110.5 14.8952 1110.32 14.8496C1110.13 14.7975 1109.87 14.7292 1109.53 14.6445C1109.22 14.5664 1108.97 14.5046 1108.79 14.459C1108.61 14.4069 1108.37 14.3288 1108.08 14.2246C1107.79 14.1204 1107.56 14.0195 1107.38 13.9219C1107.2 13.8242 1107.01 13.6973 1106.79 13.541C1106.58 13.3783 1106.42 13.209 1106.29 13.0332C1106.18 12.8509 1106.07 12.6361 1105.99 12.3887C1105.91 12.1348 1105.87 11.8581 1105.87 11.5586C1105.87 10.9206 1106.05 10.3704 1106.42 9.9082C1106.78 9.44596 1107.26 9.10742 1107.84 8.89258C1108.41 8.67122 1109.06 8.56055 1109.78 8.56055C1111.25 8.56055 1112.5 9.02604 1113.52 9.95703L1112.55 11.2168C1111.8 10.4876 1110.89 10.123 1109.8 10.123C1109.18 10.123 1108.67 10.2402 1108.26 10.4746C1107.85 10.709 1107.64 11.0378 1107.64 11.4609C1107.64 11.6562 1107.69 11.832 1107.79 11.9883C1107.88 12.138 1108 12.2617 1108.12 12.3594C1108.25 12.457 1108.44 12.5547 1108.7 12.6523C1108.97 12.7435 1109.18 12.8151 1109.36 12.8672C1109.54 12.9128 1109.81 12.9779 1110.16 13.0625C1110.47 13.1341 1110.71 13.196 1110.89 13.248C1111.08 13.2936 1111.32 13.3652 1111.61 13.4629C1111.89 13.5605 1112.12 13.6582 1112.3 13.7559C1112.48 13.847 1112.68 13.9707 1112.88 14.127C1113.09 14.2832 1113.26 14.4492 1113.37 14.625C1113.49 14.8008 1113.59 15.0156 1113.67 15.2695C1113.75 15.5169 1113.79 15.7871 1113.79 16.0801C1113.79 17.0632 1113.41 17.8379 1112.63 18.4043C1111.86 18.9642 1110.87 19.2441 1109.68 19.2441ZM1120.87 22.7988V4H1122.45V22.7988H1120.87ZM1136.14 5.20117C1137.4 5.20117 1138.45 5.61458 1139.29 6.44141C1140.13 7.26823 1140.55 8.30013 1140.55 9.53711C1140.55 10.7676 1140.13 11.7962 1139.28 12.623C1138.44 13.4499 1137.39 13.8633 1136.14 13.8633H1132.29V19H1130.45V5.20117H1136.14ZM1136.09 12.1445C1136.83 12.1445 1137.45 11.8971 1137.93 11.4023C1138.43 10.9076 1138.68 10.2858 1138.68 9.53711C1138.68 8.78841 1138.43 8.16667 1137.93 7.67188C1137.45 7.17057 1136.83 6.91992 1136.09 6.91992H1132.29V12.1445H1136.09ZM1147.56 8.63867H1147.9V10.416H1147.56C1146.48 10.416 1145.63 10.7318 1145.01 11.3633C1144.39 11.9883 1144.08 12.8346 1144.08 13.9023V19H1142.36V8.80469H1144.08V10.5625C1144.88 9.27995 1146.04 8.63867 1147.56 8.63867ZM1150.32 6.76367C1149.99 6.76367 1149.71 6.65625 1149.49 6.44141C1149.27 6.22005 1149.16 5.94661 1149.16 5.62109C1149.16 5.28906 1149.27 5.01562 1149.49 4.80078C1149.71 4.58594 1149.99 4.47852 1150.32 4.47852C1150.65 4.47852 1150.92 4.58594 1151.13 4.80078C1151.35 5.01562 1151.46 5.28906 1151.46 5.62109C1151.46 5.94661 1151.34 6.22005 1151.12 6.44141C1150.91 6.65625 1150.64 6.76367 1150.32 6.76367ZM1149.46 19V8.80469H1151.18V19H1149.46ZM1161.47 8.80469H1163.39L1158.91 19H1157.08L1152.61 8.80469H1154.58L1158.03 16.9395L1161.47 8.80469ZM1172.69 8.80469H1174.41V19H1172.69V17.1641C1172.26 17.8151 1171.69 18.3262 1171 18.6973C1170.32 19.0618 1169.56 19.2441 1168.73 19.2441C1167.77 19.2441 1166.9 19.013 1166.12 18.5508C1165.34 18.082 1164.73 17.4408 1164.28 16.627C1163.85 15.8066 1163.63 14.8984 1163.63 13.9023C1163.63 12.9062 1163.85 12.0013 1164.28 11.1875C1164.73 10.3672 1165.34 9.72591 1166.12 9.26367C1166.9 8.79492 1167.77 8.56055 1168.73 8.56055C1169.56 8.56055 1170.32 8.74609 1171 9.11719C1171.69 9.48177 1172.26 9.98958 1172.69 10.6406V8.80469ZM1169.05 17.584C1170.09 17.584 1170.96 17.2324 1171.65 16.5293C1172.34 15.8262 1172.69 14.9505 1172.69 13.9023C1172.69 12.8542 1172.34 11.9785 1171.65 11.2754C1170.96 10.5723 1170.09 10.2207 1169.05 10.2207C1168 10.2207 1167.13 10.5723 1166.43 11.2754C1165.74 11.9785 1165.39 12.8542 1165.39 13.9023C1165.39 14.9505 1165.74 15.8262 1166.43 16.5293C1167.13 17.2324 1168 17.584 1169.05 17.584ZM1181.82 19.2441C1180.8 19.2441 1179.88 19.013 1179.04 18.5508C1178.21 18.082 1177.55 17.4408 1177.08 16.627C1176.61 15.8066 1176.38 14.8984 1176.38 13.9023C1176.38 12.9062 1176.61 12.0013 1177.08 11.1875C1177.55 10.3672 1178.21 9.72591 1179.04 9.26367C1179.88 8.79492 1180.8 8.56055 1181.82 8.56055C1182.82 8.56055 1183.73 8.79167 1184.55 9.25391C1185.37 9.70964 1186.01 10.3314 1186.47 11.1191L1184.98 12.0176C1184.67 11.4642 1184.23 11.028 1183.67 10.709C1183.11 10.3835 1182.49 10.2207 1181.82 10.2207C1180.77 10.2207 1179.89 10.5723 1179.2 11.2754C1178.5 11.9785 1178.15 12.8542 1178.15 13.9023C1178.15 14.9505 1178.5 15.8262 1179.2 16.5293C1179.89 17.2324 1180.77 17.584 1181.82 17.584C1182.49 17.584 1183.11 17.4212 1183.67 17.0957C1184.23 16.7702 1184.67 16.3307 1184.98 15.7773L1186.47 16.6758C1186.01 17.4701 1185.37 18.0983 1184.54 18.5605C1183.72 19.0163 1182.81 19.2441 1181.82 19.2441ZM1195.88 8.80469H1197.8L1192.3 21.1582C1192.04 21.7507 1191.68 22.2129 1191.21 22.5449C1190.75 22.877 1190.24 23.043 1189.68 23.043C1189.28 23.043 1188.86 22.9518 1188.42 22.7695C1187.99 22.5872 1187.63 22.3496 1187.34 22.0566L1188.06 20.7383C1188.44 21.168 1188.89 21.3828 1189.42 21.3828C1189.99 21.3828 1190.42 21.0768 1190.72 20.4648L1191.46 18.9414L1187.02 8.80469H1189L1192.44 16.9395L1195.88 8.80469ZM1209.73 5.20117C1211 5.20117 1212.05 5.61458 1212.89 6.44141C1213.73 7.26823 1214.15 8.30013 1214.15 9.53711C1214.15 10.7676 1213.72 11.7962 1212.88 12.623C1212.04 13.4499 1210.99 13.8633 1209.73 13.8633H1205.89V19H1204.05V5.20117H1209.73ZM1209.68 12.1445C1210.43 12.1445 1211.04 11.8971 1211.53 11.4023C1212.03 10.9076 1212.27 10.2858 1212.27 9.53711C1212.27 8.78841 1212.03 8.16667 1211.53 7.67188C1211.04 7.17057 1210.43 6.91992 1209.68 6.91992H1205.89V12.1445H1209.68ZM1220.3 19.2441C1219.29 19.2441 1218.36 19.013 1217.53 18.5508C1216.7 18.082 1216.04 17.4408 1215.57 16.627C1215.1 15.8066 1214.86 14.8984 1214.86 13.9023C1214.86 12.9062 1215.1 12.0013 1215.57 11.1875C1216.04 10.3672 1216.7 9.72591 1217.53 9.26367C1218.36 8.79492 1219.29 8.56055 1220.3 8.56055C1221.84 8.56055 1223.12 9.07161 1224.16 10.0938C1225.2 11.1159 1225.72 12.3854 1225.72 13.9023C1225.72 15.4193 1225.2 16.6888 1224.16 17.7109C1223.12 18.7331 1221.84 19.2441 1220.3 19.2441ZM1220.3 17.584C1221.34 17.584 1222.21 17.2324 1222.9 16.5293C1223.6 15.8262 1223.95 14.9505 1223.95 13.9023C1223.95 12.8542 1223.6 11.9785 1222.9 11.2754C1222.21 10.5723 1221.34 10.2207 1220.3 10.2207C1219.25 10.2207 1218.38 10.5723 1217.69 11.2754C1216.99 11.9785 1216.64 12.8542 1216.64 13.9023C1216.64 14.9505 1216.99 15.8262 1217.69 16.5293C1218.38 17.2324 1219.25 17.584 1220.3 17.584ZM1227.69 19V4.5957H1229.41V19H1227.69ZM1232.88 6.76367C1232.54 6.76367 1232.27 6.65625 1232.05 6.44141C1231.83 6.22005 1231.71 5.94661 1231.71 5.62109C1231.71 5.28906 1231.83 5.01562 1232.05 4.80078C1232.27 4.58594 1232.54 4.47852 1232.88 4.47852C1233.2 4.47852 1233.47 4.58594 1233.69 4.80078C1233.9 5.01562 1234.01 5.28906 1234.01 5.62109C1234.01 5.94661 1233.9 6.22005 1233.68 6.44141C1233.46 6.65625 1233.2 6.76367 1232.88 6.76367ZM1232.02 19V8.80469H1233.74V19H1232.02ZM1241.12 19.2441C1240.11 19.2441 1239.18 19.013 1238.35 18.5508C1237.51 18.082 1236.86 17.4408 1236.39 16.627C1235.92 15.8066 1235.68 14.8984 1235.68 13.9023C1235.68 12.9062 1235.92 12.0013 1236.39 11.1875C1236.86 10.3672 1237.51 9.72591 1238.35 9.26367C1239.18 8.79492 1240.11 8.56055 1241.12 8.56055C1242.12 8.56055 1243.04 8.79167 1243.86 9.25391C1244.68 9.70964 1245.32 10.3314 1245.78 11.1191L1244.29 12.0176C1243.97 11.4642 1243.54 11.028 1242.98 10.709C1242.42 10.3835 1241.8 10.2207 1241.12 10.2207C1240.07 10.2207 1239.2 10.5723 1238.5 11.2754C1237.81 11.9785 1237.46 12.8542 1237.46 13.9023C1237.46 14.9505 1237.81 15.8262 1238.5 16.5293C1239.2 17.2324 1240.07 17.584 1241.12 17.584C1241.8 17.584 1242.42 17.4212 1242.98 17.0957C1243.54 16.7702 1243.97 16.3307 1244.29 15.7773L1245.78 16.6758C1245.32 17.4701 1244.67 18.0983 1243.85 18.5605C1243.03 19.0163 1242.12 19.2441 1241.12 19.2441ZM1255.19 8.80469H1257.11L1251.6 21.1582C1251.35 21.7507 1250.99 22.2129 1250.52 22.5449C1250.06 22.877 1249.55 23.043 1248.99 23.043C1248.58 23.043 1248.16 22.9518 1247.73 22.7695C1247.3 22.5872 1246.93 22.3496 1246.64 22.0566L1247.36 20.7383C1247.75 21.168 1248.2 21.3828 1248.72 21.3828C1249.29 21.3828 1249.73 21.0768 1250.03 20.4648L1250.76 18.9414L1246.33 8.80469H1248.3L1251.75 16.9395L1255.19 8.80469Z" fill="white"/>
</svg>
