<svg width="137" height="70" viewBox="0 0 137 70" fill="none" xmlns="http://www.w3.org/2000/svg">
<path d="M47.056 28.044H47.287L54.721 43.5H52.012L50.689 40.476H43.612L42.289 43.5H39.664L47.056 28.044ZM47.161 32.517L46.237 34.617L44.557 38.355H49.765L48.106 34.638L47.203 32.517H47.161ZM61.2025 43.71C60.6425 43.71 60.1315 43.619 59.6695 43.437C59.2075 43.241 58.8155 42.996 58.4935 42.702C58.1855 42.408 57.9545 42.107 57.8005 41.799L57.7585 43.5H55.5745V28.065H57.8005V34.008L57.6955 35.646C57.8495 35.282 58.1085 34.946 58.4725 34.638C58.8365 34.33 59.2635 34.085 59.7535 33.903C60.2575 33.707 60.7895 33.609 61.3495 33.609C62.3155 33.609 63.1485 33.826 63.8485 34.26C64.5485 34.68 65.0875 35.275 65.4655 36.045C65.8435 36.801 66.0325 37.683 66.0325 38.691C66.0325 39.741 65.8085 40.644 65.3605 41.4C64.9125 42.142 64.3245 42.716 63.5965 43.122C62.8685 43.514 62.0705 43.71 61.2025 43.71ZM60.8245 41.82C61.7765 41.82 62.4835 41.519 62.9455 40.917C63.4215 40.315 63.6595 39.573 63.6595 38.691C63.6595 37.781 63.4215 37.032 62.9455 36.444C62.4835 35.842 61.7765 35.541 60.8245 35.541C60.3205 35.541 59.8515 35.667 59.4175 35.919C58.9835 36.157 58.6335 36.5 58.3675 36.948C58.1155 37.396 57.9895 37.928 57.9895 38.544V38.691C58.0035 39.307 58.1365 39.853 58.3885 40.329C58.6405 40.805 58.9765 41.176 59.3965 41.442C59.8305 41.694 60.3065 41.82 60.8245 41.82ZM72.6304 43.71C71.6224 43.71 70.7334 43.486 69.9634 43.038C69.2074 42.59 68.6194 41.981 68.1994 41.211C67.7794 40.441 67.5694 39.587 67.5694 38.649C67.5694 37.725 67.7724 36.885 68.1784 36.129C68.5984 35.359 69.1864 34.75 69.9424 34.302C70.6984 33.84 71.5944 33.609 72.6304 33.609C73.6664 33.609 74.5624 33.84 75.3184 34.302C76.0744 34.75 76.6554 35.359 77.0614 36.129C77.4674 36.885 77.6704 37.725 77.6704 38.649C77.6704 39.587 77.4604 40.441 77.0404 41.211C76.6344 41.981 76.0534 42.59 75.2974 43.038C74.5414 43.486 73.6524 43.71 72.6304 43.71ZM72.6934 41.862C73.5334 41.862 74.1774 41.554 74.6254 40.938C75.0874 40.322 75.3184 39.573 75.3184 38.691C75.3184 38.089 75.2064 37.55 74.9824 37.074C74.7584 36.584 74.4364 36.192 74.0164 35.898C73.6104 35.604 73.1274 35.457 72.5674 35.457C72.0214 35.457 71.5524 35.604 71.1604 35.898C70.7684 36.192 70.4604 36.584 70.2364 37.074C70.0264 37.55 69.9214 38.089 69.9214 38.691C69.9214 39.279 70.0404 39.818 70.2784 40.308C70.5164 40.784 70.8384 41.162 71.2444 41.442C71.6644 41.722 72.1474 41.862 72.6934 41.862ZM82.9729 43.71C82.0069 43.71 81.2719 43.507 80.7679 43.101C80.2639 42.695 79.9209 42.156 79.7389 41.484C79.5709 40.812 79.4869 40.07 79.4869 39.258V33.861H81.7549V38.691C81.7549 39.433 81.7969 40.035 81.8809 40.497C81.9789 40.959 82.1609 41.302 82.4269 41.526C82.7069 41.736 83.1199 41.841 83.6659 41.841C84.0579 41.841 84.4289 41.736 84.7789 41.526C85.1429 41.302 85.4439 41.001 85.6819 40.623C85.9199 40.231 86.0389 39.797 86.0389 39.321V33.861H88.2859V43.5H86.4379L86.1859 42.093C85.8359 42.625 85.4019 43.031 84.8839 43.311C84.3659 43.577 83.7289 43.71 82.9729 43.71ZM91.6433 43.5V35.709H89.9423V33.861H91.6433V29.934L93.9323 29.43V33.861H96.1583V35.709H93.9323V43.5H91.6433Z" fill="white"/>
</svg>
