<svg width="151" height="70" viewBox="0 0 151 70" fill="none" xmlns="http://www.w3.org/2000/svg">
<path d="M48.652 43.647C47.42 43.647 46.321 43.437 45.355 43.017C44.403 42.597 43.591 42.023 42.919 41.295C42.261 40.553 41.757 39.713 41.407 38.775C41.071 37.823 40.903 36.815 40.903 35.751C40.903 34.589 41.092 33.525 41.47 32.559C41.862 31.593 42.408 30.76 43.108 30.06C43.808 29.346 44.641 28.793 45.607 28.401C46.573 28.009 47.637 27.813 48.799 27.813C49.555 27.813 50.227 27.89 50.815 28.044C51.403 28.198 51.886 28.373 52.264 28.569C52.642 28.751 52.88 28.898 52.978 29.01L51.949 31.11C51.571 30.774 51.102 30.501 50.542 30.291C49.996 30.081 49.352 29.976 48.61 29.976C47.644 29.976 46.769 30.214 45.985 30.69C45.215 31.166 44.599 31.838 44.137 32.706C43.689 33.574 43.465 34.603 43.465 35.793C43.465 36.843 43.661 37.802 44.053 38.67C44.445 39.524 45.019 40.21 45.775 40.728C46.545 41.246 47.476 41.505 48.568 41.505C49.17 41.505 49.758 41.428 50.332 41.274C50.92 41.106 51.522 40.833 52.138 40.455L52.831 42.45C52.649 42.618 52.341 42.8 51.907 42.996C51.473 43.178 50.969 43.332 50.395 43.458C49.835 43.584 49.254 43.647 48.652 43.647ZM58.3643 43.71C57.3563 43.71 56.4673 43.486 55.6973 43.038C54.9413 42.59 54.3533 41.981 53.9333 41.211C53.5133 40.441 53.3033 39.587 53.3033 38.649C53.3033 37.725 53.5063 36.885 53.9123 36.129C54.3323 35.359 54.9203 34.75 55.6763 34.302C56.4323 33.84 57.3283 33.609 58.3643 33.609C59.4003 33.609 60.2963 33.84 61.0523 34.302C61.8083 34.75 62.3893 35.359 62.7953 36.129C63.2013 36.885 63.4043 37.725 63.4043 38.649C63.4043 39.587 63.1943 40.441 62.7743 41.211C62.3683 41.981 61.7873 42.59 61.0313 43.038C60.2753 43.486 59.3863 43.71 58.3643 43.71ZM58.4273 41.862C59.2673 41.862 59.9113 41.554 60.3593 40.938C60.8213 40.322 61.0523 39.573 61.0523 38.691C61.0523 38.089 60.9403 37.55 60.7163 37.074C60.4923 36.584 60.1703 36.192 59.7503 35.898C59.3443 35.604 58.8613 35.457 58.3013 35.457C57.7553 35.457 57.2863 35.604 56.8943 35.898C56.5023 36.192 56.1943 36.584 55.9703 37.074C55.7603 37.55 55.6553 38.089 55.6553 38.691C55.6553 39.279 55.7743 39.818 56.0123 40.308C56.2503 40.784 56.5723 41.162 56.9783 41.442C57.3983 41.722 57.8813 41.862 58.4273 41.862ZM65.3063 43.5V33.861H67.5323L67.5533 35.625C67.8053 35.051 68.2113 34.575 68.7713 34.197C69.3453 33.805 70.0313 33.609 70.8293 33.609C71.8653 33.609 72.6423 33.826 73.1603 34.26C73.6783 34.68 74.0213 35.282 74.1893 36.066C74.3713 36.85 74.4623 37.781 74.4623 38.859V43.5H72.1943V38.922C72.1943 37.802 72.0823 36.948 71.8583 36.36C71.6483 35.772 71.1513 35.478 70.3673 35.478C69.9613 35.478 69.5413 35.604 69.1073 35.856C68.6733 36.108 68.3093 36.472 68.0153 36.948C67.7213 37.424 67.5743 38.012 67.5743 38.712V43.5H65.3063ZM77.5003 43.5V35.709H75.7993V33.861H77.5003V29.934L79.7893 29.43V33.861H82.0153V35.709H79.7893V43.5H77.5003ZM87.6219 43.71C86.7679 43.71 85.9699 43.507 85.2279 43.101C84.4999 42.695 83.9119 42.114 83.4639 41.358C83.0159 40.602 82.7919 39.699 82.7919 38.649C82.7919 37.641 82.9809 36.759 83.3589 36.003C83.7509 35.247 84.2969 34.659 84.9969 34.239C85.7109 33.819 86.5579 33.609 87.5379 33.609C88.1259 33.609 88.6579 33.714 89.1339 33.924C89.6239 34.12 90.0299 34.365 90.3519 34.659C90.6879 34.939 90.9119 35.212 91.0239 35.478L91.0659 33.861H93.2289V43.5H91.0869L91.0449 41.799C90.9049 42.107 90.6669 42.408 90.3309 42.702C90.0089 42.996 89.6169 43.241 89.1549 43.437C88.6929 43.619 88.1819 43.71 87.6219 43.71ZM87.9999 41.82C88.5179 41.82 88.9869 41.701 89.4069 41.463C89.8409 41.211 90.1839 40.861 90.4359 40.413C90.7019 39.965 90.8349 39.433 90.8349 38.817V38.67C90.8349 38.04 90.7019 37.494 90.4359 37.032C90.1839 36.556 89.8409 36.192 89.4069 35.94C88.9869 35.674 88.5179 35.541 87.9999 35.541C87.0619 35.541 86.3549 35.842 85.8789 36.444C85.4169 37.046 85.1859 37.788 85.1859 38.67C85.1859 39.566 85.4169 40.315 85.8789 40.917C86.3549 41.519 87.0619 41.82 87.9999 41.82ZM100.253 43.71C99.3148 43.71 98.4608 43.507 97.6908 43.101C96.9348 42.695 96.3258 42.107 95.8638 41.337C95.4158 40.567 95.1918 39.643 95.1918 38.565C95.1918 37.557 95.3948 36.682 95.8008 35.94C96.2208 35.198 96.8018 34.624 97.5438 34.218C98.2998 33.812 99.1678 33.609 100.148 33.609C100.96 33.609 101.625 33.714 102.143 33.924C102.675 34.134 103.074 34.358 103.34 34.596L102.332 36.423C102.276 36.353 102.164 36.248 101.996 36.108C101.828 35.968 101.604 35.842 101.324 35.73C101.058 35.604 100.729 35.541 100.337 35.541C99.4128 35.541 98.7198 35.821 98.2578 36.381C97.8098 36.941 97.5858 37.662 97.5858 38.544C97.5858 39.566 97.8238 40.371 98.2998 40.959C98.7898 41.533 99.4688 41.82 100.337 41.82C100.799 41.82 101.233 41.757 101.639 41.631C102.045 41.491 102.353 41.344 102.563 41.19L103.382 42.786C103.13 42.982 102.731 43.185 102.185 43.395C101.639 43.605 100.995 43.71 100.253 43.71ZM106.066 43.5V35.709H104.365V33.861H106.066V29.934L108.355 29.43V33.861H110.581V35.709H108.355V43.5H106.066Z" fill="white"/>
</svg>
