<svg width="134" height="50" viewBox="0 0 134 50" fill="none" xmlns="http://www.w3.org/2000/svg">
<g clip-path="url(#clip0_150_115)">
<path d="M42.4098 33H34.9098V32.2383H37.2535V16.1836H34.9098V15.4219H42.4098V16.1836H40.066V23.5078H48.7672V16.1836H46.4234V15.4219H53.9234V16.1836H51.5797V32.2383H53.1617C53.2594 32.2383 53.357 32.248 53.4547 32.2676C53.7672 32.3262 53.9234 32.5703 53.9234 33H46.4234V32.2383H48.7672V24.3574H40.066V32.2383H41.648C41.7457 32.2383 41.8434 32.248 41.941 32.2676C42.2535 32.3262 42.4098 32.5703 42.4098 33ZM61.8523 20.9297C61.3836 20.9297 60.9441 21.0371 60.534 21.252C59.2059 21.9355 58.5027 23.4297 58.4246 25.7344L61.2957 25.8223C62.1551 25.8418 62.8289 25.793 63.3172 25.6758C64.1766 25.4609 64.6063 24.875 64.6063 23.918C64.6063 23.5078 64.5477 23.1172 64.4305 22.7461C64.0398 21.5352 63.1805 20.9297 61.8523 20.9297ZM67.0379 30.1582C66.9207 30.4121 66.7938 30.666 66.657 30.9199C65.6609 32.502 64.0691 33.293 61.8816 33.293C60.573 33.293 59.4012 32.9707 58.366 32.3262C56.5496 31.1543 55.6414 29.3184 55.6414 26.8184C55.6414 25.3926 55.9539 24.1328 56.5789 23.0391C57.6922 21.1445 59.4305 20.1973 61.7938 20.1973C63.0438 20.1973 64.157 20.4609 65.1336 20.9883C66.5398 21.7891 67.243 22.8828 67.243 24.2695C67.243 24.9336 67.0184 25.4609 66.5691 25.8516C65.8855 26.3984 64.2938 26.6523 61.7938 26.6133L58.4246 26.5547C58.4441 27.2773 58.5027 27.9414 58.6004 28.5469C59.0691 31.1641 60.3387 32.4727 62.409 32.4727C62.702 32.4727 63.0047 32.4434 63.3172 32.3848C64.6844 32.0918 65.6805 31.2617 66.3055 29.8945L67.0379 30.1582ZM74.8789 32.2676C74.9766 32.2676 75.0742 32.2773 75.1719 32.2969C75.4453 32.3359 75.582 32.5703 75.582 33H68.5801V32.2676C69.2246 32.2676 69.7031 32.2188 70.0156 32.1211C70.543 31.9453 70.8066 31.418 70.8066 30.5391V14.6895H68.5801V13.957H73.2969V32.2676H74.8789ZM83.0422 32.2676C83.1398 32.2676 83.2375 32.2773 83.3352 32.2969C83.6086 32.3359 83.7453 32.5703 83.7453 33H76.7434V32.2676C77.3879 32.2676 77.8664 32.2188 78.1789 32.1211C78.7063 31.9453 78.9699 31.418 78.9699 30.5391V14.6895H76.7434V13.957H81.4602V32.2676H83.0422ZM87.9535 26.7305C87.9731 30.5781 89.2035 32.5215 91.6449 32.5605C94.0082 32.541 95.1996 30.5586 95.2191 26.6133C95.1996 22.8633 93.9887 20.9688 91.5863 20.9297C89.184 20.9492 87.9731 22.8828 87.9535 26.7305ZM91.6742 20.1973C93.0609 20.1973 94.3012 20.5684 95.3949 21.3105C97.1527 22.5215 98.0316 24.3184 98.0316 26.7012C98.0316 28.498 97.4652 30.0117 96.3324 31.2422C95.0824 32.6094 93.4906 33.293 91.557 33.293C90.1508 33.293 88.8813 32.8828 87.7484 32.0625C86.0297 30.8125 85.1703 28.9961 85.1703 26.6133C85.1703 24.875 85.7172 23.4102 86.8109 22.2188C88.0805 20.8711 89.7016 20.1973 91.6742 20.1973Z" fill="black"/>
</g>
<rect x="0.5" y="0.5" width="133" height="49" rx="24.5" stroke="black"/>
<defs>
<clipPath id="clip0_150_115">
<rect width="134" height="50" rx="25" fill="white"/>
</clipPath>
</defs>
</svg>
