<svg width="208" height="62" viewBox="0 0 208 62" fill="none" xmlns="http://www.w3.org/2000/svg">
<rect x="0.25" y="0.25" width="207.5" height="61.5" rx="30.75" fill="#95D1F9"/>
<rect x="0.25" y="0.25" width="207.5" height="61.5" rx="30.75" stroke="#D0D5DD" stroke-width="0.5"/>
<path d="M41.4545 21.2728C44.8201 21.2728 47.3893 23.7392 47.3893 27.0534C47.3893 30.3419 44.8201 32.8083 41.4545 32.8083H36.9842V39H33.9269V21.2728H41.4545ZM41.4031 29.9309C43.0217 29.9309 44.2549 28.6977 44.2549 27.0534C44.2549 25.3834 43.0217 24.1502 41.4031 24.1502H36.9842V29.9309H41.4031ZM55.058 39.3083C51.0501 39.3083 48.0442 36.3538 48.0442 32.4486C48.0442 28.5435 51.0501 25.589 55.058 25.589C59.0402 25.589 62.0719 28.5435 62.0719 32.4486C62.0719 36.3538 59.0402 39.3083 55.058 39.3083ZM55.058 36.5336C57.3703 36.5336 59.0916 34.7609 59.0916 32.4486C59.0916 30.1364 57.3703 28.3637 55.058 28.3637C52.7458 28.3637 50.9988 30.1364 50.9988 32.4486C50.9988 34.7609 52.7458 36.5336 55.058 36.5336ZM71.2492 25.6917H71.7373V28.6463H71.2492C68.68 28.6463 67.1642 30.2135 67.1642 32.6285V39H64.2867V25.8973H67.1642V27.8241C68.1405 26.4882 69.5278 25.6917 71.2492 25.6917ZM81.5736 28.5178H77.874V34.7095C77.874 35.9427 78.5677 36.5336 79.7752 36.5336C80.4946 36.5336 81.0598 36.3281 81.5736 36.0712V38.7688C80.8542 39.1285 80.1349 39.3083 79.1843 39.3083C76.3582 39.3083 74.9965 37.7154 74.9965 35.1719V28.5178H72.7871V25.8973H74.9965V22.506H77.874V25.8973H81.5736V28.5178ZM89.7016 22.84C88.4684 22.84 87.7747 23.4052 87.7747 24.6384V25.8973H91.2688V28.5178H87.7747V39H84.8973V28.5178H82.6878V25.8973H84.8973V24.4585C84.8973 21.838 86.2589 20.1937 89.085 20.1937C90.0356 20.1937 90.7293 20.3736 91.4486 20.7333V23.2767C90.9348 22.9941 90.3953 22.84 89.7016 22.84ZM98.7027 39.3083C94.6948 39.3083 91.6889 36.3538 91.6889 32.4486C91.6889 28.5435 94.6948 25.589 98.7027 25.589C102.685 25.589 105.717 28.5435 105.717 32.4486C105.717 36.3538 102.685 39.3083 98.7027 39.3083ZM98.7027 36.5336C101.015 36.5336 102.736 34.7609 102.736 32.4486C102.736 30.1364 101.015 28.3637 98.7027 28.3637C96.3904 28.3637 94.6434 30.1364 94.6434 32.4486C94.6434 34.7609 96.3904 36.5336 98.7027 36.5336ZM107.931 39V20.502H110.809V39H107.931ZM115.282 23.6878C114.255 23.6878 113.458 22.8913 113.458 21.8637C113.458 20.8103 114.255 20.0396 115.282 20.0396C116.336 20.0396 117.132 20.8103 117.132 21.8637C117.132 22.8913 116.336 23.6878 115.282 23.6878ZM113.843 39V25.8973H116.721V39H113.843ZM125.973 39.3083C121.965 39.3083 118.959 36.3538 118.959 32.4486C118.959 28.5435 121.965 25.589 125.973 25.589C129.955 25.589 132.987 28.5435 132.987 32.4486C132.987 36.3538 129.955 39.3083 125.973 39.3083ZM125.973 36.5336C128.285 36.5336 130.007 34.7609 130.007 32.4486C130.007 30.1364 128.285 28.3637 125.973 28.3637C123.661 28.3637 121.914 30.1364 121.914 32.4486C121.914 34.7609 123.661 36.5336 125.973 36.5336Z" fill="white"/>
<path d="M146.25 39.75L163.75 22.25" stroke="white" stroke-width="2" stroke-linecap="round" stroke-linejoin="round"/>
<path d="M146.25 22.25H163.75V39.75" stroke="white" stroke-width="2" stroke-linecap="round" stroke-linejoin="round"/>
</svg>
