<svg width="141" height="38" viewBox="0 0 141 38" fill="none" xmlns="http://www.w3.org/2000/svg">
<path d="M9.38 3.34H10.962V13H9.688V5.286L6.412 10.97H5.698L2.422 5.286V13H1.134V3.34H2.758L6.062 9.08L9.38 3.34ZM18.8196 5.86H20.0236V13H18.8196V11.712C18.2176 12.608 17.2376 13.168 16.0476 13.168C14.0036 13.168 12.4776 11.558 12.4776 9.43C12.4776 7.302 14.0036 5.692 16.0476 5.692C17.2376 5.692 18.2176 6.252 18.8196 7.148V5.86ZM16.2716 12.006C17.7276 12.006 18.8196 10.9 18.8196 9.43C18.8196 7.96 17.7276 6.854 16.2716 6.854C14.8016 6.854 13.7096 7.96 13.7096 9.43C13.7096 10.9 14.8016 12.006 16.2716 12.006ZM27.7698 2.92H28.9738V13H27.7698V11.712C27.1678 12.608 26.1878 13.168 24.9978 13.168C22.9538 13.168 21.4278 11.558 21.4278 9.43C21.4278 7.302 22.9538 5.692 24.9978 5.692C26.1878 5.692 27.1678 6.252 27.7698 7.148V2.92ZM25.2218 12.006C26.6778 12.006 27.7698 10.9 27.7698 9.43C27.7698 7.96 26.6778 6.854 25.2218 6.854C23.7518 6.854 22.6598 7.96 22.6598 9.43C22.6598 10.9 23.7518 12.006 25.2218 12.006ZM37.8259 9.43C37.8259 9.598 37.8119 9.794 37.7979 9.962H31.6519C31.8899 11.208 32.9119 12.062 34.2979 12.062C35.3479 12.062 36.2439 11.558 36.7059 10.9L37.5319 11.614C36.8179 12.566 35.6419 13.168 34.2559 13.168C32.0159 13.168 30.3499 11.544 30.3499 9.402C30.3499 7.288 31.9599 5.692 34.1019 5.692C36.2299 5.692 37.8259 7.288 37.8259 9.43ZM34.0879 6.798C32.8419 6.798 31.8619 7.652 31.6379 8.87H36.5519C36.3279 7.638 35.3479 6.798 34.0879 6.798ZM46.3855 5.692C48.4295 5.692 49.9695 7.302 49.9695 9.43C49.9695 11.558 48.4295 13.168 46.3855 13.168C45.1955 13.168 44.2155 12.608 43.6135 11.712V13H42.4095V2.92H43.6135V7.148C44.2155 6.252 45.1955 5.692 46.3855 5.692ZM46.1615 12.006C47.6315 12.006 48.7235 10.9 48.7235 9.43C48.7235 7.96 47.6315 6.854 46.1615 6.854C44.7055 6.854 43.6135 7.96 43.6135 9.43C43.6135 10.9 44.7055 12.006 46.1615 12.006ZM56.3255 5.86H57.6695L53.8195 14.512C53.4555 15.352 52.7555 15.828 51.9855 15.828C51.4255 15.828 50.7675 15.562 50.3475 15.142L50.8515 14.218C51.0895 14.484 51.4395 14.666 51.8035 14.666C52.1675 14.666 52.4895 14.484 52.7135 14.022L53.2315 12.958L50.1235 5.86H51.5095L53.9175 11.558L56.3255 5.86Z" fill="#98A2B3"/>
<path d="M4.92188 25.0801C5.9375 28.3483 6.53971 29.9824 6.72852 29.9824C6.91732 29.9824 7.69206 27.8665 9.05273 23.6348C9.32617 22.7884 9.49219 22.2057 9.55078 21.8867C9.60938 21.5612 9.66146 21.2064 9.70703 20.8223C9.75911 20.4316 9.81771 20.1712 9.88281 20.041C10.1107 19.5788 10.5794 19.3477 11.2891 19.3477C11.6276 19.3477 11.8685 19.403 12.0117 19.5137C12.1615 19.6178 12.2363 19.8327 12.2363 20.1582C12.2363 20.4772 12.0312 20.9818 11.6211 21.6719C11.5039 21.8737 10.9245 23.4167 9.88281 26.3008C8.84115 29.1784 8.17708 30.9297 7.89062 31.5547C7.60417 32.1732 7.36328 32.5605 7.16797 32.7168C6.97917 32.8665 6.73503 32.9414 6.43555 32.9414C6.14258 32.9414 5.89844 32.8698 5.70312 32.7266C5.50781 32.5768 5.26693 32.1829 4.98047 31.5449C4.96745 31.5189 4.42057 29.9857 3.33984 26.9453C2.26562 23.8984 1.54297 22.1146 1.17188 21.5938C0.807292 21.0664 0.625 20.6465 0.625 20.334C0.625 20.0215 0.719401 19.8099 0.908203 19.6992C1.10352 19.5885 1.39648 19.5332 1.78711 19.5332C2.18424 19.5332 2.53255 19.6146 2.83203 19.7773C3.13151 19.9401 3.33008 20.1257 3.42773 20.334C3.5319 20.5358 3.6263 20.8353 3.71094 21.2324C3.80208 21.6296 3.91927 22.0495 4.0625 22.4922L4.25781 23.0488C4.28385 23.1204 4.3457 23.3092 4.44336 23.6152L4.92188 25.0801ZM15.7645 31.7695H16.0672C16.6727 31.7695 17.2065 31.5091 17.6687 30.9883C17.9227 30.7018 18.0496 30.168 18.0496 29.3867L18.0594 29.2598V29.0156C18.0594 28.5273 17.8576 28.2832 17.4539 28.2832H17.1414L16.6336 28.3223L16.3699 28.3516C15.771 28.3516 15.2794 28.5208 14.8953 28.8594C14.5112 29.1914 14.3191 29.5885 14.3191 30.0508V30.3926C14.3191 30.7441 14.4428 31.0632 14.6902 31.3496C14.9441 31.6296 15.3022 31.7695 15.7645 31.7695ZM20.7059 32.2383C20.7059 32.6745 20.2664 32.8926 19.3875 32.8926C19.2312 32.8926 18.9448 32.8145 18.5281 32.6582C18.118 32.4954 17.8576 32.4141 17.7469 32.4141C17.6427 32.4141 17.2911 32.528 16.6922 32.7559C16.0932 32.9772 15.5659 33.0879 15.1102 33.0879H14.8855C14.1759 33.0879 13.5639 32.8568 13.0496 32.3945C12.5353 31.9258 12.2781 31.2878 12.2781 30.4805C12.2781 28.8398 13.3165 27.8177 15.3934 27.4141C16.741 27.1471 17.4376 27.0039 17.4832 26.9844C17.8022 26.8216 17.9617 26.5286 17.9617 26.1055C17.9617 25.6758 17.825 25.3177 17.5516 25.0312C17.2846 24.7383 16.9168 24.5918 16.448 24.5918C15.9858 24.5918 15.4389 24.7513 14.8074 25.0703C14.1759 25.3828 13.743 25.5391 13.5086 25.5391C13.0854 25.5391 12.8738 25.2493 12.8738 24.6699C12.8738 24.3053 13.2059 23.9603 13.8699 23.6348C14.5405 23.3092 15.3022 23.1465 16.1551 23.1465H16.6434C17.2814 23.1465 17.8478 23.2669 18.3426 23.5078C18.8374 23.7487 19.215 24.0742 19.4754 24.4844C19.8465 25.0638 20.032 26.3887 20.032 28.459C20.032 29.6309 20.0548 30.36 20.1004 30.6465C20.1525 30.9329 20.2664 31.2227 20.4422 31.5156C20.618 31.8021 20.7059 32.043 20.7059 32.2383ZM23.7945 32.7168C23.788 32.7168 23.7783 32.7168 23.7652 32.7168C23.0165 32.7168 22.6422 32.4596 22.6422 31.9453C22.6422 31.6979 22.7073 31.3919 22.8375 31.0273C22.9677 30.6628 23.0426 30.2949 23.0621 29.9238C23.0816 29.5462 23.0914 28.9701 23.0914 28.1953V26.3691L23.1109 25.8613C23.124 25.5228 23.1305 25.2819 23.1305 25.1387L23.0328 24.1328C23.0328 23.9049 23.2346 23.791 23.6383 23.791C24.0484 23.791 24.4684 23.9017 24.898 24.123C25.3277 24.3444 25.5914 24.4551 25.6891 24.4551C25.7932 24.4551 25.9853 24.39 26.2652 24.2598C26.5517 24.1296 26.887 23.9896 27.2711 23.8398C27.6617 23.6836 28.0621 23.6055 28.4723 23.6055H28.7262C29.2145 23.6055 29.6474 23.7389 30.025 24.0059C30.4091 24.2663 30.6858 24.6309 30.8551 25.0996C31.0309 25.5618 31.1546 26.4147 31.2262 27.6582L31.2555 28.1953L31.275 28.7324C31.2945 29.0449 31.3173 29.3835 31.3434 29.748C31.3694 30.1126 31.4573 30.4967 31.607 30.9004C31.7568 31.2975 31.8316 31.5645 31.8316 31.7012C31.8316 32.2806 31.3889 32.5703 30.5035 32.5703C30.1259 32.5703 29.8492 32.4954 29.6734 32.3457C29.4977 32.1895 29.4098 31.929 29.4098 31.5645L29.4293 31.2031C29.4293 28.6706 29.247 26.9453 28.8824 26.0273C28.596 25.3177 28.0914 24.9629 27.3687 24.9629C27.0237 24.9629 26.6852 25.0508 26.3531 25.2266C26.0276 25.3958 25.7737 25.6725 25.5914 26.0566C25.2659 26.7402 25.1031 28.0553 25.1031 30.002L25.1812 31.7695C25.1812 32.0495 25.0478 32.2773 24.7809 32.4531C24.5139 32.6289 24.1852 32.7168 23.7945 32.7168ZM34.5004 27.6875C33.9405 27.1927 33.6605 26.5547 33.6605 25.7734C33.6605 24.9857 33.9958 24.3444 34.6664 23.8496C35.337 23.3483 36.1898 23.0977 37.225 23.0977C38.2602 23.0977 39.0154 23.2246 39.4906 23.4785C39.9659 23.7259 40.2035 24.0514 40.2035 24.4551C40.2035 25.0085 40.0245 25.2852 39.6664 25.2852C39.5427 25.2852 39.2139 25.1517 38.6801 24.8848C38.1462 24.6178 37.6286 24.4844 37.1273 24.4844C36.626 24.4844 36.2484 24.5983 35.9945 24.8262C35.7471 25.054 35.6234 25.347 35.6234 25.7051C35.6234 26.0632 35.8643 26.3822 36.3461 26.6621C36.5089 26.7598 37.0362 26.9876 37.9281 27.3457C38.8266 27.6973 39.4581 28.0326 39.8227 28.3516C40.3891 28.8529 40.6723 29.5039 40.6723 30.3047C40.6723 31.1055 40.337 31.7793 39.6664 32.3262C39.0023 32.8665 38.143 33.1367 37.0883 33.1367C35.2979 33.1367 34.1879 32.7884 33.7582 32.0918C33.6215 31.8704 33.5531 31.6751 33.5531 31.5059C33.5531 30.9395 33.7289 30.6562 34.0805 30.6562C34.1846 30.6562 34.5655 30.832 35.223 31.1836C35.8871 31.5286 36.4763 31.7012 36.9906 31.7012C37.5115 31.7012 37.9216 31.5905 38.2211 31.3691C38.5206 31.1478 38.6703 30.8483 38.6703 30.4707C38.6703 30.0866 38.4327 29.735 37.9574 29.416C37.7621 29.2858 37.225 29.0449 36.3461 28.6934C35.4672 28.3353 34.852 28 34.5004 27.6875ZM51.3781 31.5938C51.3781 32.3294 50.968 32.6973 50.1477 32.6973C49.7766 32.6973 49.5031 32.6322 49.3273 32.502C49.1581 32.3717 49.0734 32.1504 49.0734 31.8379L49.0832 31.623L49.1027 31.3984V30.8809L49.0148 28.498C49.0148 27.1634 48.8716 26.2617 48.5852 25.793C48.2987 25.3177 47.8202 25.0801 47.1496 25.0801C46.7915 25.0801 46.44 25.1908 46.0949 25.4121C45.7564 25.6335 45.4895 25.9655 45.2941 26.4082C45.0988 26.8509 45.0012 28.0391 45.0012 29.9727C45.0012 30.2396 45.0207 30.5716 45.0598 30.9688C45.1053 31.3659 45.1281 31.571 45.1281 31.584C45.1281 31.9421 45.0142 32.235 44.7863 32.4629C44.565 32.6842 44.2329 32.7949 43.7902 32.7949H43.5266C42.856 32.7949 42.5207 32.5345 42.5207 32.0137V31.75C42.5207 31.6458 42.5533 31.4668 42.6184 31.2129L42.7648 30.6758C42.882 30.1224 42.9406 28.9896 42.9406 27.2773V23.5762L42.9895 21.3984L42.9992 21.0957C43.0057 20.8939 43.009 20.7018 43.009 20.5195C43.009 20.3372 42.996 20.1712 42.9699 20.0215L42.9211 19.8164C42.8755 19.6146 42.8527 19.4941 42.8527 19.4551C42.8527 19.1491 43.035 18.9961 43.3996 18.9961H43.6535C44.3176 18.9961 44.7342 19.276 44.9035 19.8359C44.9816 20.0833 45.0337 20.6237 45.0598 21.457C45.0858 22.2839 45.1216 22.9089 45.1672 23.332C45.2193 23.7487 45.3592 23.957 45.5871 23.957C45.6717 23.957 45.7922 23.931 45.9484 23.8789L46.1633 23.791C46.8404 23.4915 47.4458 23.3418 47.9797 23.3418C49.1646 23.3418 49.9914 23.8301 50.4602 24.8066C50.7857 25.4837 50.9484 26.8118 50.9484 28.791C50.9484 29.5137 51.0201 30.1289 51.1633 30.6367C51.3065 31.138 51.3781 31.457 51.3781 31.5938ZM54.916 19.2793H55.2383C55.5182 19.2793 55.7591 19.3639 55.9609 19.5332C56.1628 19.7025 56.2637 19.9499 56.2637 20.2754V20.5195C56.2637 20.7865 56.1758 21.0273 56 21.2422C55.8242 21.4505 55.5996 21.5547 55.3262 21.5547L55.1309 21.584H54.8086C54.7305 21.5645 54.6328 21.5547 54.5156 21.5547C54.3984 21.5547 54.2585 21.4766 54.0957 21.3203C53.9395 21.1576 53.8613 20.9785 53.8613 20.7832C53.8483 20.7311 53.8418 20.6921 53.8418 20.666L53.8223 20.4707V20.4219L53.8613 20.1094C53.8613 19.9596 53.946 19.7839 54.1152 19.582C54.2845 19.3802 54.5514 19.2793 54.916 19.2793ZM55.0723 32.9707H54.5742C54.3008 32.9707 54.0664 32.8926 53.8711 32.7363C53.6758 32.5801 53.5781 32.4108 53.5781 32.2285C53.5781 32.0397 53.6335 31.7695 53.7441 31.418C53.8548 31.0664 53.9102 30.7539 53.9102 30.4805L53.9297 30.2363L53.9492 29.7285V29.3281L53.959 29.0645V25.8906C53.9329 25.5391 53.8776 25.2428 53.793 25.002L53.7051 24.8164C53.5684 24.4779 53.5 24.2923 53.5 24.2598V24.0645C53.5 23.6868 53.8906 23.498 54.6719 23.498H55.0234C55.4987 23.498 55.7884 23.6836 55.8926 24.0547C55.9186 24.1523 55.9316 24.722 55.9316 25.7637V27.9805L55.9512 28.625L55.9902 29.377C55.9902 30.1517 56.1497 30.8092 56.4688 31.3496C56.599 31.571 56.6641 31.8184 56.6641 32.0918C56.6641 32.3587 56.5111 32.5736 56.2051 32.7363C55.8991 32.8926 55.5215 32.9707 55.0723 32.9707ZM61.8133 26.4375C61.976 26.4375 62.4969 25.9753 63.3758 25.0508C63.6167 24.7969 63.8478 24.5299 64.0691 24.25C64.2905 23.9701 64.4923 23.7682 64.6746 23.6445C64.8569 23.5143 65.1303 23.4492 65.4949 23.4492C66.2371 23.4492 66.6082 23.612 66.6082 23.9375C66.6082 24.0026 66.1818 24.5267 65.3289 25.5098C64.4826 26.4863 64.0594 27.1797 64.0594 27.5898C64.0594 27.7917 64.59 28.6315 65.6512 30.1094C66.7189 31.5872 67.2527 32.3327 67.2527 32.3457C67.2527 32.6257 66.963 32.7656 66.3836 32.7656C65.8042 32.7656 65.3387 32.6159 64.9871 32.3164C64.9415 32.2773 64.5411 31.6654 63.7859 30.4805C63.0372 29.2956 62.5066 28.7031 62.1941 28.7031C61.9663 28.7031 61.7742 28.8757 61.618 29.2207C61.4617 29.5592 61.3836 29.9824 61.3836 30.4902L61.4227 31.0078C61.4422 31.2682 61.452 31.4375 61.452 31.5156C61.452 32.2904 60.8595 32.6777 59.6746 32.6777C59.1408 32.6777 58.8738 32.3424 58.8738 31.6719L58.9031 31.4375C59.0203 30.474 59.0789 29.5723 59.0789 28.7324V27.1504L59.0887 26.8184C59.0952 26.597 59.0984 26.3757 59.0984 26.1543L59.118 25.4902C59.118 25.2689 59.118 25.0475 59.118 24.8262L59.1375 23.5078C59.1375 22.082 59.1115 21.2096 59.0594 20.8906C59.0073 20.5651 58.9487 20.2884 58.8836 20.0605C58.825 19.8262 58.7957 19.6829 58.7957 19.6309V19.3965C58.7957 19.2728 58.8901 19.1556 59.0789 19.0449C59.2677 18.9342 59.5249 18.8789 59.8504 18.8789H60.1141C60.5958 18.8789 60.9148 19.0742 61.0711 19.4648C61.1883 19.7578 61.2469 20.4251 61.2469 21.4668V23.5176L61.2664 24.748C61.2664 25.8743 61.4487 26.4375 61.8133 26.4375ZM72.109 31.7695H72.4117C73.0172 31.7695 73.551 31.5091 74.0133 30.9883C74.2672 30.7018 74.3941 30.168 74.3941 29.3867L74.4039 29.2598V29.0156C74.4039 28.5273 74.2021 28.2832 73.7984 28.2832H73.4859L72.9781 28.3223L72.7145 28.3516C72.1155 28.3516 71.624 28.5208 71.2398 28.8594C70.8557 29.1914 70.6637 29.5885 70.6637 30.0508V30.3926C70.6637 30.7441 70.7874 31.0632 71.0348 31.3496C71.2887 31.6296 71.6467 31.7695 72.109 31.7695ZM77.0504 32.2383C77.0504 32.6745 76.6109 32.8926 75.732 32.8926C75.5758 32.8926 75.2893 32.8145 74.8727 32.6582C74.4625 32.4954 74.2021 32.4141 74.0914 32.4141C73.9872 32.4141 73.6357 32.528 73.0367 32.7559C72.4378 32.9772 71.9104 33.0879 71.4547 33.0879H71.2301C70.5204 33.0879 69.9085 32.8568 69.3941 32.3945C68.8798 31.9258 68.6227 31.2878 68.6227 30.4805C68.6227 28.8398 69.6611 27.8177 71.7379 27.4141C73.0855 27.1471 73.7822 27.0039 73.8277 26.9844C74.1467 26.8216 74.3063 26.5286 74.3063 26.1055C74.3063 25.6758 74.1695 25.3177 73.8961 25.0312C73.6292 24.7383 73.2613 24.5918 72.7926 24.5918C72.3303 24.5918 71.7835 24.7513 71.152 25.0703C70.5204 25.3828 70.0875 25.5391 69.8531 25.5391C69.4299 25.5391 69.2184 25.2493 69.2184 24.6699C69.2184 24.3053 69.5504 23.9603 70.2145 23.6348C70.885 23.3092 71.6467 23.1465 72.4996 23.1465H72.9879C73.6259 23.1465 74.1923 23.2669 74.6871 23.5078C75.1819 23.7487 75.5595 24.0742 75.8199 24.4844C76.191 25.0638 76.3766 26.3887 76.3766 28.459C76.3766 29.6309 76.3994 30.36 76.4449 30.6465C76.497 30.9329 76.6109 31.2227 76.7867 31.5156C76.9625 31.8021 77.0504 32.043 77.0504 32.2383ZM88.6477 33.1074C88.0487 33.1074 87.3879 33.0326 86.6652 32.8828C85.9426 32.7266 85.4348 32.5638 85.1418 32.3945C84.8488 32.2188 84.6177 31.9746 84.4484 31.6621C84.2857 31.3431 84.2043 31.0404 84.2043 30.7539C84.2043 30.4609 84.2727 30.2363 84.4094 30.0801C84.5461 29.9173 84.6958 29.8359 84.8586 29.8359C85.0214 29.8359 85.3241 30.0215 85.7668 30.3926C86.216 30.7637 86.662 31.0436 87.1047 31.2324C87.5539 31.4212 88.1105 31.5156 88.7746 31.5156C89.4387 31.5156 89.979 31.3398 90.3957 30.9883C90.8124 30.6367 91.0207 30.1387 91.0207 29.4941C91.0207 28.8496 90.6431 28.2669 89.8879 27.7461C89.6796 27.6029 88.9895 27.2546 87.8176 26.7012C86.6457 26.1413 85.871 25.666 85.4934 25.2754C85.1158 24.8783 84.8423 24.4779 84.673 24.0742C84.5103 23.6641 84.4289 23.1758 84.4289 22.6094C84.4289 21.5807 84.8619 20.7279 85.7277 20.0508C86.5025 19.4323 87.6646 19.123 89.2141 19.123C90.1646 19.123 90.9621 19.263 91.6066 19.543C91.8996 19.6732 92.1438 19.8945 92.3391 20.207C92.5409 20.513 92.6418 20.7995 92.6418 21.0664C92.6418 21.6914 92.4367 22.0039 92.0266 22.0039C91.9094 22.0039 91.509 21.7793 90.8254 21.3301C90.1418 20.8809 89.455 20.6562 88.7648 20.6562C88.0813 20.6562 87.5279 20.819 87.1047 21.1445C86.688 21.4635 86.4797 21.9062 86.4797 22.4727C86.4797 23.0391 86.7564 23.5436 87.3098 23.9863C87.6092 24.2272 88.3677 24.6243 89.5852 25.1777C90.8026 25.7246 91.6327 26.2227 92.0754 26.6719C92.5246 27.1146 92.8208 27.541 92.9641 27.9512C93.1138 28.3548 93.1887 28.8236 93.1887 29.3574C93.1887 29.8913 93.0747 30.3926 92.8469 30.8613C92.3911 31.8184 91.5806 32.4792 90.4152 32.8438C89.8619 33.0195 89.2954 33.1074 88.716 33.1074C88.69 33.1074 88.6672 33.1074 88.6477 33.1074ZM97.1465 24.2402C97.2311 24.5202 97.2734 25.5326 97.2734 27.2773C97.2734 29.0221 97.3385 30.0768 97.4688 30.4414C97.7422 31.2096 98.2305 31.5938 98.9336 31.5938C99.793 31.5938 100.415 31.2617 100.799 30.5977C101.183 29.9271 101.375 28.791 101.375 27.1895L101.395 26.6621V26.1445C101.395 25.793 101.368 25.4349 101.316 25.0703C101.271 24.7057 101.248 24.5039 101.248 24.4648C101.248 24.1589 101.355 23.944 101.57 23.8203C101.785 23.6901 102.101 23.625 102.518 23.625C102.934 23.625 103.201 23.7812 103.318 24.0938C103.396 24.3021 103.436 25.3372 103.436 27.1992C103.436 29.0547 103.536 30.3991 103.738 31.2324C103.829 31.5905 103.875 31.776 103.875 31.7891V31.9746C103.875 32.1439 103.774 32.3001 103.572 32.4434C103.377 32.5866 103.097 32.6582 102.732 32.6582C102.368 32.6582 102.016 32.5801 101.678 32.4238C101.339 32.2611 101.131 32.1797 101.053 32.1797C100.981 32.1797 100.639 32.2969 100.027 32.5312C99.4154 32.7656 98.8717 32.8828 98.3965 32.8828H98.1426C97.6217 32.8828 97.1497 32.7656 96.7266 32.5312C96.3034 32.2904 95.9746 31.9486 95.7402 31.5059C95.3952 30.8483 95.2227 29.4518 95.2227 27.3164C95.2227 26.0729 95.1803 25.3047 95.0957 25.0117C95.0892 24.9857 95.0469 24.8685 94.9688 24.6602C94.8906 24.4518 94.8516 24.3053 94.8516 24.2207V24.0059C94.8516 23.6478 95.1901 23.4688 95.8672 23.4688H96.1016C96.6419 23.4688 96.9902 23.7259 97.1465 24.2402ZM109.62 32.9609H109.249C108.311 32.9609 107.637 32.5573 107.227 31.75C106.889 31.0924 106.72 30.0117 106.72 28.5078C106.72 27.0039 106.638 25.972 106.475 25.4121C106.417 25.2038 106.254 24.9661 105.987 24.6992C105.72 24.4323 105.587 24.2012 105.587 24.0059V23.8789C105.587 23.7096 105.74 23.5241 106.046 23.3223C106.352 23.1204 106.527 22.9772 106.573 22.8926C106.625 22.8014 106.723 22.4857 106.866 21.9453C107.016 21.3984 107.169 21.0176 107.325 20.8027C107.488 20.5814 107.703 20.4707 107.97 20.4707C108.243 20.4707 108.435 20.5488 108.546 20.7051C108.663 20.8613 108.777 21.1836 108.887 21.6719C109.005 22.1602 109.132 22.4922 109.268 22.668C109.405 22.8372 109.737 23.0163 110.264 23.2051C110.792 23.3939 111.055 23.6283 111.055 23.9082C111.055 24.1556 110.779 24.377 110.225 24.5723C109.679 24.7676 109.333 25.0085 109.19 25.2949C108.917 25.8483 108.78 26.8281 108.78 28.2344C108.78 29.6406 108.901 30.5033 109.141 30.8223C109.382 31.1348 109.773 31.3268 110.313 31.3984C110.86 31.4701 111.134 31.6751 111.134 32.0137C111.134 32.2741 110.977 32.4987 110.665 32.6875C110.359 32.8698 110.011 32.9609 109.62 32.9609ZM121.966 31.5938C121.966 32.3294 121.556 32.6973 120.736 32.6973C120.365 32.6973 120.091 32.6322 119.916 32.502C119.746 32.3717 119.662 32.1504 119.662 31.8379L119.671 31.623L119.691 31.3984V30.8809L119.603 28.498C119.603 27.1634 119.46 26.2617 119.173 25.793C118.887 25.3177 118.408 25.0801 117.738 25.0801C117.38 25.0801 117.028 25.1908 116.683 25.4121C116.345 25.6335 116.078 25.9655 115.882 26.4082C115.687 26.8509 115.589 28.0391 115.589 29.9727C115.589 30.2396 115.609 30.5716 115.648 30.9688C115.694 31.3659 115.716 31.571 115.716 31.584C115.716 31.9421 115.602 32.235 115.375 32.4629C115.153 32.6842 114.821 32.7949 114.379 32.7949H114.115C113.444 32.7949 113.109 32.5345 113.109 32.0137V31.75C113.109 31.6458 113.142 31.4668 113.207 31.2129L113.353 30.6758C113.47 30.1224 113.529 28.9896 113.529 27.2773V23.5762L113.578 21.3984L113.588 21.0957C113.594 20.8939 113.597 20.7018 113.597 20.5195C113.597 20.3372 113.584 20.1712 113.558 20.0215L113.509 19.8164C113.464 19.6146 113.441 19.4941 113.441 19.4551C113.441 19.1491 113.623 18.9961 113.988 18.9961H114.242C114.906 18.9961 115.323 19.276 115.492 19.8359C115.57 20.0833 115.622 20.6237 115.648 21.457C115.674 22.2839 115.71 22.9089 115.755 23.332C115.808 23.7487 115.948 23.957 116.175 23.957C116.26 23.957 116.38 23.931 116.537 23.8789L116.752 23.791C117.429 23.4915 118.034 23.3418 118.568 23.3418C119.753 23.3418 120.58 23.8301 121.048 24.8066C121.374 25.4837 121.537 26.8118 121.537 28.791C121.537 29.5137 121.608 30.1289 121.752 30.6367C121.895 31.138 121.966 31.457 121.966 31.5938ZM127.106 31.7695H127.409C128.014 31.7695 128.548 31.5091 129.01 30.9883C129.264 30.7018 129.391 30.168 129.391 29.3867L129.401 29.2598V29.0156C129.401 28.5273 129.199 28.2832 128.795 28.2832H128.483L127.975 28.3223L127.711 28.3516C127.112 28.3516 126.621 28.5208 126.237 28.8594C125.853 29.1914 125.661 29.5885 125.661 30.0508V30.3926C125.661 30.7441 125.784 31.0632 126.032 31.3496C126.286 31.6296 126.644 31.7695 127.106 31.7695ZM132.047 32.2383C132.047 32.6745 131.608 32.8926 130.729 32.8926C130.573 32.8926 130.286 32.8145 129.87 32.6582C129.459 32.4954 129.199 32.4141 129.088 32.4141C128.984 32.4141 128.633 32.528 128.034 32.7559C127.435 32.9772 126.907 33.0879 126.452 33.0879H126.227C125.517 33.0879 124.905 32.8568 124.391 32.3945C123.877 31.9258 123.62 31.2878 123.62 30.4805C123.62 28.8398 124.658 27.8177 126.735 27.4141C128.082 27.1471 128.779 27.0039 128.825 26.9844C129.144 26.8216 129.303 26.5286 129.303 26.1055C129.303 25.6758 129.166 25.3177 128.893 25.0312C128.626 24.7383 128.258 24.5918 127.789 24.5918C127.327 24.5918 126.78 24.7513 126.149 25.0703C125.517 25.3828 125.084 25.5391 124.85 25.5391C124.427 25.5391 124.215 25.2493 124.215 24.6699C124.215 24.3053 124.547 23.9603 125.211 23.6348C125.882 23.3092 126.644 23.1465 127.496 23.1465H127.985C128.623 23.1465 129.189 23.2669 129.684 23.5078C130.179 23.7487 130.556 24.0742 130.817 24.4844C131.188 25.0638 131.373 26.3887 131.373 28.459C131.373 29.6309 131.396 30.36 131.442 30.6465C131.494 30.9329 131.608 31.2227 131.784 31.5156C131.959 31.8021 132.047 32.043 132.047 32.2383ZM138.652 25.2852C138.04 25.2852 137.564 25.5911 137.226 26.2031C136.887 26.8086 136.718 27.7363 136.718 28.9863C136.718 29.5397 136.741 29.9336 136.786 30.168C136.832 30.3958 136.9 30.6823 136.991 31.0273C137.089 31.3659 137.138 31.6621 137.138 31.916C137.138 32.1634 136.988 32.3913 136.689 32.5996C136.389 32.8079 135.999 32.9121 135.517 32.9121L135.351 32.9023H135.175C134.863 32.9023 134.602 32.8145 134.394 32.6387C134.192 32.4629 134.091 32.2643 134.091 32.043V31.8867C134.091 31.8411 134.153 31.6263 134.277 31.2422C134.4 30.8581 134.472 30.487 134.491 30.1289C134.511 29.7708 134.521 29.2891 134.521 28.6836V27.5996L134.511 27.4238C134.511 27.3066 134.511 27.1895 134.511 27.0723L134.491 26.5449C134.485 26.4277 134.482 26.1999 134.482 25.8613C134.482 25.5163 134.42 25.1908 134.296 24.8848C134.179 24.5723 134.12 24.3704 134.12 24.2793C134.12 23.8887 134.462 23.6934 135.146 23.6934C135.829 23.6934 136.324 23.8789 136.63 24.25C136.721 24.3607 136.816 24.416 136.913 24.416C137.017 24.416 137.187 24.3346 137.421 24.1719C138.072 23.7292 138.619 23.5078 139.062 23.5078H139.218C139.609 23.5078 139.905 23.5957 140.107 23.7715C140.315 23.9473 140.419 24.1816 140.419 24.4746C140.419 25.054 140.097 25.3438 139.452 25.3438C139.198 25.3047 138.932 25.2852 138.652 25.2852Z" fill="white"/>
</svg>
