<svg width="152" height="70" viewBox="0 0 152 70" fill="none" xmlns="http://www.w3.org/2000/svg">
<path d="M41.638 43.5V28.065H45.145C45.929 28.065 46.685 28.142 47.413 28.296C48.155 28.45 48.813 28.709 49.387 29.073C49.961 29.437 50.416 29.92 50.752 30.522C51.088 31.124 51.256 31.866 51.256 32.748C51.256 33.77 51.018 34.659 50.542 35.415C50.066 36.171 49.345 36.752 48.379 37.158L52.054 43.5H49.345L46.237 37.662C45.999 37.676 45.705 37.69 45.355 37.704C45.019 37.704 44.739 37.704 44.515 37.704H43.927V43.5H41.638ZM43.927 35.793H45.418C46.188 35.793 46.804 35.695 47.266 35.499C47.742 35.303 48.106 35.058 48.358 34.764C48.61 34.456 48.778 34.127 48.862 33.777C48.96 33.413 49.009 33.077 49.009 32.769C49.009 32.083 48.848 31.544 48.526 31.152C48.218 30.746 47.784 30.459 47.224 30.291C46.678 30.109 46.048 30.018 45.334 30.018H43.927V35.793ZM57.8121 43.71C56.6081 43.71 55.6281 43.479 54.8721 43.017C54.1161 42.541 53.5631 41.918 53.2131 41.148C52.8631 40.378 52.6881 39.559 52.6881 38.691C52.6881 37.641 52.8981 36.738 53.3181 35.982C53.7521 35.226 54.3471 34.645 55.1031 34.239C55.8591 33.819 56.7131 33.609 57.6651 33.609C59.1911 33.609 60.3041 34.036 61.0041 34.89C61.7041 35.73 62.0541 36.864 62.0541 38.292C62.0541 38.67 62.0331 39.062 61.9911 39.468H55.0611C55.2151 40.336 55.5231 40.959 55.9851 41.337C56.4611 41.701 57.0911 41.883 57.8751 41.883C58.6311 41.883 59.2261 41.813 59.6601 41.673C60.0941 41.533 60.4511 41.393 60.7311 41.253L61.4241 42.87C61.1441 43.052 60.7101 43.241 60.1221 43.437C59.5341 43.619 58.7641 43.71 57.8121 43.71ZM55.0611 37.893H59.8491C59.8631 36.983 59.6601 36.36 59.2401 36.024C58.8201 35.688 58.2741 35.52 57.6021 35.52C56.9021 35.52 56.3281 35.709 55.8801 36.087C55.4461 36.451 55.1731 37.053 55.0611 37.893ZM67.1888 43.71C66.7408 43.71 66.2718 43.668 65.7818 43.584C65.3058 43.5 64.8648 43.395 64.4588 43.269C64.0668 43.129 63.7658 42.982 63.5558 42.828L64.3118 41.043C64.5498 41.211 64.9068 41.4 65.3828 41.61C65.8728 41.82 66.4748 41.925 67.1888 41.925C67.8188 41.925 68.2458 41.834 68.4698 41.652C68.6938 41.456 68.8058 41.232 68.8058 40.98C68.8058 40.714 68.7078 40.511 68.5118 40.371C68.3298 40.217 68.0638 40.077 67.7138 39.951C67.3638 39.825 66.9508 39.671 66.4748 39.489C66.0128 39.293 65.5718 39.069 65.1518 38.817C64.7318 38.551 64.3888 38.229 64.1228 37.851C63.8708 37.459 63.7448 36.983 63.7448 36.423C63.7448 35.513 64.0948 34.82 64.7948 34.344C65.4948 33.854 66.4188 33.609 67.5668 33.609C68.1548 33.609 68.7218 33.672 69.2678 33.798C69.8278 33.924 70.2478 34.085 70.5278 34.281L69.7088 36.087C69.5408 35.919 69.2608 35.765 68.8688 35.625C68.4908 35.485 68.0358 35.415 67.5038 35.415C66.5098 35.415 66.0128 35.716 66.0128 36.318C66.0128 36.612 66.1178 36.85 66.3278 37.032C66.5518 37.2 66.8388 37.347 67.1888 37.473C67.5528 37.585 67.9448 37.725 68.3648 37.893C69.2188 38.229 69.8698 38.621 70.3178 39.069C70.7798 39.503 71.0108 40.084 71.0108 40.812C71.0108 41.47 70.8358 42.016 70.4858 42.45C70.1358 42.884 69.6668 43.206 69.0788 43.416C68.5048 43.612 67.8748 43.71 67.1888 43.71ZM76.2463 43.71C75.2803 43.71 74.5453 43.507 74.0413 43.101C73.5373 42.695 73.1943 42.156 73.0123 41.484C72.8443 40.812 72.7603 40.07 72.7603 39.258V33.861H75.0283V38.691C75.0283 39.433 75.0703 40.035 75.1543 40.497C75.2523 40.959 75.4343 41.302 75.7003 41.526C75.9803 41.736 76.3933 41.841 76.9393 41.841C77.3313 41.841 77.7023 41.736 78.0523 41.526C78.4163 41.302 78.7173 41.001 78.9553 40.623C79.1933 40.231 79.3123 39.797 79.3123 39.321V33.861H81.5593V43.5H79.7113L79.4593 42.093C79.1093 42.625 78.6753 43.031 78.1573 43.311C77.6393 43.577 77.0023 43.71 76.2463 43.71ZM83.9332 43.5V33.861H86.2012V35.604C86.5232 34.918 86.9852 34.414 87.5872 34.092C88.1892 33.77 88.8612 33.609 89.6032 33.609C90.5552 33.623 91.2762 33.791 91.7662 34.113C92.2562 34.435 92.5922 34.862 92.7742 35.394C93.0822 34.848 93.5442 34.414 94.1602 34.092C94.7762 33.77 95.4272 33.609 96.1132 33.609C97.1632 33.609 97.9402 33.812 98.4442 34.218C98.9622 34.61 99.2982 35.184 99.4522 35.94C99.6202 36.682 99.7042 37.592 99.7042 38.67V43.5H97.4152V38.649C97.4152 37.571 97.3032 36.773 97.0792 36.255C96.8692 35.737 96.4212 35.478 95.7352 35.478C94.8112 35.478 94.1322 35.786 93.6982 36.402C93.2642 37.018 93.0472 37.788 93.0472 38.712V43.5H90.7792V38.313C90.7792 37.711 90.7512 37.2 90.6952 36.78C90.6532 36.36 90.5062 36.038 90.2542 35.814C90.0162 35.59 89.6032 35.478 89.0152 35.478C88.5252 35.478 88.0632 35.625 87.6292 35.919C87.2092 36.213 86.8662 36.605 86.6002 37.095C86.3482 37.571 86.2222 38.11 86.2222 38.712V43.5H83.9332ZM106.653 43.71C105.449 43.71 104.469 43.479 103.713 43.017C102.957 42.541 102.404 41.918 102.054 41.148C101.704 40.378 101.529 39.559 101.529 38.691C101.529 37.641 101.739 36.738 102.159 35.982C102.593 35.226 103.188 34.645 103.944 34.239C104.7 33.819 105.554 33.609 106.506 33.609C108.032 33.609 109.145 34.036 109.845 34.89C110.545 35.73 110.895 36.864 110.895 38.292C110.895 38.67 110.874 39.062 110.832 39.468H103.902C104.056 40.336 104.364 40.959 104.826 41.337C105.302 41.701 105.932 41.883 106.716 41.883C107.472 41.883 108.067 41.813 108.501 41.673C108.935 41.533 109.292 41.393 109.572 41.253L110.265 42.87C109.985 43.052 109.551 43.241 108.963 43.437C108.375 43.619 107.605 43.71 106.653 43.71ZM103.902 37.893H108.69C108.704 36.983 108.501 36.36 108.081 36.024C107.661 35.688 107.115 35.52 106.443 35.52C105.743 35.52 105.169 35.709 104.721 36.087C104.287 36.451 104.014 37.053 103.902 37.893Z" fill="white"/>
</svg>
