<svg width="145" height="193" viewBox="0 0 145 193" fill="none" xmlns="http://www.w3.org/2000/svg">
<path d="M102.343 10.963C100.87 17.352 102.838 28.4955 106.16 32.7113C110.867 38.7423 111.305 39.0232 114.579 39.5802C120.963 40.5888 128.42 37.0361 132.983 31.009C136.328 26.517 137.136 22.2486 135.131 19.11C134.407 17.9506 133.484 16.7405 133.046 16.4595C131.369 15.4606 126.099 15.2442 122.018 15.9449L117.722 16.7395L115.907 12.1013C114.488 8.41182 113.635 7.09235 111.938 6.00363C109.092 4.17739 107.432 4.11563 105.387 5.73702C103.217 7.43265 103.096 7.74119 102.343 10.963ZM109.186 10.4134C109.788 10.7997 110.799 12.8376 111.395 14.9186C113.506 21.9855 114.292 22.567 121.212 21.2949C129.3 19.7685 131.512 20.4158 130.747 24.0164C129.784 28.6479 124.04 33.1449 117.213 34.6317L112.508 35.7036L110.79 33.4434C108.391 30.4378 107.172 26.799 106.775 21.758C106.089 13.6753 107.106 9.07882 109.186 10.4134Z" fill="url(#paint0_linear_61_545)"/>
<path d="M47.3834 98.9041C44.5624 107.515 48.1803 117.171 56.1715 122.298L60.0576 124.792L54.0451 133.44C43.6382 148.454 31.275 160.978 18.0712 169.875C13.938 172.704 10.5388 175.232 10.5977 175.502C10.8489 176.435 14.3828 175.383 18.5441 173.112C32.7457 165.55 49.2688 149.674 60.3648 132.863L65.4917 125.113L69.0341 124.53C81.4925 122.334 91.7435 110.693 97.0994 92.592C99.1219 85.7068 101.055 75.8307 102.603 64.627C103.764 55.9539 103.788 53.2673 102.802 52.6352C101.872 52.0381 100.666 56.2051 98.3966 68.4126C92.91 97.3147 86.9227 110.379 75.9658 116.858C73.0228 118.675 68.505 120.176 67.684 119.65C67.4651 119.509 67.5577 118.642 67.9002 117.627C68.2623 116.701 68.8322 113.284 69.2266 110.141C70.0393 104.178 69.3447 98.6369 67.2971 95.0844C65.6958 92.2814 61.5907 89.6474 58.7038 89.5705C54.1019 89.3968 49.1968 93.4287 47.3834 98.9041ZM56.9101 95.1357C58.8076 94.3461 61.2664 95.6922 62.8481 98.4054C65.0992 102.243 64.873 111.747 62.4239 117.973C61.8359 119.371 61.4962 119.539 60.0815 119.094C55.7084 117.601 51.6525 110.675 51.6919 104.834C51.6555 100.796 54.099 96.2654 56.9101 95.1357Z" fill="url(#paint1_linear_61_545)"/>
<defs>
<linearGradient id="paint0_linear_61_545" x1="91.6909" y1="25.9144" x2="136.43" y2="11.0056" gradientUnits="userSpaceOnUse">
<stop stop-color="#42307D"/>
<stop offset="1" stop-color="#7F56D9"/>
</linearGradient>
<linearGradient id="paint1_linear_61_545" x1="1.39483" y1="169.711" x2="78.0937" y2="193.866" gradientUnits="userSpaceOnUse">
<stop stop-color="#42307D"/>
<stop offset="1" stop-color="#7F56D9"/>
</linearGradient>
</defs>
</svg>
