<svg width="210" height="203" viewBox="0 0 210 203" fill="none" xmlns="http://www.w3.org/2000/svg">
<path d="M154.459 51.7503C151.896 51.3353 147.176 51.3792 144.056 51.8773C136.96 53.0815 123.721 58.3693 116.17 63.0545C113.008 64.9888 110.277 66.5592 110.049 66.4201C109.897 66.3274 109.787 64.7985 109.968 63.1341C110.245 58.9183 108.624 51.1442 106.951 48.2444C106.106 46.8938 103.876 44.9072 101.9 43.7016C98.6312 41.7078 97.8374 41.6412 93.2148 42.893C87.0005 44.5311 81.9146 48.4234 77.1422 55.2213C70.7958 64.0867 71.8217 63.7728 64.2201 59.136C54.718 53.34 47.198 51.9893 41.339 55.0969C35.7417 57.9465 34.2197 63.1775 36.7562 70.9885C37.5931 73.3782 39.4903 76.9366 41.125 78.8733C44.2721 82.7765 59.4681 94.9688 67.585 100.129C84.351 110.773 146.181 146.713 149.458 147.668C154.44 149.246 164.843 147.239 170.583 143.642C175.433 140.649 180.421 133.67 180.744 129.378C181.403 119.235 174.615 112.067 158.197 105.811C154.131 104.27 150.706 102.703 150.571 102.412C150.558 102.091 152.807 99.6004 155.639 96.8387C166.013 86.6716 171.252 74.834 169.369 65.4383C167.795 57.588 163.2 53.3234 154.459 51.7503ZM162.841 64.1708C166.619 71.486 161.38 83.3236 149.364 94.4727C143.578 100.026 143.038 100.74 143.051 102.941C143.239 106.396 143.771 106.72 157.402 111.903C165.459 114.938 167.376 115.899 170.484 118.839C174.746 122.796 175.909 126.533 174.378 130.923C172.645 135.817 168.724 139.167 162.324 141.109C151.99 144.201 155.034 145.536 113.255 120.156C92.9121 107.852 70.9562 94.7729 64.3556 91.0598C50.9263 83.4947 46.7239 79.7829 43.0816 72.7589C41.8773 70.4584 41.0188 66.9072 41.1868 64.9218C41.3205 61.4538 41.4598 61.2256 43.9587 60.0355C48.4966 57.8968 53.5889 59.1239 62.7108 64.6881C68.5641 68.2584 71.2583 69.4842 72.2841 69.1703C73.1115 68.8399 76.2386 65.4231 79.2178 61.394C88.0751 49.78 94.7823 45.6239 99.8754 48.7305C103.22 50.7707 104.968 59.8752 103.548 67.6742C102.668 72.8791 102.736 73.9646 104.332 74.9383C105.928 75.9121 107.537 75.3272 115.333 70.5825C126.92 63.5565 130.537 61.9005 140.243 59.1555C152.029 55.9054 159.41 57.4844 162.841 64.1708Z" fill="url(#paint0_linear_61_492)"/>
<path d="M91.7917 124.394C87.5363 125.557 80.3098 129.71 79.1495 131.612C77.8964 133.666 80.0841 135.209 83.2208 134.513C90.0135 133.123 98.4043 126.549 96.4823 124.228C96.0894 123.675 93.9658 123.737 91.7917 124.394Z" fill="url(#paint1_linear_61_492)"/>
<path d="M120.202 144.334C119.054 144.677 116.246 146.201 113.76 147.712C105.61 152.867 105.392 157.328 113.514 153.93C121.589 150.609 127.505 142.107 120.202 144.334Z" fill="url(#paint2_linear_61_492)"/>
<path d="M51.3198 105.763C48.352 106.353 42.337 109.888 41.3159 111.562C40.3413 113.16 41.3087 114.48 43.4916 114.664C47.8277 114.907 57.5692 107.487 54.9847 105.91C54.3765 105.539 52.7426 105.482 51.3198 105.763Z" fill="url(#paint3_linear_61_492)"/>
<path d="M81.3407 152.471C78.5544 153.277 74.6624 154.87 72.6827 156.064C69.766 157.938 69.3187 158.501 69.7668 159.818C70.4981 162.039 73.3059 162.394 77.7766 161.05C82.0487 159.689 86.9363 155.78 87.4124 153.46C87.8421 151.217 86.8963 151.058 81.3407 152.471Z" fill="url(#paint4_linear_61_492)"/>
<path d="M46.0655 131.476C44.6468 131.237 38.6318 134.771 37.5643 136.521C37.193 137.13 37.3243 137.94 37.8564 138.265C39.6808 139.378 42.467 138.572 45.6029 135.996C49.1694 133.056 49.2998 131.987 46.0655 131.476Z" fill="url(#paint5_linear_61_492)"/>
<defs>
<linearGradient id="paint0_linear_61_492" x1="72.9283" y1="-0.000931805" x2="65.9898" y2="154.613" gradientUnits="userSpaceOnUse">
<stop stop-color="#42307D"/>
<stop offset="1" stop-color="#7F56D9"/>
</linearGradient>
<linearGradient id="paint1_linear_61_492" x1="87.1521" y1="118.492" x2="95.1418" y2="136.442" gradientUnits="userSpaceOnUse">
<stop stop-color="#42307D"/>
<stop offset="1" stop-color="#7F56D9"/>
</linearGradient>
<linearGradient id="paint2_linear_61_492" x1="115.921" y1="139.787" x2="124.081" y2="154.268" gradientUnits="userSpaceOnUse">
<stop stop-color="#42307D"/>
<stop offset="1" stop-color="#7F56D9"/>
</linearGradient>
<linearGradient id="paint3_linear_61_492" x1="47.5349" y1="101.366" x2="53.9364" y2="115.97" gradientUnits="userSpaceOnUse">
<stop stop-color="#42307D"/>
<stop offset="1" stop-color="#7F56D9"/>
</linearGradient>
<linearGradient id="paint4_linear_61_492" x1="77.4391" y1="145.866" x2="84.7264" y2="164.591" gradientUnits="userSpaceOnUse">
<stop stop-color="#42307D"/>
<stop offset="1" stop-color="#7F56D9"/>
</linearGradient>
<linearGradient id="paint5_linear_61_492" x1="42.3734" y1="128.637" x2="47.2241" y2="139.789" gradientUnits="userSpaceOnUse">
<stop stop-color="#42307D"/>
<stop offset="1" stop-color="#7F56D9"/>
</linearGradient>
</defs>
</svg>
