<svg width="268" height="242" viewBox="0 0 268 242" fill="none" xmlns="http://www.w3.org/2000/svg">
<path d="M6.21628 158.675C8.51296 167.214 12.9833 174.502 20.4838 181.619C27.2295 188.021 31.2472 190.4 39.6857 193.034C44.5084 194.565 47.0913 194.867 54.6269 194.673C63.2651 194.451 63.9109 194.526 66.8583 196.427C78.2306 203.905 98.4528 203.569 118.703 195.646C136.995 188.462 161.803 172.146 174.87 158.66C179.344 154.039 180.321 152.726 180.113 151.812C179.654 150.123 178.705 150.745 171.294 157.326C154.051 172.851 134.023 185.642 116.546 192.345C103.167 197.563 89.5131 199.385 79.2067 197.397C75.0916 196.537 68.4487 193.996 68.3819 193.216C68.3746 192.94 70.3173 191.649 72.6723 190.301C77.6979 187.367 79.9812 185.055 82.079 180.955C84.2637 176.669 83.9673 172.446 81.2141 169.207C78.369 165.969 76.7376 165.138 73.1015 165.001C68.9588 164.832 65.2848 166.72 61.9875 170.667C57.6217 175.929 56.6708 181.654 59.1648 187.246C59.8497 188.791 60.167 190.346 59.8093 190.723C58.9148 191.666 48.7964 191.558 43.9859 190.487C29.9742 187.491 16.8895 176.148 10.147 161.241C8.77714 158.15 7.33011 155.612 7.00724 155.574C5.80524 155.329 5.59877 156.208 6.21628 158.675ZM68.0331 169.776C70.7955 168.187 75.7652 168.335 77.6522 170.126C81.3316 173.618 80.7287 178.599 75.8514 183.644C71.8263 187.885 65.9143 190.336 64.0273 188.546C61.6687 186.308 60.7988 181.272 62.0297 177.424C63.3524 173.574 64.7762 171.79 68.0331 169.776Z" fill="url(#paint0_linear_61_540)"/>
<path d="M101.373 185.471C102.6 186.634 110.133 186.349 116.119 184.953C124.022 183.049 130.052 179.813 138.69 172.694C142.65 169.466 143.982 167.684 143.039 166.789C142.284 166.073 140.195 167.046 134.183 170.925C123.468 177.776 114.968 181.443 106.312 182.723C101.319 183.449 100.052 184.217 101.373 185.471Z" fill="url(#paint1_linear_61_540)"/>
<path d="M190.473 102.348C190.644 103.586 192.722 107.348 196.852 113.955L199.736 118.663L195.46 129.026C190.536 140.923 190.118 142.497 191.392 143.706C192.901 145.138 195.629 143.965 202.935 138.627C206.769 135.816 210.199 133.428 210.656 133.325C211.615 133.07 215.531 136.786 221.556 143.757C227.201 150.279 227.899 150.583 230.717 147.614C231.7 146.577 236.795 137.618 241.958 127.738C247.212 117.855 252.513 108.018 253.833 105.777C256.649 101.014 257.226 98.5167 255.82 97.5413C255.212 97.1432 251.166 97.1553 246.67 97.5468C242.175 97.9383 232.113 98.243 224.295 98.1682C200.427 98.0004 198.497 98.05 195.608 98.3542C192.72 98.6584 190.288 100.56 190.473 102.348ZM207.474 101.911C213.683 101.981 222.788 102.023 227.661 101.99C232.534 101.956 236.814 102.076 237.139 102.206C237.742 102.42 234.468 103.792 214.447 111.663C205.619 115.109 202.745 115.964 202.313 115.286C197.5 107.225 195.222 102.824 195.669 102.353C195.937 102.07 201.22 101.888 207.474 101.911ZM225.741 111.005C243.32 104.668 246.241 103.857 243.317 106.277C233.508 114.346 216.399 126.234 210.181 129.291C207.958 130.406 204.472 132.472 202.398 133.997C200.321 135.43 198.286 136.723 197.874 136.78C197.462 136.837 197.992 134.294 199.106 131.231C200.128 128.17 201.358 124.322 201.776 122.748L202.575 119.923L205.754 118.462C207.573 117.679 216.54 114.276 225.741 111.005ZM220.337 127.374C224.362 124.834 244.53 110.384 245.782 109.064C246.992 107.884 245.65 110.999 242.192 117.571C240.177 121.301 236.426 128.938 233.816 134.522C231.251 140.06 228.895 144.81 228.626 145.093C228.134 145.611 226.528 143.997 217.948 134.333C216.337 132.535 215.235 130.862 215.503 130.579C215.727 130.344 217.94 128.861 220.337 127.374Z" fill="url(#paint2_linear_61_540)"/>
<defs>
<linearGradient id="paint0_linear_61_540" x1="-0.000740161" y1="162.183" x2="180.933" y2="162.619" gradientUnits="userSpaceOnUse">
<stop stop-color="#42307D"/>
<stop offset="1" stop-color="#7F56D9"/>
</linearGradient>
<linearGradient id="paint1_linear_61_540" x1="100.581" y1="184.72" x2="134.457" y2="196.044" gradientUnits="userSpaceOnUse">
<stop stop-color="#42307D"/>
<stop offset="1" stop-color="#7F56D9"/>
</linearGradient>
<linearGradient id="paint2_linear_61_540" x1="169.685" y1="123.108" x2="265.436" y2="132.088" gradientUnits="userSpaceOnUse">
<stop stop-color="#42307D"/>
<stop offset="1" stop-color="#7F56D9"/>
</linearGradient>
</defs>
</svg>
