<svg width="666" height="257" viewBox="0 0 666 257" fill="none" xmlns="http://www.w3.org/2000/svg">
<path d="M555.147 117.662C553.299 117.246 551.618 118.294 552.424 119.41C553.07 120.415 557.404 120.9 558.484 120.146C559.218 119.548 557.336 118.157 555.147 117.662Z" fill="url(#paint0_linear_61_511)"/>
<path d="M481.375 72.2699C480.88 72.6386 479.908 74.2602 479.24 76.0141C477.358 80.6471 477.028 80.8929 473.412 80.5131C467.836 79.8771 467.44 81.5825 472.111 85.7891L474.942 88.3173L473.416 93.1198C472.531 95.7531 472.008 98.3215 472.286 98.8322C472.869 100.269 476.349 99.3653 480.008 96.8424L483.322 94.4747L485.342 96.1208C486.814 97.3048 487.655 97.5744 488.528 97.2313C489.619 96.8025 489.671 96.0461 489.144 92.8252C488.456 88.6992 488.742 87.9475 491.97 85.3617C494.868 83.0217 494.552 81.7708 490.915 81.5349C489.44 81.3787 487.895 81.095 487.575 80.8721C487.202 80.612 486.251 78.681 485.465 76.6271C483.84 72.4822 482.8 71.3609 481.375 72.2699ZM483.351 79.4339L483.908 81.2487L482.289 81.0716C480.851 80.8621 480.728 80.6973 481.104 79.1359C481.342 78.1127 481.612 77.2705 481.723 77.1104C482.095 76.5769 482.848 77.6562 483.351 79.4339ZM484.153 88.3956C482.889 90.2096 482.798 90.2258 480.773 88.8141C479.387 87.8482 478.773 87.0242 478.969 86.2887C479.424 84.3862 480.046 83.9479 482.171 84.0811C485.052 84.2657 485.827 85.9947 484.153 88.3956ZM475.761 84.5284C475.575 84.7952 475.176 84.9134 474.856 84.6904C474.59 84.5047 474.509 84.0522 474.695 83.7854C474.918 83.4653 475.334 83.4376 475.6 83.6234C475.92 83.8463 475.984 84.2083 475.761 84.5284ZM478.774 93.8415C475.95 96.0748 475.417 95.7033 476.818 92.5575C477.576 90.7874 477.794 90.7016 479.02 91.556C480.3 92.4477 480.279 92.5915 478.774 93.8415Z" fill="url(#paint1_linear_61_511)"/>
<path d="M526.455 105.195C525.145 104.916 524.006 105.074 523.906 105.559C523.44 107.136 529.54 109.406 531.151 108.23C532.05 107.509 529.364 105.795 526.455 105.195Z" fill="url(#paint2_linear_61_511)"/>
<path d="M512.938 99.0241C510.61 98.2736 509.726 98.2918 509.349 99.0597C508.856 100.222 509.479 100.577 514.615 102.413C516.639 103.031 518.168 103.224 518.502 102.744C519.172 101.784 517.002 100.351 512.938 99.0241Z" fill="url(#paint3_linear_61_511)"/>
<path d="M496.299 92.1044C493.502 91.3444 491.783 91.6522 492.025 93.0098C492.202 94.0053 501.481 96.8264 502.38 96.1051C503.279 95.3839 499.633 93.0015 496.299 92.1044Z" fill="url(#paint4_linear_61_511)"/>
<path d="M488.92 99.1689C487.973 99.6187 489.763 103.641 491.758 105.665C495.533 109.565 494.918 104.539 491.057 100.421C490.246 99.5385 489.356 98.9974 488.92 99.1689Z" fill="url(#paint5_linear_61_511)"/>
<path d="M376.655 22.1933C376.358 22.6201 375.759 24.5017 375.304 26.4042C374.849 28.3068 374.325 30.0817 374.139 30.3484C373.953 30.6152 372.292 30.7258 370.402 30.5974C365.524 30.21 365.154 31.5371 369.301 34.9035L372.527 37.5479L371.31 42.2485C370.442 45.7658 370.375 47.2254 371.154 47.9265C372.284 49.0315 373.656 48.0854 376.259 44.3507L378.007 41.8431L381.956 44.3578C387.116 47.6365 388.068 46.9524 385.674 41.6377C384.728 39.4723 383.995 37.4555 384.021 37.0773C384.047 36.6991 385.382 35.8064 387.021 35.046C391.501 32.9364 390.625 31.6923 384.539 31.3346L380.759 31.0776L379.736 27.4318C379.184 25.3827 378.899 23.5193 379.048 23.3059C379.196 23.0924 378.865 22.5447 378.279 22.136C377.693 21.7274 376.953 21.7665 376.655 22.1933ZM378.622 36.6433C377.235 38.2925 376.713 38.2459 376.407 36.5263C376.138 34.7534 377.77 33.4338 378.863 34.5922C379.391 35.1981 379.323 35.864 378.622 36.6433ZM381.769 40.4223C381.743 40.8006 381.451 40.993 381.184 40.8073C380.864 40.5844 380.784 40.1319 380.97 39.8651C381.193 39.545 381.448 39.4059 381.555 39.4802C381.715 39.5916 381.832 39.9908 381.769 40.4223Z" fill="url(#paint6_linear_61_511)"/>
<path d="M457.718 78.3734C455.199 78.124 455.68 79.252 459.145 81.6667C461.064 83.0041 462.758 83.8681 462.907 83.6547C463.985 82.1074 460.508 78.5742 457.718 78.3734Z" fill="url(#paint7_linear_61_511)"/>
<path d="M445.429 71.2352C444.107 70.6313 443.063 70.5381 442.548 71.0506C441.83 71.7395 442.092 72.1596 444.277 73.6828C445.663 74.6487 447.48 75.6774 448.285 76.0003C450.021 76.5765 451.148 75.3008 449.709 74.2978C449.123 73.8891 448.451 73.2623 448.099 72.8584C447.8 72.4916 446.59 71.7277 445.429 71.2352Z" fill="url(#paint8_linear_61_511)"/>
<path d="M519.822 125.621L516.613 126.476L513.893 123.788C510.416 120.255 507.282 118.388 506.325 119.306C505.937 119.749 505.851 122.146 506.228 124.787L506.794 129.542L503.91 130.385C502.313 130.858 500.802 131.548 500.579 131.869C500.059 132.616 502.137 134.064 505.696 135.435L508.594 136.504L509.449 141.3C510.663 147.854 511.755 148.218 515.229 143.347L517.885 139.65L520.378 140.277C523.803 141.158 524.615 139.425 522.341 136.097C520.297 133.007 520.264 132.033 522.458 128.885C524.837 125.47 523.957 124.461 519.822 125.621ZM512.727 126.938C513.122 127.848 513.011 128.008 511.563 128.268C510.078 128.58 510.009 128.452 509.589 126.099L509.101 123.619L510.7 124.733C511.606 125.365 512.486 126.375 512.727 126.938ZM516.761 132.286C516.873 132.92 516.582 133.906 516.099 134.6C515.02 136.147 512.128 135.637 511.087 133.723C510.275 132.047 510.849 131.337 513.367 130.793C515.613 130.297 516.47 130.657 516.761 132.286ZM513.632 140.411C512.851 141.532 512.798 141.494 512.455 139.828C512.176 138.524 512.329 138.076 512.995 138.144C514.31 138.188 514.562 139.077 513.632 140.411Z" fill="url(#paint9_linear_61_511)"/>
<path d="M427.009 59.8247C426.365 59.6133 425.657 59.8334 425.429 60.3879C425.068 61.2463 425.527 61.7245 427.733 63.1038C430.867 64.9708 432.523 65.0945 431.855 63.4398C431.427 62.349 429.013 60.5867 427.009 59.8247Z" fill="url(#paint10_linear_61_511)"/>
<path d="M410.275 49.7467C409.95 49.7582 409.455 50.1269 409.158 50.5537C408.823 51.0339 409.58 51.8789 412.086 53.6249C415.497 56.0025 417.51 56.2958 416.703 54.3857C416.222 53.2578 411.126 49.5475 410.275 49.7467Z" fill="url(#paint11_linear_61_511)"/>
<path d="M466.444 91.193C464.012 91.9554 462.996 93.071 464.062 93.814C464.969 94.4456 468.758 93.4402 469.502 92.3732C470.357 91.146 468.657 90.5165 466.444 91.193Z" fill="url(#paint12_linear_61_511)"/>
<path d="M497.418 112.543C496.637 113.663 500.017 120.062 501.194 119.852C502.551 119.609 502.345 117.404 500.776 114.883C499.222 112.453 498.05 111.636 497.418 112.543Z" fill="url(#paint13_linear_61_511)"/>
<path d="M396.452 42.6495C395.131 42.0456 394.14 41.9895 393.805 42.4697C392.616 44.1769 399.335 47.8299 400.845 46.3455C401.728 45.5338 400.576 44.5726 396.452 42.6495Z" fill="url(#paint14_linear_61_511)"/>
<path d="M457.051 94.5561C454.156 95.0745 450.746 96.8992 450.907 97.8042C451.229 99.6143 458.494 97.9398 460.093 95.6457C461.06 94.2585 460.219 93.989 457.051 94.5561Z" fill="url(#paint15_linear_61_511)"/>
<path d="M386.102 52.9542C385.544 53.7545 386.498 57.2727 387.462 57.707C389.034 58.4062 389.692 57.121 388.598 55.169C387.455 52.9456 386.623 52.2073 386.102 52.9542Z" fill="url(#paint16_linear_61_511)"/>
<path d="M494.051 128.508C490.713 128.639 492.032 131.064 495.44 131.061C496.377 131.08 497.319 130.865 497.542 130.545C498.026 129.851 495.675 128.451 494.051 128.508Z" fill="url(#paint17_linear_61_511)"/>
<path d="M484.316 126.796C481.674 126.382 479.557 127.601 481.05 128.641C482.489 129.645 487.564 130.09 488.159 129.236C488.902 128.169 487.426 127.22 484.316 126.796Z" fill="url(#paint18_linear_61_511)"/>
<path d="M390.447 63.196C389.575 63.5391 390.282 69.3427 391.348 70.0857C392.574 70.9402 393.433 68.6851 392.684 66.5778C391.528 63.236 391.267 62.8158 390.447 63.196Z" fill="url(#paint19_linear_61_511)"/>
<path d="M436.791 100.332C433.257 101.198 432.087 101.968 432.621 103.133C432.878 103.787 441.314 102.137 441.909 101.283C442.764 100.056 439.963 99.5302 436.791 100.332Z" fill="url(#paint20_linear_61_511)"/>
<path d="M392.611 77.7041C391.867 78.7712 392.896 82.9762 394.085 83.884C395.524 84.887 396.081 83.2932 395.347 80.4828C394.613 77.6725 393.466 76.477 392.611 77.7041Z" fill="url(#paint21_linear_61_511)"/>
<path d="M450.462 118.896C446.526 118.293 444.723 119.177 446.855 120.663C448.401 121.74 455.643 122.824 456.579 122.05C457.643 121.206 454.451 119.536 450.462 118.896Z" fill="url(#paint22_linear_61_511)"/>
<path d="M423.625 103.997C420.228 104.325 416.419 106.267 416.661 107.625C416.903 108.983 417.643 108.943 422.368 107.163C425.22 106.139 426.427 105.316 426.314 104.682C426.202 104.049 425.376 103.87 423.625 103.997Z" fill="url(#paint23_linear_61_511)"/>
<path d="M435.867 115.066C430.733 114.024 428.891 114.167 429.852 115.629C431.058 117.421 441.209 119.106 441.259 117.556C441.337 116.421 440.48 116.061 435.867 115.066Z" fill="url(#paint24_linear_61_511)"/>
<path d="M405.216 98.9345L402.747 99.7502L400.421 97.1781C399.189 95.7644 397.562 94.2346 396.816 93.7145C394.844 92.3399 393.714 94.6436 394.428 98.3914L395.029 101.506L391.282 102.223C388.929 102.645 387.328 103.352 387.079 104.05C386.606 105.068 387.012 105.509 391.228 108.21L395.817 111.17L395.639 113.584C394.925 122.677 398.245 125.071 401.039 117.426L402.226 114.132L403.835 114.778C408.572 116.731 409.254 116.889 409.774 116.142C410.072 115.715 409.307 113.518 408.073 111.31C405.505 106.587 405.429 105.9 407.288 103.233C410.077 99.2313 409.335 97.6833 405.216 98.9345ZM398.797 100.644C398.611 100.911 398.319 101.103 398.212 101.029C398.052 100.918 397.972 100.465 397.998 100.087C398.061 99.6553 398.316 99.5162 398.583 99.7019C398.903 99.9248 399.02 100.324 398.797 100.644ZM401.765 105.249C401.878 105.883 401.363 107.189 400.657 108.202L399.318 110.123L398.803 107.227C398.367 104.783 398.521 104.336 399.591 104.051C401.097 103.594 401.507 103.801 401.765 105.249ZM395.208 106.703C395.054 107.151 394.388 107.084 393.536 106.489C392.256 105.598 392.224 105.417 393.294 105.132C394.672 104.745 395.541 105.43 395.208 106.703Z" fill="url(#paint25_linear_61_511)"/>
<path d="M417.895 109.832C415.45 109.476 413.85 110.977 415.779 111.845C417.814 112.788 423.007 113.633 423.416 113.046C423.974 112.246 420.573 110.193 417.895 109.832Z" fill="url(#paint26_linear_61_511)"/>
<defs>
<linearGradient id="paint0_linear_61_511" x1="553.943" y1="116.097" x2="553.528" y2="122.338" gradientUnits="userSpaceOnUse">
<stop stop-color="#42307D"/>
<stop offset="1" stop-color="#7F56D9"/>
</linearGradient>
<linearGradient id="paint1_linear_61_511" x1="477.741" y1="68.578" x2="486.16" y2="105.404" gradientUnits="userSpaceOnUse">
<stop stop-color="#42307D"/>
<stop offset="1" stop-color="#7F56D9"/>
</linearGradient>
<linearGradient id="paint2_linear_61_511" x1="525.433" y1="103.318" x2="524.274" y2="109.308" gradientUnits="userSpaceOnUse">
<stop stop-color="#42307D"/>
<stop offset="1" stop-color="#7F56D9"/>
</linearGradient>
<linearGradient id="paint3_linear_61_511" x1="511.081" y1="96.5491" x2="509.482" y2="103.638" gradientUnits="userSpaceOnUse">
<stop stop-color="#42307D"/>
<stop offset="1" stop-color="#7F56D9"/>
</linearGradient>
<linearGradient id="paint4_linear_61_511" x1="494.122" y1="89.4225" x2="492.34" y2="97.1117" gradientUnits="userSpaceOnUse">
<stop stop-color="#42307D"/>
<stop offset="1" stop-color="#7F56D9"/>
</linearGradient>
<linearGradient id="paint5_linear_61_511" x1="489.081" y1="98.853" x2="487.877" y2="106.388" gradientUnits="userSpaceOnUse">
<stop stop-color="#42307D"/>
<stop offset="1" stop-color="#7F56D9"/>
</linearGradient>
<linearGradient id="paint6_linear_61_511" x1="374.615" y1="19.5823" x2="380.967" y2="54.6443" gradientUnits="userSpaceOnUse">
<stop stop-color="#42307D"/>
<stop offset="1" stop-color="#7F56D9"/>
</linearGradient>
<linearGradient id="paint7_linear_61_511" x1="457.192" y1="77.1526" x2="455.683" y2="81.8618" gradientUnits="userSpaceOnUse">
<stop stop-color="#42307D"/>
<stop offset="1" stop-color="#7F56D9"/>
</linearGradient>
<linearGradient id="paint8_linear_61_511" x1="443.519" y1="69.5874" x2="441.906" y2="74.9141" gradientUnits="userSpaceOnUse">
<stop stop-color="#42307D"/>
<stop offset="1" stop-color="#7F56D9"/>
</linearGradient>
<linearGradient id="paint9_linear_61_511" x1="509.058" y1="115.38" x2="514.198" y2="150.356" gradientUnits="userSpaceOnUse">
<stop stop-color="#42307D"/>
<stop offset="1" stop-color="#7F56D9"/>
</linearGradient>
<linearGradient id="paint10_linear_61_511" x1="426.39" y1="58.9702" x2="425.036" y2="63.8174" gradientUnits="userSpaceOnUse">
<stop stop-color="#42307D"/>
<stop offset="1" stop-color="#7F56D9"/>
</linearGradient>
<linearGradient id="paint11_linear_61_511" x1="410.146" y1="49.1358" x2="408.534" y2="53.8171" gradientUnits="userSpaceOnUse">
<stop stop-color="#42307D"/>
<stop offset="1" stop-color="#7F56D9"/>
</linearGradient>
<linearGradient id="paint12_linear_61_511" x1="466.325" y1="89.0666" x2="467.993" y2="95.655" gradientUnits="userSpaceOnUse">
<stop stop-color="#42307D"/>
<stop offset="1" stop-color="#7F56D9"/>
</linearGradient>
<linearGradient id="paint13_linear_61_511" x1="497.892" y1="111.863" x2="497.533" y2="119.969" gradientUnits="userSpaceOnUse">
<stop stop-color="#42307D"/>
<stop offset="1" stop-color="#7F56D9"/>
</linearGradient>
<linearGradient id="paint14_linear_61_511" x1="394.868" y1="40.9456" x2="393.485" y2="46.4911" gradientUnits="userSpaceOnUse">
<stop stop-color="#42307D"/>
<stop offset="1" stop-color="#7F56D9"/>
</linearGradient>
<linearGradient id="paint15_linear_61_511" x1="455.436" y1="91.0662" x2="458.474" y2="100.784" gradientUnits="userSpaceOnUse">
<stop stop-color="#42307D"/>
<stop offset="1" stop-color="#7F56D9"/>
</linearGradient>
<linearGradient id="paint16_linear_61_511" x1="386.444" y1="52.464" x2="386.651" y2="58.4298" gradientUnits="userSpaceOnUse">
<stop stop-color="#42307D"/>
<stop offset="1" stop-color="#7F56D9"/>
</linearGradient>
<linearGradient id="paint17_linear_61_511" x1="493.606" y1="127.151" x2="493.269" y2="132.508" gradientUnits="userSpaceOnUse">
<stop stop-color="#42307D"/>
<stop offset="1" stop-color="#7F56D9"/>
</linearGradient>
<linearGradient id="paint18_linear_61_511" x1="482.868" y1="124.417" x2="482.542" y2="132.017" gradientUnits="userSpaceOnUse">
<stop stop-color="#42307D"/>
<stop offset="1" stop-color="#7F56D9"/>
</linearGradient>
<linearGradient id="paint19_linear_61_511" x1="390.65" y1="62.8227" x2="392.023" y2="70.5755" gradientUnits="userSpaceOnUse">
<stop stop-color="#42307D"/>
<stop offset="1" stop-color="#7F56D9"/>
</linearGradient>
<linearGradient id="paint20_linear_61_511" x1="436.451" y1="96.6702" x2="438.54" y2="106.787" gradientUnits="userSpaceOnUse">
<stop stop-color="#42307D"/>
<stop offset="1" stop-color="#7F56D9"/>
</linearGradient>
<linearGradient id="paint21_linear_61_511" x1="393.148" y1="76.9326" x2="394.055" y2="84.6065" gradientUnits="userSpaceOnUse">
<stop stop-color="#42307D"/>
<stop offset="1" stop-color="#7F56D9"/>
</linearGradient>
<linearGradient id="paint22_linear_61_511" x1="448.606" y1="115.582" x2="447.296" y2="124.724" gradientUnits="userSpaceOnUse">
<stop stop-color="#42307D"/>
<stop offset="1" stop-color="#7F56D9"/>
</linearGradient>
<linearGradient id="paint23_linear_61_511" x1="421.106" y1="100.81" x2="424.234" y2="110.832" gradientUnits="userSpaceOnUse">
<stop stop-color="#42307D"/>
<stop offset="1" stop-color="#7F56D9"/>
</linearGradient>
<linearGradient id="paint24_linear_61_511" x1="432.483" y1="110.731" x2="431.058" y2="120.66" gradientUnits="userSpaceOnUse">
<stop stop-color="#42307D"/>
<stop offset="1" stop-color="#7F56D9"/>
</linearGradient>
<linearGradient id="paint25_linear_61_511" x1="396.554" y1="90.4089" x2="402.834" y2="125.942" gradientUnits="userSpaceOnUse">
<stop stop-color="#42307D"/>
<stop offset="1" stop-color="#7F56D9"/>
</linearGradient>
<linearGradient id="paint26_linear_61_511" x1="416.954" y1="107.817" x2="415.822" y2="114.967" gradientUnits="userSpaceOnUse">
<stop stop-color="#42307D"/>
<stop offset="1" stop-color="#7F56D9"/>
</linearGradient>
</defs>
</svg>
