<svg width="178" height="101" viewBox="0 0 178 101" fill="none" xmlns="http://www.w3.org/2000/svg">
<path d="M36.6022 1.2981C6.91011 6.6958 0.802765 28.3516 23.153 49.097C38.2265 63.014 63.8254 75.5652 83.057 78.4267C90.3338 79.4672 101.119 78.8819 106.577 77.126C114.633 74.5898 119.636 67.9564 118.467 61.4532C116.647 51.6333 104.043 41.9434 87.3451 37.6513C76.8847 34.985 60.057 34.7248 59.2124 37.2611C58.8875 38.2366 60.1869 38.4317 71.1022 39.2771C82.0824 40.1225 90.2689 42.2036 98.3903 46.1705C108.461 51.113 114.308 57.6163 114.308 63.8594C114.308 70.4927 105.472 75.11 92.6079 75.11C71.3621 75.11 42.1248 62.0385 24.9723 44.8699C16.8508 36.7408 13.992 31.6683 13.992 25.035C13.9271 21.5232 14.2519 20.2876 15.7463 17.6863C24.3225 3.05399 55.8988 0.647781 92.8677 11.8334C113.074 17.8814 127.758 24.0595 139.907 31.4732C148.484 36.7408 155.241 39.4722 150.888 35.8954C147.379 32.9689 131.461 23.2141 125.029 20.0275C108.591 11.8334 83.5118 3.96444 65.5146 1.2981C57.2632 0.127518 43.0344 0.127518 36.6022 1.2981Z" fill="url(#paint0_linear_61_499)"/>
<path d="M56.8086 23.1494C51.5459 23.9298 46.4781 26.5311 44.8538 29.1974C42.8397 32.449 43.0346 37.0663 45.3736 40.7082C49.5318 47.3415 61.5515 54.365 74.1561 57.5516C80.2634 59.1124 90.5289 60.0228 91.1787 58.9823C91.8284 57.9418 90.9188 57.6166 85.3312 56.8362C70.0628 54.7552 50.1165 43.9598 47.9724 36.6761C46.8679 33.0994 47.9724 31.0834 52.1956 29.0023C54.9244 27.6366 56.5487 27.3765 63.8905 27.1164C73.0515 26.7912 78.5741 27.5716 90.2691 30.6281C104.823 34.465 122.04 42.0088 133.41 49.5526C141.142 54.6251 150.238 63.5346 152.902 68.5421C156.41 75.1104 155.111 81.4836 149.263 86.4911C137.504 96.5711 113.399 99.2374 84.3566 93.5796C69.673 90.7182 64.9301 89.0273 38.4216 77.0613C35.0431 75.5656 32.1843 74.5251 31.9894 74.7202C31.0148 75.6306 32.899 77.3215 39.0063 80.8983C51.6758 88.442 68.5035 94.5551 84.6815 97.4816C109.566 102.099 129.902 100.928 143.871 94.0348C150.108 90.9133 154.006 87.7267 156.41 83.6947C157.905 81.0934 158.165 79.9228 158.165 75.7607C158.165 71.6636 157.84 70.2329 156.215 66.9813C153.552 61.6486 143.741 51.8938 135.814 46.6261C111.775 30.7582 75.9753 20.0928 56.8086 23.1494Z" fill="url(#paint1_linear_61_499)"/>
<path d="M0.283044 54.3647C-0.626561 55.7304 0.737846 60.933 3.20677 65.8754C7.10508 73.6143 15.5514 83.044 15.5514 79.5973C15.5514 79.1421 13.4723 75.6303 10.9384 71.7284C8.40451 67.8914 5.2209 62.2336 3.79152 59.1771C2.36214 56.1206 1.0627 53.6493 0.932761 53.6493C0.802818 53.6493 0.477959 53.9745 0.283044 54.3647Z" fill="url(#paint2_linear_61_499)"/>
<path d="M173.108 68.6071C172.913 68.9323 173.238 70.8832 173.823 72.8342C174.797 76.2159 174.797 76.7362 173.758 79.8577C173.173 81.7437 171.808 84.7352 170.769 86.5561C168.69 90.2629 168.365 92.0188 169.859 92.0188C171.029 92.0188 174.342 87.5966 176.421 83.2394C178.63 78.6221 178.501 74.8502 176.032 71.0133C174.017 67.7617 173.758 67.5666 173.108 68.6071Z" fill="url(#paint3_linear_61_499)"/>
<defs>
<linearGradient id="paint0_linear_61_499" x1="9.67454" y1="0.420649" x2="76.0379" y2="120.915" gradientUnits="userSpaceOnUse">
<stop stop-color="#42307D"/>
<stop offset="1" stop-color="#7F56D9"/>
</linearGradient>
<linearGradient id="paint1_linear_61_499" x1="31.7446" y1="22.6268" x2="100.968" y2="135.367" gradientUnits="userSpaceOnUse">
<stop stop-color="#42307D"/>
<stop offset="1" stop-color="#7F56D9"/>
</linearGradient>
<linearGradient id="paint2_linear_61_499" x1="-0.000242182" y1="53.6495" x2="23.2149" y2="67.1816" gradientUnits="userSpaceOnUse">
<stop stop-color="#42307D"/>
<stop offset="1" stop-color="#7F56D9"/>
</linearGradient>
<linearGradient id="paint3_linear_61_499" x1="168.934" y1="68.046" x2="184.779" y2="74.029" gradientUnits="userSpaceOnUse">
<stop stop-color="#42307D"/>
<stop offset="1" stop-color="#7F56D9"/>
</linearGradient>
</defs>
</svg>
