<svg width="181" height="182" viewBox="0 0 181 182" fill="none" xmlns="http://www.w3.org/2000/svg">
<path d="M41.1997 112.847C43.7732 113.949 44.0956 112.432 41.9829 109.124C39.2271 104.805 39.1381 98.5537 41.8062 93.7723C43.8763 89.9563 43.1876 88.4399 40.1072 90.1419C36.5211 92.2579 34.4507 96.7174 34.7241 101.773C35.0892 107.197 37.4775 111.24 41.1997 112.847Z" fill="url(#paint0_linear_61_558)"/>
<path d="M63.3049 120.237C68.2679 122.625 72.1284 123.45 77.8279 123.356C84.3548 123.261 90.0548 122.063 95.8933 119.532C98.4678 118.428 100.72 117.462 100.904 117.462C101.042 117.416 101.271 119.116 101.408 121.276C101.819 127.389 105.539 132.949 109.86 133.866C114.685 134.829 122.04 132.528 129.489 127.744C132.018 126.134 134.73 124.708 135.419 124.662C136.155 124.57 141.486 125.303 147.231 126.265C158.124 128.053 162.123 128.189 163.64 126.671C164.744 125.567 163.779 124.603 160.332 123.455C158.862 122.996 155.691 121.113 153.302 119.276C151.004 117.438 146.915 114.636 144.25 112.983C135.565 107.609 134.049 106.461 133.912 105.128C133.866 104.439 134.281 101.451 134.88 98.4629C136.631 89.5452 135.117 82.6974 130.477 77.9653C126.618 74.1062 120.459 73.1898 113.38 75.4913L111.036 76.1818L111.359 73.0102C112.051 67.1725 111.549 59.0372 110.31 55.4067C108.703 50.7651 105.258 47.0437 101.719 46.0801C97.6288 45.0249 92.1581 47.1877 86.8701 52.0163L82.5017 55.9253L81.3534 54.2252C71.1106 39.2918 59.0259 31.3458 47.3969 31.9488C43.4899 32.1804 38.433 34.1132 36.3177 36.2286C34.3403 38.2059 32.2696 43.3088 32.0841 46.894C31.4362 56.2709 38.6482 65.4142 53.5822 74.1863C56.7987 76.1152 59.6016 77.9984 59.7853 78.458C60.0149 78.8715 58.635 80.8946 56.1057 83.7915C49.7594 91.0567 48.2868 94.6425 49.2031 101.169C50.2566 108.936 56.0902 116.885 63.3049 120.237ZM53.6596 105.258C50.6754 97.8588 51.9185 93.3998 59.0007 85.3069C65.623 77.7658 65.4393 77.3063 54.5031 70.6926C49.8162 67.8451 47.1053 65.778 43.2462 61.9189C38.6519 57.4166 38.0089 56.4976 36.7695 53.051C32.4085 41.1485 42.4326 32.5026 55.3001 37.1849C62.8828 39.8932 69.4531 45.3598 76.2514 54.5493C79.7424 59.2359 80.3396 59.8332 81.9022 60.2002C83.9244 60.5669 83.5566 60.8429 89.1207 55.4626C101.72 43.2304 110.036 50.9943 107.452 72.6903C106.991 76.6433 106.943 80.1825 107.265 80.5041C108.137 81.377 109.7 81.1005 112.735 79.6283C118.159 77.0518 124.686 77.4164 127.856 80.5864C131.44 84.1699 132.539 91.9832 130.605 100.717C129.729 104.533 130.188 107.106 132.026 108.944C132.577 109.495 136.437 112.159 140.572 114.823C150.865 121.529 152.749 122.861 152.197 123.413C151.921 123.689 148.152 123.231 143.786 122.36C139.42 121.58 135.145 121.077 134.318 121.261C133.445 121.491 131.054 122.779 128.985 124.113C121.582 128.943 113.951 131.52 110.183 130.419C106.552 129.272 103.752 122.424 104.857 117.184C105.548 114.196 104.814 112.266 103.113 112.313C102.423 112.359 99.9869 113.417 97.6423 114.568C86.0566 120.64 72.5431 121.198 63.169 116.054C59.6307 114.08 55.1287 109.026 53.6596 105.258Z" fill="url(#paint1_linear_61_558)"/>
<path d="M83.5223 133.833C84.6255 133.74 87.2456 133.326 89.3142 132.819L93.1295 131.944L94.6908 135.069C96.298 138.423 98.0439 139.893 99.0556 138.882C99.3775 138.56 99.4239 137.594 99.1485 136.675C98.8731 135.848 98.2768 133.32 97.9101 131.114C96.7637 125.461 95.9364 125.278 87.4314 129.005C83.6157 130.615 80.5355 132.134 80.5353 132.409C80.5349 133.421 81.6837 133.926 83.5223 133.833Z" fill="url(#paint2_linear_61_558)"/>
<path d="M138.769 136.657C143.457 136.471 149.479 135.687 150.95 135.042C152.559 134.26 151.962 133.02 149.894 132.883C147.09 132.746 135.323 134.314 134.771 134.866C133.575 136.062 135.23 136.796 138.769 136.657Z" fill="url(#paint3_linear_61_558)"/>
<path d="M153.259 112.795C159.692 115.825 162.404 116.146 161.118 113.665C160.521 112.516 151.147 107.832 149.032 107.649C145.861 107.329 148.388 110.407 153.259 112.795Z" fill="url(#paint4_linear_61_558)"/>
<path d="M90.736 41.1673C91.1956 41.259 92.8044 40.9365 94.3674 40.4761C97.9071 39.3254 100.527 39.3701 104.295 40.8392C108.293 42.3541 112.566 46.5348 114.449 50.9005C115.78 53.8875 115.918 54.1172 116.929 53.6571C118.4 53.0129 117.897 48.4628 116.014 45.1083C113.075 39.8699 105.585 35.2311 100.207 35.3715C96.8058 35.465 92.5305 36.9838 90.6451 38.8692C89.1736 40.3407 89.1733 40.8922 90.736 41.1673Z" fill="url(#paint5_linear_61_558)"/>
<defs>
<linearGradient id="paint0_linear_61_558" x1="41.809" y1="114.355" x2="42.1729" y2="88.388" gradientUnits="userSpaceOnUse">
<stop stop-color="#42307D"/>
<stop offset="1" stop-color="#7F56D9"/>
</linearGradient>
<linearGradient id="paint1_linear_61_558" x1="115.731" y1="174.584" x2="157.906" y2="35.8245" gradientUnits="userSpaceOnUse">
<stop stop-color="#42307D"/>
<stop offset="1" stop-color="#7F56D9"/>
</linearGradient>
<linearGradient id="paint2_linear_61_558" x1="92.7944" y1="145.143" x2="94.4354" y2="122.01" gradientUnits="userSpaceOnUse">
<stop stop-color="#42307D"/>
<stop offset="1" stop-color="#7F56D9"/>
</linearGradient>
<linearGradient id="paint3_linear_61_558" x1="142.389" y1="143.806" x2="140.906" y2="125.994" gradientUnits="userSpaceOnUse">
<stop stop-color="#42307D"/>
<stop offset="1" stop-color="#7F56D9"/>
</linearGradient>
<linearGradient id="paint4_linear_61_558" x1="157.621" y1="118.735" x2="161.916" y2="108.339" gradientUnits="userSpaceOnUse">
<stop stop-color="#42307D"/>
<stop offset="1" stop-color="#7F56D9"/>
</linearGradient>
<linearGradient id="paint5_linear_61_558" x1="109.796" y1="60.8808" x2="117.581" y2="33.7792" gradientUnits="userSpaceOnUse">
<stop stop-color="#42307D"/>
<stop offset="1" stop-color="#7F56D9"/>
</linearGradient>
</defs>
</svg>
