<svg width="141" height="146" viewBox="0 0 141 146" fill="none" xmlns="http://www.w3.org/2000/svg">
<path d="M109.132 2.53533C108.05 3.22368 103.809 6.49472 99.7614 9.75898L92.361 15.6777L87.2821 13.5769C80.4228 10.7572 70.2452 7.85777 67.3882 7.95718C65.8947 8.00914 64.6768 8.50703 63.9271 9.37906C62.179 11.4571 63.6867 13.6821 73.3113 23.108C78.0911 27.8221 81.8766 31.9851 81.7625 32.4446C81.6462 32.8391 78.9982 35.2087 75.9002 37.7242C72.8022 40.2397 69.2745 43.4858 68.0234 44.8959C65.7717 47.447 65.7717 47.447 65.6399 54.8697C65.4135 67.0461 61.0033 82.2962 54.6099 92.8651C46.0682 107.088 30.8165 122.78 13.8172 134.954C6.14352 140.492 4.20071 142.577 4.98055 144.437C5.97102 146.745 12.9181 144.616 31.0966 136.435C44.2178 130.513 64.0161 118.436 77.1201 108.285C90.4145 97.9963 103.112 83.6291 107.828 73.4439C108.614 71.7247 109.977 69.7902 110.803 69.2409C112.26 68.1491 113.087 65.7777 115.842 53.3833L117.022 48.0714L120.766 47.2904C127.731 45.6815 134.861 43.221 136.182 41.9387C136.936 41.1966 137.478 39.9414 137.448 39.0965C137.381 37.1467 135.656 36.1656 124.383 31.6774C119.768 29.8208 115.674 28.0111 115.34 27.7624C114.937 27.386 114.871 23.6141 115.203 18.2016C115.705 8.35828 115.012 3.37188 113.014 2.00981C111.482 0.956899 111.482 0.956899 109.132 2.53533ZM111.477 12.0193C111.574 14.814 111.484 19.6975 111.268 22.8285L110.948 28.566L112.894 30.3202C114.032 31.2567 118.396 33.3824 122.548 34.9949C130.326 38.0429 132.773 39.2592 132.209 39.8644C132.019 40.0012 128.291 41.2371 123.847 42.4329C115.546 44.8691 113.381 46.1808 112.847 49.5181C111.926 54.8209 110.086 63.6046 109.603 64.6626C109.057 65.7878 108.925 65.7273 107.697 64.0781C106.947 63.0631 104.604 59.2403 102.46 55.5408C100.315 51.8412 97.7146 48.0925 96.7044 47.0865C94.4893 45.0812 91.9502 44.9744 82.4571 46.8013C75.6754 48.0785 70.8122 48.4429 70.7851 47.663C70.776 47.403 74.1784 44.2913 78.3486 40.8275C84.793 35.4626 85.9211 34.2521 85.8691 32.7572C85.7899 30.4825 83.6149 27.7601 75.7306 19.7703C70.2048 14.1711 68.8451 12.4615 69.884 12.4254C70.0788 12.4186 75.142 14.0644 81.0605 16.0059L91.8496 19.6649L96.1723 16.8465C98.5251 15.3331 102.646 12.3265 105.176 10.2864C107.768 8.17896 110.246 6.53102 110.575 6.64971C111.034 6.76388 111.371 8.96459 111.477 12.0193ZM89.9524 56.6917C82.3887 82.2028 65.6862 104.778 42.4524 120.879C36.6769 124.919 26.8537 130.336 26.8243 129.491C26.8198 129.361 30.0945 126.319 34.0632 122.667C43.2651 114.343 52.1463 104.273 56.9533 96.6879C64.4098 84.9107 68.9302 70.9582 69.0381 59.1113L69.1857 52.1435L74.1183 51.9068C76.8455 51.8119 81.7018 51.2525 84.8677 50.6868C88.0985 50.1189 90.951 49.8895 91.2198 50.1405C91.5512 50.3241 90.941 53.3387 89.9524 56.6917ZM98.3446 56.8552C99.1758 58.323 101.237 61.5048 102.881 63.9204C104.59 66.3336 105.966 68.4982 105.973 68.6932C106 69.4731 100.754 77.5293 96.2826 83.5414C84.7925 98.9728 65.1186 114.624 40.7373 127.641C28.353 134.188 23.8665 136.036 32.4024 130.989C47.2467 122.273 56.6193 115.115 66.6043 105.007C80.043 91.3945 89.947 73.3503 93.5056 56.0475C94.4467 51.3296 94.4444 51.2646 95.6652 52.7188C96.2767 53.4784 97.5111 55.3225 98.3446 56.8552Z" fill="url(#paint0_linear_61_504)"/>
<path d="M49.1272 30.5868C49.0064 30.8513 48.7554 36.7165 48.6033 43.5544C48.2324 59.0544 46.9038 69.447 43.6164 81.4696C40.9061 91.3897 40.6538 93.4808 42.0174 93.4334C43.9004 93.3679 46.646 88.1967 49.3993 79.5114C51.6293 72.6013 52.5364 66.9085 52.8465 57.1369C53.3501 43.5844 51.0897 27.1999 49.1272 30.5868Z" fill="url(#paint1_linear_61_504)"/>
<path d="M130.106 56.0106C129.616 56.8735 128.231 60.0452 126.971 63.0823C122.356 74.3051 114.516 86.2908 103.516 98.9722C97.5129 105.818 96.4769 107.807 98.8144 107.725C100.438 107.669 108.453 100.753 113.015 95.4531C117.14 90.6895 124.106 79.7753 126.946 73.5598C130.693 65.4255 133.367 54.4655 131.549 54.5287C131.225 54.54 130.598 55.2126 130.106 56.0106Z" fill="url(#paint2_linear_61_504)"/>
<path d="M26.7899 107.954C24.0392 111.108 23.583 112.946 25.4661 112.88C26.6998 112.837 31.2499 107.213 31.2002 105.783C31.1414 104.093 29.3504 104.936 26.7899 107.954Z" fill="url(#paint3_linear_61_504)"/>
<path d="M74.6742 118.326C71.4818 119.999 69.4515 121.436 69.4741 122.086C69.5216 123.451 70.8157 123.275 75.7477 121.152C80.4222 119.102 82.6987 117.266 82.0109 116.183C81.2582 115.103 80.2261 115.335 74.6742 118.326Z" fill="url(#paint4_linear_61_504)"/>
<defs>
<linearGradient id="paint0_linear_61_504" x1="-0.00198151" y1="5.15669" x2="144.899" y2="136.322" gradientUnits="userSpaceOnUse">
<stop stop-color="#42307D"/>
<stop offset="1" stop-color="#7F56D9"/>
</linearGradient>
<linearGradient id="paint1_linear_61_504" x1="39.0588" y1="30.5055" x2="64.4041" y2="34.8774" gradientUnits="userSpaceOnUse">
<stop stop-color="#42307D"/>
<stop offset="1" stop-color="#7F56D9"/>
</linearGradient>
<linearGradient id="paint2_linear_61_504" x1="95.8729" y1="55.7704" x2="145.824" y2="88.0411" gradientUnits="userSpaceOnUse">
<stop stop-color="#42307D"/>
<stop offset="1" stop-color="#7F56D9"/>
</linearGradient>
<linearGradient id="paint3_linear_61_504" x1="24.0848" y1="105.149" x2="32.0672" y2="111.934" gradientUnits="userSpaceOnUse">
<stop stop-color="#42307D"/>
<stop offset="1" stop-color="#7F56D9"/>
</linearGradient>
<linearGradient id="paint4_linear_61_504" x1="69.2621" y1="115.999" x2="75.5129" y2="126.578" gradientUnits="userSpaceOnUse">
<stop stop-color="#42307D"/>
<stop offset="1" stop-color="#7F56D9"/>
</linearGradient>
</defs>
</svg>
