<svg width="766" height="173" viewBox="0 0 766 173" fill="none" xmlns="http://www.w3.org/2000/svg">
<path d="M121.234 71H93.734V68.207H102.328V9.33984H93.734V6.54688H121.234V9.33984H112.64V68.207H118.441C118.799 68.207 119.157 68.2428 119.515 68.3145C120.661 68.5293 121.234 69.4245 121.234 71ZM140.209 8.37305C139.851 13.4577 137.488 18.5423 133.119 23.627L130.863 21.9082C133.871 18.7572 135.411 16.179 135.482 14.1738C135.411 13.3145 134.587 12.6699 133.012 12.2402C132.797 12.1686 132.582 12.097 132.367 12.0254C129.646 11.166 128.285 9.41146 128.285 6.76172C128.285 5.90234 128.464 5.07878 128.822 4.29102C129.825 2.07096 131.508 0.960938 133.871 0.960938C134.516 0.960938 135.196 1.06836 135.912 1.2832C138.777 2.14258 140.209 4.50586 140.209 8.37305ZM167.67 68.3145C168.028 68.3145 168.386 68.3503 168.745 68.4219C169.747 68.5651 170.248 69.4245 170.248 71H146.508V68.3145C148.585 68.3145 150.161 68.1712 151.235 67.8848C153.24 67.2402 154.243 65.2708 154.243 61.9766V27.9238H146.508V25.2383H162.836L163.266 35.2285C163.911 33.7962 164.662 32.4355 165.522 31.1465C168.959 26.4199 173.399 24.0566 178.842 24.0566C180.203 24.0566 181.528 24.3073 182.817 24.8086C187.114 26.4557 189.942 29.9648 191.303 35.3359C191.661 34.4766 192.055 33.653 192.485 32.8652C195.851 26.9928 200.541 24.0566 206.557 24.0566C209.064 24.0566 211.391 24.7012 213.539 25.9902C218.338 28.998 220.737 34.1185 220.737 41.3516V68.3145H225.786C226.215 68.3145 226.573 68.3503 226.86 68.4219C227.934 68.5651 228.471 69.4245 228.471 71H204.623V68.3145C206.772 68.3145 208.347 68.1354 209.35 67.7773C210.854 67.1328 211.606 65.1992 211.606 61.9766V40.2773C211.606 38.0573 211.284 36.0879 210.639 34.3691C209.207 30.5736 206.7 28.6758 203.12 28.6758C201.902 28.6758 200.649 28.998 199.36 29.6426C195.636 31.5046 193.201 35.0495 192.055 40.2773V41.459V68.3145H196.245C196.674 68.3145 197.032 68.3503 197.319 68.4219C198.393 68.5651 198.93 69.4245 198.93 71H175.942V68.3145C178.09 68.3145 179.666 68.1354 180.668 67.7773C182.101 67.1328 182.817 65.1992 182.817 61.9766V40.2773C182.817 38.2721 182.566 36.446 182.065 34.7988C180.776 30.86 178.412 28.8906 174.975 28.8906C173.113 28.8906 171.287 29.571 169.496 30.9316C165.558 33.8678 163.517 38.4512 163.373 44.6816V68.3145H167.67ZM55.4617 166.811C48.6583 170.32 41.5685 172.074 34.1922 172.074C23.8081 172.074 15.4292 168.744 9.05548 162.084C3.11147 155.782 0.139465 148.012 0.139465 138.773C0.139465 130.967 2.39532 124.057 6.90704 118.041C13.2807 109.662 22.4832 105.473 34.5145 105.473C42.034 105.473 48.909 107.156 55.1395 110.521C55.0679 109.376 55.1037 108.445 55.2469 107.729C55.605 106.583 56.715 106.01 58.577 106.01L58.8992 127.172H55.1395C53.9936 123.018 52.6688 119.617 51.1649 116.967C47.9422 111.452 42.965 108.695 36.2332 108.695C23.4858 108.767 17.0763 118.614 17.0047 138.236C17.0047 144.252 17.4344 149.301 18.2938 153.383C20.5854 163.695 26.2788 168.852 35.3738 168.852C37.6655 168.852 39.7423 168.601 41.6043 168.1C48.3361 166.238 53.0268 160.329 55.6766 150.375H59.2215V171.537C58.4337 171.537 57.7892 171.465 57.2879 171.322C55.9988 171.036 55.3901 169.532 55.4617 166.811ZM89.6906 168.207C90.1203 168.207 90.5142 168.243 90.8723 168.314C91.8033 168.458 92.2688 169.353 92.2688 171H61.8684V168.207C62.7994 168.207 63.6229 168.135 64.3391 167.992C66.8456 167.562 68.0988 165.772 68.0988 162.621V127.602H61.8684V124.809H80.6672L81.4192 134.799C82.2069 132.794 83.3528 130.932 84.8567 129.213C88.2225 125.704 92.1255 123.949 96.5656 123.949C97.4966 123.949 98.3918 124.057 99.2512 124.271C102.76 125.202 104.515 127.458 104.515 131.039C104.515 132.042 104.3 133.008 103.87 133.939C102.653 136.661 100.612 138.021 97.7473 138.021C96.8879 138.021 96.1001 137.914 95.384 137.699C93.8801 137.126 92.4836 135.694 91.1945 133.402C90.2636 131.755 89.4042 130.932 88.6164 130.932C88.1867 130.932 87.7212 131.039 87.2199 131.254C84.0689 132.901 82.2427 137.484 81.7414 145.004V168.207H89.6906ZM130.687 125.99C124.958 126.205 121.843 132.257 121.341 144.145L128.216 144.467C131.081 144.61 133.229 144.431 134.662 143.93C136.667 143.142 137.67 141.065 137.67 137.699C137.598 130.036 135.27 126.133 130.687 125.99ZM150.775 159.936C150.345 161.081 149.772 162.191 149.056 163.266C145.404 169.138 139.388 172.074 131.009 172.074C126.283 172.074 122.058 171.107 118.334 169.174C110.528 165.092 106.625 157.859 106.625 147.475C106.625 141.101 108.343 135.766 111.781 131.469C116.293 125.954 122.595 123.197 130.687 123.197C135.127 123.197 139.102 123.949 142.611 125.453C148.841 128.246 151.957 132.686 151.957 138.773C151.957 139.991 151.742 141.101 151.312 142.104C149.45 146.114 142.754 147.94 131.224 147.582L121.341 147.26C121.413 151.413 121.771 154.994 122.416 158.002C124.063 165.307 127.751 168.959 133.48 168.959C135.27 168.959 137.025 168.637 138.744 167.992C143.041 166.417 146.192 163.445 148.197 159.076L150.775 159.936ZM194.564 172.074C188.835 171.716 185.219 168.458 183.715 162.299C183.357 163.301 182.891 164.268 182.318 165.199C179.454 169.783 174.978 172.074 168.891 172.074C166.885 172.074 165.059 171.824 163.412 171.322C157.826 169.532 155.033 165.45 155.033 159.076C155.105 149.695 164.343 144.825 182.748 144.467V137.484C182.748 135.408 182.605 133.617 182.318 132.113C181.602 128.031 179.561 125.99 176.195 125.99C175.193 125.99 174.298 126.169 173.51 126.527C172.292 127.243 171.29 129.034 170.502 131.898C170.215 132.901 170.001 133.617 169.857 134.047C168.783 137.055 166.706 138.559 163.627 138.559C162.911 138.559 162.23 138.451 161.586 138.236C158.936 137.52 157.611 135.766 157.611 132.973C157.611 131.755 157.934 130.609 158.578 129.535C161.085 125.31 167.208 123.197 176.947 123.197C179.454 123.197 181.781 123.448 183.93 123.949C192.237 126.026 196.391 131.54 196.391 140.492V162.943C196.391 166.381 197.178 168.171 198.754 168.314C200.831 168.243 202.084 165.736 202.514 160.795L205.307 160.902C205.092 163.122 204.77 164.949 204.34 166.381C203.051 170.176 199.792 172.074 194.564 172.074ZM174.477 167.455C174.978 167.455 175.551 167.348 176.195 167.133C179.203 165.987 181.387 162.908 182.748 157.895V147.475C179.525 147.618 176.876 148.012 174.799 148.656C170.932 150.089 168.998 153.168 168.998 157.895C169.07 164.125 170.896 167.312 174.477 167.455ZM205.805 128.139V125.346H213.217V115.141L226.86 112.885V125.346H241.039V128.139H226.86V160.688C226.86 161.618 226.931 162.514 227.075 163.373C227.648 167.097 229.259 168.959 231.909 168.959C232.338 168.959 232.768 168.923 233.198 168.852C235.991 168.279 238.103 165.092 239.536 159.291L242.436 159.721C241.863 162.657 241.075 165.02 240.073 166.811C237.996 170.391 234.2 172.182 228.686 172.182C227.827 172.182 226.967 172.146 226.108 172.074C217.514 171.072 213.217 165.378 213.217 154.994V128.139H205.805ZM267.856 168.207C268.286 168.207 268.68 168.243 269.038 168.314C269.969 168.458 270.434 169.353 270.434 171H244.009V168.207C244.94 168.207 245.763 168.135 246.479 167.992C248.986 167.562 250.239 165.772 250.239 162.621V127.602H244.009V124.809H263.882V168.207H267.856ZM264.848 110.736C264.848 112.097 264.49 113.386 263.774 114.604C262.27 117.253 259.943 118.578 256.792 118.578C255.503 118.578 254.249 118.256 253.032 117.611C250.239 116.179 248.843 113.887 248.843 110.736C248.843 109.376 249.165 108.087 249.809 106.869C251.385 104.076 253.712 102.68 256.792 102.68C258.152 102.68 259.442 103.038 260.659 103.754C263.452 105.258 264.848 107.585 264.848 110.736ZM295.962 127.494H288.657L300.474 159.936L313.15 127.494H304.341V124.809H321.743C321.743 126.026 321.672 126.85 321.529 127.279C321.385 127.423 320.741 127.494 319.595 127.494C319.165 127.494 318.736 127.53 318.306 127.602C317.16 127.816 316.229 128.819 315.513 130.609L299.937 171.537H296.07C294.566 171.537 293.42 171.286 292.632 170.785C291.701 170.141 290.448 167.777 288.872 163.695L275.337 127.494H271.148V124.809H295.962V127.494ZM347.593 125.99C341.864 126.205 338.749 132.257 338.248 144.145L345.123 144.467C347.987 144.61 350.136 144.431 351.568 143.93C353.573 143.142 354.576 141.065 354.576 137.699C354.504 130.036 352.177 126.133 347.593 125.99ZM367.681 159.936C367.252 161.081 366.679 162.191 365.963 163.266C362.31 169.138 356.295 172.074 347.916 172.074C343.189 172.074 338.964 171.107 335.24 169.174C327.434 165.092 323.531 157.859 323.531 147.475C323.531 141.101 325.25 135.766 328.687 131.469C333.199 125.954 339.501 123.197 347.593 123.197C352.033 123.197 356.008 123.949 359.517 125.453C365.748 128.246 368.863 132.686 368.863 138.773C368.863 139.991 368.648 141.101 368.218 142.104C366.356 146.114 359.66 147.94 348.13 147.582L338.248 147.26C338.319 151.413 338.677 154.994 339.322 158.002C340.969 165.307 344.657 168.959 350.386 168.959C352.177 168.959 353.931 168.637 355.65 167.992C359.947 166.417 363.098 163.445 365.103 159.076L367.681 159.936ZM391.237 106.547H422.926C430.875 106.547 437.822 108.445 443.766 112.24C452.789 118.113 457.301 127.029 457.301 138.988C457.301 148.37 454.15 156.033 447.848 161.977C441.403 167.992 433.203 171 423.248 171H391.237V168.1H399.83V109.447H391.237V106.547ZM423.248 109.447H414.87V168.1H423.034C426.399 168.1 429.228 167.419 431.52 166.059C437.464 162.549 440.436 153.347 440.436 138.451C440.436 131.003 439.72 125.023 438.288 120.512C435.781 113.135 430.768 109.447 423.248 109.447ZM485.944 168.207C486.374 168.207 486.768 168.243 487.126 168.314C488.057 168.458 488.522 169.353 488.522 171H462.096V168.207C463.027 168.207 463.851 168.135 464.567 167.992C467.074 167.562 468.327 165.772 468.327 162.621V127.602H462.096V124.809H481.97V168.207H485.944ZM482.936 110.736C482.936 112.097 482.578 113.386 481.862 114.604C480.358 117.253 478.031 118.578 474.88 118.578C473.591 118.578 472.337 118.256 471.12 117.611C468.327 116.179 466.93 113.887 466.93 110.736C466.93 109.376 467.253 108.087 467.897 106.869C469.473 104.076 471.8 102.68 474.88 102.68C476.24 102.68 477.529 103.038 478.747 103.754C481.54 105.258 482.936 107.585 482.936 110.736ZM518.991 168.207C519.421 168.207 519.815 168.243 520.173 168.314C521.104 168.458 521.57 169.353 521.57 171H491.169V168.207C492.1 168.207 492.924 168.135 493.64 167.992C496.146 167.562 497.4 165.772 497.4 162.621V127.602H491.169V124.809H509.968L510.72 134.799C511.508 132.794 512.654 130.932 514.157 129.213C517.523 125.704 521.426 123.949 525.866 123.949C526.797 123.949 527.693 124.057 528.552 124.271C532.061 125.202 533.816 127.458 533.816 131.039C533.816 132.042 533.601 133.008 533.171 133.939C531.954 136.661 529.913 138.021 527.048 138.021C526.189 138.021 525.401 137.914 524.685 137.699C523.181 137.126 521.784 135.694 520.495 133.402C519.564 131.755 518.705 130.932 517.917 130.932C517.488 130.932 517.022 131.039 516.521 131.254C513.37 132.901 511.544 137.484 511.042 145.004V168.207H518.991ZM559.988 125.99C554.259 126.205 551.144 132.257 550.642 144.145L557.517 144.467C560.382 144.61 562.53 144.431 563.963 143.93C565.968 143.142 566.97 141.065 566.97 137.699C566.899 130.036 564.571 126.133 559.988 125.99ZM580.076 159.936C579.646 161.081 579.073 162.191 578.357 163.266C574.705 169.138 568.689 172.074 560.31 172.074C555.584 172.074 551.358 171.107 547.634 169.174C539.828 165.092 535.925 157.859 535.925 147.475C535.925 141.101 537.644 135.766 541.082 131.469C545.593 125.954 551.895 123.197 559.988 123.197C564.428 123.197 568.403 123.949 571.912 125.453C578.142 128.246 581.257 132.686 581.257 138.773C581.257 139.991 581.043 141.101 580.613 142.104C578.751 146.114 572.055 147.94 560.525 147.582L550.642 147.26C550.714 151.413 551.072 154.994 551.716 158.002C553.364 165.307 557.052 168.959 562.781 168.959C564.571 168.959 566.326 168.637 568.045 167.992C572.341 166.417 575.492 163.445 577.498 159.076L580.076 159.936ZM585.408 147.797C585.408 140.779 587.521 135.049 591.746 130.609C596.473 125.668 602.632 123.197 610.223 123.197C615.809 123.197 620.464 124.307 624.188 126.527C627.983 128.891 629.881 131.648 629.881 134.799C629.881 135.372 629.809 135.945 629.666 136.518C628.807 139.239 626.551 140.6 622.898 140.6C621.18 140.6 619.819 140.242 618.816 139.525C617.527 138.594 616.668 136.482 616.238 133.188C616.023 131.827 615.844 130.86 615.701 130.287C614.985 127.351 613.051 125.883 609.9 125.883C608.325 125.883 606.964 126.205 605.818 126.85C602.023 129.141 600.125 136.303 600.125 148.334C600.125 154.35 600.734 159.005 601.951 162.299C603.598 166.739 606.893 168.959 611.834 168.959C613.696 168.959 615.558 168.673 617.42 168.1C622.218 166.596 625.62 163.695 627.625 159.398L630.418 160.15C629.702 162.012 628.663 163.731 627.303 165.307C623.292 169.818 617.563 172.074 610.115 172.074C605.317 172.074 601.056 171.179 597.332 169.389C589.383 165.45 585.408 158.253 585.408 147.797ZM630.916 128.139V125.346H638.329V115.141L651.971 112.885V125.346H666.151V128.139H651.971V160.688C651.971 161.618 652.043 162.514 652.186 163.373C652.759 167.097 654.37 168.959 657.02 168.959C657.45 168.959 657.879 168.923 658.309 168.852C661.102 168.279 663.215 165.092 664.647 159.291L667.547 159.721C666.974 162.657 666.187 165.02 665.184 166.811C663.107 170.391 659.312 172.182 653.797 172.182C652.938 172.182 652.079 172.146 651.219 172.074C642.625 171.072 638.329 165.378 638.329 154.994V128.139H630.916ZM684.374 147.689C684.374 154.421 684.804 159.327 685.663 162.406C686.952 166.99 689.817 169.281 694.257 169.281C696.763 169.281 698.804 168.529 700.38 167.025C703.101 164.304 704.462 157.715 704.462 147.26C704.462 140.743 704.032 135.98 703.173 132.973C701.884 128.318 698.947 125.99 694.364 125.99C691.643 125.99 689.53 126.814 688.026 128.461C685.591 131.254 684.374 137.663 684.374 147.689ZM694.901 123.197C701.06 123.197 706.324 124.88 710.692 128.246C716.35 132.758 719.179 139.024 719.179 147.045C719.179 153.061 717.388 158.36 713.807 162.943C709.009 169.031 702.385 172.074 693.934 172.074C687.776 172.074 682.476 170.212 678.036 166.488C672.45 161.762 669.657 155.352 669.657 147.26C669.657 141.531 671.304 136.518 674.598 132.221C679.325 126.205 686.093 123.197 694.901 123.197ZM750.722 168.207C751.152 168.207 751.545 168.243 751.904 168.314C752.834 168.458 753.3 169.353 753.3 171H722.9V168.207C723.831 168.207 724.654 168.135 725.37 167.992C727.877 167.562 729.13 165.772 729.13 162.621V127.602H722.9V124.809H741.698L742.45 134.799C743.238 132.794 744.384 130.932 745.888 129.213C749.254 125.704 753.157 123.949 757.597 123.949C758.528 123.949 759.423 124.057 760.282 124.271C763.792 125.202 765.546 127.458 765.546 131.039C765.546 132.042 765.331 133.008 764.902 133.939C763.684 136.661 761.643 138.021 758.779 138.021C757.919 138.021 757.131 137.914 756.415 137.699C754.911 137.126 753.515 135.694 752.226 133.402C751.295 131.755 750.435 130.932 749.648 130.932C749.218 130.932 748.752 131.039 748.251 131.254C745.1 132.901 743.274 137.484 742.773 145.004V168.207H750.722Z" fill="black"/>
<path d="M283.394 71.5371H281.89C280.529 71.5371 279.455 71.2865 278.667 70.7852C277.665 70.069 276.376 67.5983 274.8 63.373L254.175 9.33984H247.945V6.54688H273.189V9.33984H264.595L283.823 59.0762L301.441 9.33984H292.847V6.54688H310.894V9.33984H305.523L283.394 71.5371ZM351.138 72.0742C345.982 72.0026 342.938 68.7441 342.007 62.2988C341.363 63.8743 340.396 65.3424 339.107 66.7031C335.67 70.2839 331.337 72.0742 326.109 72.0742C323.961 72.0742 321.955 71.7161 320.093 71C315.152 69.0664 312.681 65.2708 312.681 59.6133C312.681 58.6823 312.753 57.8229 312.896 57.0352C314.4 48.8711 324.068 44.7533 341.9 44.6816V37.9141C341.828 30.6094 338.606 26.8854 332.232 26.7422C329.511 26.7422 327.47 27.6732 326.109 29.5352C325.894 29.8932 325.285 31.4688 324.283 34.2617C323.423 36.5534 322.027 37.6992 320.093 37.6992C319.664 37.6992 319.198 37.6634 318.697 37.5918C316.548 37.0905 315.474 35.694 315.474 33.4023C315.474 32.1849 315.904 30.9674 316.763 29.75C319.485 25.9544 324.999 24.0566 333.306 24.0566C344.979 24.1283 350.888 29.6068 351.031 40.4922V63.1582C351.102 66.6673 352.033 68.4935 353.824 68.6367C356.044 68.5651 357.405 65.9512 357.906 60.7949L360.699 60.9023C360.627 62.1198 360.52 63.2656 360.377 64.3398C359.374 69.4961 356.295 72.0742 351.138 72.0742ZM330.084 67.6699C331.373 67.6699 332.733 67.3835 334.166 66.8105C338.104 64.9486 340.683 61.5469 341.9 56.6055V47.6895C336.887 47.7611 332.984 48.1191 330.191 48.7637C324.892 50.0527 322.242 53.0964 322.242 57.8945C322.242 58.6823 322.278 59.4342 322.349 60.1504C322.994 65.1634 325.572 67.6699 330.084 67.6699ZM383.863 68.3145C384.293 68.3145 384.651 68.3503 384.938 68.4219C386.012 68.5651 386.549 69.4245 386.549 71H362.594V68.3145C364.671 68.3145 366.246 68.1712 367.32 67.8848C369.326 67.2402 370.328 65.2708 370.328 61.9766V27.9238H362.594V25.2383H378.922L379.352 35.3359C380.068 33.5456 381.035 31.9342 382.252 30.502C385.761 26.2051 390.165 24.0566 395.465 24.0566C397.971 24.0566 400.335 24.6654 402.555 25.8828C407.711 28.7474 410.289 33.9395 410.289 41.459V68.3145H415.338C415.768 68.3145 416.126 68.3503 416.412 68.4219C417.486 68.5651 418.023 69.4245 418.023 71H393.746V68.3145C395.823 68.3145 397.363 68.1354 398.365 67.7773C400.227 67.1328 401.158 65.1992 401.158 61.9766V40.2773C401.158 38.4154 400.908 36.6966 400.406 35.1211C398.974 30.9674 396.074 28.8906 391.705 28.8906C389.843 28.8906 387.981 29.4635 386.119 30.6094C381.822 33.474 379.602 38.1647 379.459 44.6816V68.3145H383.863ZM439.362 69.1738C444.303 69.1738 447.526 67.6341 449.03 64.5547C449.531 63.5521 449.782 62.5137 449.782 61.4395C449.782 58.2884 447.562 55.6029 443.121 53.3828C442.19 52.8815 440.651 52.1654 438.502 51.2344C432.773 48.7995 428.942 46.5078 427.008 44.3594C425.003 42.0677 424 39.3822 424 36.3027C424 31.2181 426.793 27.6016 432.379 25.4531C435.029 24.5221 437.894 24.0566 440.973 24.0566C445.843 24.0566 449.961 25.0592 453.327 27.0645C453.327 24.9876 453.828 23.806 454.83 23.5195C455.189 23.4479 455.654 23.4121 456.227 23.4121V36.8398H453.327C453.183 30.2513 449.531 26.9212 442.37 26.8496C437.213 26.8496 433.991 28.4251 432.702 31.5762C432.415 32.4355 432.272 33.2949 432.272 34.1543C432.272 37.2337 434.456 39.8477 438.825 41.9961C439.827 42.4974 441.367 43.1777 443.444 44.0371C449.245 46.4004 453.112 48.6204 455.045 50.6973C457.122 53.0605 458.161 55.8535 458.161 59.0762C458.161 65.0202 455.045 68.959 448.815 70.8926C446.38 71.6803 443.73 72.0742 440.866 72.0742C435.495 72.0026 430.84 70.7493 426.901 68.3145C426.901 70.1764 426.435 71.2507 425.504 71.5371C425.075 71.6087 424.573 71.6445 424 71.6445V55.3164H427.116C427.259 64.4831 431.341 69.1022 439.362 69.1738ZM485.514 68.3145C485.944 68.3145 486.302 68.3503 486.589 68.4219C487.663 68.5651 488.2 69.4245 488.2 71H463.815V68.3145C465.964 68.3145 467.539 68.1712 468.542 67.8848C470.475 67.2402 471.442 65.2708 471.442 61.9766V3.86133H463.815V1.17578H480.68V35.1211C481.397 33.2591 482.435 31.5404 483.796 29.9648C487.376 26.026 491.852 24.0566 497.223 24.0566C499.443 24.0566 501.52 24.5221 503.454 25.4531C508.825 28.1029 511.51 33.4382 511.51 41.459V68.3145H516.452C516.882 68.3145 517.24 68.3503 517.526 68.4219C518.6 68.5651 519.137 69.4245 519.137 71H495.505V68.3145C497.725 68.3145 499.3 68.0996 500.231 67.6699C501.592 67.0254 502.272 65.1276 502.272 61.9766V41.1367C502.272 38.9883 501.986 37.0905 501.413 35.4434C499.837 31.2181 496.901 29.1055 492.604 29.1055C490.814 29.1055 489.024 29.6426 487.233 30.7168C482.865 33.3665 480.68 37.9857 480.68 44.5742V68.3145H485.514ZM545.525 68.3145C545.954 68.3145 546.312 68.3503 546.599 68.4219C547.673 68.5651 548.21 69.4245 548.21 71H523.181V68.3145C525.329 68.3145 526.941 68.1712 528.015 67.8848C530.235 67.2402 531.345 65.2708 531.345 61.9766V27.9238H523.181V25.2383H540.476V68.3145H545.525ZM541.657 9.87695C541.657 10.8079 541.443 11.7389 541.013 12.6699C539.867 15.0332 538.005 16.2148 535.427 16.2148C534.496 16.2148 533.601 16.0358 532.741 15.6777C530.306 14.5319 529.089 12.5983 529.089 9.87695C529.089 8.94596 529.304 8.01497 529.734 7.08398C530.879 4.7207 532.777 3.53906 535.427 3.53906C536.358 3.53906 537.289 3.75391 538.22 4.18359C540.512 5.40104 541.657 7.29883 541.657 9.87695ZM574.812 68.3145C575.17 68.3145 575.528 68.3503 575.886 68.4219C576.961 68.5651 577.498 69.4245 577.498 71H552.576V68.3145C554.724 68.3145 556.336 68.1712 557.41 67.8848C559.558 67.2402 560.632 65.2708 560.632 61.9766V3.86133H552.576V1.17578H569.763V48.0117L591.355 27.9238H583.298V25.2383H601.56C601.56 25.5964 601.524 25.9544 601.453 26.3125C601.31 27.3867 600.45 27.9238 598.875 27.9238C598.158 27.9238 597.514 27.9954 596.941 28.1387C595.652 28.4251 593.754 29.75 591.248 32.1133L581.472 41.2441L598.767 68.3145H602.312C602.742 68.3145 603.136 68.3503 603.494 68.4219C604.425 68.6367 604.89 69.4961 604.89 71H589.959L575.134 47.2598L569.763 52.3086V68.3145H574.812ZM644.061 72.0742C638.904 72.0026 635.861 68.7441 634.93 62.2988C634.285 63.8743 633.318 65.3424 632.029 66.7031C628.592 70.2839 624.259 72.0742 619.031 72.0742C616.883 72.0742 614.878 71.7161 613.016 71C608.074 69.0664 605.604 65.2708 605.604 59.6133C605.604 58.6823 605.675 57.8229 605.818 57.0352C607.322 48.8711 616.99 44.7533 634.822 44.6816V37.9141C634.751 30.6094 631.528 26.8854 625.154 26.7422C622.433 26.7422 620.392 27.6732 619.031 29.5352C618.816 29.8932 618.208 31.4688 617.205 34.2617C616.346 36.5534 614.949 37.6992 613.016 37.6992C612.586 37.6992 612.12 37.6634 611.619 37.5918C609.471 37.0905 608.396 35.694 608.396 33.4023C608.396 32.1849 608.826 30.9674 609.686 29.75C612.407 25.9544 617.921 24.0566 626.229 24.0566C637.902 24.1283 643.81 29.6068 643.953 40.4922V63.1582C644.025 66.6673 644.956 68.4935 646.746 68.6367C648.966 68.5651 650.327 65.9512 650.828 60.7949L653.621 60.9023C653.549 62.1198 653.442 63.2656 653.299 64.3398C652.296 69.4961 649.217 72.0742 644.061 72.0742ZM623.006 67.6699C624.295 67.6699 625.656 67.3835 627.088 66.8105C631.027 64.9486 633.605 61.5469 634.822 56.6055V47.6895C629.809 47.7611 625.906 48.1191 623.113 48.7637C617.814 50.0527 615.164 53.0964 615.164 57.8945C615.164 58.6823 615.2 59.4342 615.271 60.1504C615.916 65.1634 618.494 67.6699 623.006 67.6699ZM669.266 66.7031C668.98 71.7161 666.616 76.765 662.176 81.8496L659.92 80.2383C662.928 77.0872 664.468 74.5091 664.539 72.5039C664.468 71.5729 663.608 70.8926 661.961 70.4629C661.603 70.3913 661.245 70.2839 660.887 70.1406C658.524 69.2096 657.342 67.5267 657.342 65.0918C657.342 64.2324 657.521 63.4089 657.879 62.6211C658.882 60.3294 660.565 59.1836 662.928 59.1836C663.573 59.1836 664.217 59.291 664.862 59.5059C667.798 60.3652 669.266 62.7643 669.266 66.7031Z" fill="#48B6FF"/>
</svg>
