<svg width="286" height="56" viewBox="0 0 286 56" fill="none" xmlns="http://www.w3.org/2000/svg">
<g filter="url(#filter0_d_22_639)">
<path d="M6.74121 15.6504V36.5H0.344727V2.10059H9.98828L16.1406 21.3389C16.4173 22.4131 16.7021 23.4954 16.9951 24.5859C17.2881 25.6602 17.5729 26.7344 17.8496 27.8086C18.0286 27.1901 18.1995 26.5798 18.3623 25.9775C18.5251 25.359 18.6878 24.7406 18.8506 24.1221C19.0296 23.5036 19.2087 22.8932 19.3877 22.291L25.7109 2.10059H35.3057V36.5H28.9092V15.6504C28.9092 15.1784 28.9255 14.2344 28.958 12.8184C29.0068 11.3861 29.0719 9.83171 29.1533 8.15527C28.5837 10.3363 28.0791 12.1917 27.6396 13.7217C27.2165 15.2516 26.8665 16.4479 26.5898 17.3105L20.3887 36.5H15.2617L9.06055 17.3105L6.44824 8.15527C6.5459 10.0433 6.61914 11.6139 6.66797 12.8672C6.7168 14.1042 6.74121 15.0319 6.74121 15.6504ZM44.8096 46.876C43.1331 46.876 41.6927 46.7702 40.4883 46.5586V41.6758C41.3997 41.806 42.1891 41.8711 42.8564 41.8711C44.4515 41.8711 45.6396 41.4398 46.4209 40.5771C47.2184 39.7145 47.9915 38.266 48.7402 36.2314L38.291 10.084H45.542L49.6924 22.4619C50.0179 23.3571 50.3841 24.4801 50.791 25.8311C51.1979 27.182 51.6536 28.777 52.1582 30.6162C52.5326 29.1188 52.8906 27.7354 53.2324 26.4658C53.5742 25.1963 53.9486 23.8942 54.3555 22.5596L58.2617 10.084H65.4395L54.9902 37.8916C54.5671 39.0146 54.1195 40.0075 53.6475 40.8701C53.1755 41.7327 52.6953 42.4977 52.207 43.165C51.2142 44.516 50.1318 45.4681 48.96 46.0215C47.7881 46.5911 46.4046 46.876 44.8096 46.876Z" fill="white"/>
<path d="M109.545 26.5879C109.545 29.957 108.292 32.5368 105.785 34.3271C103.295 36.1012 99.6328 36.9883 94.7988 36.9883C86.0911 36.9883 81.0212 33.8389 79.5889 27.54L86.5469 26.3926C87.0189 28.2155 87.9385 29.542 89.3057 30.3721C90.6729 31.1859 92.569 31.5928 94.9941 31.5928C97.5169 31.5928 99.4049 31.2103 100.658 30.4453C101.911 29.6803 102.538 28.5329 102.538 27.0029C102.538 26.0264 102.253 25.2207 101.684 24.5859C101.114 23.9512 100.3 23.4222 99.2422 22.999C98.7214 22.7874 97.9564 22.5596 96.9473 22.3154C95.9382 22.055 94.6849 21.7702 93.1875 21.4609C91.4622 21.054 90.1113 20.7122 89.1348 20.4355C88.1582 20.1426 87.377 19.8659 86.791 19.6055C86.2051 19.3288 85.6354 19.0277 85.082 18.7021C83.8613 17.9697 82.9092 16.9932 82.2256 15.7725C81.542 14.5518 81.2002 13.0299 81.2002 11.207C81.2002 8.09831 82.3639 5.72201 84.6914 4.07812C87.0352 2.41797 90.4368 1.58789 94.8965 1.58789C99.1608 1.58789 102.359 2.25521 104.491 3.58984C106.64 4.92448 108.023 7.12988 108.642 10.2061L101.659 11.1582C101.301 9.67708 100.569 8.56217 99.4619 7.81348C98.3714 7.06478 96.8008 6.69043 94.75 6.69043C92.569 6.69043 90.9333 7.03223 89.8428 7.71582C88.7523 8.39941 88.207 9.4248 88.207 10.792C88.207 11.6872 88.4349 12.4196 88.8906 12.9893C89.3626 13.5589 90.0544 14.0472 90.9658 14.4541C91.8285 14.8447 93.6758 15.3411 96.5078 15.9434C98.1517 16.3014 99.5677 16.6432 100.756 16.9688C101.944 17.278 102.896 17.5791 103.612 17.8721C104.328 18.1813 104.963 18.5068 105.517 18.8486C106.086 19.1904 106.575 19.5566 106.981 19.9473C107.812 20.7448 108.446 21.6969 108.886 22.8037C109.325 23.8942 109.545 25.1556 109.545 26.5879ZM119.903 24.6104C119.903 27.182 120.375 29.127 121.319 30.4453C122.28 31.7474 123.639 32.3984 125.396 32.3984C126.601 32.3984 127.586 32.138 128.351 31.6172C129.132 31.0801 129.677 30.2907 129.986 29.249L136.456 29.8105C134.584 34.5957 130.784 36.9883 125.055 36.9883C121.083 36.9883 118.032 35.8164 115.899 33.4727C113.767 31.1126 112.701 27.6784 112.701 23.1699C112.701 18.8079 113.784 15.4551 115.948 13.1113C118.113 10.7676 121.181 9.5957 125.152 9.5957C128.945 9.5957 131.842 10.8571 133.844 13.3799C135.846 15.8864 136.847 19.5648 136.847 24.415V24.6104H119.903ZM130.206 20.3135C130.076 18.1813 129.563 16.5863 128.668 15.5283C127.773 14.4541 126.568 13.917 125.055 13.917C123.443 13.917 122.198 14.4785 121.319 15.6016C120.457 16.7246 120.001 18.2952 119.952 20.3135H130.206ZM148.182 23.5361V36.5H141.321V16.2852C141.321 14.8366 141.297 13.6322 141.248 12.6719C141.215 11.6953 141.175 10.8327 141.126 10.084H147.669C147.701 10.2305 147.734 10.556 147.767 11.0605C147.799 11.5651 147.832 12.1348 147.864 12.7695C147.897 13.388 147.921 13.974 147.938 14.5273C147.97 15.0807 147.986 15.4795 147.986 15.7236H148.084C148.735 13.9007 149.329 12.5905 149.866 11.793C150.387 11.028 151.006 10.4665 151.722 10.1084C152.438 9.75033 153.333 9.57129 154.407 9.57129C155.286 9.57129 155.994 9.69336 156.531 9.9375V15.6748C155.441 15.4307 154.464 15.3086 153.602 15.3086C151.893 15.3086 150.558 16.0003 149.598 17.3838C148.654 18.7673 148.182 20.818 148.182 23.5361ZM184.15 10.084L174.409 36.5H166.206L156.758 10.084H164.009L168.623 24.8545C168.753 25.2614 168.957 25.9775 169.233 27.0029C169.526 28.012 169.901 29.3304 170.356 30.958C170.422 30.7301 170.552 30.2744 170.747 29.5908C170.959 28.9072 171.187 28.1585 171.431 27.3447C171.675 26.5309 171.886 25.8473 172.065 25.2939L176.973 10.084H184.15ZM193.996 0.269531V5.32324H187.136V0.269531H193.996ZM193.996 10.084V36.5H187.136V10.084H193.996ZM211.312 36.9883C207.309 36.9883 204.216 35.8001 202.035 33.4238C199.854 31.0312 198.764 27.7028 198.764 23.4385C198.764 19.0765 199.862 15.6829 202.06 13.2578C204.257 10.8164 207.374 9.5957 211.41 9.5957C214.519 9.5957 217.09 10.377 219.125 11.9395C221.16 13.502 222.437 15.6585 222.958 18.4092L216.049 18.751C215.854 17.4001 215.365 16.3258 214.584 15.5283C213.803 14.7145 212.696 14.3076 211.264 14.3076C209.49 14.3076 208.163 15.0482 207.284 16.5293C206.405 17.9941 205.966 20.2077 205.966 23.1699C205.966 26.2135 206.413 28.5003 207.309 30.0303C208.22 31.5439 209.571 32.3008 211.361 32.3008C212.663 32.3008 213.754 31.8939 214.633 31.0801C215.512 30.25 216.057 29.0212 216.269 27.3936L223.153 27.7109C222.909 29.5664 222.25 31.194 221.176 32.5938C220.118 33.9772 218.743 35.0596 217.05 35.8408C215.357 36.6058 213.445 36.9883 211.312 36.9883ZM233.048 24.6104C233.048 27.182 233.52 29.127 234.464 30.4453C235.424 31.7474 236.783 32.3984 238.541 32.3984C239.745 32.3984 240.73 32.138 241.495 31.6172C242.276 31.0801 242.822 30.2907 243.131 29.249L249.601 29.8105C247.729 34.5957 243.928 36.9883 238.199 36.9883C234.228 36.9883 231.176 35.8164 229.044 33.4727C226.912 31.1126 225.846 27.6784 225.846 23.1699C225.846 18.8079 226.928 15.4551 229.093 13.1113C231.257 10.7676 234.326 9.5957 238.297 9.5957C242.089 9.5957 244.986 10.8571 246.988 13.3799C248.99 15.8864 249.991 19.5648 249.991 24.415V24.6104H233.048ZM243.351 20.3135C243.22 18.1813 242.708 16.5863 241.812 15.5283C240.917 14.4541 239.713 13.917 238.199 13.917C236.588 13.917 235.343 14.4785 234.464 15.6016C233.601 16.7246 233.146 18.2952 233.097 20.3135H243.351ZM276.731 28.7852C276.731 31.3405 275.682 33.3506 273.582 34.8154C271.499 36.264 268.61 36.9883 264.915 36.9883C261.285 36.9883 258.502 36.4186 256.565 35.2793C254.645 34.1237 253.367 32.3333 252.732 29.9082L258.763 29.0049C259.104 30.2581 259.69 31.1452 260.521 31.666C261.367 32.1868 262.832 32.4473 264.915 32.4473C266.836 32.4473 268.235 32.2031 269.114 31.7148C269.993 31.2266 270.433 30.4616 270.433 29.4199C270.433 28.5736 270.075 27.9062 269.358 27.418C268.659 26.9134 267.462 26.4902 265.77 26.1484C264.484 25.888 263.328 25.6357 262.303 25.3916C261.294 25.1475 260.423 24.9115 259.69 24.6836C258.974 24.4395 258.388 24.2116 257.933 24C256.582 23.3327 255.548 22.4782 254.832 21.4365C254.132 20.3949 253.782 19.109 253.782 17.5791C253.782 15.0563 254.751 13.0951 256.688 11.6953C258.641 10.2793 261.399 9.57129 264.964 9.57129C268.105 9.57129 270.628 10.1816 272.532 11.4023C274.453 12.623 275.649 14.389 276.121 16.7002L270.042 17.335C269.847 16.2607 269.367 15.4632 268.602 14.9424C267.837 14.4053 266.624 14.1367 264.964 14.1367C263.336 14.1367 262.116 14.3483 261.302 14.7715C260.488 15.1784 260.081 15.8701 260.081 16.8467C260.081 17.6117 260.39 18.222 261.009 18.6777C261.644 19.1172 262.701 19.4834 264.183 19.7764C266.25 20.1995 268.081 20.639 269.676 21.0947C271.287 21.5342 272.581 22.0632 273.558 22.6816C274.518 23.3001 275.283 24.0977 275.853 25.0742C276.438 26.0345 276.731 27.2715 276.731 28.7852Z" fill="#151515"/>
</g>
<defs>
<filter id="filter0_d_22_639" x="0.344727" y="0.269531" width="285.387" height="55.6064" filterUnits="userSpaceOnUse" color-interpolation-filters="sRGB">
<feFlood flood-opacity="0" result="BackgroundImageFix"/>
<feColorMatrix in="SourceAlpha" type="matrix" values="0 0 0 0 0 0 0 0 0 0 0 0 0 0 0 0 0 0 127 0" result="hardAlpha"/>
<feOffset dx="5" dy="5"/>
<feGaussianBlur stdDeviation="2"/>
<feComposite in2="hardAlpha" operator="out"/>
<feColorMatrix type="matrix" values="0 0 0 0 0 0 0 0 0 0 0 0 0 0 0 0 0 0 0.4 0"/>
<feBlend mode="normal" in2="BackgroundImageFix" result="effect1_dropShadow_22_639"/>
<feBlend mode="normal" in="SourceGraphic" in2="effect1_dropShadow_22_639" result="shape"/>
</filter>
</defs>
</svg>
