<svg width="307" height="86" viewBox="0 0 307 86" fill="none" xmlns="http://www.w3.org/2000/svg">
<path d="M116.38 27.34H117.962V37H116.688V29.286L113.412 34.97H112.698L109.422 29.286V37H108.134V27.34H109.758L113.062 33.08L116.38 27.34ZM125.82 29.86H127.024V37H125.82V35.712C125.218 36.608 124.238 37.168 123.048 37.168C121.004 37.168 119.478 35.558 119.478 33.43C119.478 31.302 121.004 29.692 123.048 29.692C124.238 29.692 125.218 30.252 125.82 31.148V29.86ZM123.272 36.006C124.728 36.006 125.82 34.9 125.82 33.43C125.82 31.96 124.728 30.854 123.272 30.854C121.802 30.854 120.71 31.96 120.71 33.43C120.71 34.9 121.802 36.006 123.272 36.006ZM134.77 26.92H135.974V37H134.77V35.712C134.168 36.608 133.188 37.168 131.998 37.168C129.954 37.168 128.428 35.558 128.428 33.43C128.428 31.302 129.954 29.692 131.998 29.692C133.188 29.692 134.168 30.252 134.77 31.148V26.92ZM132.222 36.006C133.678 36.006 134.77 34.9 134.77 33.43C134.77 31.96 133.678 30.854 132.222 30.854C130.752 30.854 129.66 31.96 129.66 33.43C129.66 34.9 130.752 36.006 132.222 36.006ZM144.826 33.43C144.826 33.598 144.812 33.794 144.798 33.962H138.652C138.89 35.208 139.912 36.062 141.298 36.062C142.348 36.062 143.244 35.558 143.706 34.9L144.532 35.614C143.818 36.566 142.642 37.168 141.256 37.168C139.016 37.168 137.35 35.544 137.35 33.402C137.35 31.288 138.96 29.692 141.102 29.692C143.23 29.692 144.826 31.288 144.826 33.43ZM141.088 30.798C139.842 30.798 138.862 31.652 138.638 32.87H143.552C143.328 31.638 142.348 30.798 141.088 30.798ZM153.386 29.692C155.43 29.692 156.97 31.302 156.97 33.43C156.97 35.558 155.43 37.168 153.386 37.168C152.196 37.168 151.216 36.608 150.614 35.712V37H149.41V26.92H150.614V31.148C151.216 30.252 152.196 29.692 153.386 29.692ZM153.162 36.006C154.632 36.006 155.724 34.9 155.724 33.43C155.724 31.96 154.632 30.854 153.162 30.854C151.706 30.854 150.614 31.96 150.614 33.43C150.614 34.9 151.706 36.006 153.162 36.006ZM163.326 29.86H164.67L160.82 38.512C160.456 39.352 159.756 39.828 158.986 39.828C158.426 39.828 157.768 39.562 157.348 39.142L157.852 38.218C158.09 38.484 158.44 38.666 158.804 38.666C159.168 38.666 159.49 38.484 159.714 38.022L160.232 36.958L157.124 29.86H158.51L160.918 35.558L163.326 29.86Z" fill="#98A2B3"/>
<path d="M111.922 49.0801C112.938 52.3483 113.54 53.9824 113.729 53.9824C113.917 53.9824 114.692 51.8665 116.053 47.6348C116.326 46.7884 116.492 46.2057 116.551 45.8867C116.609 45.5612 116.661 45.2064 116.707 44.8223C116.759 44.4316 116.818 44.1712 116.883 44.041C117.111 43.5788 117.579 43.3477 118.289 43.3477C118.628 43.3477 118.868 43.403 119.012 43.5137C119.161 43.6178 119.236 43.8327 119.236 44.1582C119.236 44.4772 119.031 44.9818 118.621 45.6719C118.504 45.8737 117.924 47.4167 116.883 50.3008C115.841 53.1784 115.177 54.9297 114.891 55.5547C114.604 56.1732 114.363 56.5605 114.168 56.7168C113.979 56.8665 113.735 56.9414 113.436 56.9414C113.143 56.9414 112.898 56.8698 112.703 56.7266C112.508 56.5768 112.267 56.1829 111.98 55.5449C111.967 55.5189 111.421 53.9857 110.34 50.9453C109.266 47.8984 108.543 46.1146 108.172 45.5938C107.807 45.0664 107.625 44.6465 107.625 44.334C107.625 44.0215 107.719 43.8099 107.908 43.6992C108.104 43.5885 108.396 43.5332 108.787 43.5332C109.184 43.5332 109.533 43.6146 109.832 43.7773C110.132 43.9401 110.33 44.1257 110.428 44.334C110.532 44.5358 110.626 44.8353 110.711 45.2324C110.802 45.6296 110.919 46.0495 111.062 46.4922L111.258 47.0488C111.284 47.1204 111.346 47.3092 111.443 47.6152L111.922 49.0801ZM122.764 55.7695H123.067C123.673 55.7695 124.207 55.5091 124.669 54.9883C124.923 54.7018 125.05 54.168 125.05 53.3867L125.059 53.2598V53.0156C125.059 52.5273 124.858 52.2832 124.454 52.2832H124.141L123.634 52.3223L123.37 52.3516C122.771 52.3516 122.279 52.5208 121.895 52.8594C121.511 53.1914 121.319 53.5885 121.319 54.0508V54.3926C121.319 54.7441 121.443 55.0632 121.69 55.3496C121.944 55.6296 122.302 55.7695 122.764 55.7695ZM127.706 56.2383C127.706 56.6745 127.266 56.8926 126.387 56.8926C126.231 56.8926 125.945 56.8145 125.528 56.6582C125.118 56.4954 124.858 56.4141 124.747 56.4141C124.643 56.4141 124.291 56.528 123.692 56.7559C123.093 56.9772 122.566 57.0879 122.11 57.0879H121.886C121.176 57.0879 120.564 56.8568 120.05 56.3945C119.535 55.9258 119.278 55.2878 119.278 54.4805C119.278 52.8398 120.317 51.8177 122.393 51.4141C123.741 51.1471 124.438 51.0039 124.483 50.9844C124.802 50.8216 124.962 50.5286 124.962 50.1055C124.962 49.6758 124.825 49.3177 124.552 49.0312C124.285 48.7383 123.917 48.5918 123.448 48.5918C122.986 48.5918 122.439 48.7513 121.807 49.0703C121.176 49.3828 120.743 49.5391 120.509 49.5391C120.085 49.5391 119.874 49.2493 119.874 48.6699C119.874 48.3053 120.206 47.9603 120.87 47.6348C121.54 47.3092 122.302 47.1465 123.155 47.1465H123.643C124.281 47.1465 124.848 47.2669 125.343 47.5078C125.837 47.7487 126.215 48.0742 126.475 48.4844C126.846 49.0638 127.032 50.3887 127.032 52.459C127.032 53.6309 127.055 54.36 127.1 54.6465C127.152 54.9329 127.266 55.2227 127.442 55.5156C127.618 55.8021 127.706 56.043 127.706 56.2383ZM130.795 56.7168C130.788 56.7168 130.778 56.7168 130.765 56.7168C130.017 56.7168 129.642 56.4596 129.642 55.9453C129.642 55.6979 129.707 55.3919 129.837 55.0273C129.968 54.6628 130.043 54.2949 130.062 53.9238C130.082 53.5462 130.091 52.9701 130.091 52.1953V50.3691L130.111 49.8613C130.124 49.5228 130.13 49.2819 130.13 49.1387L130.033 48.1328C130.033 47.9049 130.235 47.791 130.638 47.791C131.048 47.791 131.468 47.9017 131.898 48.123C132.328 48.3444 132.591 48.4551 132.689 48.4551C132.793 48.4551 132.985 48.39 133.265 48.2598C133.552 48.1296 133.887 47.9896 134.271 47.8398C134.662 47.6836 135.062 47.6055 135.472 47.6055H135.726C136.214 47.6055 136.647 47.7389 137.025 48.0059C137.409 48.2663 137.686 48.6309 137.855 49.0996C138.031 49.5618 138.155 50.4147 138.226 51.6582L138.255 52.1953L138.275 52.7324C138.295 53.0449 138.317 53.3835 138.343 53.748C138.369 54.1126 138.457 54.4967 138.607 54.9004C138.757 55.2975 138.832 55.5645 138.832 55.7012C138.832 56.2806 138.389 56.5703 137.504 56.5703C137.126 56.5703 136.849 56.4954 136.673 56.3457C136.498 56.1895 136.41 55.929 136.41 55.5645L136.429 55.2031C136.429 52.6706 136.247 50.9453 135.882 50.0273C135.596 49.3177 135.091 48.9629 134.369 48.9629C134.024 48.9629 133.685 49.0508 133.353 49.2266C133.028 49.3958 132.774 49.6725 132.591 50.0566C132.266 50.7402 132.103 52.0553 132.103 54.002L132.181 55.7695C132.181 56.0495 132.048 56.2773 131.781 56.4531C131.514 56.6289 131.185 56.7168 130.795 56.7168ZM141.5 51.6875C140.94 51.1927 140.661 50.5547 140.661 49.7734C140.661 48.9857 140.996 48.3444 141.666 47.8496C142.337 47.3483 143.19 47.0977 144.225 47.0977C145.26 47.0977 146.015 47.2246 146.491 47.4785C146.966 47.7259 147.204 48.0514 147.204 48.4551C147.204 49.0085 147.024 49.2852 146.666 49.2852C146.543 49.2852 146.214 49.1517 145.68 48.8848C145.146 48.6178 144.629 48.4844 144.127 48.4844C143.626 48.4844 143.248 48.5983 142.995 48.8262C142.747 49.054 142.623 49.347 142.623 49.7051C142.623 50.0632 142.864 50.3822 143.346 50.6621C143.509 50.7598 144.036 50.9876 144.928 51.3457C145.827 51.6973 146.458 52.0326 146.823 52.3516C147.389 52.8529 147.672 53.5039 147.672 54.3047C147.672 55.1055 147.337 55.7793 146.666 56.3262C146.002 56.8665 145.143 57.1367 144.088 57.1367C142.298 57.1367 141.188 56.7884 140.758 56.0918C140.621 55.8704 140.553 55.6751 140.553 55.5059C140.553 54.9395 140.729 54.6562 141.08 54.6562C141.185 54.6562 141.565 54.832 142.223 55.1836C142.887 55.5286 143.476 55.7012 143.991 55.7012C144.511 55.7012 144.922 55.5905 145.221 55.3691C145.521 55.1478 145.67 54.8483 145.67 54.4707C145.67 54.0866 145.433 53.735 144.957 53.416C144.762 53.2858 144.225 53.0449 143.346 52.6934C142.467 52.3353 141.852 52 141.5 51.6875ZM158.378 55.5938C158.378 56.3294 157.968 56.6973 157.148 56.6973C156.777 56.6973 156.503 56.6322 156.327 56.502C156.158 56.3717 156.073 56.1504 156.073 55.8379L156.083 55.623L156.103 55.3984V54.8809L156.015 52.498C156.015 51.1634 155.872 50.2617 155.585 49.793C155.299 49.3177 154.82 49.0801 154.15 49.0801C153.792 49.0801 153.44 49.1908 153.095 49.4121C152.756 49.6335 152.489 49.9655 152.294 50.4082C152.099 50.8509 152.001 52.0391 152.001 53.9727C152.001 54.2396 152.021 54.5716 152.06 54.9688C152.105 55.3659 152.128 55.571 152.128 55.584C152.128 55.9421 152.014 56.235 151.786 56.4629C151.565 56.6842 151.233 56.7949 150.79 56.7949H150.527C149.856 56.7949 149.521 56.5345 149.521 56.0137V55.75C149.521 55.6458 149.553 55.4668 149.618 55.2129L149.765 54.6758C149.882 54.1224 149.941 52.9896 149.941 51.2773V47.5762L149.989 45.3984L149.999 45.0957C150.006 44.8939 150.009 44.7018 150.009 44.5195C150.009 44.3372 149.996 44.1712 149.97 44.0215L149.921 43.8164C149.876 43.6146 149.853 43.4941 149.853 43.4551C149.853 43.1491 150.035 42.9961 150.4 42.9961H150.654C151.318 42.9961 151.734 43.276 151.904 43.8359C151.982 44.0833 152.034 44.6237 152.06 45.457C152.086 46.2839 152.122 46.9089 152.167 47.332C152.219 47.7487 152.359 47.957 152.587 47.957C152.672 47.957 152.792 47.931 152.948 47.8789L153.163 47.791C153.84 47.4915 154.446 47.3418 154.98 47.3418C156.165 47.3418 156.991 47.8301 157.46 48.8066C157.786 49.4837 157.948 50.8118 157.948 52.791C157.948 53.5137 158.02 54.1289 158.163 54.6367C158.307 55.138 158.378 55.457 158.378 55.5938ZM161.916 43.2793H162.238C162.518 43.2793 162.759 43.3639 162.961 43.5332C163.163 43.7025 163.264 43.9499 163.264 44.2754V44.5195C163.264 44.7865 163.176 45.0273 163 45.2422C162.824 45.4505 162.6 45.5547 162.326 45.5547L162.131 45.584H161.809C161.73 45.5645 161.633 45.5547 161.516 45.5547C161.398 45.5547 161.258 45.4766 161.096 45.3203C160.939 45.1576 160.861 44.9785 160.861 44.7832C160.848 44.7311 160.842 44.6921 160.842 44.666L160.822 44.4707V44.4219L160.861 44.1094C160.861 43.9596 160.946 43.7839 161.115 43.582C161.285 43.3802 161.551 43.2793 161.916 43.2793ZM162.072 56.9707H161.574C161.301 56.9707 161.066 56.8926 160.871 56.7363C160.676 56.5801 160.578 56.4108 160.578 56.2285C160.578 56.0397 160.633 55.7695 160.744 55.418C160.855 55.0664 160.91 54.7539 160.91 54.4805L160.93 54.2363L160.949 53.7285V53.3281L160.959 53.0645V49.8906C160.933 49.5391 160.878 49.2428 160.793 49.002L160.705 48.8164C160.568 48.4779 160.5 48.2923 160.5 48.2598V48.0645C160.5 47.6868 160.891 47.498 161.672 47.498H162.023C162.499 47.498 162.788 47.6836 162.893 48.0547C162.919 48.1523 162.932 48.722 162.932 49.7637V51.9805L162.951 52.625L162.99 53.377C162.99 54.1517 163.15 54.8092 163.469 55.3496C163.599 55.571 163.664 55.8184 163.664 56.0918C163.664 56.3587 163.511 56.5736 163.205 56.7363C162.899 56.8926 162.521 56.9707 162.072 56.9707ZM168.813 50.4375C168.976 50.4375 169.497 49.9753 170.376 49.0508C170.617 48.7969 170.848 48.5299 171.069 48.25C171.29 47.9701 171.492 47.7682 171.675 47.6445C171.857 47.5143 172.13 47.4492 172.495 47.4492C173.237 47.4492 173.608 47.612 173.608 47.9375C173.608 48.0026 173.182 48.5267 172.329 49.5098C171.483 50.4863 171.059 51.1797 171.059 51.5898C171.059 51.7917 171.59 52.6315 172.651 54.1094C173.719 55.5872 174.253 56.3327 174.253 56.3457C174.253 56.6257 173.963 56.7656 173.384 56.7656C172.804 56.7656 172.339 56.6159 171.987 56.3164C171.942 56.2773 171.541 55.6654 170.786 54.4805C170.037 53.2956 169.507 52.7031 169.194 52.7031C168.966 52.7031 168.774 52.8757 168.618 53.2207C168.462 53.5592 168.384 53.9824 168.384 54.4902L168.423 55.0078C168.442 55.2682 168.452 55.4375 168.452 55.5156C168.452 56.2904 167.86 56.6777 166.675 56.6777C166.141 56.6777 165.874 56.3424 165.874 55.6719L165.903 55.4375C166.02 54.474 166.079 53.5723 166.079 52.7324V51.1504L166.089 50.8184C166.095 50.597 166.098 50.3757 166.098 50.1543L166.118 49.4902C166.118 49.2689 166.118 49.0475 166.118 48.8262L166.138 47.5078C166.138 46.082 166.111 45.2096 166.059 44.8906C166.007 44.5651 165.949 44.2884 165.884 44.0605C165.825 43.8262 165.796 43.6829 165.796 43.6309V43.3965C165.796 43.2728 165.89 43.1556 166.079 43.0449C166.268 42.9342 166.525 42.8789 166.85 42.8789H167.114C167.596 42.8789 167.915 43.0742 168.071 43.4648C168.188 43.7578 168.247 44.4251 168.247 45.4668V47.5176L168.266 48.748C168.266 49.8743 168.449 50.4375 168.813 50.4375ZM179.109 55.7695H179.412C180.017 55.7695 180.551 55.5091 181.013 54.9883C181.267 54.7018 181.394 54.168 181.394 53.3867L181.404 53.2598V53.0156C181.404 52.5273 181.202 52.2832 180.798 52.2832H180.486L179.978 52.3223L179.714 52.3516C179.115 52.3516 178.624 52.5208 178.24 52.8594C177.856 53.1914 177.664 53.5885 177.664 54.0508V54.3926C177.664 54.7441 177.787 55.0632 178.035 55.3496C178.289 55.6296 178.647 55.7695 179.109 55.7695ZM184.05 56.2383C184.05 56.6745 183.611 56.8926 182.732 56.8926C182.576 56.8926 182.289 56.8145 181.873 56.6582C181.463 56.4954 181.202 56.4141 181.091 56.4141C180.987 56.4141 180.636 56.528 180.037 56.7559C179.438 56.9772 178.91 57.0879 178.455 57.0879H178.23C177.52 57.0879 176.908 56.8568 176.394 56.3945C175.88 55.9258 175.623 55.2878 175.623 54.4805C175.623 52.8398 176.661 51.8177 178.738 51.4141C180.086 51.1471 180.782 51.0039 180.828 50.9844C181.147 50.8216 181.306 50.5286 181.306 50.1055C181.306 49.6758 181.17 49.3177 180.896 49.0312C180.629 48.7383 180.261 48.5918 179.793 48.5918C179.33 48.5918 178.783 48.7513 178.152 49.0703C177.52 49.3828 177.088 49.5391 176.853 49.5391C176.43 49.5391 176.218 49.2493 176.218 48.6699C176.218 48.3053 176.55 47.9603 177.214 47.6348C177.885 47.3092 178.647 47.1465 179.5 47.1465H179.988C180.626 47.1465 181.192 47.2669 181.687 47.5078C182.182 47.7487 182.56 48.0742 182.82 48.4844C183.191 49.0638 183.377 50.3887 183.377 52.459C183.377 53.6309 183.399 54.36 183.445 54.6465C183.497 54.9329 183.611 55.2227 183.787 55.5156C183.963 55.8021 184.05 56.043 184.05 56.2383ZM195.648 57.1074C195.049 57.1074 194.388 57.0326 193.665 56.8828C192.943 56.7266 192.435 56.5638 192.142 56.3945C191.849 56.2188 191.618 55.9746 191.448 55.6621C191.286 55.3431 191.204 55.0404 191.204 54.7539C191.204 54.4609 191.273 54.2363 191.409 54.0801C191.546 53.9173 191.696 53.8359 191.859 53.8359C192.021 53.8359 192.324 54.0215 192.767 54.3926C193.216 54.7637 193.662 55.0436 194.105 55.2324C194.554 55.4212 195.111 55.5156 195.775 55.5156C196.439 55.5156 196.979 55.3398 197.396 54.9883C197.812 54.6367 198.021 54.1387 198.021 53.4941C198.021 52.8496 197.643 52.2669 196.888 51.7461C196.68 51.6029 195.989 51.2546 194.818 50.7012C193.646 50.1413 192.871 49.666 192.493 49.2754C192.116 48.8783 191.842 48.4779 191.673 48.0742C191.51 47.6641 191.429 47.1758 191.429 46.6094C191.429 45.5807 191.862 44.7279 192.728 44.0508C193.502 43.4323 194.665 43.123 196.214 43.123C197.165 43.123 197.962 43.263 198.607 43.543C198.9 43.6732 199.144 43.8945 199.339 44.207C199.541 44.513 199.642 44.7995 199.642 45.0664C199.642 45.6914 199.437 46.0039 199.027 46.0039C198.909 46.0039 198.509 45.7793 197.825 45.3301C197.142 44.8809 196.455 44.6562 195.765 44.6562C195.081 44.6562 194.528 44.819 194.105 45.1445C193.688 45.4635 193.48 45.9062 193.48 46.4727C193.48 47.0391 193.756 47.5436 194.31 47.9863C194.609 48.2272 195.368 48.6243 196.585 49.1777C197.803 49.7246 198.633 50.2227 199.075 50.6719C199.525 51.1146 199.821 51.541 199.964 51.9512C200.114 52.3548 200.189 52.8236 200.189 53.3574C200.189 53.8913 200.075 54.3926 199.847 54.8613C199.391 55.8184 198.581 56.4792 197.415 56.8438C196.862 57.0195 196.295 57.1074 195.716 57.1074C195.69 57.1074 195.667 57.1074 195.648 57.1074ZM204.146 48.2402C204.231 48.5202 204.273 49.5326 204.273 51.2773C204.273 53.0221 204.339 54.0768 204.469 54.4414C204.742 55.2096 205.23 55.5938 205.934 55.5938C206.793 55.5938 207.415 55.2617 207.799 54.5977C208.183 53.9271 208.375 52.791 208.375 51.1895L208.395 50.6621V50.1445C208.395 49.793 208.368 49.4349 208.316 49.0703C208.271 48.7057 208.248 48.5039 208.248 48.4648C208.248 48.1589 208.355 47.944 208.57 47.8203C208.785 47.6901 209.101 47.625 209.518 47.625C209.934 47.625 210.201 47.7812 210.318 48.0938C210.396 48.3021 210.436 49.3372 210.436 51.1992C210.436 53.0547 210.536 54.3991 210.738 55.2324C210.829 55.5905 210.875 55.776 210.875 55.7891V55.9746C210.875 56.1439 210.774 56.3001 210.572 56.4434C210.377 56.5866 210.097 56.6582 209.732 56.6582C209.368 56.6582 209.016 56.5801 208.678 56.4238C208.339 56.2611 208.131 56.1797 208.053 56.1797C207.981 56.1797 207.639 56.2969 207.027 56.5312C206.415 56.7656 205.872 56.8828 205.396 56.8828H205.143C204.622 56.8828 204.15 56.7656 203.727 56.5312C203.303 56.2904 202.975 55.9486 202.74 55.5059C202.395 54.8483 202.223 53.4518 202.223 51.3164C202.223 50.0729 202.18 49.3047 202.096 49.0117C202.089 48.9857 202.047 48.8685 201.969 48.6602C201.891 48.4518 201.852 48.3053 201.852 48.2207V48.0059C201.852 47.6478 202.19 47.4688 202.867 47.4688H203.102C203.642 47.4688 203.99 47.7259 204.146 48.2402ZM216.62 56.9609H216.249C215.311 56.9609 214.637 56.5573 214.227 55.75C213.889 55.0924 213.72 54.0117 213.72 52.5078C213.72 51.0039 213.638 49.972 213.475 49.4121C213.417 49.2038 213.254 48.9661 212.987 48.6992C212.72 48.4323 212.587 48.2012 212.587 48.0059V47.8789C212.587 47.7096 212.74 47.5241 213.046 47.3223C213.352 47.1204 213.527 46.9772 213.573 46.8926C213.625 46.8014 213.723 46.4857 213.866 45.9453C214.016 45.3984 214.169 45.0176 214.325 44.8027C214.488 44.5814 214.703 44.4707 214.97 44.4707C215.243 44.4707 215.435 44.5488 215.546 44.7051C215.663 44.8613 215.777 45.1836 215.887 45.6719C216.005 46.1602 216.132 46.4922 216.268 46.668C216.405 46.8372 216.737 47.0163 217.264 47.2051C217.792 47.3939 218.055 47.6283 218.055 47.9082C218.055 48.1556 217.779 48.377 217.225 48.5723C216.679 48.7676 216.333 49.0085 216.19 49.2949C215.917 49.8483 215.78 50.8281 215.78 52.2344C215.78 53.6406 215.901 54.5033 216.141 54.8223C216.382 55.1348 216.773 55.3268 217.313 55.3984C217.86 55.4701 218.134 55.6751 218.134 56.0137C218.134 56.2741 217.977 56.4987 217.665 56.6875C217.359 56.8698 217.011 56.9609 216.62 56.9609ZM228.966 55.5938C228.966 56.3294 228.556 56.6973 227.736 56.6973C227.365 56.6973 227.091 56.6322 226.916 56.502C226.746 56.3717 226.662 56.1504 226.662 55.8379L226.671 55.623L226.691 55.3984V54.8809L226.603 52.498C226.603 51.1634 226.46 50.2617 226.173 49.793C225.887 49.3177 225.408 49.0801 224.738 49.0801C224.38 49.0801 224.028 49.1908 223.683 49.4121C223.345 49.6335 223.078 49.9655 222.882 50.4082C222.687 50.8509 222.589 52.0391 222.589 53.9727C222.589 54.2396 222.609 54.5716 222.648 54.9688C222.694 55.3659 222.716 55.571 222.716 55.584C222.716 55.9421 222.602 56.235 222.375 56.4629C222.153 56.6842 221.821 56.7949 221.379 56.7949H221.115C220.444 56.7949 220.109 56.5345 220.109 56.0137V55.75C220.109 55.6458 220.142 55.4668 220.207 55.2129L220.353 54.6758C220.47 54.1224 220.529 52.9896 220.529 51.2773V47.5762L220.578 45.3984L220.588 45.0957C220.594 44.8939 220.597 44.7018 220.597 44.5195C220.597 44.3372 220.584 44.1712 220.558 44.0215L220.509 43.8164C220.464 43.6146 220.441 43.4941 220.441 43.4551C220.441 43.1491 220.623 42.9961 220.988 42.9961H221.242C221.906 42.9961 222.323 43.276 222.492 43.8359C222.57 44.0833 222.622 44.6237 222.648 45.457C222.674 46.2839 222.71 46.9089 222.755 47.332C222.808 47.7487 222.948 47.957 223.175 47.957C223.26 47.957 223.38 47.931 223.537 47.8789L223.752 47.791C224.429 47.4915 225.034 47.3418 225.568 47.3418C226.753 47.3418 227.58 47.8301 228.048 48.8066C228.374 49.4837 228.537 50.8118 228.537 52.791C228.537 53.5137 228.608 54.1289 228.752 54.6367C228.895 55.138 228.966 55.457 228.966 55.5938ZM234.106 55.7695H234.409C235.014 55.7695 235.548 55.5091 236.01 54.9883C236.264 54.7018 236.391 54.168 236.391 53.3867L236.401 53.2598V53.0156C236.401 52.5273 236.199 52.2832 235.795 52.2832H235.483L234.975 52.3223L234.711 52.3516C234.112 52.3516 233.621 52.5208 233.237 52.8594C232.853 53.1914 232.661 53.5885 232.661 54.0508V54.3926C232.661 54.7441 232.784 55.0632 233.032 55.3496C233.286 55.6296 233.644 55.7695 234.106 55.7695ZM239.047 56.2383C239.047 56.6745 238.608 56.8926 237.729 56.8926C237.573 56.8926 237.286 56.8145 236.87 56.6582C236.459 56.4954 236.199 56.4141 236.088 56.4141C235.984 56.4141 235.633 56.528 235.034 56.7559C234.435 56.9772 233.907 57.0879 233.452 57.0879H233.227C232.517 57.0879 231.905 56.8568 231.391 56.3945C230.877 55.9258 230.62 55.2878 230.62 54.4805C230.62 52.8398 231.658 51.8177 233.735 51.4141C235.082 51.1471 235.779 51.0039 235.825 50.9844C236.144 50.8216 236.303 50.5286 236.303 50.1055C236.303 49.6758 236.166 49.3177 235.893 49.0312C235.626 48.7383 235.258 48.5918 234.789 48.5918C234.327 48.5918 233.78 48.7513 233.149 49.0703C232.517 49.3828 232.084 49.5391 231.85 49.5391C231.427 49.5391 231.215 49.2493 231.215 48.6699C231.215 48.3053 231.547 47.9603 232.211 47.6348C232.882 47.3092 233.644 47.1465 234.496 47.1465H234.985C235.623 47.1465 236.189 47.2669 236.684 47.5078C237.179 47.7487 237.556 48.0742 237.817 48.4844C238.188 49.0638 238.373 50.3887 238.373 52.459C238.373 53.6309 238.396 54.36 238.442 54.6465C238.494 54.9329 238.608 55.2227 238.784 55.5156C238.959 55.8021 239.047 56.043 239.047 56.2383ZM245.652 49.2852C245.04 49.2852 244.564 49.5911 244.226 50.2031C243.887 50.8086 243.718 51.7363 243.718 52.9863C243.718 53.5397 243.741 53.9336 243.786 54.168C243.832 54.3958 243.9 54.6823 243.991 55.0273C244.089 55.3659 244.138 55.6621 244.138 55.916C244.138 56.1634 243.988 56.3913 243.689 56.5996C243.389 56.8079 242.999 56.9121 242.517 56.9121L242.351 56.9023H242.175C241.863 56.9023 241.602 56.8145 241.394 56.6387C241.192 56.4629 241.091 56.2643 241.091 56.043V55.8867C241.091 55.8411 241.153 55.6263 241.277 55.2422C241.4 54.8581 241.472 54.487 241.491 54.1289C241.511 53.7708 241.521 53.2891 241.521 52.6836V51.5996L241.511 51.4238C241.511 51.3066 241.511 51.1895 241.511 51.0723L241.491 50.5449C241.485 50.4277 241.482 50.1999 241.482 49.8613C241.482 49.5163 241.42 49.1908 241.296 48.8848C241.179 48.5723 241.12 48.3704 241.12 48.2793C241.12 47.8887 241.462 47.6934 242.146 47.6934C242.829 47.6934 243.324 47.8789 243.63 48.25C243.721 48.3607 243.816 48.416 243.913 48.416C244.017 48.416 244.187 48.3346 244.421 48.1719C245.072 47.7292 245.619 47.5078 246.062 47.5078H246.218C246.609 47.5078 246.905 47.5957 247.107 47.7715C247.315 47.9473 247.419 48.1816 247.419 48.4746C247.419 49.054 247.097 49.3438 246.452 49.3438C246.198 49.3047 245.932 49.2852 245.652 49.2852Z" fill="white"/>
<rect x="55" y="20" width="46" height="46" rx="23" fill="#95D1F9"/>
<path d="M80.0864 36.88C79.8064 36.88 79.6464 36.94 79.6064 37.06L73.8664 50.58C73.8397 50.6333 73.8264 50.7067 73.8264 50.8C73.8264 50.92 73.8664 51.0067 73.9464 51.06C74.0264 51.1 74.1131 51.12 74.2064 51.12V51.5H70.5064V51.12C70.5997 51.12 70.6864 51.1 70.7664 51.06C70.8464 51.0067 70.8864 50.92 70.8864 50.8C70.8864 50.7067 70.8731 50.6333 70.8464 50.58L65.1064 37.06C65.0664 36.94 64.9064 36.88 64.6264 36.88V36.5H68.5064V36.88C68.3464 36.88 68.2397 36.92 68.1864 37C68.1331 37.08 68.1264 37.16 68.1664 37.24L72.4264 47.6L76.5664 37.24C76.5931 37.16 76.5464 37.08 76.4264 37C76.3197 36.92 76.1864 36.88 76.0264 36.88V36.5H80.0864V36.88ZM85.2719 51.88C84.1252 51.88 83.0585 51.6133 82.0719 51.08C81.0852 50.5333 80.1319 49.7867 79.2119 48.84C79.1852 48.8133 79.1519 48.8 79.1119 48.8C78.9919 48.8 78.8585 48.8733 78.7119 49.02L78.4519 48.74L81.2319 46.12L81.4919 46.4C81.4119 46.4667 81.3385 46.56 81.2719 46.68C81.2052 46.8 81.1919 46.8867 81.2319 46.94C82.4719 48.5133 83.8252 49.3 85.2919 49.3C85.7985 49.3 86.2519 49.2 86.6519 49C87.0652 48.8 87.3852 48.5467 87.6119 48.24C87.8385 47.92 87.9519 47.5933 87.9519 47.26C87.9519 46.4733 87.2652 45.8267 85.8919 45.32L83.4319 44.4C82.4452 44.04 81.6719 43.5467 81.1119 42.92C80.5652 42.2933 80.2919 41.54 80.2919 40.66C80.2919 39.7933 80.4919 39.04 80.8919 38.4C81.3052 37.7467 81.8852 37.2467 82.6319 36.9C83.3785 36.5533 84.2452 36.38 85.2319 36.38C86.1652 36.38 86.9452 36.5267 87.5719 36.82C88.2119 37.1 88.8919 37.5333 89.6119 38.12C89.6252 38.1333 89.6519 38.14 89.6919 38.14C89.7585 38.14 89.8319 38.12 89.9119 38.08C90.0052 38.0267 90.0785 37.9733 90.1319 37.92L90.3919 38.18L87.9119 40.62L87.6519 40.34C87.7185 40.2733 87.7652 40.2 87.7919 40.12C87.8319 40.0267 87.8252 39.96 87.7719 39.92C86.9052 39.2267 86.0452 38.88 85.1919 38.88C84.5119 38.88 83.9719 39.04 83.5719 39.36C83.1719 39.6667 82.9719 40.06 82.9719 40.54C82.9719 40.9667 83.0785 41.2933 83.2919 41.52C83.5185 41.7467 83.8585 41.94 84.3119 42.1L86.7319 42.98C87.5719 43.2867 88.2719 43.6133 88.8319 43.96C89.3919 44.2933 89.8385 44.74 90.1719 45.3C90.5052 45.8467 90.6719 46.5333 90.6719 47.36C90.6719 48.16 90.4585 48.9067 90.0319 49.6C89.6185 50.28 88.9985 50.8333 88.1719 51.26C87.3585 51.6733 86.3919 51.88 85.2719 51.88Z" fill="white"/>
</svg>
