<svg width="43" height="50" viewBox="0 0 43 50" fill="none" xmlns="http://www.w3.org/2000/svg">
<path d="M7.0278 10.0362C6.98973 11.1927 7.6024 14.0004 8.39241 16.1931L9.84905 20.22L5.73038 25.9248C0.958439 32.6083 0.269201 34.2359 1.28421 36.3632C2.47236 38.8908 4.4016 39.3249 11.229 38.7852C14.7513 38.4368 17.9808 38.4364 18.3292 38.7294C18.6775 39.0225 20.465 41.5448 22.2684 44.2502C24.0796 47.0472 26.0921 49.5041 26.7073 49.682C28.3279 50.281 29.3777 48.0227 30.6633 41.0386C31.2593 37.8044 31.9289 34.8867 32.138 34.6381C32.3889 34.3398 34.3822 33.3844 36.5586 32.4134C41.1783 30.3562 42.7495 28.7913 42.7939 26.1118C42.834 24.4476 42.3046 23.6626 39.2449 20.8343L35.6298 17.454L36.2819 12.7387C36.99 6.54228 36.8691 3.55405 35.5613 1.77485C33.5748 -0.914882 29.2897 0.744556 24.9322 5.824C22.3811 8.85701 20.3799 9.72073 18.4527 8.77893C15.7531 7.4421 11.4049 6.24675 9.71447 6.43795C7.69948 6.61087 7.12191 7.39855 7.0278 10.0362ZM15.1684 13.9969C15.5666 14.3318 15.5724 14.9311 15.2378 15.3288C14.5269 16.1741 14.3855 16.1401 13.667 14.7716C13.0639 13.6701 14.0735 13.076 15.1684 13.9969ZM13.0651 27.5097C13.7121 28.0539 15.2963 31.424 15.0454 31.7223C14.5435 32.319 9.62939 33.1098 9.13172 32.6911C8.88288 32.4818 9.05226 31.7753 9.49642 31.0452C10.2254 29.8755 12.8163 27.3004 13.0651 27.5097ZM20.9177 18.5781C22.5027 17.704 23.2593 17.9159 26.7054 19.8806C28.6485 21.0056 28.7062 21.139 27.9329 24.9882L27.0759 28.9369L24.0593 29.7955L21.0008 30.7038L19.4881 28.1579C16.7354 23.5503 17.18 20.698 20.9177 18.5781ZM30.5682 9.63065C31.1135 10.5988 30.2846 13.8069 29.4343 14.1105C29.1675 14.2257 28.3194 14.0217 27.6464 13.7104C26.5415 13.2055 26.6511 12.8731 28.2822 10.934C29.6205 9.34292 30.188 8.9713 30.5682 9.63065ZM24.8802 36.5988C25.0295 36.7243 25.111 37.1325 25.0094 37.5564C24.9496 37.9306 24.641 38.0955 24.3921 37.8862C24.0935 37.635 24.0538 37.1771 24.2629 36.9285C24.5138 36.6302 24.7807 36.515 24.8802 36.5988Z" fill="url(#paint0_linear_61_551)"/>
<defs>
<linearGradient id="paint0_linear_61_551" x1="-9.59589" y1="27.8123" x2="54.8346" y2="26.7395" gradientUnits="userSpaceOnUse">
<stop stop-color="#42307D"/>
<stop offset="1" stop-color="#7F56D9"/>
</linearGradient>
</defs>
</svg>
