<svg width="43" height="50" viewBox="0 0 43 50" fill="none" xmlns="http://www.w3.org/2000/svg">
<path d="M6.6235 10.2115C6.58543 11.368 7.19811 14.1757 7.98811 16.3684L9.44475 20.3953L5.32608 26.1001C0.554142 32.7836 -0.135096 34.4112 0.879912 36.5385C2.06806 39.0661 3.9973 39.5002 10.8248 38.9605C14.347 38.6121 17.5765 38.6117 17.9249 38.9047C18.2733 39.1978 20.0607 41.7201 21.8641 44.4255C23.6753 47.2225 25.6878 49.6794 26.303 49.8572C27.9236 50.4563 28.9734 48.198 30.259 41.2139C30.855 37.9796 31.5246 35.062 31.7337 34.8134C31.9846 34.515 33.9779 33.5597 36.1543 32.5887C40.774 30.5315 42.3452 28.9666 42.3896 26.2871C42.4297 24.6229 41.9003 23.8379 38.8406 21.0096L35.2255 17.6293L35.8776 12.9139C36.5857 6.71757 36.4648 3.72934 35.157 1.95014C33.1705 -0.739589 28.8854 0.919849 24.528 5.99929C21.9768 9.0323 19.9756 9.89602 18.0484 8.95423C15.3488 7.61739 11.0006 6.42204 9.31017 6.61324C7.29519 6.78616 6.71761 7.57384 6.6235 10.2115ZM14.7641 14.1722C15.1623 14.5071 15.1681 15.1063 14.8335 15.5041C14.1226 16.3494 13.9812 16.3154 13.2627 14.9469C12.6596 13.8454 13.6692 13.2513 14.7641 14.1722ZM12.6608 27.685C13.3078 28.2292 14.892 31.5993 14.6411 31.8976C14.1392 32.4943 9.2251 33.2851 8.72742 32.8664C8.47858 32.6571 8.64796 31.9506 9.09212 31.2205C9.82108 30.0508 12.412 27.4757 12.6608 27.685ZM20.5134 18.7534C22.0984 17.8793 22.855 18.0911 26.3011 20.0559C28.2442 21.1809 28.3019 21.3143 27.5286 25.1635L26.6716 29.1122L23.655 29.9708L20.5965 30.8791L19.0838 28.3332C16.3311 23.7256 16.7757 20.8733 20.5134 18.7534ZM30.1639 9.80595C30.7092 10.7741 29.8803 13.9822 29.03 14.2858C28.7632 14.401 27.9151 14.197 27.2422 13.8857C26.1372 13.3808 26.2468 13.0484 27.8779 11.1093C29.2162 9.51822 29.7837 9.14659 30.1639 9.80595ZM24.4759 36.7741C24.6252 36.8996 24.7067 37.3078 24.6051 37.7317C24.5453 38.1059 24.2367 38.2708 23.9878 38.0615C23.6892 37.8103 23.6495 37.3524 23.8586 37.1038C24.1095 36.8055 24.3764 36.6903 24.4759 36.7741Z" fill="url(#paint0_linear_61_552)"/>
<defs>
<linearGradient id="paint0_linear_61_552" x1="-10.0002" y1="27.9876" x2="54.4303" y2="26.9148" gradientUnits="userSpaceOnUse">
<stop stop-color="#42307D"/>
<stop offset="1" stop-color="#7F56D9"/>
</linearGradient>
</defs>
</svg>
