<svg width="50" height="44" viewBox="0 0 50 44" fill="none" xmlns="http://www.w3.org/2000/svg">
<path d="M24.3036 1.69969C23.394 2.41505 21.6397 4.69118 20.4702 6.7072L18.3262 10.4141L11.3092 10.9343C3.12278 11.5846 1.43352 12.1049 0.458941 14.251C-0.71055 16.7872 0.199054 18.5431 5.00696 23.4206C7.54086 25.8918 9.61996 28.363 9.61996 28.8183C9.61996 29.2735 8.8403 32.265 7.93069 35.3865C6.95612 38.5731 6.37137 41.6947 6.63126 42.28C7.216 43.9058 9.61996 43.2555 15.7923 39.7437C18.651 38.1179 21.3149 36.7522 21.6397 36.7522C22.0296 36.7522 24.0437 37.6627 26.1878 38.7032C30.7358 40.9143 32.9448 41.1094 35.0239 39.4186C36.3233 38.378 36.5832 37.4676 36.7781 33.3055L37.038 28.363L41.0663 25.8268C46.264 22.38 48.4731 20.364 48.9928 18.218C49.7725 14.9663 45.7442 12.7552 39.0522 12.6902C35.0889 12.6902 33.1397 11.7147 32.62 9.63366C31.9053 6.7072 30.0211 2.61015 28.7866 1.43956C27.3572 0.00884628 26.3827 0.0738754 24.3036 1.69969ZM26.5126 10.4791C26.5126 10.9993 26.0578 11.3895 25.538 11.3895C24.4335 11.3895 24.3685 11.2595 24.9533 9.82875C25.4081 8.65817 26.5126 9.04837 26.5126 10.4791ZM14.8177 17.5676C14.8177 18.413 13.2584 21.7947 12.8685 21.7947C12.0889 21.7947 8.32052 18.5431 8.32052 17.8928C8.32052 17.5676 8.97024 17.2425 9.81487 17.1124C11.1793 16.9173 14.8177 17.2425 14.8177 17.5676ZM26.7075 17.8278C28.3968 18.4781 28.7216 19.1934 29.4363 23.0954C29.8262 25.3065 29.7612 25.4366 26.3177 27.3225L22.7442 29.2084L20.1454 27.4526L17.4815 25.6967L18.4561 22.9003C20.2104 17.8278 22.6793 16.332 26.7075 17.8278ZM39.7668 19.4536C39.377 20.4941 36.3883 21.9248 35.6087 21.4696C35.3488 21.3395 34.9589 20.5591 34.764 19.8438C34.4392 18.6732 34.764 18.5431 37.2979 18.5431C39.377 18.5431 40.0267 18.7382 39.7668 19.4536ZM15.4674 32.4601C15.4674 32.6552 15.2075 32.9803 14.8177 33.1754C14.4928 33.3705 14.168 33.2405 14.168 32.9153C14.168 32.5251 14.4928 32.1999 14.8177 32.1999C15.2075 32.1999 15.4674 32.33 15.4674 32.4601Z" fill="url(#paint0_linear_61_550)"/>
<defs>
<linearGradient id="paint0_linear_61_550" x1="-0.00076446" y1="0.420448" x2="42.2942" y2="49.0371" gradientUnits="userSpaceOnUse">
<stop stop-color="#42307D"/>
<stop offset="1" stop-color="#7F56D9"/>
</linearGradient>
</defs>
</svg>
