<svg width="167" height="174" viewBox="0 0 167 174" fill="none" xmlns="http://www.w3.org/2000/svg">
<path d="M1.86486 32.4604C-0.863399 37.4613 -0.438452 43.4007 3.17764 50.3313C10.8122 64.8645 33.8045 76.0571 55.8578 75.9153C62.0605 75.8653 61.8412 75.7826 61.5309 78.247C61.1315 81.2556 63.2588 82.7705 67.2088 82.2564C69.7915 81.8432 70.3208 82.0235 72.5636 84.2561C75.9277 87.605 78.2922 92.7923 79.3603 99.0705C80.13 104.042 80.0886 105.432 78.9229 120.52C78.1783 129.62 78.5573 132.711 80.8444 137.233C84.4159 144.436 90.3627 147.371 100.319 146.868C102.442 146.705 109.329 145.603 115.649 144.268C130.637 141.193 132.54 140.947 137.414 141.051C142.483 141.094 147.015 143.284 151.258 147.523C155.744 151.989 158.364 156.752 161.366 165.725C163.401 171.789 164.123 173.352 165.03 173.502C166.534 173.703 166.529 172.025 165.023 165.581C163.087 157.204 161.278 153.459 156.402 147.113C152.679 142.261 151.429 141.076 148.485 139.427C141.069 135.225 136.052 135.144 117.983 138.83C102.368 142.035 97.5719 142.596 92.7942 141.623C87.9786 140.597 85.3879 138.214 83.5445 132.973C82.3178 129.37 82.3035 124.337 83.5581 111.268C84.6146 100.262 82.3362 90.8496 77.1055 84.6779C75.4531 82.822 73.5963 80.7927 73.0208 80.3253C72.1121 79.6167 72.0957 79.1482 72.9616 78.1262C74.6935 76.0822 74.8899 73.4594 73.4108 71.3991C72.1592 69.6558 72.1213 69.603 75.816 64.3886C89.1797 45.3475 94.5384 22.2866 88.444 10.0101C83.1098 -0.650586 72.5649 -2.52671 61.9268 5.27096C56.1591 9.49186 52.1938 15.2207 48.4509 24.7128C46.7254 28.9937 45.0132 32.6247 44.5828 32.6936C44.1375 32.8531 40.976 31.6804 37.4584 30.1229C21.7239 23.2464 6.37456 24.2592 1.86486 32.4604ZM14.1896 30.577C20.0724 29.6358 25.4092 30.6077 34.3493 34.0363C38.9933 35.8258 43.5384 37.3662 44.5131 37.3869C47.5509 37.6076 49.4642 35.5936 51.2854 30.4433C53.4447 24.65 57.1413 17.4329 59.5428 14.4278C62.3287 11.0668 67.9462 7.1938 71.2909 6.39366C80.1243 4.21478 85.6205 10.7563 85.6639 23.2941C85.7107 34.3884 79.6862 51.843 71.6221 64.1172C69.8918 66.7204 67.8894 69.2788 67.2033 69.7714C65.4616 71.0218 53.0941 71.1747 45.8229 70.0705C35.0141 68.3838 24.659 64.2099 16.3162 58.271C12.0994 55.2941 6.71379 47.7926 5.56799 43.4115C3.77263 36.4546 6.92471 31.7098 14.1896 30.577Z" fill="url(#paint0_linear_61_510)"/>
<defs>
<linearGradient id="paint0_linear_61_510" x1="-6.55792" y1="37.2419" x2="160.556" y2="2.26844" gradientUnits="userSpaceOnUse">
<stop stop-color="#42307D"/>
<stop offset="1" stop-color="#7F56D9"/>
</linearGradient>
</defs>
</svg>
