<svg width="28" height="25" viewBox="0 0 28 25" fill="none" xmlns="http://www.w3.org/2000/svg">
<path d="M6.65475 1.2473C3.92593 2.41789 0.612375 6.38487 0.157573 9.0512C-1.14186 15.6845 5.74514 22.578 15.296 24.3989C19.909 25.2443 22.9627 24.594 25.5615 22.1227C27.4457 20.3018 27.7706 19.5865 27.7706 16.9852C27.7706 11.2623 23.8073 6.90513 18.0898 6.31984C11.5926 5.73454 8.86379 9.2463 11.5926 14.8391C13.9966 19.7816 16.7903 19.6515 15.4259 14.709C15.0361 13.2133 14.9062 11.7175 15.1011 11.3924C16.2706 9.50643 22.118 12.1077 23.2225 15.0342C24.1322 17.3103 24.0672 17.7005 22.5728 19.1963C18.7395 23.0332 5.87509 18.2208 4.12085 12.2378C3.47113 10.1568 5.29034 6.38487 7.75927 4.88912C9.5135 3.78357 10.8779 3.58847 15.6208 3.65351C18.7395 3.71854 21.4683 3.58847 21.6632 3.39338C23.9372 1.11724 11.0728 -0.703674 6.65475 1.2473Z" fill="url(#paint0_linear_61_556)"/>
<defs>
<linearGradient id="paint0_linear_61_556" x1="-0.000432471" y1="0.420383" x2="24.1184" y2="27.95" gradientUnits="userSpaceOnUse">
<stop stop-color="#42307D"/>
<stop offset="1" stop-color="#7F56D9"/>
</linearGradient>
</defs>
</svg>
