<svg width="111" height="79" viewBox="0 0 111 79" fill="none" xmlns="http://www.w3.org/2000/svg">
<path d="M69.2254 2.47143C59.0395 -1.59707 43.9311 -0.0961434 32.8221 6.0675C28.9049 8.28802 27.993 8.39218 24.3456 6.61113C19.6205 4.3538 9.47589 2.62809 5.23761 3.44933C1.28948 4.18748 -0.949146 8.43891 0.656723 12.1388C2.00359 15.2066 9.05973 23.1538 14.3545 27.681C16.7066 29.5976 17.6288 31.4526 17.9289 35.5265C20.5588 62.8716 44.9504 80.6886 70.3699 73.802C78.6807 71.5791 78.8258 71.5376 87.0843 74.9022C100.7 80.2646 109.581 79.2128 110.172 72.2152C110.504 67.8818 105.81 61.6127 99.334 57.8947C94.35 55.0051 93.9873 54.5596 94.7647 52.0608C99.3461 36.7783 94.0006 19.1583 82.0224 10.1875C79.9915 8.57142 77.4943 6.69645 76.5203 6.03353C75.5981 5.27728 72.3237 3.70335 69.2254 2.47143ZM82.1254 17.6927C86.8191 22.863 90.9527 35.4145 90.434 42.9408C90.1436 46.3204 89.0033 50.5712 87.656 52.9977C84.8578 58.0372 80.1529 62.9949 77.9975 63.1412C75.8939 63.1942 58.2994 52.6922 43.5545 42.5514C22.976 28.1947 23.1521 28.5367 27.8677 20.0441C34.2933 8.4717 47.8375 2.31712 60.0752 5.32713C67.4013 7.07509 77.7943 12.968 82.1254 17.6927ZM22.7903 18.2016C19.8884 23.4278 19.4946 23.6976 17.6295 22.6619C15.1115 21.2638 8.8946 14.8815 6.83274 11.7831C6.11782 10.6535 5.98322 9.35777 6.66716 9.00494C8.62575 7.89468 19.7445 9.18448 22.9152 10.9451L25.8995 12.6021L22.7903 18.2016ZM102.152 67.762C103.602 69.5442 104.286 71.389 103.737 71.9388C101.996 73.5361 96.4417 72.772 90.2142 69.9246L84.4011 67.4295L86.4634 65.0337C91.2305 59.7443 91.0854 59.7858 95.4685 62.2195C97.8 63.5141 100.794 66.0315 102.152 67.762ZM50.5586 53.8885C61.0966 60.8386 69.8627 66.805 69.987 67.2403C70.4118 68.4529 63.6451 69.2133 56.9303 68.7816C47.5524 68.0921 37.2526 62.251 31.3881 54.355C27.513 49.0287 23.4622 38.9651 24.4986 37.0986C24.7577 36.632 26.3948 37.419 28.1978 38.7863C29.9075 40.102 40.0206 46.9383 50.5586 53.8885Z" fill="url(#paint0_linear_61_554)"/>
<defs>
<linearGradient id="paint0_linear_61_554" x1="19.0062" y1="-25.9967" x2="21.224" y2="102.113" gradientUnits="userSpaceOnUse">
<stop stop-color="#42307D"/>
<stop offset="1" stop-color="#7F56D9"/>
</linearGradient>
</defs>
</svg>
