<svg width="99" height="82" viewBox="0 0 99 82" fill="none" xmlns="http://www.w3.org/2000/svg">
<path d="M27.4499 1.83577C24.4096 3.36717 20.8436 7.16461 19.6961 10.1816C17.8536 15.0371 16.989 23.1357 17.9897 27.3095C18.8842 31.0407 18.5657 31.3846 15.0377 31.1604C8.13838 30.8082 1.99457 33.8861 0.912774 38.2917C0.0938439 41.5643 1.48621 45.9787 4.53899 49.7943C7.3896 53.324 13.3083 57.3889 16.7983 58.2909C19.2826 58.8991 19.4367 59.2634 17.9178 61.5669C16.0627 64.4192 16.328 66.3618 19.1635 69.8283C22.9036 74.2817 27.9984 77.1396 35.9213 79.2527C47.0991 82.1236 57.6782 81.6605 61.2265 78.0679C62.4826 76.8974 65.5762 69.7357 66.4128 66.2582C66.4456 66.1166 67.7194 66.4131 69.2761 66.7755C71.3358 67.2849 72.7233 67.2197 74.6844 66.482C84.4119 62.7456 97.0816 42.8556 98.3128 29.3191C98.7324 24.9385 96.9156 17.0815 94.8762 14.4273C91.4671 9.96143 85.3664 8.4815 81.1661 11.0266C78.3608 12.7023 75.975 15.013 73.3086 18.6617C72.1435 20.2116 71.0441 21.4783 70.7914 21.5389C70.5387 21.5995 69.639 20.0764 68.7116 18.1588C65.6993 11.7253 60.6551 8.52081 55.3504 9.52507C52.4921 10.1435 52.3354 10.0473 50.2808 7.32981C48.1328 4.50103 43.4802 1.53704 39.8486 0.602056C38.1503 0.206705 30.6798 0.258936 29.7144 0.691014C29.54 0.799697 28.5114 1.24692 27.4499 1.83577ZM36.4569 5.96271C40.2351 6.39443 43.6695 8.17918 46.1183 10.869L48.2386 13.3032L46.6286 16.8992C44.5991 21.532 44.129 24.5872 44.7151 29.2617C45.2028 32.6892 45.041 33.1292 43.1935 35.1772C39.9459 38.6308 38.452 48.2846 40.0111 55.0665C40.3143 56.3313 40.3977 57.515 40.2536 57.7502C40.1247 58.0486 38.0625 57.8074 35.6718 57.3105C33.281 56.8137 29.7378 56.5263 27.7514 56.6012C21.2868 56.9473 14.0868 53.3903 9.11589 47.4264C6.49777 44.3091 5.53246 41.3973 6.41959 39.2453C7.3699 37.0781 12.6746 36.0738 17.9287 37.0879C22.2856 37.9828 24.7623 37.7234 25.2476 36.4033C25.4094 35.9633 24.9647 32.9936 24.2546 29.7532C22.2357 19.9384 23.7624 11.8149 28.3343 8.31129C31.0814 6.11455 32.8985 5.61204 36.4569 5.96271ZM58.206 14.1905C61.2564 14.9304 63.8694 18.584 65.656 24.6426C68.2688 33.3118 70.0025 33.2975 75.8711 24.3336C80.668 17.0311 83.8448 14.3969 87.1176 14.9498C89.8242 15.3709 91.5502 17.8328 92.7783 22.9553C93.9154 27.6983 93.0079 33.6671 90.0913 40.452C86.2875 49.389 76.944 60.8578 72.5844 61.903C70.5626 62.3877 67.0675 62.0219 66.9007 61.3262C66.9184 61.1214 66.8426 59.1333 66.8478 56.9251C66.8808 51.7678 65.0463 44.1157 62.8907 40.4194C60.3787 36.0728 56.7017 33.2762 52.2032 32.3484C48.4756 31.5702 48.3189 31.474 48.228 29.4227C48.0664 24.847 49.7548 19.6272 52.4615 16.7046C55.3755 13.5316 55.5019 13.5013 58.206 14.1905ZM54.7075 39.1712C57.447 41.1226 59.6177 44.8822 60.8155 49.8782C62.5262 57.2925 61.3127 68.9522 58.0726 74.9452L56.5006 77.8634L51.5068 77.6562C41.456 77.2571 31.0565 73.7315 25.1935 68.7839C22.0042 66.071 21.6606 64.0803 24.1322 62.6852C26.8415 61.1663 29.8666 61.2436 36.7381 62.8731C43.2482 64.3886 44.9819 64.3742 45.8008 62.7735C46.0586 62.1767 45.8691 58.8783 45.4143 55.3092C44.4466 47.6499 44.7096 43.1731 46.2994 40.0501C47.28 38.0094 47.74 37.6985 49.7744 37.5451C51.3994 37.3561 52.9385 37.9234 54.7075 39.1712Z" fill="url(#paint0_linear_61_565)"/>
<defs>
<linearGradient id="paint0_linear_61_565" x1="-7.00164" y1="9.47791" x2="96.1019" y2="85.0775" gradientUnits="userSpaceOnUse">
<stop stop-color="#42307D"/>
<stop offset="1" stop-color="#7F56D9"/>
</linearGradient>
</defs>
</svg>
