<svg width="176" height="85" viewBox="0 0 176 85" fill="none" xmlns="http://www.w3.org/2000/svg">
<path d="M66.2558 0.389583C64.8948 0.508436 62.5625 1.37648 61.0515 2.27214C58.7434 3.6348 58.0766 4.4971 56.5579 8.02606C55.0236 11.4105 54.8144 12.7202 55.0292 16.0606L55.3448 20.0627L50.381 20.9246C44.0491 22.1108 36.0869 22.2753 27.9317 21.4662C22.6446 20.9593 20.0343 20.3367 13.251 17.8866C8.74395 16.2126 4.42662 14.4009 3.64186 13.9013C2.87975 13.3408 1.76079 12.9945 1.16032 13.1184C0.164755 13.3729 0.119469 13.4949 0.707463 14.3376C2.39492 16.6987 6.18831 18.8014 13.6415 21.5003C20.2803 23.9661 22.6853 24.5819 28.8321 25.2C37.0255 26.0926 44.8051 25.8603 52.209 24.5866C57.2946 23.77 57.2946 23.77 58.3262 25.4712C60.0378 28.3269 65.5374 34.0463 69.5464 37.0616C76.8177 42.676 84.7668 45.9059 100.855 49.8004L104.037 50.5657L104.686 54.4144C106.472 64.7207 117.381 76.4035 129.379 80.86C137.967 84.0497 150.351 85.042 163.048 83.5142C170.149 82.6829 174.671 81.5181 175.078 80.4208C175.441 79.4454 174.026 79.3361 164.984 79.7935C148.757 80.5648 141.484 79.806 132.348 76.4127C122.116 72.6123 115.087 66.5328 111.222 58.0907C108.008 51.0695 108.205 50.7263 115.156 50.6719C132.184 50.5447 145.355 42.3255 143.2 33.2001C141.837 27.3522 136.179 24.4873 127.457 25.2023C121.542 25.6413 114.903 28.5867 110.822 32.4822C108.486 34.6669 107.313 36.5203 105.597 40.3925L103.33 45.3777L98.939 44.51C96.5496 44.0387 91.4421 42.4885 87.5441 41.0407C76.8246 37.0593 69.2277 31.9483 64.2278 25.4432L62.0062 22.4675L66.001 20.4826C70.5805 18.2292 74.9344 14.1578 76.0666 11.1096C77.0629 8.42721 76.314 4.47225 74.5375 2.91059C72.5627 1.13651 69.0005 0.090913 66.2558 0.389583ZM72.3919 7.94102C72.3927 10.9244 68.7228 14.8337 63.9832 16.9582C60.77 18.3316 60.2063 17.9834 59.7861 14.6362C59.3347 10.9999 61.7638 6.69908 64.9316 5.44762C68.411 4.10376 72.3543 5.42963 72.3919 7.94102ZM138.226 33.1564C138.784 34.2656 139.047 35.6118 138.843 36.1605C137.507 39.7573 129.914 44.152 123.255 45.2861C119.614 45.9456 110.846 46.227 109.628 45.7745C109.263 45.6388 109.608 43.9633 110.332 42.0124C112.755 35.4894 119.89 30.6472 128.307 29.8191C133.835 29.3053 136.986 30.3371 138.226 33.1564Z" fill="url(#paint0_linear_61_553)"/>
<defs>
<linearGradient id="paint0_linear_61_553" x1="12.9979" y1="-20.5805" x2="5.47765" y2="83.9272" gradientUnits="userSpaceOnUse">
<stop stop-color="#42307D"/>
<stop offset="1" stop-color="#7F56D9"/>
</linearGradient>
</defs>
</svg>
