<svg width="103" height="95" viewBox="0 0 103 95" fill="none" xmlns="http://www.w3.org/2000/svg">
<path d="M96.7508 9.78894C95.1365 9.76322 92.5212 10.5905 89.7239 12.1216C87.3236 13.3947 85.1857 14.4652 85.0513 14.5206C84.9169 14.5761 84.0747 12.3771 83.2009 9.71958C81.447 4.31282 79.3937 1.9218 75.7842 1.02147C73.1598 0.37502 68.8525 2.05744 66.7175 4.50997C61.8988 10.1444 62.6093 22.489 68.3403 32.134C72.1873 38.5007 72.2538 38.1274 63.611 48.4516L56.2002 57.2615L56.0717 51.3729C55.843 41.3445 50.3983 31.1728 45.2439 31.2555C43.2201 31.3044 41.3588 33.0467 40.8808 35.4759C40.2873 38.2357 40.8582 45.1993 41.9091 47.7524C42.9726 50.4888 47.1137 57.1115 49.578 60.1189L51.2329 62.0769L47.8155 65.31C40.0287 72.6717 24.3771 82.2402 9.17825 89.0127C1.30371 92.4182 -0.0214125 93.2477 0.860674 94.0156C2.77186 95.6793 20.4894 88.6852 32.8867 81.3708C40.771 76.7667 50.3807 69.7848 52.7719 67.0379C54.608 64.9287 56.1306 64.9609 60.5682 67.1857C68.9598 71.3006 80.7421 71.1245 87.5322 66.6889C91.4159 64.2066 91.6809 59.3503 87.9594 57.4902C84.2316 55.5384 75.4693 55.4118 65.9587 57.1343L62.6825 57.7312L65.836 54.0098C67.5377 51.956 70.416 48.2538 72.2269 45.7777C75.4216 41.3162 75.556 41.2608 79.43 39.9771C85.5587 37.9835 90.4987 34.7826 95.4897 29.643C100.993 23.9147 102.655 20.6197 102.426 15.9361C102.227 11.711 100.487 9.8511 96.7508 9.78894ZM98.5202 16.7612C98.5953 20.5341 93.857 26.6697 87.7025 30.9689C81.9386 34.9184 76.6479 37.0379 75.9541 35.658C75.6838 35.0778 74.4257 32.8618 73.2167 30.6883C69.8233 24.889 68.7282 21.694 68.3388 16.699C67.9178 11.2454 69.1881 7.60911 72.1751 6.15693C76.3591 4.02235 78.9039 7.53099 79.3433 15.9321C79.8254 24.2841 81.4474 25.0926 86.3215 19.5925C88.2002 17.4343 92.2183 14.8966 95.0233 14.1482C97.0093 13.5491 98.5095 14.5964 98.5202 16.7612ZM84.3833 63.7752C82.1425 65.3597 70.5752 65.9815 66.0235 64.7782C63.9128 64.2342 62.2117 63.6156 62.1928 63.3404C62.0856 61.7814 76.8297 59.7863 82.4139 60.5951C86.2305 61.1584 86.8011 62.0862 84.3833 63.7752ZM49.9817 42.5362C50.805 44.4601 51.6011 47.9984 51.7588 50.2912L52.0915 54.4608L50.4996 53.4199C47.2604 51.2036 44.3639 43.2502 45.2534 38.7651L45.695 36.4766L47.0671 37.6711C47.8512 38.3536 49.152 40.5207 49.9817 42.5362Z" fill="url(#paint0_linear_61_549)"/>
<defs>
<linearGradient id="paint0_linear_61_549" x1="78.1113" y1="-8.57977" x2="122.08" y2="85.5593" gradientUnits="userSpaceOnUse">
<stop stop-color="#42307D"/>
<stop offset="1" stop-color="#7F56D9"/>
</linearGradient>
</defs>
</svg>
