<svg width="104" height="59" viewBox="0 0 104 59" fill="none" xmlns="http://www.w3.org/2000/svg">
<path d="M102.242 38.4404C101.402 38.7923 97.9457 41.65 94.4953 44.8576C91.0448 48.0651 87.339 51.1683 86.2246 51.7059L84.1756 52.7057L79.4536 41.4406C74.7819 30.2954 74.7066 30.1156 72.7899 29.5805C68.8464 28.4155 65.8742 30.5772 55.4114 42.2896C51.6974 46.3825 48.4171 49.6596 48.1619 49.5553C47.9066 49.4509 47.7366 41.1388 47.8537 31.1564C47.9457 21.1142 47.9095 12.1119 47.7475 11.0526C47.1709 7.49007 43.2607 5.39531 39.902 6.80317C37.5629 7.78364 34.2339 11.7857 22.8274 27.1343C16.4805 35.7124 10.3776 43.695 9.19907 44.7526C5.07499 48.8766 4.6101 46.2535 6.56306 28.034C8.92826 5.41486 8.93149 -1.13823 6.45859 0.53237C5.29955 1.3 4.57053 4.77577 2.37722 20.0667C-0.844545 41.9882 -0.320313 49.7996 4.47567 52.1571C8.1152 53.9426 12.2044 49.9037 26.1157 31.11C40.2264 11.9509 41.4844 10.5782 42.3635 12.6754C42.6146 13.2746 42.677 20.1524 42.501 27.9756C42.0607 50.1401 42.4938 54.5378 45.4079 56.2751C47.6762 57.6491 50.3988 55.733 57.9913 47.2667C67.3063 37.0218 69.793 34.7114 70.8993 35.1635C71.4949 35.407 72.6252 38.1034 74.431 43.7573C78.8018 57.2126 81.2725 59.9107 87.0902 57.4721C90.9887 55.838 93.5103 53.4425 99.4389 45.8851C104.315 39.6849 105.18 37.2085 102.242 38.4404Z" fill="url(#paint0_linear_61_544)"/>
<defs>
<linearGradient id="paint0_linear_61_544" x1="75.8114" y1="-28.5809" x2="37.1736" y2="92.994" gradientUnits="userSpaceOnUse">
<stop stop-color="#42307D"/>
<stop offset="1" stop-color="#7F56D9"/>
</linearGradient>
</defs>
</svg>
