<svg width="86" height="141" viewBox="0 0 86 141" fill="none" xmlns="http://www.w3.org/2000/svg">
<path d="M1.90729 10.9879C2.32888 12.0414 3.55536 16.259 4.56959 20.3771C7.43196 31.9701 11.8108 39.6555 16.1136 40.7163C17.8277 41.1812 18.4611 41.0201 20.3097 39.7564C22.4604 38.3159 25.2244 33.9578 25.6288 31.4002C25.7893 30.719 26.2168 30.0634 26.6026 30.0053C27.6413 29.9148 37.7919 37.0602 41.3108 40.3415C44.1349 42.9389 46.6442 46.5035 46.9053 48.2382C47.147 49.8445 43.9231 54.206 39.8662 57.8388C30.9937 65.7442 27.6993 70.5106 27.6173 75.6477C27.5846 83.7342 38.5838 89.9635 61.8148 94.878C74.112 97.4955 76.7331 98.7436 75.2066 101.273C74.8434 101.919 71.6704 104.433 68.1566 106.867C57.2582 114.42 54.1789 118.432 55.02 124.021C55.8707 129.675 63.3297 135.977 72.5947 138.985C78.319 140.752 84.3388 141.423 85.2131 140.24C86.0327 139.132 85.0614 138.358 82.2347 137.929C73.6712 136.524 62.7748 130.542 60.664 126.129C58.6175 121.706 59.2635 120.755 70.747 112.719C78.7809 107.108 81.0473 105.125 81.9438 103.216C84.8873 96.9911 80.7829 92.878 68.9648 90.3856C52.9179 86.8868 46.9557 85.2872 42.3696 83.2178C37.433 81.0039 34.3613 78.5095 34.052 76.4535C33.6749 73.9478 36.3524 70.3255 43.415 63.9409C52.3774 55.7592 53.8943 53.1656 53.0339 47.4475C52.5989 44.5563 51.9327 42.7512 50.3628 40.6221C47.8728 37.1859 39.5552 30.4217 34.4865 27.7678L30.8394 25.8199L34.6622 24.1277C39.1731 22.2006 40.9056 20.1659 41.8144 16.1527C44.2803 5.00632 30.5154 -2.12092 11.9945 0.665885C4.66331 1.76899 1.6572 3.20687 1.07926 5.92195C0.597585 7.96552 0.7489 8.53408 1.90729 10.9879ZM11.4817 5.99929C27.3113 3.68315 39.9343 9.33966 35.3158 16.6706C34.0334 18.6375 33.8502 18.7308 27.3647 19.7724C23.7088 20.3882 20.3744 20.9556 19.9339 21.0876C18.86 21.3806 19.2786 23.2887 20.7712 24.9038C21.8552 25.9891 22.0161 26.6219 21.6824 28.7746C21.3873 31.1843 18.662 35.7994 17.5045 35.9735C16.7971 36.08 13.7409 31.9406 12.5342 29.1655C11.9357 27.8101 10.3616 22.5936 9.07371 17.5312C7.73121 12.5426 6.50472 8.32505 6.35677 8.2159C5.32111 7.45189 7.17303 6.64761 11.4817 5.99929Z" fill="url(#paint0_linear_61_548)"/>
<defs>
<linearGradient id="paint0_linear_61_548" x1="22.2067" y1="150.053" x2="125.533" y2="83.1856" gradientUnits="userSpaceOnUse">
<stop stop-color="#42307D"/>
<stop offset="1" stop-color="#7F56D9"/>
</linearGradient>
</defs>
</svg>
